<svg width="1512" height="982" viewBox="0 0 1512 982" fill="none" xmlns="http://www.w3.org/2000/svg">
<g clip-path="url(#clip0_450_6228)">
<rect width="1512" height="982" fill="white"/>
<rect x="243.5" y="206.5" width="1025" height="697" rx="24.5" fill="white" stroke="#D3D3D3"/>
<path d="M550.812 363.5V365.54C550.812 371.84 546.912 378.2 537.972 380.72L541.692 386.96C552.312 383.9 557.232 375.2 557.232 365.54V363.5H550.812ZM552.312 363.5V365.54C552.312 374.66 557.412 382.76 568.092 385.58L571.692 379.4C562.752 377.06 558.792 371.24 558.792 365.54V363.5H552.312ZM539.892 359.54V365.78H569.712V359.54H539.892ZM550.812 353.6V362H558.792V353.6H550.812ZM568.152 368.6V375.02H578.772V368.6H568.152ZM576.852 353.78V387.32H584.832V353.78H576.852ZM565.992 388.28C554.232 388.28 546.972 392.12 546.972 398.78C546.972 405.44 554.232 409.34 565.992 409.34C577.752 409.34 585.012 405.44 585.012 398.78C585.012 392.12 577.752 388.28 565.992 388.28ZM565.992 394.34C573.312 394.34 577.092 395.78 577.092 398.78C577.092 401.78 573.312 403.28 565.992 403.28C558.732 403.28 554.952 401.78 554.952 398.78C554.952 395.78 558.732 394.34 565.992 394.34ZM634.807 360.98V367.52H644.407V360.98H634.807ZM634.807 373.04V379.58H644.407V373.04H634.807ZM629.287 353.78V386.54H637.267V353.78H629.287ZM600.187 388.82V395.18H629.287V409.34H637.267V388.82H600.187ZM609.007 356.78C600.427 356.78 593.887 362.48 593.887 370.4C593.887 378.32 600.427 383.96 609.007 383.96C617.587 383.96 624.127 378.32 624.127 370.4C624.127 362.48 617.587 356.78 609.007 356.78ZM609.007 363.56C613.207 363.56 616.327 366.02 616.327 370.4C616.327 374.78 613.207 377.3 609.007 377.3C604.807 377.3 601.687 374.78 601.687 370.4C601.687 366.02 604.807 363.56 609.007 363.56ZM675.792 362.54V368.78C675.792 377.9 671.292 388.28 662.112 392.6L666.612 398.9C676.812 394.1 682.092 381.32 682.092 368.78V362.54H675.792ZM677.472 362.54V368.78C677.472 380.6 682.632 392.78 692.832 397.52L697.212 391.22C688.092 387.02 683.772 377.18 683.772 368.78V362.54H677.472ZM664.272 359.12V365.66H694.752V359.12H664.272ZM698.832 353.78V409.34H706.872V353.78H698.832ZM705.072 374.96V381.56H714.912V374.96H705.072ZM739.627 357.26V361.22C739.627 369.74 732.727 376.94 719.107 380.48L722.107 386.72C738.727 382.34 747.967 372.2 747.967 357.26H739.627ZM722.227 357.26V363.62H744.787V357.26H722.227ZM727.147 389.12V395.36H757.027V409.16H765.007V389.12H727.147ZM757.027 353.78V386.78H765.007V353.78H757.027ZM745.327 362.72V369.02H758.347V362.72H745.327ZM744.787 374.54V380.9H757.867V374.54H744.787ZM801.793 359.96V364.64C801.793 371.66 797.773 378.86 788.533 381.86L792.613 388.1C803.293 384.62 808.393 375.14 808.393 364.64V359.96H801.793ZM803.413 359.96V364.64C803.413 374.72 808.453 383.78 818.893 387.08L822.973 380.9C813.913 378.02 809.953 371.24 809.953 364.64V359.96H803.413ZM790.633 357.74V364.04H820.873V357.74H790.633ZM826.453 353.84V393.92H834.493V353.84H826.453ZM797.473 402.02V408.38H835.873V402.02H797.473ZM797.473 390.32V405.2H805.453V390.32H797.473ZM879.248 353.78V393.92H887.228V353.78H879.248ZM884.948 368.9V375.44H894.608V368.9H884.948ZM845.588 378.44V384.86H850.208C862.568 384.86 868.928 384.56 875.708 383.06L874.928 376.76C868.268 378.2 862.268 378.44 850.208 378.44H845.588ZM845.588 358.16V381.86H853.508V364.58H870.428V358.16H845.588ZM851.408 402.02V408.38H889.208V402.02H851.408ZM851.408 389.72V405.26H859.388V389.72H851.408ZM934.393 381.68V391.46H942.373V381.68H934.393ZM913.273 379.04V385.34H963.493V379.04H913.273ZM938.293 389.3C926.233 389.3 918.973 392.9 918.973 399.32C918.973 405.74 926.233 409.34 938.293 409.34C950.293 409.34 957.553 405.74 957.553 399.32C957.553 392.9 950.293 389.3 938.293 389.3ZM938.293 395.3C945.733 395.3 949.513 396.56 949.513 399.32C949.513 402.02 945.733 403.34 938.293 403.34C930.853 403.34 927.073 402.02 927.073 399.32C927.073 396.56 930.853 395.3 938.293 395.3ZM932.893 359V360.38C932.893 364.7 927.553 369.62 915.373 370.64L918.133 376.88C932.473 375.56 939.973 368.72 939.973 360.38V359H932.893ZM936.793 359V360.38C936.793 368.78 944.353 375.56 958.633 376.88L961.393 370.64C949.153 369.62 943.873 364.76 943.873 360.38V359H936.793ZM917.833 356.06V362.36H958.993V356.06H917.833Z" fill="#0028FF"/>
<path d="M593.149 625.44V628.44C593.149 633.6 589.549 638.28 584.109 640.16L585.789 642.8C591.909 640.6 595.869 635.08 595.869 628.44V625.44H593.149ZM593.749 625.44V628.4C593.749 634.6 597.629 639.92 603.669 641.96L605.269 639.32C599.949 637.52 596.469 633.2 596.469 628.4V625.44H593.749ZM585.069 624.48V627.16H604.429V624.48H585.069ZM609.029 621.96V643.24H612.349V621.96H609.029ZM611.429 630.96V633.72H617.709V630.96H611.429ZM589.629 644.88V657.64H612.349V644.88H589.629ZM609.109 647.52V654.96H592.869V647.52H609.109ZM630.625 625.08V631.56C630.625 638.4 626.265 645.32 620.905 647.88L622.945 650.6C628.865 647.6 633.345 639.88 633.345 631.56V625.08H630.625ZM631.185 625.08V631.56C631.185 639.6 635.705 647.04 641.585 649.92L643.585 647.28C638.225 644.8 633.905 638.16 633.905 631.56V625.08H631.185ZM647.345 621.92V658.16H650.665V621.92H647.345ZM659.382 625.2V641.96H675.982V625.2H659.382ZM672.742 627.88V639.28H662.622V627.88H672.742ZM682.622 621.92V648.44H685.942V621.92H682.622ZM684.902 632.96V635.72H691.302V632.96H684.902ZM663.422 654.6V657.32H687.582V654.6H663.422ZM663.422 645.92V655.76H666.742V645.92H663.422ZM730.121 621.96V658.12H733.441V621.96H730.121ZM719.521 625.84V626.4C719.521 636 714.681 643.68 704.241 648.72L706.001 651.4C718.081 645.48 722.801 636.32 722.801 625.84H719.521ZM705.881 625.84V628.56H720.961V625.84H705.881ZM765.038 621.92V658.16H768.398V621.92H765.038ZM767.598 636.2V639H774.318V636.2H767.598ZM742.118 646.36V649.16H744.958C751.758 649.16 756.518 648.96 762.078 647.92L761.718 645.12C756.318 646.12 751.638 646.36 744.958 646.36H742.118ZM742.118 625.44V647.6H745.398V628.16H758.918V625.44H742.118ZM803.795 621.92V658.16H807.115V621.92H803.795ZM796.675 630.2V632.92H804.675V630.2H796.675ZM778.715 646.96V649.76H781.395C787.115 649.76 791.755 649.56 797.435 648.68L797.115 645.92C791.595 646.8 786.995 646.96 781.395 646.96H778.715ZM778.635 625.2V627.96H791.155V635.44H778.715V647.6H781.995V638.16H794.435V625.2H778.635ZM796.435 640.08V642.8H804.435V640.08H796.435ZM828.671 625.52V627.04C828.671 631.8 822.471 635.96 816.111 636.88L817.391 639.52C824.671 638.28 831.551 633.52 831.551 627.04V625.52H828.671ZM829.511 625.52V627.04C829.511 633.52 836.351 638.28 843.671 639.52L844.911 636.88C838.591 635.96 832.351 631.8 832.351 627.04V625.52H829.511ZM828.791 644.32V658.12H832.071V644.32H828.791ZM814.191 642.56V645.28H846.871V642.56H814.191ZM817.231 624.2V626.88H843.711V624.2H817.231ZM865.228 634.88V637.64H872.148V634.88H865.228ZM858.468 625.36V632.24C858.468 638.44 855.508 644.92 850.548 647.84L852.628 650.36C857.908 647.12 861.068 639.8 861.068 632.24V625.36H858.468ZM859.108 625.36V632.12C859.108 639.16 862.028 646.36 867.228 649.56L869.148 646.96C864.388 644.08 861.668 637.92 861.668 632.12V625.36H859.108ZM878.508 621.96V658.12H881.708V621.96H878.508ZM871.188 622.72V656.32H874.308V622.72H871.188ZM895.785 640.56V651.4H899.065V640.56H895.785ZM909.145 640.56V651.4H912.465V640.56H909.145ZM887.785 650.76V653.52H920.545V650.76H887.785ZM904.105 624.24C896.425 624.24 890.945 627.88 890.945 633.56C890.945 639.2 896.425 642.84 904.105 642.84C911.745 642.84 917.225 639.2 917.225 633.56C917.225 627.88 911.745 624.24 904.105 624.24ZM904.105 626.88C909.905 626.88 914.025 629.52 914.025 633.56C914.025 637.56 909.905 640.2 904.105 640.2C898.305 640.2 894.145 637.56 894.145 633.56C894.145 629.52 898.305 626.88 904.105 626.88ZM926.142 655.32C925.502 655.32 924.982 655.12 924.582 654.72C924.182 654.293 923.982 653.773 923.982 653.16C923.982 652.547 924.182 652.04 924.582 651.64C924.982 651.213 925.502 651 926.142 651C926.809 651 927.329 651.213 927.702 651.64C928.102 652.04 928.302 652.547 928.302 653.16C928.302 653.773 928.102 654.293 927.702 654.72C927.329 655.12 926.809 655.32 926.142 655.32ZM405.169 705.64V708.56C405.169 713.68 401.449 718.48 396.049 720.4L397.769 723.04C403.809 720.8 407.889 715.16 407.889 708.56V705.64H405.169ZM405.809 705.64V708.56C405.809 714.6 409.689 720.04 415.569 722.2L417.249 719.56C412.009 717.72 408.489 713.2 408.489 708.56V705.64H405.809ZM415.289 711.36V714.12H423.329V711.36H415.289ZM397.089 704.44V707.12H416.409V704.44H397.089ZM401.569 725.56V728.28H422.369V738.12H425.689V725.56H401.569ZM422.369 701.96V723.6H425.689V701.96H422.369ZM448.166 704.4V705.84C448.166 712.56 442.566 717.88 433.286 720.44L434.606 723.04C445.126 720.16 451.646 713.6 451.646 704.4H448.166ZM435.126 704.4V707.08H450.206V704.4H435.126ZM438.366 725.16V727.84H459.166V738.04H462.486V725.16H438.366ZM459.166 701.96V723.52H462.486V701.96H459.166ZM450.166 708.4V711.12H459.846V708.4H450.166ZM449.806 716.08V718.8H459.606V716.08H449.806ZM494.944 710V712.76H505.864V710H494.944ZM494.944 721.44V724.2H505.864V721.44H494.944ZM488.304 704.72C483.024 704.72 479.304 709.64 479.304 717.32C479.304 725.04 483.024 729.96 488.304 729.96C493.544 729.96 497.304 725.04 497.304 717.32C497.304 709.64 493.544 704.72 488.304 704.72ZM488.304 707.72C491.784 707.72 494.184 711.48 494.184 717.32C494.184 723.2 491.784 727.04 488.304 727.04C484.824 727.04 482.424 723.2 482.424 717.32C482.424 711.48 484.824 707.72 488.304 707.72ZM505.144 701.92V738.16H508.424V701.92H505.144ZM515.421 723.36V726.08H548.221V723.36H515.421ZM530.061 724.64V738.12H533.341V724.64H530.061ZM519.541 703.4V719.04H544.021V703.4H540.741V708.36H522.861V703.4H519.541ZM522.861 711.04H540.741V716.36H522.861V711.04ZM561.378 720.2V728.84H564.698V720.2H561.378ZM563.018 704.28C557.458 704.28 553.458 707.76 553.458 712.8C553.458 717.84 557.458 721.32 563.018 721.32C568.578 721.32 572.578 717.84 572.578 712.8C572.578 707.76 568.578 704.28 563.018 704.28ZM563.018 707.12C566.698 707.12 569.338 709.44 569.338 712.8C569.338 716.16 566.698 718.48 563.018 718.48C559.338 718.48 556.698 716.16 556.698 712.8C556.698 709.44 559.338 707.12 563.018 707.12ZM576.698 701.96V738.12H580.018V701.96H576.698ZM579.058 716.84V719.64H585.738V716.84H579.058ZM552.298 730.32C558.618 730.32 567.058 730.24 574.698 728.96L574.418 726.48C567.058 727.48 558.338 727.52 551.818 727.56L552.298 730.32ZM607.156 708.12V709.68C607.156 714.56 603.556 718.96 598.236 720.68L599.836 723.28C605.876 721.24 609.876 715.96 609.876 709.68V708.12H607.156ZM607.756 708.12V709.68C607.756 715.6 611.916 720.48 617.996 722.36L619.516 719.76C614.196 718.2 610.476 714.16 610.476 709.68V708.12H607.756ZM599.156 706.32V709H618.436V706.32H599.156ZM607.156 701.8V707.28H610.476V701.8H607.156ZM617.356 712.24V715H625.516V712.24H617.356ZM624.556 701.96V723.84H627.876V701.96H624.556ZM615.996 724.8C608.476 724.8 603.916 727.24 603.916 731.44C603.916 735.6 608.476 738.04 615.996 738.04C623.476 738.04 628.036 735.6 628.036 731.44C628.036 727.24 623.476 724.8 615.996 724.8ZM615.996 727.4C621.436 727.4 624.756 728.88 624.756 731.44C624.756 733.96 621.436 735.44 615.996 735.44C610.516 735.44 607.236 733.96 607.236 731.44C607.236 728.88 610.516 727.4 615.996 727.4ZM661.993 707.44V710.24H668.273V707.44H661.993ZM661.993 715.2V717.96H668.273V715.2H661.993ZM659.673 701.96V723.44H662.993V701.96H659.673ZM639.513 725.16V727.84H659.673V738.12H662.993V725.16H639.513ZM645.033 704.08C639.593 704.08 635.593 707.6 635.593 712.68C635.593 717.72 639.593 721.2 645.033 721.2C650.473 721.2 654.473 717.72 654.473 712.68C654.473 707.6 650.473 704.08 645.033 704.08ZM645.033 706.92C648.633 706.92 651.233 709.24 651.233 712.68C651.233 716.08 648.633 718.44 645.033 718.44C641.433 718.44 638.833 716.08 638.833 712.68C638.833 709.24 641.433 706.92 645.033 706.92ZM705.292 701.92V738.12H708.652V701.92H705.292ZM707.732 716.6V719.36H714.412V716.6H707.732ZM696.052 705.84V706.36C696.052 715.92 691.052 723.64 681.052 728.72L682.892 731.28C694.572 725.4 699.292 716.12 699.292 705.84H696.052ZM682.732 705.84V708.56H697.772V705.84H682.732ZM736.928 711V713.76H744.968V711H736.928ZM744.048 701.96V723.12H747.368V701.96H744.048ZM723.928 724.88V737.64H747.368V724.88H723.928ZM744.128 727.52V734.96H727.168V727.52H744.128ZM726.848 705.4V708.32C726.848 713.44 723.128 718.24 717.728 720.16L719.448 722.8C725.488 720.56 729.568 714.92 729.568 708.32V705.4H726.848ZM727.488 705.4V708.28C727.488 714.36 731.368 719.84 737.248 721.96L738.928 719.32C733.688 717.48 730.168 712.96 730.168 708.28V705.4H727.488ZM718.768 704.28V706.96H738.088V704.28H718.768ZM770.765 702.56C762.765 702.56 758.045 704.8 758.045 708.84C758.045 712.88 762.765 715.12 770.765 715.12C778.725 715.12 783.485 712.88 783.485 708.84C783.485 704.8 778.725 702.56 770.765 702.56ZM770.765 705.08C776.645 705.08 780.045 706.44 780.045 708.84C780.045 711.24 776.645 712.6 770.765 712.6C764.845 712.6 761.445 711.24 761.445 708.84C761.445 706.44 764.845 705.08 770.765 705.08ZM754.405 717.52V720.2H787.085V717.52H754.405ZM758.365 723.28V725.84H779.645V729.04H758.445V735.84H761.725V731.44H782.925V723.28H758.365ZM758.445 735.12V737.72H784.005V735.12H758.445ZM809.784 718.92V723.56H813.104V718.92H809.784ZM825.024 702V726.24H828.344V702H825.024ZM826.944 712.92V715.68H833.624V712.92H826.944ZM800.544 725.2C806.864 725.16 815.424 725.12 823.144 723.76L822.864 721.4C815.384 722.48 806.584 722.48 800.104 722.48L800.544 725.2ZM804.584 728.04V730.68H825.024V738.12H828.344V728.04H804.584ZM801.024 705.24V707.72H821.784V705.24H801.024ZM811.424 709.12C806.304 709.12 802.984 711.16 802.984 714.48C802.984 717.8 806.304 719.84 811.424 719.84C816.504 719.84 819.824 717.8 819.824 714.48C819.824 711.16 816.504 709.12 811.424 709.12ZM811.424 711.4C814.624 711.4 816.704 712.56 816.704 714.48C816.704 716.32 814.624 717.52 811.424 717.52C808.184 717.52 806.104 716.32 806.104 714.48C806.104 712.56 808.184 711.4 811.424 711.4ZM809.784 701.68V706.44H813.104V701.68H809.784ZM863.421 702V728.4H866.781V702H863.421ZM843.541 734.6V737.32H867.861V734.6H843.541ZM843.541 725.68V735.52H846.821V725.68H843.541ZM847.381 704.48C841.981 704.48 837.941 708.16 837.941 713.4C837.941 718.6 841.981 722.32 847.381 722.32C852.781 722.32 856.781 718.6 856.781 713.4C856.781 708.16 852.781 704.48 847.381 704.48ZM847.381 707.36C850.901 707.36 853.581 709.84 853.581 713.4C853.581 716.92 850.901 719.4 847.381 719.4C843.861 719.4 841.181 716.92 841.181 713.4C841.181 709.84 843.861 707.36 847.381 707.36ZM898.658 701.84V721.8H901.978V701.84H898.658ZM900.578 710.52V713.32H907.338V710.52H900.578ZM879.018 723.64V726.16H898.738V729.32H879.098V736.12H882.378V731.72H901.978V723.64H879.018ZM879.098 735.16V737.72H903.298V735.16H879.098ZM874.018 705.2V707.8H895.378V705.2H874.018ZM884.698 709.4C879.418 709.4 876.018 711.68 876.018 715.36C876.018 719 879.418 721.24 884.698 721.24C889.898 721.24 893.338 719 893.338 715.36C893.338 711.68 889.898 709.4 884.698 709.4ZM884.698 711.84C888.018 711.84 890.178 713.2 890.178 715.36C890.178 717.48 888.018 718.84 884.698 718.84C881.338 718.84 879.178 717.48 879.178 715.36C879.178 713.2 881.338 711.84 884.698 711.84ZM883.018 701.56V707H886.338V701.56H883.018ZM934.436 703.24V705.24C934.436 710.4 928.076 714.72 921.476 715.72L922.796 718.4C930.316 717.12 937.356 712.16 937.356 705.24V703.24H934.436ZM935.036 703.24V705.24C935.036 712.08 942.116 717.12 949.556 718.4L950.876 715.72C944.356 714.72 937.916 710.28 937.916 705.24V703.24H935.036ZM934.436 724.36V738.12H937.716V724.36H934.436ZM919.836 722.32V725.08H952.516V722.32H919.836ZM974.734 724.2V726.16C974.734 729.64 972.014 733.52 967.454 735.16L969.134 737.64C974.334 735.64 977.294 730.88 977.294 726.16V724.2H974.734ZM975.454 724.2V726.16C975.454 730.96 977.814 735.92 983.014 737.96L984.414 735.44C980.094 733.68 977.934 729.8 977.934 726.16V724.2H975.454ZM988.094 724.2V726.16C988.094 729.28 985.894 733.48 981.614 735.44L983.014 737.96C988.174 735.76 990.574 730.4 990.574 726.16V724.2H988.094ZM988.774 724.2V726.16C988.774 731.16 991.654 735.72 996.934 737.64L998.614 735.16C994.014 733.6 991.334 729.88 991.334 726.16V724.2H988.774ZM992.014 702V722.64H995.374V702H992.014ZM975.974 704.08C970.494 704.08 966.534 707.52 966.534 712.52C966.534 717.52 970.494 720.92 975.974 720.92C981.454 720.92 985.374 717.52 985.374 712.52C985.374 707.52 981.454 704.08 975.974 704.08ZM975.974 706.84C979.574 706.84 982.174 709.16 982.174 712.52C982.174 715.88 979.574 718.16 975.974 718.16C972.374 718.16 969.774 715.88 969.774 712.52C969.774 709.16 972.374 706.84 975.974 706.84ZM1006.65 723.64V737.64H1030.93V723.64H1027.61V727.84H1009.93V723.64H1006.65ZM1009.93 730.4H1027.61V734.96H1009.93V730.4ZM1002.49 718.44V721.12H1035.17V718.44H1002.49ZM1017.17 702.36V703.96C1017.17 708.52 1010.89 712.4 1004.37 713.28L1005.57 715.88C1013.01 714.76 1020.01 710.24 1020.01 703.96V702.36H1017.17ZM1017.69 702.36V703.96C1017.69 710.16 1024.73 714.76 1032.09 715.88L1033.33 713.28C1026.89 712.4 1020.53 708.44 1020.53 703.96V702.36H1017.69ZM1065.61 701.96V738.12H1068.93V701.96H1065.61ZM1041.61 705.48V727.88H1044.89V705.48H1041.61ZM1041.61 725.92V728.8H1044.57C1050.29 728.8 1056.01 728.36 1062.29 727.08L1061.89 724.24C1055.77 725.52 1050.05 725.92 1044.57 725.92H1041.61ZM1100.57 701.92V738.16H1103.93V701.92H1100.57ZM1103.13 716.2V719H1109.85V716.2H1103.13ZM1077.65 726.36V729.16H1080.49C1087.29 729.16 1092.05 728.96 1097.61 727.92L1097.25 725.12C1091.85 726.12 1087.17 726.36 1080.49 726.36H1077.65ZM1077.65 705.44V727.6H1080.93V708.16H1094.45V705.44H1077.65ZM1114.48 735.32C1113.84 735.32 1113.32 735.12 1112.92 734.72C1112.52 734.293 1112.32 733.773 1112.32 733.16C1112.32 732.547 1112.52 732.04 1112.92 731.64C1113.32 731.213 1113.84 731 1114.48 731C1115.15 731 1115.67 731.213 1116.04 731.64C1116.44 732.04 1116.64 732.547 1116.64 733.16C1116.64 733.773 1116.44 734.293 1116.04 734.72C1115.67 735.12 1115.15 735.32 1114.48 735.32Z" fill="black"/>
<path d="M703.347 516.05C701.107 516.05 699.077 515.537 697.257 514.51C695.483 513.437 694.06 512.013 692.987 510.24C691.96 508.42 691.447 506.367 691.447 504.08C691.447 501.793 691.96 499.74 692.987 497.92C694.06 496.1 695.483 494.677 697.257 493.65C699.077 492.623 701.107 492.11 703.347 492.11C705.587 492.11 707.617 492.623 709.437 493.65C711.257 494.677 712.68 496.1 713.707 497.92C714.78 499.74 715.317 501.793 715.317 504.08C715.317 506.367 714.78 508.42 713.707 510.24C712.68 512.013 711.257 513.437 709.437 514.51C707.617 515.537 705.587 516.05 703.347 516.05ZM750.925 516.05C748.685 516.05 746.655 515.537 744.835 514.51C743.061 513.437 741.638 512.013 740.565 510.24C739.538 508.42 739.025 506.367 739.025 504.08C739.025 501.793 739.538 499.74 740.565 497.92C741.638 496.1 743.061 494.677 744.835 493.65C746.655 492.623 748.685 492.11 750.925 492.11C753.165 492.11 755.195 492.623 757.015 493.65C758.835 494.677 760.258 496.1 761.285 497.92C762.358 499.74 762.895 501.793 762.895 504.08C762.895 506.367 762.358 508.42 761.285 510.24C760.258 512.013 758.835 513.437 757.015 514.51C755.195 515.537 753.165 516.05 750.925 516.05ZM798.503 516.05C796.263 516.05 794.233 515.537 792.413 514.51C790.64 513.437 789.216 512.013 788.143 510.24C787.116 508.42 786.603 506.367 786.603 504.08C786.603 501.793 787.116 499.74 788.143 497.92C789.216 496.1 790.64 494.677 792.413 493.65C794.233 492.623 796.263 492.11 798.503 492.11C800.743 492.11 802.773 492.623 804.593 493.65C806.413 494.677 807.836 496.1 808.863 497.92C809.936 499.74 810.473 501.793 810.473 504.08C810.473 506.367 809.936 508.42 808.863 510.24C807.836 512.013 806.413 513.437 804.593 514.51C802.773 515.537 800.743 516.05 798.503 516.05Z" fill="#0028FF"/>
<path d="M61.592 74V47.36H73.22C74.924 47.36 76.376 47.66 77.576 48.26C78.776 48.86 79.688 49.664 80.312 50.672C80.96 51.68 81.284 52.784 81.284 53.984C81.284 55.208 81.056 56.216 80.6 57.008C80.168 57.8 79.64 58.424 79.016 58.88C78.416 59.312 77.864 59.612 77.36 59.78V60.032C77.984 60.2 78.68 60.524 79.448 61.004C80.24 61.484 80.924 62.168 81.5 63.056C82.076 63.92 82.364 65.048 82.364 66.44C82.364 67.688 82.064 68.9 81.464 70.076C80.864 71.228 79.916 72.176 78.62 72.92C77.324 73.64 75.608 74 73.472 74H61.592ZM72.572 51.5H66.488V58.448H72.572C73.964 58.448 74.972 58.1 75.596 57.404C76.22 56.708 76.532 55.892 76.532 54.956C76.532 54.044 76.22 53.24 75.596 52.544C74.972 51.848 73.964 51.5 72.572 51.5ZM72.932 62.192H66.488V69.86H72.932C74.516 69.86 75.668 69.476 76.388 68.708C77.108 67.94 77.468 67.04 77.468 66.008C77.468 65 77.108 64.112 76.388 63.344C75.668 62.576 74.516 62.192 72.932 62.192ZM86.5811 74L86.6171 46.64H91.3691V74H86.5811ZM102.106 74.36C100.114 74.36 98.6019 73.748 97.5699 72.524C96.5619 71.3 96.0579 69.728 96.0579 67.808V54.92H100.81V67.016C100.81 68.048 101.086 68.876 101.638 69.5C102.19 70.1 102.97 70.4 103.978 70.4C104.866 70.4 105.586 70.172 106.138 69.716C106.69 69.26 107.086 68.672 107.326 67.952C107.59 67.232 107.722 66.488 107.722 65.72V54.92H112.51V74H107.722V71.264H107.506C107.266 71.696 106.918 72.152 106.462 72.632C106.03 73.112 105.454 73.52 104.734 73.856C104.038 74.192 103.162 74.36 102.106 74.36ZM126.044 74.36C124.412 74.36 122.996 74.084 121.796 73.532C120.62 72.956 119.636 72.2 118.844 71.264C118.076 70.304 117.5 69.236 117.116 68.06C116.732 66.884 116.54 65.684 116.54 64.46C116.54 63.236 116.72 62.048 117.08 60.896C117.464 59.72 118.028 58.652 118.772 57.692C119.54 56.732 120.512 55.976 121.688 55.424C122.864 54.848 124.256 54.56 125.864 54.56C127.592 54.56 129.116 54.944 130.436 55.712C131.756 56.48 132.788 57.608 133.532 59.096C134.276 60.56 134.648 62.384 134.648 64.568V65.792H121.364C121.436 67.088 121.88 68.216 122.696 69.176C123.512 70.112 124.628 70.58 126.044 70.58C126.86 70.58 127.532 70.448 128.06 70.184C128.588 69.92 128.996 69.62 129.284 69.284C129.572 68.924 129.776 68.624 129.896 68.384C130.016 68.12 130.076 67.988 130.076 67.988H134.504C134.504 67.988 134.444 68.204 134.324 68.636C134.204 69.044 133.976 69.572 133.64 70.22C133.328 70.844 132.86 71.48 132.236 72.128C131.612 72.752 130.796 73.28 129.788 73.712C128.78 74.144 127.532 74.36 126.044 74.36ZM121.364 62.66H130.04C129.968 61.172 129.524 60.068 128.708 59.348C127.892 58.628 126.932 58.268 125.828 58.268C124.604 58.268 123.584 58.664 122.768 59.456C121.952 60.224 121.484 61.292 121.364 62.66ZM138.908 74V47.36H149.276C151.196 47.36 152.828 47.72 154.172 48.44C155.54 49.136 156.572 50.096 157.268 51.32C157.988 52.52 158.348 53.876 158.348 55.388C158.348 57.092 157.892 58.616 156.98 59.96C156.068 61.28 154.748 62.24 153.02 62.84L159.14 74H153.704L148.016 63.416H143.804V74H138.908ZM149.204 51.608H143.804V59.42H149.204C150.572 59.42 151.616 59.036 152.336 58.268C153.056 57.476 153.416 56.552 153.416 55.496C153.416 54.44 153.056 53.528 152.336 52.76C151.616 51.992 150.572 51.608 149.204 51.608ZM171.213 74.36C169.125 74.36 167.349 73.892 165.885 72.956C164.421 72.02 163.305 70.808 162.537 69.32C161.793 67.808 161.421 66.188 161.421 64.46C161.421 62.732 161.793 61.124 162.537 59.636C163.305 58.124 164.421 56.9 165.885 55.964C167.349 55.028 169.125 54.56 171.213 54.56C173.325 54.56 175.101 55.028 176.541 55.964C178.005 56.9 179.109 58.124 179.853 59.636C180.621 61.124 181.005 62.732 181.005 64.46C181.005 66.188 180.621 67.808 179.853 69.32C179.109 70.808 178.005 72.02 176.541 72.956C175.101 73.892 173.325 74.36 171.213 74.36ZM171.213 70.364C172.293 70.364 173.193 70.088 173.913 69.536C174.657 68.984 175.221 68.264 175.605 67.376C175.989 66.464 176.181 65.492 176.181 64.46C176.181 63.404 175.989 62.432 175.605 61.544C175.221 60.656 174.657 59.936 173.913 59.384C173.193 58.832 172.293 58.556 171.213 58.556C170.157 58.556 169.257 58.832 168.513 59.384C167.769 59.936 167.205 60.656 166.821 61.544C166.437 62.432 166.245 63.404 166.245 64.46C166.245 65.492 166.437 66.464 166.821 67.376C167.205 68.264 167.769 68.984 168.513 69.536C169.257 70.088 170.157 70.364 171.213 70.364ZM194.374 74.36C192.286 74.36 190.51 73.892 189.046 72.956C187.582 72.02 186.466 70.808 185.698 69.32C184.954 67.808 184.582 66.188 184.582 64.46C184.582 62.732 184.954 61.124 185.698 59.636C186.466 58.124 187.582 56.9 189.046 55.964C190.51 55.028 192.286 54.56 194.374 54.56C196.486 54.56 198.262 55.028 199.702 55.964C201.166 56.9 202.27 58.124 203.014 59.636C203.782 61.124 204.166 62.732 204.166 64.46C204.166 66.188 203.782 67.808 203.014 69.32C202.27 70.808 201.166 72.02 199.702 72.956C198.262 73.892 196.486 74.36 194.374 74.36ZM194.374 70.364C195.454 70.364 196.354 70.088 197.074 69.536C197.818 68.984 198.382 68.264 198.766 67.376C199.15 66.464 199.342 65.492 199.342 64.46C199.342 63.404 199.15 62.432 198.766 61.544C198.382 60.656 197.818 59.936 197.074 59.384C196.354 58.832 195.454 58.556 194.374 58.556C193.318 58.556 192.418 58.832 191.674 59.384C190.93 59.936 190.366 60.656 189.982 61.544C189.598 62.432 189.406 63.404 189.406 64.46C189.406 65.492 189.598 66.464 189.982 67.376C190.366 68.264 190.93 68.984 191.674 69.536C192.418 70.088 193.318 70.364 194.374 70.364ZM210.157 74V58.772H207.097V54.92H210.157V53.156C210.157 52.436 210.253 51.68 210.445 50.888C210.637 50.072 210.961 49.316 211.417 48.62C211.897 47.924 212.557 47.36 213.397 46.928C214.261 46.496 215.341 46.28 216.637 46.28C217.357 46.28 217.945 46.34 218.401 46.46C218.881 46.556 219.121 46.604 219.121 46.604V50.096C219.121 50.096 218.965 50.072 218.653 50.024C218.341 49.952 218.005 49.916 217.645 49.916C216.613 49.916 215.905 50.216 215.521 50.816C215.137 51.416 214.945 52.196 214.945 53.156V54.92H219.013V58.772H214.945V74H210.157Z" fill="#0028FF"/>
<rect x="1335" y="34" width="113" height="48" rx="24" fill="#0028FF"/>
<path d="M1368.41 63V52.64H1369.78V61.796H1375.11V63H1368.41ZM1379.9 63.14C1379.11 63.14 1378.44 62.958 1377.9 62.594C1377.36 62.2207 1376.95 61.74 1376.67 61.152C1376.39 60.564 1376.25 59.9433 1376.25 59.29C1376.25 58.6273 1376.39 58.0067 1376.67 57.428C1376.95 56.84 1377.36 56.364 1377.9 56C1378.44 55.6267 1379.11 55.44 1379.9 55.44C1380.69 55.44 1381.36 55.6267 1381.9 56C1382.44 56.364 1382.85 56.84 1383.13 57.428C1383.41 58.0067 1383.55 58.6273 1383.55 59.29C1383.55 59.9433 1383.41 60.564 1383.13 61.152C1382.85 61.74 1382.44 62.2207 1381.9 62.594C1381.36 62.958 1380.69 63.14 1379.9 63.14ZM1379.9 61.978C1380.4 61.978 1380.82 61.852 1381.16 61.6C1381.5 61.3387 1381.76 61.0027 1381.93 60.592C1382.11 60.1813 1382.2 59.7473 1382.2 59.29C1382.2 58.8233 1382.11 58.3893 1381.93 57.988C1381.76 57.5773 1381.5 57.246 1381.16 56.994C1380.82 56.7327 1380.4 56.602 1379.9 56.602C1379.4 56.602 1378.98 56.7327 1378.64 56.994C1378.29 57.246 1378.03 57.5773 1377.86 57.988C1377.69 58.3893 1377.6 58.8233 1377.6 59.29C1377.6 59.7473 1377.69 60.1813 1377.86 60.592C1378.03 61.0027 1378.29 61.3387 1378.64 61.6C1378.98 61.852 1379.4 61.978 1379.9 61.978ZM1388.81 65.94C1388.2 65.94 1387.68 65.856 1387.27 65.688C1386.86 65.5293 1386.53 65.324 1386.28 65.072C1386.04 64.8293 1385.85 64.5867 1385.73 64.344C1385.61 64.1013 1385.53 63.896 1385.49 63.728C1385.46 63.5693 1385.44 63.49 1385.44 63.49H1386.77C1386.77 63.49 1386.79 63.5553 1386.84 63.686C1386.88 63.8167 1386.97 63.966 1387.1 64.134C1387.24 64.302 1387.45 64.4513 1387.72 64.582C1387.99 64.7127 1388.35 64.778 1388.81 64.778C1389.35 64.778 1389.78 64.6707 1390.09 64.456C1390.39 64.2507 1390.61 63.98 1390.74 63.644C1390.88 63.308 1390.95 62.9533 1390.95 62.58V61.726H1390.88C1390.79 61.8847 1390.64 62.0667 1390.44 62.272C1390.24 62.468 1389.98 62.6407 1389.65 62.79C1389.33 62.93 1388.92 63 1388.45 63C1387.89 63 1387.4 62.8927 1386.98 62.678C1386.56 62.4633 1386.21 62.174 1385.93 61.81C1385.66 61.446 1385.45 61.04 1385.31 60.592C1385.17 60.144 1385.1 59.6867 1385.1 59.22C1385.1 58.7533 1385.17 58.296 1385.31 57.848C1385.45 57.4 1385.66 56.994 1385.93 56.63C1386.21 56.266 1386.56 55.9767 1386.98 55.762C1387.4 55.5473 1387.89 55.44 1388.45 55.44C1388.92 55.44 1389.33 55.5147 1389.65 55.664C1389.98 55.804 1390.24 55.972 1390.44 56.168C1390.64 56.364 1390.79 56.546 1390.88 56.714H1390.95V55.58H1392.28V62.566C1392.28 63.602 1391.98 64.4233 1391.37 65.03C1390.78 65.6367 1389.92 65.94 1388.81 65.94ZM1388.7 61.866C1389.19 61.866 1389.61 61.74 1389.93 61.488C1390.27 61.2267 1390.52 60.8953 1390.67 60.494C1390.84 60.0927 1390.93 59.668 1390.93 59.22C1390.93 58.772 1390.84 58.3473 1390.67 57.946C1390.52 57.5353 1390.27 57.204 1389.93 56.952C1389.61 56.7 1389.19 56.574 1388.7 56.574C1388.21 56.574 1387.79 56.7 1387.45 56.952C1387.12 57.204 1386.87 57.5353 1386.7 57.946C1386.54 58.3473 1386.46 58.772 1386.46 59.22C1386.46 59.668 1386.54 60.0927 1386.7 60.494C1386.87 60.8953 1387.12 61.2267 1387.45 61.488C1387.79 61.74 1388.21 61.866 1388.7 61.866ZM1397.42 63.14C1396.63 63.14 1395.96 62.958 1395.42 62.594C1394.88 62.2207 1394.47 61.74 1394.19 61.152C1393.91 60.564 1393.77 59.9433 1393.77 59.29C1393.77 58.6273 1393.91 58.0067 1394.19 57.428C1394.47 56.84 1394.88 56.364 1395.42 56C1395.96 55.6267 1396.63 55.44 1397.42 55.44C1398.21 55.44 1398.88 55.6267 1399.42 56C1399.96 56.364 1400.38 56.84 1400.66 57.428C1400.94 58.0067 1401.08 58.6273 1401.08 59.29C1401.08 59.9433 1400.94 60.564 1400.66 61.152C1400.38 61.74 1399.96 62.2207 1399.42 62.594C1398.88 62.958 1398.21 63.14 1397.42 63.14ZM1397.42 61.978C1397.93 61.978 1398.35 61.852 1398.68 61.6C1399.03 61.3387 1399.28 61.0027 1399.45 60.592C1399.63 60.1813 1399.72 59.7473 1399.72 59.29C1399.72 58.8233 1399.63 58.3893 1399.45 57.988C1399.28 57.5773 1399.03 57.246 1398.68 56.994C1398.35 56.7327 1397.93 56.602 1397.42 56.602C1396.93 56.602 1396.51 56.7327 1396.16 56.994C1395.82 57.246 1395.55 57.5773 1395.38 57.988C1395.21 58.3893 1395.13 58.8233 1395.13 59.29C1395.13 59.7473 1395.21 60.1813 1395.38 60.592C1395.55 61.0027 1395.82 61.3387 1396.16 61.6C1396.51 61.852 1396.93 61.978 1397.42 61.978ZM1405.25 63.14C1404.52 63.14 1403.93 62.9113 1403.49 62.454C1403.05 61.9967 1402.83 61.362 1402.83 60.55V55.58H1404.16V60.48C1404.16 60.9653 1404.29 61.3387 1404.55 61.6C1404.83 61.8613 1405.18 61.992 1405.62 61.992C1406.07 61.992 1406.43 61.8753 1406.7 61.642C1406.97 61.4087 1407.16 61.11 1407.28 60.746C1407.41 60.382 1407.47 60.0087 1407.47 59.626V55.58H1408.8V63H1407.47V61.936H1407.38C1407.33 62.048 1407.22 62.202 1407.06 62.398C1406.9 62.5847 1406.68 62.7573 1406.39 62.916C1406.1 63.0653 1405.72 63.14 1405.25 63.14ZM1413.85 63.14C1413.09 63.14 1412.51 62.944 1412.12 62.552C1411.74 62.16 1411.54 61.6093 1411.54 60.9V56.672H1410.21V55.58H1411.54V53.718H1412.87V55.58H1414.68V56.672H1412.87V60.9C1412.87 61.2733 1412.98 61.5487 1413.18 61.726C1413.39 61.894 1413.69 61.978 1414.08 61.978C1414.28 61.978 1414.48 61.964 1414.67 61.936C1414.85 61.908 1414.95 61.894 1414.95 61.894V63.028C1414.95 63.028 1414.84 63.0467 1414.62 63.084C1414.41 63.1213 1414.15 63.14 1413.85 63.14Z" fill="white"/>
<path d="M-23 99.5L1489 101.5" stroke="#D3D3D3"/>
<path d="M319.352 53.864V58.824H329.336V53.864H327.224V54.84H321.448V53.864H319.352ZM321.448 56.392H327.224V57.256H321.448V56.392ZM317.64 59.624V61.288H331.032V59.624H317.64ZM319.176 62.136V63.688H327.32V64.44H319.192V67.24H321.288V65.896H329.416V62.136H319.176ZM319.192 66.744V68.328H329.8V66.744H319.192ZM333.829 54.072V55.768H342.005V56.904H333.861V60.744H336.021V58.488H344.165V54.072H333.829ZM333.861 59.704V61.384H344.533V59.704H333.861ZM332.293 62.472V64.184H345.717V62.472H332.293ZM337.909 63.096V68.456H340.037V63.096H337.909ZM348.482 54.072V55.768H356.658V56.904H348.514V60.744H350.674V58.488H358.818V54.072H348.482ZM348.514 59.704V61.384H359.186V59.704H348.514ZM346.946 62.472V64.184H360.37V62.472H346.946ZM352.562 63.096V68.456H354.69V63.096H352.562ZM361.615 64.968V66.712H375.023V64.968H361.615ZM362.639 54.888V56.584H373.919V54.888H362.639ZM362.703 61.016V62.728H373.871V61.016H362.703ZM364.655 56.456V61.176H366.783V56.456H364.655ZM369.791 56.456V61.176H371.903V56.456H369.791ZM385.789 53.624V64.536H387.917V53.624H385.789ZM387.309 57.864V59.624H389.885V57.864H387.309ZM378.413 66.472V68.168H388.461V66.472H378.413ZM378.413 63.656V67.032H380.557V63.656H378.413ZM376.781 60.712V62.408H378.029C381.021 62.408 382.893 62.344 384.973 61.96L384.781 60.248C382.733 60.632 380.941 60.712 378.029 60.712H376.781ZM376.765 54.504V56.2H381.437V57.608H376.781V61.32H378.893V59.176H383.533V54.504H376.765ZM393.946 63.688V63.16C393.946 62.6693 394.047 62.248 394.25 61.896C394.452 61.544 394.703 61.24 395.002 60.984C395.3 60.7173 395.594 60.4667 395.882 60.232C396.18 59.9973 396.431 59.7467 396.634 59.48C396.836 59.2027 396.938 58.8827 396.938 58.52C396.938 58.0187 396.751 57.624 396.378 57.336C396.015 57.0373 395.583 56.888 395.082 56.888C394.751 56.888 394.436 56.9627 394.138 57.112C393.85 57.2507 393.615 57.4693 393.434 57.768C393.252 58.0667 393.162 58.4507 393.162 58.92H391.098C391.098 58.0347 391.29 57.304 391.674 56.728C392.068 56.1413 392.575 55.7093 393.194 55.432C393.812 55.144 394.463 55 395.146 55C395.86 55 396.516 55.144 397.114 55.432C397.722 55.7093 398.207 56.1093 398.57 56.632C398.932 57.144 399.114 57.7573 399.114 58.472C399.114 59.016 399.007 59.48 398.794 59.864C398.591 60.2373 398.34 60.568 398.042 60.856C397.743 61.1333 397.439 61.3893 397.13 61.624C396.831 61.8587 396.58 62.0987 396.378 62.344C396.175 62.5787 396.074 62.8507 396.074 63.16V63.688H393.946ZM395.018 67.16C394.666 67.16 394.378 67.0427 394.154 66.808C393.93 66.5733 393.818 66.2907 393.818 65.96C393.818 65.6293 393.93 65.352 394.154 65.128C394.378 64.8933 394.666 64.776 395.018 64.776C395.359 64.776 395.642 64.8933 395.866 65.128C396.1 65.352 396.218 65.6293 396.218 65.96C396.218 66.2907 396.1 66.5733 395.866 66.808C395.642 67.0427 395.359 67.16 395.018 67.16Z" fill="#282A2D"/>
<path d="M443.968 55.944V57.608C443.968 60.04 442.768 62.808 440.32 63.96L441.52 65.64C444.24 64.36 445.648 60.952 445.648 57.608V55.944H443.968ZM444.416 55.944V57.608C444.416 60.76 445.792 64.008 448.512 65.272L449.68 63.592C447.248 62.472 446.096 59.848 446.096 57.608V55.944H444.416ZM440.896 55.032V56.776H449.024V55.032H440.896ZM450.112 53.608V68.424H452.256V53.608H450.112ZM451.776 59.256V61.016H454.4V59.256H451.776ZM460.925 54.536V55.592C460.925 57.864 459.085 59.784 455.453 60.728L456.253 62.392C460.685 61.224 463.149 58.52 463.149 54.536H460.925ZM456.285 54.536V56.232H462.301V54.536H456.285ZM457.597 63.032V64.696H465.565V68.376H467.693V63.032H457.597ZM465.565 53.608V62.408H467.693V53.608H465.565ZM462.445 55.992V57.672H465.917V55.992H462.445ZM462.301 59.144V60.84H465.789V59.144H462.301ZM473.546 55.256V56.504C473.546 58.376 472.474 60.296 470.01 61.096L471.098 62.76C473.946 61.832 475.306 59.304 475.306 56.504V55.256H473.546ZM473.978 55.256V56.504C473.978 59.192 475.322 61.608 478.106 62.488L479.194 60.84C476.778 60.072 475.722 58.264 475.722 56.504V55.256H473.978ZM470.57 54.664V56.344H478.634V54.664H470.57ZM480.122 53.624V64.312H482.266V53.624H480.122ZM472.394 66.472V68.168H482.634V66.472H472.394ZM472.394 63.352V67.32H474.522V63.352H472.394ZM494.135 53.608V64.312H496.263V53.608H494.135ZM495.655 57.64V59.384H498.231V57.64H495.655ZM485.159 60.184V61.896H486.391C489.687 61.896 491.383 61.816 493.191 61.416L492.983 59.736C491.207 60.12 489.607 60.184 486.391 60.184H485.159ZM485.159 54.776V61.096H487.271V56.488H491.783V54.776H485.159ZM486.711 66.472V68.168H496.791V66.472H486.711ZM486.711 63.192V67.336H488.839V63.192H486.711Z" fill="#282A2D"/>
<path d="M549.848 53.608V68.424H551.992V53.608H549.848ZM545.48 55.144V55.528C545.48 59.496 543.944 62.184 539.688 64.232L540.792 65.928C546.056 63.384 547.592 59.672 547.592 55.144H545.48ZM540.472 55.144V56.824H546.488V55.144H540.472ZM554.869 63.352V65.08H556.117C558.661 65.08 560.677 65.016 562.917 64.664L562.725 62.968C560.517 63.32 558.613 63.352 556.117 63.352H554.869ZM554.869 54.84V63.912H557.013V56.568H561.829V54.84H554.869ZM556.501 58.952V60.616H561.621V58.952H556.501ZM563.765 53.608V68.424H565.909V53.608H563.765ZM565.429 59.224V60.984H568.053V59.224H565.429ZM572.274 56.2V56.744C572.274 58.424 571.234 60.12 568.85 60.792L569.842 62.456C572.674 61.64 573.986 59.32 573.986 56.744V56.2H572.274ZM572.674 56.2V56.744C572.674 59.176 574.034 61.336 576.882 62.088L577.842 60.44C575.458 59.816 574.402 58.264 574.402 56.744V56.2H572.674ZM569.362 55.144V56.808H577.314V55.144H569.362ZM572.274 53.56V55.8H574.402V53.56H572.274ZM576.898 57.56V59.272H579.73V57.56H576.898ZM579.218 53.608V62.552H581.346V53.608H579.218ZM576.322 62.808C573.186 62.808 571.25 63.832 571.25 65.608C571.25 67.384 573.186 68.424 576.322 68.424C579.458 68.424 581.394 67.384 581.394 65.608C581.394 63.832 579.458 62.808 576.322 62.808ZM576.322 64.424C578.274 64.424 579.282 64.808 579.282 65.608C579.282 66.408 578.274 66.808 576.322 66.808C574.386 66.808 573.378 66.408 573.378 65.608C573.378 64.808 574.386 64.424 576.322 64.424ZM594.607 55.528V57.272H597.167V55.528H594.607ZM594.607 58.744V60.488H597.167V58.744H594.607ZM593.135 53.608V62.344H595.263V53.608H593.135ZM585.375 62.952V64.648H593.135V68.424H595.263V62.952H585.375ZM587.727 54.408C585.439 54.408 583.695 55.928 583.695 58.04C583.695 60.152 585.439 61.656 587.727 61.656C590.015 61.656 591.759 60.152 591.759 58.04C591.759 55.928 590.015 54.408 587.727 54.408ZM587.727 56.216C588.847 56.216 589.679 56.872 589.679 58.04C589.679 59.208 588.847 59.88 587.727 59.88C586.607 59.88 585.775 59.208 585.775 58.04C585.775 56.872 586.607 56.216 587.727 56.216ZM605.725 58.232V59.944H609.629V58.232H605.725ZM601.693 54.744V56.888C601.693 59.704 600.573 62.568 598.045 63.736L599.373 65.448C602.157 64.056 603.421 60.616 603.421 56.888V54.744H601.693ZM602.141 54.744V56.888C602.141 60.584 603.309 63.848 606.093 65.192L607.357 63.496C604.909 62.408 603.837 59.704 603.837 56.888V54.744H602.141ZM608.573 53.592V68.456H610.685V53.592H608.573ZM623.066 53.592V68.456H625.21V53.592H623.066ZM613.642 54.776V65H620.922V54.776H618.81V58.376H615.754V54.776H613.642ZM615.754 60.024H618.81V63.288H615.754V60.024ZM633.063 54.456V55.528C633.063 57.656 631.223 60.008 627.879 60.584L628.791 62.344C632.631 61.592 634.919 58.744 634.919 55.528V54.456H633.063ZM633.495 54.456V55.528C633.495 58.792 635.767 61.592 639.607 62.344L640.519 60.584C637.159 60.008 635.335 57.704 635.335 55.528V54.456H633.495ZM627.575 64.888V66.616H640.983V64.888H627.575Z" fill="#282A2D"/>
<path d="M683.088 55V64.824H690.176V55H683.088ZM688.08 56.664V63.144H685.184V56.664H688.08ZM692.112 53.608V68.424H694.256V53.608H692.112ZM693.776 59.192V60.952H696.4V59.192H693.776ZM707.453 53.592V68.456H709.597V53.592H707.453ZM701.613 54.632C699.373 54.632 697.725 56.68 697.725 59.912C697.725 63.176 699.373 65.224 701.613 65.224C703.853 65.224 705.501 63.176 705.501 59.912C705.501 56.68 703.853 54.632 701.613 54.632ZM701.613 56.568C702.717 56.568 703.453 57.736 703.453 59.912C703.453 62.12 702.717 63.304 701.613 63.304C700.509 63.304 699.757 62.12 699.757 59.912C699.757 57.736 700.509 56.568 701.613 56.568ZM722.778 53.608V68.424H724.81V53.608H722.778ZM718.442 59V60.872H720.426V59H718.442ZM719.834 53.896V67.736H721.834V53.896H719.834ZM712.058 55.272V56.968H718.794V55.272H712.058ZM712.026 65.064C713.85 65.064 716.858 65.016 719.162 64.52L719.018 62.984C716.778 63.288 713.658 63.336 711.802 63.336L712.026 65.064ZM712.97 56.36V63.784H714.874V56.36H712.97ZM715.946 56.36V63.784H717.866V56.36H715.946ZM736.759 53.592V68.456H738.903V53.592H736.759ZM730.919 54.632C728.679 54.632 727.031 56.68 727.031 59.912C727.031 63.176 728.679 65.224 730.919 65.224C733.159 65.224 734.807 63.176 734.807 59.912C734.807 56.68 733.159 54.632 730.919 54.632ZM730.919 56.568C732.023 56.568 732.759 57.736 732.759 59.912C732.759 62.12 732.023 63.304 730.919 63.304C729.815 63.304 729.063 62.12 729.063 59.912C729.063 57.736 729.815 56.568 730.919 56.568ZM744.821 55.944V57.608C744.821 60.12 743.621 62.856 741.141 63.96L742.341 65.64C745.125 64.376 746.517 61.032 746.517 57.608V55.944H744.821ZM745.301 55.944V57.608C745.301 60.904 746.677 64.056 749.493 65.272L750.645 63.592C748.165 62.568 746.981 60.008 746.981 57.608V55.944H745.301ZM741.733 55.032V56.776H750.037V55.032H741.733ZM751.413 53.608V68.424H753.557V53.608H751.413Z" fill="#282A2D"/>
<ellipse cx="126" cy="823" rx="67" ry="42" fill="#0028FF"/>
<path d="M182.5 823C182.5 832.232 176.466 840.822 166.221 847.181C155.998 853.526 141.782 857.5 126 857.5C110.218 857.5 96.0015 853.526 85.7789 847.181C75.5337 840.822 69.5 832.232 69.5 823C69.5 813.768 75.5337 805.178 85.7789 798.819C96.0015 792.474 110.218 788.5 126 788.5C141.782 788.5 155.998 792.474 166.221 798.819C176.466 805.178 182.5 813.768 182.5 823Z" stroke="white" stroke-width="3"/>
<path d="M106.614 806.78V807.239C106.614 808.905 105.764 810.537 103.775 811.302L104.812 812.968C107.277 812.05 108.297 809.738 108.297 807.239V806.78H106.614ZM107.073 806.78V807.239C107.073 809.636 108.093 811.829 110.575 812.679L111.578 811.013C109.606 810.316 108.739 808.803 108.739 807.239V806.78H107.073ZM104.217 805.488V807.256H111.119V805.488H104.217ZM106.614 803.958V806.389H108.739V803.958H106.614ZM115.063 803.788V814.43H117.205V803.788H115.063ZM113.244 807.511V809.347H115.743V807.511H113.244ZM111.782 804.026V813.053H113.89V804.026H111.782ZM110.66 813.699V813.937C110.66 815.552 109.062 817.269 105.662 817.711L106.461 819.462C110.405 818.901 112.581 816.674 112.581 813.937V813.699H110.66ZM110.983 813.699V813.937C110.983 816.674 113.159 818.901 117.103 819.462L117.902 817.711C114.519 817.269 112.904 815.552 112.904 813.937V813.699H110.983ZM121.18 804.213V810.18H131.788V804.213H129.544V805.539H123.407V804.213H121.18ZM123.407 807.239H129.544V808.412H123.407V807.239ZM119.361 811.438V813.223H133.59V811.438H119.361ZM125.345 809.466V811.829H127.589V809.466H125.345ZM125.328 814.005V814.277C125.328 815.79 123.781 817.354 120.313 817.728L121.095 819.462C125.073 818.952 127.266 816.912 127.266 814.277V814.005H125.328ZM125.685 814.005V814.277C125.685 816.912 127.861 818.952 131.856 819.462L132.638 817.728C129.153 817.354 127.623 815.79 127.623 814.277V814.005H125.685ZM135.593 805.335V807.12H142.376V805.335H135.593ZM137.616 809.84V815.178H139.843V809.84H137.616ZM141.475 805.335V806.61C141.475 808.123 141.475 809.942 141.067 812.458L143.277 812.662C143.702 810.044 143.702 808.14 143.702 806.61V805.335H141.475ZM145.045 803.771V819.513H147.306V803.771H145.045ZM146.643 810.095V811.965H149.414V810.095H146.643ZM134.998 816.334C137.735 816.334 141.271 816.266 144.45 815.722L144.331 814.073C141.237 814.464 137.565 814.515 134.794 814.515L134.998 816.334ZM99.4582 826.621V828.015C99.4582 830.157 98.3872 832.265 95.7522 833.149L96.9592 834.934C99.9512 833.897 101.311 831.143 101.311 828.015V826.621H99.4582ZM99.9172 826.621V828.236C99.9172 831.075 101.26 833.523 104.099 834.475L105.272 832.724C102.807 831.959 101.753 830.123 101.753 828.236V826.621H99.9172ZM106.139 825.771V835.07H108.4V825.771H106.139ZM107.771 829.409V831.279H110.491V829.409H107.771ZM103.266 835.427C99.9852 835.427 97.9282 836.566 97.9282 838.47C97.9282 840.391 99.9852 841.513 103.266 841.513C106.53 841.513 108.587 840.391 108.587 838.47C108.587 836.566 106.53 835.427 103.266 835.427ZM103.266 837.178C105.272 837.178 106.343 837.603 106.343 838.47C106.343 839.354 105.272 839.762 103.266 839.762C101.26 839.762 100.172 839.354 100.172 838.47C100.172 837.603 101.26 837.178 103.266 837.178ZM121.708 825.771V834.594H123.969V825.771H121.708ZM123.34 829.307V831.143H126.06V829.307H123.34ZM112.171 832.231V834.05H113.48C116.982 834.05 118.784 833.965 120.705 833.54L120.484 831.755C118.597 832.146 116.897 832.231 113.48 832.231H112.171ZM112.171 826.74V833.285H114.415V828.542H119.158V826.74H112.171ZM113.735 835.274V841.343H123.969V835.274H113.735ZM121.759 837.059V839.558H115.962V837.059H121.759ZM137.243 825.771V841.513H139.487V825.771H137.243ZM138.977 831.908V833.795H141.765V831.908H138.977ZM127.077 828.1V829.902H136.24V828.1H127.077ZM131.684 830.786C129.389 830.786 127.689 832.35 127.689 834.543C127.689 836.736 129.389 838.3 131.684 838.3C133.979 838.3 135.679 836.736 135.679 834.543C135.679 832.35 133.979 830.786 131.684 830.786ZM131.684 832.622C132.755 832.622 133.52 833.336 133.52 834.543C133.52 835.75 132.755 836.464 131.684 836.464C130.613 836.464 129.848 835.75 129.848 834.543C129.848 833.336 130.613 832.622 131.684 832.622ZM130.545 826.026V828.78H132.806V826.026H130.545ZM153.56 825.771V841.513H155.838V825.771H153.56ZM148.919 827.403V827.811C148.919 832.027 147.287 834.883 142.765 837.059L143.938 838.861C149.531 836.158 151.163 832.214 151.163 827.403H148.919ZM143.598 827.403V829.188H149.99V827.403H143.598Z" fill="white"/>
</g>
<defs>
<clipPath id="clip0_450_6228">
<rect width="1512" height="982" fill="white"/>
</clipPath>
</defs>
</svg>
