<svg width="443" height="288" viewBox="0 0 443 288" fill="none" xmlns="http://www.w3.org/2000/svg">
<g clip-path="url(#clip0_422_5724)">
<rect width="443" height="287.716" rx="17.0852" fill="white"/>
<path d="M99.1334 16.6796V18.1328H102.059V16.6796H101.44V16.9656H99.7476V16.6796H99.1334ZM99.7476 17.4203H101.44V17.6734H99.7476V17.4203ZM98.6318 18.3672V18.8548H102.556V18.3672H98.6318ZM99.0819 19.1032V19.5579H101.468V19.7783H99.0866V20.5986H99.7007V20.2049H102.082V19.1032H99.0819ZM99.0866 20.4533V20.9174H102.195V20.4533H99.0866ZM103.375 16.7406V17.2375H105.771V17.5703H103.384V18.6954H104.017V18.0344H106.403V16.7406H103.375ZM103.384 18.3907V18.8829H106.511V18.3907H103.384ZM102.925 19.2017V19.7033H106.858V19.2017H102.925ZM104.57 19.3845V20.9549H105.194V19.3845H104.57ZM107.668 16.7406V17.2375H110.064V17.5703H107.678V18.6954H108.311V18.0344H110.697V16.7406H107.668ZM107.678 18.3907V18.8829H110.804V18.3907H107.678ZM107.218 19.2017V19.7033H111.151V19.2017H107.218ZM108.864 19.3845V20.9549H109.487V19.3845H108.864ZM111.516 19.933V20.4439H115.445V19.933H111.516ZM111.816 16.9796V17.4765H115.121V16.9796H111.816ZM111.835 18.7751V19.2767H115.107V18.7751H111.835ZM112.407 17.439V18.8219H113.03V17.439H112.407ZM113.912 17.439V18.8219H114.53V17.439H113.912ZM118.599 16.6093V19.8064H119.222V16.6093H118.599ZM119.044 17.8516V18.3672H119.799V17.8516H119.044ZM116.438 20.3736V20.8705H119.382V20.3736H116.438ZM116.438 19.5486V20.5377H117.066V19.5486H116.438ZM115.959 18.686V19.1829H116.325C117.202 19.1829 117.75 19.1642 118.36 19.0517L118.303 18.5501C117.703 18.6626 117.178 18.686 116.325 18.686H115.959ZM115.955 16.8671V17.364H117.324V17.7766H115.959V18.8641H116.578V18.236H117.938V16.8671H115.955ZM120.989 19.5579V19.4032C120.989 19.2595 121.018 19.136 121.078 19.0329C121.137 18.9298 121.211 18.8407 121.298 18.7657C121.386 18.6876 121.471 18.6141 121.556 18.5454C121.643 18.4766 121.717 18.4032 121.776 18.325C121.836 18.2438 121.865 18.15 121.865 18.0438C121.865 17.8969 121.811 17.7813 121.701 17.6969C121.595 17.6094 121.468 17.5656 121.321 17.5656C121.225 17.5656 121.132 17.5875 121.045 17.6312C120.961 17.6719 120.892 17.7359 120.839 17.8234C120.785 17.9109 120.759 18.0235 120.759 18.161H120.154C120.154 17.9016 120.21 17.6875 120.323 17.5187C120.439 17.3468 120.587 17.2203 120.768 17.139C120.95 17.0546 121.14 17.0124 121.34 17.0124C121.55 17.0124 121.742 17.0546 121.917 17.139C122.095 17.2203 122.237 17.3375 122.343 17.4906C122.45 17.6406 122.503 17.8203 122.503 18.0297C122.503 18.1891 122.472 18.325 122.409 18.4375C122.35 18.5469 122.276 18.6438 122.189 18.7282C122.101 18.8094 122.012 18.8845 121.922 18.9532C121.834 19.022 121.761 19.0923 121.701 19.1642C121.642 19.2329 121.612 19.3126 121.612 19.4032V19.5579H120.989ZM121.303 20.5752C121.2 20.5752 121.115 20.5408 121.05 20.4721C120.984 20.4033 120.951 20.3205 120.951 20.2236C120.951 20.1267 120.984 20.0455 121.05 19.9798C121.115 19.9111 121.2 19.8767 121.303 19.8767C121.403 19.8767 121.486 19.9111 121.551 19.9798C121.62 20.0455 121.654 20.1267 121.654 20.2236C121.654 20.3205 121.62 20.4033 121.551 20.4721C121.486 20.5408 121.403 20.5752 121.303 20.5752Z" fill="#282A2D"/>
<path d="M135.645 17.289V17.7766C135.645 18.4891 135.293 19.3001 134.576 19.6376L134.927 20.1299C135.724 19.7548 136.137 18.7563 136.137 17.7766V17.289H135.645ZM135.776 17.289V17.7766C135.776 18.7001 136.179 19.6517 136.976 20.022L137.318 19.5298C136.606 19.2017 136.268 18.4329 136.268 17.7766V17.289H135.776ZM134.744 17.0218V17.5328H137.126V17.0218H134.744ZM137.445 16.6046V20.9455H138.073V16.6046H137.445ZM137.932 18.2594V18.7751H138.701V18.2594H137.932ZM140.613 16.8765V17.1859C140.613 17.8516 140.074 18.4141 139.01 18.6907L139.244 19.1782C140.542 18.836 141.264 18.0438 141.264 16.8765H140.613ZM139.253 16.8765V17.3734H141.016V16.8765H139.253ZM139.638 19.3657V19.8533H141.972V20.9315H142.596V19.3657H139.638ZM141.972 16.6046V19.1829H142.596V16.6046H141.972ZM141.058 17.3031V17.7953H142.075V17.3031H141.058ZM141.016 18.2266V18.7235H142.038V18.2266H141.016ZM144.311 17.0875V17.4531C144.311 18.0016 143.997 18.5641 143.275 18.7985L143.593 19.286C144.428 19.0142 144.826 18.2735 144.826 17.4531V17.0875H144.311ZM144.437 17.0875V17.4531C144.437 18.2407 144.831 18.9485 145.647 19.2064L145.965 18.7235C145.258 18.4985 144.948 17.9688 144.948 17.4531V17.0875H144.437ZM143.439 16.914V17.4062H145.801V16.914H143.439ZM146.237 16.6093V19.7408H146.866V16.6093H146.237ZM143.973 20.3736V20.8705H146.973V20.3736H143.973ZM143.973 19.4595V20.6221H144.597V19.4595H143.973ZM150.343 16.6046V19.7408H150.967V16.6046H150.343ZM150.788 17.7859V18.2969H151.543V17.7859H150.788ZM147.713 18.5313V19.0329H148.074C149.04 19.0329 149.537 19.0095 150.066 18.8923L150.006 18.4C149.485 18.5126 149.016 18.5313 148.074 18.5313H147.713ZM147.713 16.9468V18.7985H148.332V17.4484H149.654V16.9468H147.713ZM148.168 20.3736V20.8705H151.121V20.3736H148.168ZM148.168 19.4126V20.6268H148.791V19.4126H148.168Z" fill="#282A2D"/>
<path d="M166.666 16.6046V20.9455H167.294V16.6046H166.666ZM165.386 17.0546V17.1671C165.386 18.3297 164.936 19.1173 163.689 19.7173L164.013 20.2142C165.555 19.4689 166.005 18.3813 166.005 17.0546H165.386ZM163.919 17.0546V17.5469H165.682V17.0546H163.919ZM168.137 19.4595V19.9658H168.503C169.248 19.9658 169.839 19.947 170.495 19.8439L170.439 19.347C169.792 19.4501 169.234 19.4595 168.503 19.4595H168.137ZM168.137 16.9656V19.6236H168.765V17.4719H170.176V16.9656H168.137ZM168.615 18.1703V18.6579H170.116V18.1703H168.615ZM170.744 16.6046V20.9455H171.372V16.6046H170.744ZM171.231 18.25V18.7657H172V18.25H171.231ZM173.237 17.364V17.5234C173.237 18.0156 172.932 18.5126 172.234 18.7094L172.524 19.197C173.354 18.9579 173.738 18.2782 173.738 17.5234V17.364H173.237ZM173.354 17.364V17.5234C173.354 18.236 173.752 18.8688 174.587 19.0892L174.868 18.6063C174.17 18.4235 173.86 17.9688 173.86 17.5234V17.364H173.354ZM172.384 17.0546V17.5422H174.713V17.0546H172.384ZM173.237 16.5905V17.2468H173.86V16.5905H173.237ZM174.592 17.7625V18.2641H175.421V17.7625H174.592ZM175.271 16.6046V19.2251H175.895V16.6046H175.271ZM174.423 19.3001C173.504 19.3001 172.937 19.6001 172.937 20.1205C172.937 20.6408 173.504 20.9455 174.423 20.9455C175.342 20.9455 175.909 20.6408 175.909 20.1205C175.909 19.6001 175.342 19.3001 174.423 19.3001ZM174.423 19.7736C174.995 19.7736 175.29 19.8861 175.29 20.1205C175.29 20.3549 174.995 20.4721 174.423 20.4721C173.856 20.4721 173.56 20.3549 173.56 20.1205C173.56 19.8861 173.856 19.7736 174.423 19.7736ZM179.78 17.1671V17.6781H180.53V17.1671H179.78ZM179.78 18.1094V18.6204H180.53V18.1094H179.78ZM179.349 16.6046V19.1642H179.972V16.6046H179.349ZM177.075 19.3423V19.8392H179.349V20.9455H179.972V19.3423H177.075ZM177.764 16.839C177.094 16.839 176.583 17.2843 176.583 17.9031C176.583 18.5219 177.094 18.9626 177.764 18.9626C178.435 18.9626 178.946 18.5219 178.946 17.9031C178.946 17.2843 178.435 16.839 177.764 16.839ZM177.764 17.3687C178.093 17.3687 178.336 17.5609 178.336 17.9031C178.336 18.2453 178.093 18.4422 177.764 18.4422C177.436 18.4422 177.193 18.2453 177.193 17.9031C177.193 17.5609 177.436 17.3687 177.764 17.3687ZM183.037 17.9594V18.461H184.181V17.9594H183.037ZM181.856 16.9374V17.5656C181.856 18.3907 181.528 19.2298 180.787 19.572L181.176 20.0736C181.992 19.6658 182.362 18.6579 182.362 17.5656V16.9374H181.856ZM181.987 16.9374V17.5656C181.987 18.6485 182.33 19.6048 183.145 19.9986L183.516 19.5017C182.798 19.1829 182.484 18.3907 182.484 17.5656V16.9374H181.987ZM183.872 16.5999V20.9549H184.491V16.5999H183.872ZM188.118 16.5999V20.9549H188.746V16.5999H188.118ZM185.357 16.9468V19.9423H187.49V16.9468H186.871V18.0016H185.976V16.9468H185.357ZM185.976 18.4844H186.871V19.4407H185.976V18.4844ZM191.047 16.8531V17.1671C191.047 17.7906 190.508 18.4797 189.528 18.6485L189.796 19.1642C190.921 18.9438 191.591 18.1094 191.591 17.1671V16.8531H191.047ZM191.174 16.8531V17.1671C191.174 18.1235 191.839 18.9438 192.965 19.1642L193.232 18.6485C192.247 18.4797 191.713 17.8047 191.713 17.1671V16.8531H191.174ZM189.439 19.9095V20.4158H193.368V19.9095H189.439Z" fill="#282A2D"/>
<path d="M205.704 17.0124V19.8908H207.78V17.0124H205.704ZM207.166 17.5V19.3986H206.318V17.5H207.166ZM208.347 16.6046V20.9455H208.976V16.6046H208.347ZM208.835 18.2407V18.7563H209.604V18.2407H208.835ZM212.842 16.5999V20.9549H213.47V16.5999H212.842ZM211.131 16.9046C210.475 16.9046 209.992 17.5047 209.992 18.4516C209.992 19.4079 210.475 20.008 211.131 20.008C211.788 20.008 212.27 19.4079 212.27 18.4516C212.27 17.5047 211.788 16.9046 211.131 16.9046ZM211.131 17.4719C211.455 17.4719 211.67 17.8141 211.67 18.4516C211.67 19.0985 211.455 19.4454 211.131 19.4454C210.808 19.4454 210.587 19.0985 210.587 18.4516C210.587 17.8141 210.808 17.4719 211.131 17.4719ZM217.332 16.6046V20.9455H217.928V16.6046H217.332ZM216.062 18.1844V18.7329H216.643V18.1844H216.062ZM216.47 16.689V20.744H217.056V16.689H216.47ZM214.192 17.0921V17.589H216.165V17.0921H214.192ZM214.182 19.9611C214.717 19.9611 215.598 19.947 216.273 19.8017L216.231 19.3517C215.574 19.4407 214.66 19.4548 214.117 19.4548L214.182 19.9611ZM214.459 17.4109V19.5861H215.017V17.4109H214.459ZM215.331 17.4109V19.5861H215.893V17.4109H215.331ZM221.429 16.5999V20.9549H222.057V16.5999H221.429ZM219.718 16.9046C219.061 16.9046 218.579 17.5047 218.579 18.4516C218.579 19.4079 219.061 20.008 219.718 20.008C220.374 20.008 220.857 19.4079 220.857 18.4516C220.857 17.5047 220.374 16.9046 219.718 16.9046ZM219.718 17.4719C220.041 17.4719 220.257 17.8141 220.257 18.4516C220.257 19.0985 220.041 19.4454 219.718 19.4454C219.394 19.4454 219.174 19.0985 219.174 18.4516C219.174 17.8141 219.394 17.4719 219.718 17.4719ZM223.791 17.289V17.7766C223.791 18.5126 223.439 19.3142 222.712 19.6376L223.064 20.1299C223.88 19.7595 224.287 18.7798 224.287 17.7766V17.289H223.791ZM223.931 17.289V17.7766C223.931 18.7423 224.334 19.6658 225.159 20.022L225.497 19.5298C224.77 19.2298 224.423 18.4797 224.423 17.7766V17.289H223.931ZM222.886 17.0218V17.5328H225.319V17.0218H222.886ZM225.722 16.6046V20.9455H226.35V16.6046H225.722Z" fill="#282A2D"/>
<path d="M23.612 22.5283V14.7231H27.0188C27.5181 14.7231 27.9435 14.811 28.2951 14.9868C28.6467 15.1626 28.9139 15.3981 29.0967 15.6935C29.2866 15.9888 29.3815 16.3123 29.3815 16.6638C29.3815 17.0225 29.3147 17.3178 29.1811 17.5498C29.0545 17.7819 28.8998 17.9647 28.717 18.0983C28.5412 18.2249 28.3795 18.3128 28.2318 18.362V18.4358C28.4147 18.4851 28.6186 18.58 28.8436 18.7206C29.0756 18.8613 29.276 19.0617 29.4448 19.3218C29.6136 19.575 29.6979 19.9055 29.6979 20.3133C29.6979 20.679 29.61 21.0341 29.4343 21.3786C29.2585 21.7162 28.9807 21.9939 28.601 22.2119C28.2213 22.4228 27.7185 22.5283 27.0927 22.5283H23.612ZM26.829 15.9361H25.0464V17.9717H26.829C27.2368 17.9717 27.5322 17.8698 27.715 17.6659C27.8978 17.4619 27.9892 17.2229 27.9892 16.9486C27.9892 16.6814 27.8978 16.4459 27.715 16.2419C27.5322 16.038 27.2368 15.9361 26.829 15.9361ZM26.9345 19.0687H25.0464V21.3153H26.9345C27.3986 21.3153 27.7361 21.2028 27.947 20.9778C28.158 20.7528 28.2635 20.4891 28.2635 20.1867C28.2635 19.8914 28.158 19.6312 27.947 19.4062C27.7361 19.1812 27.3986 19.0687 26.9345 19.0687ZM30.9335 22.5283L30.9441 14.5121H32.3363V22.5283H30.9335ZM35.4821 22.6338C34.8985 22.6338 34.4555 22.4545 34.1531 22.0959C33.8578 21.7372 33.7101 21.2767 33.7101 20.7141V16.9381H35.1024V20.4821C35.1024 20.7844 35.1833 21.027 35.345 21.2099C35.5067 21.3857 35.7353 21.4736 36.0306 21.4736C36.2908 21.4736 36.5017 21.4068 36.6634 21.2732C36.8252 21.1396 36.9412 20.9673 37.0115 20.7563C37.0889 20.5454 37.1275 20.3274 37.1275 20.1024V16.9381H38.5304V22.5283H37.1275V21.7267H37.0643C36.9939 21.8533 36.892 21.9869 36.7584 22.1275C36.6318 22.2681 36.463 22.3877 36.2521 22.4861C36.0482 22.5846 35.7915 22.6338 35.4821 22.6338ZM42.4958 22.6338C42.0176 22.6338 41.6028 22.5529 41.2512 22.3912C40.9066 22.2224 40.6183 22.0009 40.3863 21.7267C40.1613 21.4454 39.9925 21.1325 39.88 20.788C39.7675 20.4434 39.7112 20.0918 39.7112 19.7332C39.7112 19.3746 39.764 19.0265 39.8694 18.689C39.982 18.3444 40.1472 18.0315 40.3652 17.7502C40.5902 17.469 40.875 17.2475 41.2195 17.0857C41.5641 16.917 41.9719 16.8326 42.4431 16.8326C42.9493 16.8326 43.3959 16.9451 43.7826 17.1701C44.1694 17.3951 44.4717 17.7256 44.6897 18.1616C44.9077 18.5905 45.0167 19.125 45.0167 19.7648V20.1235H41.1246C41.1457 20.5032 41.2758 20.8337 41.5149 21.1149C41.754 21.3892 42.0809 21.5263 42.4958 21.5263C42.7349 21.5263 42.9318 21.4876 43.0865 21.4103C43.2412 21.3329 43.3607 21.245 43.4451 21.1466C43.5295 21.0411 43.5892 20.9532 43.6244 20.8829C43.6596 20.8055 43.6771 20.7669 43.6771 20.7669H44.9745C44.9745 20.7669 44.9569 20.8302 44.9218 20.9567C44.8866 21.0763 44.8198 21.231 44.7213 21.4208C44.6299 21.6036 44.4928 21.79 44.31 21.9798C44.1272 22.1627 43.8881 22.3174 43.5928 22.4439C43.2974 22.5705 42.9318 22.6338 42.4958 22.6338ZM41.1246 19.2058H43.6666C43.6455 18.7699 43.5154 18.4464 43.2763 18.2354C43.0372 18.0245 42.756 17.919 42.4325 17.919C42.0739 17.919 41.775 18.035 41.536 18.2671C41.2969 18.4921 41.1598 18.805 41.1246 19.2058ZM46.2647 22.5283V14.7231H49.3024C49.8649 14.7231 50.3431 14.8286 50.7369 15.0395C51.1377 15.2434 51.4401 15.5247 51.644 15.8833C51.8549 16.2349 51.9604 16.6322 51.9604 17.0752C51.9604 17.5745 51.8268 18.021 51.5596 18.4147C51.2924 18.8015 50.9056 19.0828 50.3994 19.2586L52.1925 22.5283H50.5998L48.9332 19.4273H47.6992V22.5283H46.2647ZM49.2813 15.9677H47.6992V18.2565H49.2813C49.6821 18.2565 49.988 18.144 50.199 17.919C50.4099 17.687 50.5154 17.4162 50.5154 17.1068C50.5154 16.7974 50.4099 16.5302 50.199 16.3052C49.988 16.0802 49.6821 15.9677 49.2813 15.9677ZM55.7297 22.6338C55.118 22.6338 54.5976 22.4967 54.1687 22.2224C53.7397 21.9482 53.4128 21.5931 53.1877 21.1571C52.9698 20.7141 52.8608 20.2395 52.8608 19.7332C52.8608 19.2269 52.9698 18.7558 53.1877 18.3198C53.4128 17.8768 53.7397 17.5182 54.1687 17.244C54.5976 16.9697 55.118 16.8326 55.7297 16.8326C56.3485 16.8326 56.8689 16.9697 57.2908 17.244C57.7197 17.5182 58.0432 17.8768 58.2611 18.3198C58.4862 18.7558 58.5987 19.2269 58.5987 19.7332C58.5987 20.2395 58.4862 20.7141 58.2611 21.1571C58.0432 21.5931 57.7197 21.9482 57.2908 22.2224C56.8689 22.4967 56.3485 22.6338 55.7297 22.6338ZM55.7297 21.463C56.0461 21.463 56.3098 21.3821 56.5208 21.2204C56.7388 21.0587 56.904 20.8477 57.0165 20.5876C57.129 20.3204 57.1853 20.0356 57.1853 19.7332C57.1853 19.4238 57.129 19.139 57.0165 18.8788C56.904 18.6187 56.7388 18.4077 56.5208 18.246C56.3098 18.0843 56.0461 18.0034 55.7297 18.0034C55.4203 18.0034 55.1566 18.0843 54.9386 18.246C54.7207 18.4077 54.5554 18.6187 54.4429 18.8788C54.3304 19.139 54.2741 19.4238 54.2741 19.7332C54.2741 20.0356 54.3304 20.3204 54.4429 20.5876C54.5554 20.8477 54.7207 21.0587 54.9386 21.2204C55.1566 21.3821 55.4203 21.463 55.7297 21.463ZM62.5156 22.6338C61.9039 22.6338 61.3835 22.4967 60.9546 22.2224C60.5257 21.9482 60.1987 21.5931 59.9737 21.1571C59.7557 20.7141 59.6467 20.2395 59.6467 19.7332C59.6467 19.2269 59.7557 18.7558 59.9737 18.3198C60.1987 17.8768 60.5257 17.5182 60.9546 17.244C61.3835 16.9697 61.9039 16.8326 62.5156 16.8326C63.1344 16.8326 63.6548 16.9697 64.0767 17.244C64.5056 17.5182 64.8291 17.8768 65.0471 18.3198C65.2721 18.7558 65.3846 19.2269 65.3846 19.7332C65.3846 20.2395 65.2721 20.7141 65.0471 21.1571C64.8291 21.5931 64.5056 21.9482 64.0767 22.2224C63.6548 22.4967 63.1344 22.6338 62.5156 22.6338ZM62.5156 21.463C62.8321 21.463 63.0958 21.3821 63.3067 21.2204C63.5247 21.0587 63.6899 20.8477 63.8025 20.5876C63.915 20.3204 63.9712 20.0356 63.9712 19.7332C63.9712 19.4238 63.915 19.139 63.8025 18.8788C63.6899 18.6187 63.5247 18.4077 63.3067 18.246C63.0958 18.0843 62.8321 18.0034 62.5156 18.0034C62.2062 18.0034 61.9426 18.0843 61.7246 18.246C61.5066 18.4077 61.3413 18.6187 61.2288 18.8788C61.1163 19.139 61.0601 19.4238 61.0601 19.7332C61.0601 20.0356 61.1163 20.3204 61.2288 20.5876C61.3413 20.8477 61.5066 21.0587 61.7246 21.2204C61.9426 21.3821 62.2062 21.463 62.5156 21.463ZM67.1401 22.5283V18.0667H66.2435V16.9381H67.1401V16.4212C67.1401 16.2103 67.1682 15.9888 67.2244 15.7567C67.2807 15.5177 67.3756 15.2962 67.5092 15.0922C67.6499 14.8883 67.8432 14.7231 68.0893 14.5965C68.3425 14.4699 68.6589 14.4067 69.0386 14.4067C69.2496 14.4067 69.4219 14.4242 69.5555 14.4594C69.6961 14.4875 69.7664 14.5016 69.7664 14.5016V15.5247C69.7664 15.5247 69.7207 15.5177 69.6293 15.5036C69.5379 15.4825 69.4394 15.472 69.334 15.472C69.0316 15.472 68.8242 15.5599 68.7116 15.7357C68.5991 15.9114 68.5429 16.14 68.5429 16.4212V16.9381H69.7348V18.0667H68.5429V22.5283H67.1401Z" fill="#0028FF"/>
<path d="M360.705 19.6499V16.6145H361.107V19.2971H362.67V19.6499H360.705ZM364.072 19.6909C363.84 19.6909 363.644 19.6376 363.486 19.5309C363.327 19.4216 363.207 19.2807 363.125 19.1085C363.043 18.9362 363.002 18.7543 363.002 18.5629C363.002 18.3688 363.043 18.1869 363.125 18.0174C363.207 17.8451 363.327 17.7056 363.486 17.599C363.644 17.4896 363.84 17.4349 364.072 17.4349C364.305 17.4349 364.5 17.4896 364.659 17.599C364.817 17.7056 364.938 17.8451 365.02 18.0174C365.102 18.1869 365.143 18.3688 365.143 18.5629C365.143 18.7543 365.102 18.9362 365.02 19.1085C364.938 19.2807 364.817 19.4216 364.659 19.5309C364.5 19.6376 364.305 19.6909 364.072 19.6909ZM364.072 19.3505C364.22 19.3505 364.343 19.3136 364.441 19.2397C364.543 19.1631 364.618 19.0647 364.667 18.9444C364.719 18.8241 364.745 18.6969 364.745 18.5629C364.745 18.4262 364.719 18.299 364.667 18.1814C364.618 18.0611 364.543 17.964 364.441 17.8902C364.343 17.8136 364.22 17.7754 364.072 17.7754C363.927 17.7754 363.804 17.8136 363.703 17.8902C363.602 17.964 363.525 18.0611 363.473 18.1814C363.424 18.299 363.4 18.4262 363.4 18.5629C363.4 18.6969 363.424 18.8241 363.473 18.9444C363.525 19.0647 363.602 19.1631 363.703 19.2397C363.804 19.3136 363.927 19.3505 364.072 19.3505ZM366.684 20.5113C366.503 20.5113 366.353 20.4867 366.232 20.4375C366.112 20.391 366.015 20.3308 365.941 20.257C365.87 20.1859 365.817 20.1148 365.781 20.0437C365.746 19.9726 365.722 19.9124 365.711 19.8632C365.7 19.8167 365.695 19.7935 365.695 19.7935H366.085C366.085 19.7935 366.092 19.8126 366.105 19.8509C366.119 19.8892 366.145 19.9329 366.183 19.9822C366.224 20.0314 366.284 20.0751 366.364 20.1134C366.443 20.1517 366.55 20.1708 366.684 20.1708C366.842 20.1708 366.967 20.1394 367.057 20.0765C367.147 20.0163 367.211 19.937 367.25 19.8386C367.291 19.7401 367.311 19.6362 367.311 19.5268V19.2766H367.291C367.263 19.3231 367.22 19.3764 367.159 19.4366C367.102 19.494 367.025 19.5446 366.93 19.5884C366.834 19.6294 366.716 19.6499 366.577 19.6499C366.413 19.6499 366.269 19.6185 366.146 19.5556C366.023 19.4927 365.921 19.4079 365.839 19.3012C365.759 19.1946 365.699 19.0756 365.658 18.9444C365.617 18.8131 365.597 18.6791 365.597 18.5424C365.597 18.4057 365.617 18.2717 365.658 18.1404C365.699 18.0092 365.759 17.8902 365.839 17.7836C365.921 17.6769 366.023 17.5921 366.146 17.5292C366.269 17.4663 366.413 17.4349 366.577 17.4349C366.716 17.4349 366.834 17.4568 366.93 17.5005C367.025 17.5416 367.102 17.5908 367.159 17.6482C367.22 17.7056 367.263 17.7589 367.291 17.8082H367.311V17.4759H367.701V19.5227C367.701 19.8263 367.612 20.0669 367.434 20.2447C367.259 20.4224 367.009 20.5113 366.684 20.5113ZM366.651 19.3177C366.796 19.3177 366.916 19.2807 367.012 19.2069C367.11 19.1303 367.183 19.0333 367.229 18.9157C367.278 18.7981 367.303 18.6737 367.303 18.5424C367.303 18.4111 367.278 18.2867 367.229 18.1691C367.183 18.0488 367.11 17.9517 367.012 17.8779C366.916 17.8041 366.796 17.7672 366.651 17.7672C366.506 17.7672 366.384 17.8041 366.286 17.8779C366.187 17.9517 366.113 18.0488 366.064 18.1691C366.018 18.2867 365.994 18.4111 365.994 18.5424C365.994 18.6737 366.018 18.7981 366.064 18.9157C366.113 19.0333 366.187 19.1303 366.286 19.2069C366.384 19.2807 366.506 19.3177 366.651 19.3177ZM368.511 17.0616C368.437 17.0616 368.375 17.037 368.326 16.9878C368.28 16.9386 368.257 16.8798 368.257 16.8114C368.257 16.7403 368.28 16.6802 368.326 16.6309C368.375 16.5817 368.437 16.5571 368.511 16.5571C368.582 16.5571 368.642 16.5817 368.691 16.6309C368.741 16.6802 368.765 16.7403 368.765 16.8114C368.765 16.8798 368.741 16.9386 368.691 16.9878C368.642 17.037 368.582 17.0616 368.511 17.0616ZM368.318 19.6499V17.4759H368.708V19.6499H368.318ZM369.321 19.6499V17.4759H369.711V17.7918H369.736C369.755 17.7589 369.786 17.7138 369.83 17.6564C369.876 17.599 369.942 17.5484 370.027 17.5046C370.112 17.4581 370.218 17.4349 370.347 17.4349C370.505 17.4349 370.641 17.4718 370.753 17.5457C370.865 17.6168 370.95 17.7138 371.007 17.8369C371.067 17.9599 371.097 18.098 371.097 18.2512V19.6499H370.708V18.2758C370.708 18.1308 370.667 18.0105 370.585 17.9148C370.505 17.8191 370.389 17.7713 370.236 17.7713C370.113 17.7713 370.013 17.8027 369.937 17.8656C369.86 17.9258 369.803 18.0064 369.764 18.1076C369.729 18.2061 369.711 18.3113 369.711 18.4234V19.6499H369.321Z" fill="#3981F7"/>
<rect x="349.39" y="11.2803" width="33.9742" height="14.7388" rx="7.36938" stroke="#3981F7" stroke-width="0.292989"/>
<rect x="396.708" y="11.1338" width="33.7513" height="15.0317" rx="7.51587" fill="#0028FF"/>
<path d="M407.671 19.6909C407.496 19.6909 407.346 19.669 407.22 19.6253C407.097 19.5788 406.994 19.52 406.912 19.4489C406.83 19.3751 406.764 19.2985 406.715 19.2192C406.666 19.1399 406.629 19.0647 406.604 18.9936C406.58 18.9198 406.563 18.861 406.555 18.8172C406.55 18.7707 406.547 18.7475 406.547 18.7475H406.957C406.957 18.7475 406.961 18.7666 406.97 18.8049C406.978 18.8432 406.994 18.8911 407.019 18.9485C407.046 19.0059 407.086 19.0647 407.138 19.1249C407.19 19.1823 407.259 19.2301 407.347 19.2684C407.434 19.3067 407.545 19.3259 407.679 19.3259C407.881 19.3259 408.041 19.278 408.159 19.1823C408.277 19.0838 408.335 18.9567 408.335 18.8008C408.335 18.6668 408.29 18.5629 408.2 18.4891C408.113 18.4152 407.987 18.3578 407.823 18.3168L407.421 18.2184C407.279 18.1828 407.146 18.1336 407.023 18.0707C406.903 18.0051 406.805 17.9203 406.732 17.8164C406.661 17.7097 406.625 17.5771 406.625 17.4185C406.625 17.2407 406.669 17.089 406.756 16.9632C406.844 16.8374 406.963 16.7417 407.113 16.6761C407.263 16.6077 407.434 16.5735 407.626 16.5735C407.812 16.5735 407.966 16.6022 408.089 16.6597C408.212 16.7171 408.311 16.7882 408.385 16.8729C408.458 16.955 408.513 17.0384 408.549 17.1232C408.584 17.2052 408.608 17.2749 408.618 17.3324C408.629 17.3898 408.635 17.4185 408.635 17.4185H408.241C408.241 17.4185 408.236 17.3939 408.225 17.3447C408.214 17.2954 408.188 17.2394 408.147 17.1765C408.106 17.1109 408.043 17.0534 407.958 17.0042C407.873 16.955 407.758 16.9304 407.614 16.9304C407.417 16.9304 407.268 16.9769 407.166 17.0698C407.068 17.1628 407.019 17.2695 407.019 17.3898C407.019 17.4992 407.058 17.588 407.138 17.6564C407.217 17.722 407.326 17.7726 407.466 17.8082L407.901 17.9148C408.057 17.9531 408.197 18.0092 408.323 18.083C408.449 18.1541 408.549 18.2471 408.623 18.3619C408.696 18.474 408.733 18.6121 408.733 18.7762C408.733 18.9403 408.692 19.0921 408.61 19.2315C408.531 19.371 408.412 19.4831 408.253 19.5679C408.098 19.6499 407.903 19.6909 407.671 19.6909ZM409.454 17.0616C409.38 17.0616 409.319 17.037 409.269 16.9878C409.223 16.9386 409.2 16.8798 409.2 16.8114C409.2 16.7403 409.223 16.6802 409.269 16.6309C409.319 16.5817 409.38 16.5571 409.454 16.5571C409.525 16.5571 409.585 16.5817 409.634 16.6309C409.684 16.6802 409.708 16.7403 409.708 16.8114C409.708 16.8798 409.684 16.9386 409.634 16.9878C409.585 17.037 409.525 17.0616 409.454 17.0616ZM409.261 19.6499V17.4759H409.651V19.6499H409.261ZM411.31 20.5113C411.13 20.5113 410.979 20.4867 410.859 20.4375C410.739 20.391 410.642 20.3308 410.568 20.257C410.497 20.1859 410.443 20.1148 410.408 20.0437C410.372 19.9726 410.349 19.9124 410.338 19.8632C410.327 19.8167 410.322 19.7935 410.322 19.7935H410.711C410.711 19.7935 410.718 19.8126 410.732 19.8509C410.746 19.8892 410.772 19.9329 410.81 19.9822C410.851 20.0314 410.911 20.0751 410.99 20.1134C411.07 20.1517 411.176 20.1708 411.31 20.1708C411.469 20.1708 411.593 20.1394 411.684 20.0765C411.774 20.0163 411.838 19.937 411.876 19.8386C411.917 19.7401 411.938 19.6362 411.938 19.5268V19.2766H411.917C411.89 19.3231 411.846 19.3764 411.786 19.4366C411.729 19.494 411.652 19.5446 411.556 19.5884C411.461 19.6294 411.343 19.6499 411.204 19.6499C411.04 19.6499 410.896 19.6185 410.773 19.5556C410.65 19.4927 410.547 19.4079 410.465 19.3012C410.386 19.1946 410.326 19.0756 410.285 18.9444C410.244 18.8131 410.223 18.6791 410.223 18.5424C410.223 18.4057 410.244 18.2717 410.285 18.1404C410.326 18.0092 410.386 17.8902 410.465 17.7836C410.547 17.6769 410.65 17.5921 410.773 17.5292C410.896 17.4663 411.04 17.4349 411.204 17.4349C411.343 17.4349 411.461 17.4568 411.556 17.5005C411.652 17.5416 411.729 17.5908 411.786 17.6482C411.846 17.7056 411.89 17.7589 411.917 17.8082H411.938V17.4759H412.328V19.5227C412.328 19.8263 412.239 20.0669 412.061 20.2447C411.886 20.4224 411.636 20.5113 411.31 20.5113ZM411.277 19.3177C411.422 19.3177 411.543 19.2807 411.638 19.2069C411.737 19.1303 411.809 19.0333 411.856 18.9157C411.905 18.7981 411.93 18.6737 411.93 18.5424C411.93 18.4111 411.905 18.2867 411.856 18.1691C411.809 18.0488 411.737 17.9517 411.638 17.8779C411.543 17.8041 411.422 17.7672 411.277 17.7672C411.132 17.7672 411.011 17.8041 410.912 17.8779C410.814 17.9517 410.74 18.0488 410.691 18.1691C410.644 18.2867 410.621 18.4111 410.621 18.5424C410.621 18.6737 410.644 18.7981 410.691 18.9157C410.74 19.0333 410.814 19.1303 410.912 19.2069C411.011 19.2807 411.132 19.3177 411.277 19.3177ZM412.883 19.6499V17.4759H413.273V17.7918H413.298C413.317 17.7589 413.348 17.7138 413.392 17.6564C413.438 17.599 413.504 17.5484 413.589 17.5046C413.674 17.4581 413.78 17.4349 413.909 17.4349C414.067 17.4349 414.203 17.4718 414.315 17.5457C414.427 17.6168 414.512 17.7138 414.569 17.8369C414.629 17.9599 414.659 18.098 414.659 18.2512V19.6499H414.27V18.2758C414.27 18.1308 414.229 18.0105 414.147 17.9148C414.067 17.8191 413.951 17.7713 413.798 17.7713C413.675 17.7713 413.575 17.8027 413.498 17.8656C413.422 17.9258 413.365 18.0064 413.326 18.1076C413.291 18.2061 413.273 18.3113 413.273 18.4234V19.6499H412.883ZM416.856 19.6909C416.64 19.6909 416.468 19.6239 416.339 19.4899C416.211 19.3559 416.146 19.17 416.146 18.9321V17.4759H416.536V18.9116C416.536 19.0538 416.574 19.1631 416.651 19.2397C416.73 19.3163 416.834 19.3546 416.963 19.3546C417.094 19.3546 417.199 19.3204 417.278 19.252C417.358 19.1837 417.415 19.0962 417.451 18.9895C417.486 18.8829 417.504 18.7735 417.504 18.6614V17.4759H417.894V19.6499H417.504V19.3382H417.479C417.463 19.371 417.432 19.4161 417.385 19.4735C417.339 19.5282 417.273 19.5788 417.188 19.6253C417.103 19.669 416.993 19.6909 416.856 19.6909ZM418.494 20.4539V17.4759H418.883V17.8205H418.908C418.941 17.7685 418.985 17.7125 419.039 17.6523C419.097 17.5921 419.172 17.5416 419.265 17.5005C419.358 17.4568 419.473 17.4349 419.61 17.4349C419.774 17.4349 419.917 17.4677 420.04 17.5333C420.163 17.5962 420.266 17.6824 420.348 17.7918C420.43 17.8984 420.491 18.0187 420.532 18.1527C420.573 18.2867 420.594 18.4234 420.594 18.5629C420.594 18.7024 420.573 18.8391 420.532 18.9731C420.491 19.1071 420.43 19.2288 420.348 19.3382C420.266 19.4448 420.163 19.5309 420.04 19.5966C419.917 19.6595 419.774 19.6909 419.61 19.6909C419.473 19.6909 419.358 19.669 419.265 19.6253C419.172 19.5815 419.097 19.5296 419.039 19.4694C418.985 19.4093 418.941 19.3546 418.908 19.3053H418.883V20.4539H418.494ZM418.892 18.5629C418.892 18.6942 418.915 18.8213 418.961 18.9444C419.011 19.0647 419.083 19.1645 419.179 19.2438C419.277 19.3204 419.399 19.3587 419.544 19.3587C419.692 19.3587 419.813 19.3204 419.909 19.2438C420.007 19.1645 420.08 19.0647 420.126 18.9444C420.176 18.8213 420.2 18.6942 420.2 18.5629C420.2 18.4289 420.176 18.3018 420.126 18.1814C420.08 18.0611 420.007 17.9627 419.909 17.8861C419.813 17.8068 419.692 17.7672 419.544 17.7672C419.399 17.7672 419.277 17.8068 419.179 17.8861C419.083 17.9627 419.011 18.0611 418.961 18.1814C418.915 18.3018 418.892 18.4289 418.892 18.5629Z" fill="white"/>
<path d="M0 35.4517H72.3684C75.6047 35.4517 78.2282 38.0752 78.2282 41.3114V281.856C78.2282 285.092 75.6046 287.716 72.3684 287.716H0V35.4517Z" fill="#0028FF" fill-opacity="0.8"/>
<path d="M14.2232 70.1034V70.8698H15.3694V70.1034H14.2232ZM13.5271 67.6352V74.1466H14.4693V67.6352H13.5271ZM9.56117 68.2611V72.3043H10.4964V68.2611H9.56117ZM9.56117 71.784V72.5575H10.1237C11.08 72.5575 12.1278 72.5012 13.2036 72.2762L13.1052 71.5097C12.0574 71.7207 11.0519 71.784 10.1237 71.784H9.56117ZM17.9284 68.0712C16.9088 68.0712 16.1283 68.7392 16.1283 69.6744C16.1283 70.6167 16.9088 71.2847 17.9284 71.2847C18.955 71.2847 19.7215 70.6167 19.7215 69.6744C19.7215 68.7392 18.955 68.0712 17.9284 68.0712ZM17.9284 68.8728C18.4276 68.8728 18.8074 69.1681 18.8074 69.6744C18.8074 70.1878 18.4276 70.4831 17.9284 70.4831C17.4291 70.4831 17.0494 70.1878 17.0494 69.6744C17.0494 69.1681 17.4291 68.8728 17.9284 68.8728ZM20.3333 67.6352V74.1677H21.2685V67.6352H20.3333ZM15.9736 72.8458C17.0986 72.8458 18.6316 72.8317 20.045 72.5504L19.9746 71.8754C18.6034 72.0793 17.0072 72.0934 15.8611 72.0934L15.9736 72.8458ZM25.3917 68.7814V69.0205C25.3917 69.7588 24.9346 70.5042 23.8869 70.7995L24.3228 71.5308C25.5675 71.1722 26.1441 70.1526 26.1441 69.0205V68.7814H25.3917ZM25.5675 68.7814V69.0205C25.5675 70.0893 26.1652 71.0386 27.4168 71.3691L27.8387 70.6448C26.791 70.3706 26.3269 69.6885 26.3269 69.0205V68.7814H25.5675ZM24.1119 68.3173V69.0486H27.6067V68.3173H24.1119ZM25.3917 67.6212V68.6056H26.3269V67.6212H25.3917ZM27.4238 69.3791V70.1315H28.6685V69.3791H27.4238ZM28.4434 67.6423V71.573H29.3787V67.6423H28.4434ZM27.1707 71.6855C25.7925 71.6855 24.9416 72.1355 24.9416 72.9161C24.9416 73.6966 25.7925 74.1537 27.1707 74.1537C28.5489 74.1537 29.3998 73.6966 29.3998 72.9161C29.3998 72.1355 28.5489 71.6855 27.1707 71.6855ZM27.1707 72.3957C28.0286 72.3957 28.4716 72.5645 28.4716 72.9161C28.4716 73.2677 28.0286 73.4435 27.1707 73.4435C26.3198 73.4435 25.8768 73.2677 25.8768 72.9161C25.8768 72.5645 26.3198 72.3957 27.1707 72.3957ZM35.2356 68.4861V69.2525H36.3606V68.4861H35.2356ZM35.2356 69.8995V70.6659H36.3606V69.8995H35.2356ZM34.5886 67.6423V71.4816H35.5239V67.6423H34.5886ZM31.1782 71.7488V72.4942H34.5886V74.1537H35.5239V71.7488H31.1782ZM32.2119 67.9938C31.2064 67.9938 30.4399 68.6619 30.4399 69.5901C30.4399 70.5182 31.2064 71.1792 32.2119 71.1792C33.2174 71.1792 33.9839 70.5182 33.9839 69.5901C33.9839 68.6619 33.2174 67.9938 32.2119 67.9938ZM32.2119 68.7884C32.7041 68.7884 33.0698 69.0767 33.0698 69.5901C33.0698 70.1034 32.7041 70.3987 32.2119 70.3987C31.7197 70.3987 31.354 70.1034 31.354 69.5901C31.354 69.0767 31.7197 68.7884 32.2119 68.7884ZM42.0238 69.2174V69.9768H43.2614V69.2174H42.0238ZM43.0082 67.6423V71.5097H43.9434V67.6423H43.0082ZM41.7355 71.6504C40.3572 71.6504 39.5064 72.1215 39.5064 72.909C39.5064 73.7036 40.3572 74.1607 41.7355 74.1607C43.1137 74.1607 43.9645 73.7036 43.9645 72.909C43.9645 72.1215 43.1137 71.6504 41.7355 71.6504ZM41.7355 72.3606C42.5863 72.3606 43.0363 72.5364 43.0363 72.909C43.0363 73.2747 42.5863 73.4505 41.7355 73.4505C40.8917 73.4505 40.4416 73.2747 40.4416 72.909C40.4416 72.5364 40.8917 72.3606 41.7355 72.3606ZM39.9986 68.2962V68.7041C39.9986 69.5408 39.5345 70.4057 38.4587 70.7714L38.9368 71.5097C40.1815 71.0878 40.7581 69.9487 40.7581 68.7041V68.2962H39.9986ZM40.1955 68.2962V68.7041C40.1955 69.8643 40.751 70.9472 41.9605 71.348L42.4175 70.6097C41.3909 70.2651 40.9479 69.4705 40.9479 68.7041V68.2962H40.1955ZM38.7118 68.036V68.7814H42.2136V68.036H38.7118ZM44.9695 72.6418V73.4013H50.8621V72.6418H44.9695ZM47.4377 71.2495V72.8247H48.3729V71.2495H47.4377ZM45.5883 68.0571V71.4464H50.2222V68.0571H49.294V69.0556H46.5165V68.0571H45.5883ZM46.5165 69.7869H49.294V70.7011H46.5165V69.7869Z" fill="white"/>
<path d="M13.5444 83.8831V84.2493H12.0529V83.8831H13.5444ZM15.8263 81.7635V81.9698C15.8263 82.537 15.0856 83.0339 14.3355 83.1464L14.4902 83.4558C15.3481 83.3058 16.1591 82.7386 16.1591 81.9698V81.7635H15.8263ZM15.8872 81.7635V81.9698C15.8872 82.7198 16.7029 83.3011 17.5608 83.4464L17.7061 83.1417C16.9701 83.0292 16.22 82.5229 16.22 81.9698V81.7635H15.8872ZM14.1058 83.8121V84.1309H17.9452V83.8121H14.1058ZM15.8591 84.009V84.984H16.2482V84.009H15.8591ZM14.5934 85.481V85.7997H17.5186V85.481H14.5934ZM14.5934 84.5762V85.5841H14.9778V84.5762H14.5934ZM19.8059 81.8526C19.1777 81.8526 18.7277 82.2042 18.7277 82.7245C18.7277 83.2402 19.1777 83.6011 19.8059 83.6011C20.4387 83.6011 20.8888 83.2402 20.8888 82.7245C20.8888 82.2042 20.4387 81.8526 19.8059 81.8526ZM19.8059 82.176C20.2184 82.176 20.5137 82.401 20.5137 82.7245C20.5137 83.0527 20.2184 83.273 19.8059 83.273C19.3933 83.273 19.098 83.0527 19.098 82.7245C19.098 82.401 19.3933 82.176 19.8059 82.176ZM19.6324 84.0699V85.7622H20.0215V84.0699H19.6324ZM21.5076 81.6557V85.8982H21.892V81.6557H21.5076ZM18.4652 84.2809C19.2386 84.2809 20.2793 84.2668 21.2357 84.0934L21.2075 83.8027C20.2747 83.9433 19.2011 83.9527 18.4136 83.9527L18.4652 84.2809ZM13.5444 89.64V90.0063H12.0529V89.64H13.5444ZM14.0688 91.5278V91.2282L15.1942 89.9963C15.3262 89.852 15.435 89.7266 15.5205 89.6201C15.6059 89.5124 15.6692 89.4114 15.7102 89.3171C15.7524 89.2216 15.7735 89.1218 15.7735 89.0174C15.7735 88.8976 15.7446 88.7938 15.6869 88.7061C15.6303 88.6185 15.5526 88.5508 15.4539 88.503C15.3551 88.4553 15.2441 88.4315 15.1209 88.4315C14.99 88.4315 14.8757 88.4587 14.778 88.513C14.6814 88.5663 14.6065 88.6412 14.5533 88.7378C14.5011 88.8343 14.475 88.9475 14.475 89.0774H14.0821C14.0821 88.8776 14.1282 88.7023 14.2203 88.5513C14.3124 88.4004 14.4378 88.2828 14.5965 88.1984C14.7563 88.1141 14.9356 88.0719 15.1342 88.0719C15.334 88.0719 15.511 88.1141 15.6653 88.1984C15.8195 88.2828 15.9405 88.3965 16.0282 88.5397C16.1159 88.6828 16.1597 88.8421 16.1597 89.0174C16.1597 89.1429 16.137 89.2655 16.0914 89.3853C16.0471 89.5041 15.9694 89.6367 15.8584 89.7832C15.7485 89.9286 15.5959 90.1062 15.4006 90.3159L14.6348 91.135V91.1616H16.2196V91.5278H14.0688ZM19.8826 87.6557V90.7965H20.2717V87.6557H19.8826ZM18.6872 88.2088V88.5229H20.0279V88.2088H18.6872ZM17.5621 91.481V91.7997H20.3842V91.481H17.5621ZM17.5621 90.5246V91.6263H17.9512V90.5246H17.5621ZM17.0324 87.9651V89.9621H17.4215V87.9651H17.0324ZM17.0324 89.8402V90.1637H17.3512C17.9747 90.1637 18.5419 90.1355 19.2216 90.0137L19.1841 89.6902C18.5231 89.8074 17.9559 89.8402 17.3512 89.8402H17.0324ZM18.6872 89.0152V89.3339H20.0279V89.0152H18.6872ZM25.6354 87.6557V91.8935H26.0104V87.6557H25.6354ZM24.9228 89.3808V89.6996H25.7385V89.3808H24.9228ZM24.6744 87.7494V91.6778H25.04V87.7494H24.6744ZM22.6211 88.1667V90.6137H23.0102V88.1667H22.6211ZM22.6211 90.459V90.7965H22.893C23.3477 90.7965 23.8352 90.7731 24.4119 90.6606L24.3697 90.3231C23.8165 90.4309 23.329 90.459 22.893 90.459H22.6211ZM30.9522 87.6557V90.173H31.3413V87.6557H30.9522ZM31.2288 88.7573V89.0808H31.9648V88.7573H31.2288ZM29.9865 90.2621C29.1286 90.2621 28.5942 90.5668 28.5942 91.0778C28.5942 91.5888 29.1286 91.8888 29.9865 91.8888C30.8444 91.8888 31.3788 91.5888 31.3788 91.0778C31.3788 90.5668 30.8444 90.2621 29.9865 90.2621ZM29.9865 90.5809C30.6147 90.5809 30.9991 90.759 30.9991 91.0778C30.9991 91.3872 30.6147 91.57 29.9865 91.57C29.3583 91.57 28.9739 91.3872 28.9739 91.0778C28.9739 90.759 29.3583 90.5809 29.9865 90.5809ZM28.2379 89.5214V89.8402H28.5661C29.4614 89.8402 29.963 89.8121 30.549 89.6949L30.5021 89.3761C29.9349 89.4933 29.4427 89.5214 28.5661 89.5214H28.2379ZM28.2379 87.9791V89.7277H28.6223V88.2979H30.1084V87.9791H28.2379ZM33.4176 88.3682V88.5511C33.4176 89.1089 32.991 89.6011 32.3629 89.7933L32.5504 90.098C33.2582 89.8683 33.7364 89.2777 33.7364 88.5511V88.3682H33.4176ZM33.4879 88.3682V88.5511C33.4879 89.2495 33.9755 89.8074 34.688 90.023L34.8708 89.7136C34.2427 89.5308 33.8067 89.0761 33.8067 88.5511V88.3682H33.4879ZM32.48 88.1526V88.4667H34.7396V88.1526H32.48ZM33.4176 87.6369V88.2792H33.8067V87.6369H33.4176ZM34.6224 88.837V89.1605H35.5646V88.837H34.6224ZM35.4568 87.6557V90.1637H35.8459V87.6557H35.4568ZM33.0988 90.384V91.8372H35.8459V90.384H33.0988ZM35.4662 90.6934V91.5231H33.4786V90.6934H35.4662ZM41.069 87.651V91.8982H41.4581V87.651H41.069ZM39.222 87.9791C38.5985 87.9791 38.1484 88.5557 38.1484 89.4558C38.1484 90.3606 38.5985 90.9372 39.222 90.9372C39.8501 90.9372 40.3002 90.3606 40.3002 89.4558C40.3002 88.5557 39.8501 87.9791 39.222 87.9791ZM39.222 88.3307C39.6392 88.3307 39.9251 88.7714 39.9251 89.4558C39.9251 90.1449 39.6392 90.595 39.222 90.595C38.8094 90.595 38.5188 90.1449 38.5188 89.4558C38.5188 88.7714 38.8094 88.3307 39.222 88.3307ZM42.4796 89.7558V90.0746H42.7843C43.6328 90.0746 44.0547 90.0605 44.5798 89.9668L44.5376 89.6527C44.0313 89.7418 43.6188 89.7558 42.7843 89.7558H42.4796ZM42.4703 87.9088V88.2276H43.9141V88.8089H42.4796V89.948H42.864V89.1136H44.2985V87.9088H42.4703ZM45.4001 87.6604V90.2621H45.7892V87.6604H45.4001ZM44.5798 88.2839V88.6026H45.4892V88.2839H44.5798ZM44.5798 89.1605V89.4792H45.4892V89.1605H44.5798ZM42.9531 90.4918V90.8106H45.4001V91.9029H45.7892V90.4918H42.9531ZM13.5444 95.8831V96.2493H12.0529V95.8831H13.5444ZM15.1653 94.3776V94.5604C15.1653 95.1324 14.7434 95.648 14.1199 95.8496L14.3074 96.1543C15.0153 95.9152 15.4841 95.2964 15.4841 94.5604V94.3776H15.1653ZM15.2356 94.3776V94.5604C15.2356 95.2542 15.7231 95.8261 16.4357 96.0465L16.6138 95.7418C15.9903 95.5589 15.5544 95.0855 15.5544 94.5604V94.3776H15.2356ZM14.2277 94.1667V94.4807H16.4873V94.1667H14.2277ZM15.1653 93.6369V94.2792H15.5544V93.6369H15.1653ZM16.3607 94.8605V95.1839H17.317V94.8605H16.3607ZM17.2045 93.6557V96.2199H17.5936V93.6557H17.2045ZM16.2013 96.3324C15.32 96.3324 14.7856 96.6184 14.7856 97.1106C14.7856 97.5981 15.32 97.8841 16.2013 97.8841C17.0779 97.8841 17.6123 97.5981 17.6123 97.1106C17.6123 96.6184 17.0779 96.3324 16.2013 96.3324ZM16.2013 96.6371C16.8388 96.6371 17.2279 96.8106 17.2279 97.1106C17.2279 97.4059 16.8388 97.5794 16.2013 97.5794C15.5591 97.5794 15.1747 97.4059 15.1747 97.1106C15.1747 96.8106 15.5591 96.6371 16.2013 96.6371ZM21.5919 94.2979V94.6261H22.3279V94.2979H21.5919ZM21.5919 95.2074V95.5308H22.3279V95.2074H21.5919ZM21.32 93.6557V96.173H21.7091V93.6557H21.32ZM18.9574 96.3746V96.6887H21.32V97.8935H21.7091V96.3746H18.9574ZM19.6043 93.9041C18.9668 93.9041 18.498 94.3167 18.498 94.912C18.498 95.5027 18.9668 95.9105 19.6043 95.9105C20.2418 95.9105 20.7106 95.5027 20.7106 94.912C20.7106 94.3167 20.2418 93.9041 19.6043 93.9041ZM19.6043 94.237C20.0262 94.237 20.3309 94.5089 20.3309 94.912C20.3309 95.3105 20.0262 95.5871 19.6043 95.5871C19.1824 95.5871 18.8777 95.3105 18.8777 94.912C18.8777 94.5089 19.1824 94.237 19.6043 94.237ZM24.0492 95.9012V96.2152H27.8791V95.9012H24.0492ZM25.7696 95.3527V96.0324H26.154V95.3527H25.7696ZM24.5555 95.1792V95.4839H27.4291V95.1792H24.5555ZM24.5555 93.7776V95.3433H24.9399V94.0823H27.4103V93.7776H24.5555ZM24.8273 94.4714V94.7714H27.2978V94.4714H24.8273ZM25.9618 96.5293C25.0383 96.5293 24.5086 96.7637 24.5086 97.2091C24.5086 97.6497 25.0383 97.8841 25.9618 97.8841C26.8853 97.8841 27.415 97.6497 27.415 97.2091C27.415 96.7637 26.8853 96.5293 25.9618 96.5293ZM25.9618 96.8247C26.6415 96.8247 27.0213 96.9606 27.0213 97.2091C27.0213 97.4622 26.6415 97.5935 25.9618 97.5935C25.2821 97.5935 24.9024 97.4622 24.9024 97.2091C24.9024 96.9606 25.2821 96.8247 25.9618 96.8247ZM29.407 94.1104V94.4526C29.407 95.0573 28.9851 95.6058 28.3475 95.8308L28.5444 96.1402C29.257 95.8824 29.7258 95.2308 29.7258 94.4526V94.1104H29.407ZM29.4773 94.1104V94.4479C29.4773 95.1699 29.9273 95.7746 30.6352 96.009L30.8227 95.7043C30.1992 95.498 29.7961 95.0011 29.7961 94.4479V94.1104H29.4773ZM28.4647 93.9698V94.2885H30.729V93.9698H28.4647ZM31.2634 93.6557V96.2106H31.6525V93.6557H31.2634ZM31.5446 94.7292V95.0573H32.2806V94.7292H31.5446ZM30.3024 96.3231C29.4398 96.3231 28.9101 96.609 28.9101 97.1012C28.9101 97.5981 29.4398 97.8841 30.3024 97.8841C31.1649 97.8841 31.6947 97.5981 31.6947 97.1012C31.6947 96.609 31.1649 96.3231 30.3024 96.3231ZM30.3024 96.6371C30.9305 96.6371 31.3149 96.8059 31.3149 97.1012C31.3149 97.4013 30.9305 97.5794 30.3024 97.5794C29.6742 97.5794 29.2898 97.4013 29.2898 97.1012C29.2898 96.8059 29.6742 96.6371 30.3024 96.6371Z" fill="black"/>
<path d="M14.1599 114.129V114.622H15.3342V114.129H14.1599ZM13.731 111.591V117.955H14.3217V111.591H13.731ZM9.68071 112.217V116.155H10.2643V112.217H9.68071ZM9.68071 115.852V116.344H10.187C11.1503 116.344 12.1278 116.281 13.2106 116.056L13.1403 115.571C12.0926 115.789 11.1292 115.852 10.187 115.852H9.68071ZM17.9636 112.055C16.9721 112.055 16.2548 112.667 16.2548 113.553C16.2548 114.446 16.9721 115.058 17.9636 115.058C18.955 115.058 19.6652 114.446 19.6652 113.553C19.6652 112.667 18.955 112.055 17.9636 112.055ZM17.9636 112.561C18.6175 112.561 19.0957 112.962 19.0957 113.553C19.0957 114.144 18.6175 114.551 17.9636 114.551C17.3026 114.551 16.8244 114.144 16.8244 113.553C16.8244 112.962 17.3026 112.561 17.9636 112.561ZM20.495 111.591V117.962H21.0786V111.591H20.495ZM16.0158 116.569C17.1479 116.569 18.7019 116.562 20.1293 116.288L20.0801 115.859C18.6949 116.077 17.0916 116.084 15.9314 116.084L16.0158 116.569ZM25.9177 112.505V113.539C25.9177 114.615 25.1512 115.824 24.2441 116.267L24.5816 116.731C25.5731 116.225 26.3818 114.861 26.3818 113.539V112.505H25.9177ZM26.0231 112.505V113.539C26.0231 114.797 26.7896 116.077 27.7951 116.577L28.1256 116.112C27.2045 115.676 26.4872 114.544 26.4872 113.539V112.505H26.0231ZM24.4691 112.245V112.737H27.8936V112.245H24.4691ZM28.646 111.598V117.955H29.2367V111.598H28.646ZM29.096 114.165V114.657H30.2773V114.165H29.096ZM32.3793 111.985V112.765C32.3793 113.75 31.7605 114.608 30.7901 114.952L31.0995 115.416C32.1683 115.001 32.8575 114.01 32.8575 112.765V111.985H32.3793ZM32.4777 111.985V112.786C32.4777 113.904 33.1809 114.875 34.2286 115.255L34.5169 114.797C33.5888 114.467 32.9559 113.651 32.9559 112.786V111.985H32.4777ZM35.1639 111.591V116.288H35.7475V111.591H35.1639ZM35.5647 113.546V114.031H36.6898V113.546H35.5647ZM31.8027 117.336V117.814H36.0288V117.336H31.8027ZM31.8027 115.845V117.568H32.3863V115.845H31.8027ZM42.6539 113.243V113.729H44.0884V113.243H42.6539ZM43.9055 111.598V115.388H44.4892V111.598H43.9055ZM42.4007 115.578C41.0858 115.578 40.2772 116.021 40.2772 116.766C40.2772 117.519 41.0858 117.948 42.4007 117.948C43.7086 117.948 44.5173 117.519 44.5173 116.766C44.5173 116.021 43.7086 115.578 42.4007 115.578ZM42.4007 116.035C43.3571 116.035 43.9407 116.302 43.9407 116.766C43.9407 117.223 43.3571 117.491 42.4007 117.491C41.4444 117.491 40.8608 117.223 40.8608 116.766C40.8608 116.302 41.4444 116.035 42.4007 116.035ZM40.8819 112.238V112.751C40.8819 113.665 40.2279 114.516 39.2857 114.861L39.588 115.325C40.6428 114.931 41.36 113.926 41.36 112.751V112.238H40.8819ZM40.9944 112.238V112.751C40.9944 113.82 41.6765 114.776 42.7101 115.149L43.0055 114.685C42.0843 114.362 41.4655 113.574 41.4655 112.751V112.238H40.9944ZM39.4615 112.062V112.54H42.8578V112.062H39.4615ZM45.7332 116.661V117.146H51.4922V116.661H45.7332ZM48.3069 115.142V116.802H48.8905V115.142H48.3069ZM46.4083 112.048V115.297H50.8031V112.048H50.2265V113.18H46.9849V112.048H46.4083ZM46.9849 113.651H50.2265V114.819H46.9849V113.651Z" fill="white"/>
<path d="M11.9379 145.238V145.723H13.1544V145.238H11.9379ZM10.7495 143.564V144.774C10.7495 145.864 10.2292 147.003 9.35725 147.516L9.7229 147.959C10.6511 147.39 11.2066 146.103 11.2066 144.774V143.564H10.7495ZM10.862 143.564V144.753C10.862 145.99 11.3754 147.256 12.2895 147.819L12.627 147.362C11.7902 146.855 11.3121 145.772 11.3121 144.753V143.564H10.862ZM14.2724 142.967V149.323H14.835V142.967H14.2724ZM12.9856 143.1V149.007H13.5341V143.1H12.9856ZM20.7341 142.967V149.323H21.2966V142.967H20.7341ZM19.6582 145.512V145.997H20.8817V145.512H19.6582ZM19.2926 143.107V149H19.841V143.107H19.2926ZM16.1283 147.27V147.755H16.5431C17.4995 147.755 18.1393 147.727 18.8988 147.565L18.8425 147.08C18.1042 147.235 17.4713 147.27 16.5431 147.27H16.1283ZM16.1283 143.74V147.488H16.7049V144.218H18.4909V143.74H16.1283ZM23.0891 143.382V143.853H27.0621V143.382H23.0891ZM22.3719 146.11V146.588H28.1168V146.11H22.3719ZM24.9385 146.426V149.33H25.5221V146.426H24.9385ZM26.7878 143.382V143.93C26.7878 144.57 26.7878 145.308 26.5417 146.335L27.1183 146.412C27.3574 145.336 27.3574 144.591 27.3574 143.93V143.382H26.7878ZM30.4368 143.325V143.979C30.4368 144.95 29.8039 145.8 28.8335 146.145L29.1359 146.623C30.2258 146.215 30.922 145.21 30.922 143.979V143.325H30.4368ZM30.5422 143.325V143.958C30.5422 145.111 31.2243 146.047 32.251 146.433L32.5674 145.976C31.6392 145.653 31.0204 144.858 31.0204 143.958V143.325H30.5422ZM33.4815 142.967V146.729H34.0652V142.967H33.4815ZM31.9767 146.911C30.6618 146.911 29.8531 147.354 29.8531 148.114C29.8531 148.873 30.6618 149.309 31.9767 149.309C33.2846 149.309 34.0933 148.873 34.0933 148.114C34.0933 147.354 33.2846 146.911 31.9767 146.911ZM31.9767 147.376C32.933 147.376 33.5167 147.65 33.5167 148.114C33.5167 148.578 32.933 148.852 31.9767 148.852C31.0204 148.852 30.4368 148.578 30.4368 148.114C30.4368 147.65 31.0204 147.376 31.9767 147.376ZM32.1033 144.31V144.795H33.6081V144.31H32.1033ZM37.1094 146.166V147.58H37.693V146.166H37.1094ZM39.9291 142.967V147.805H40.5127V142.967H39.9291ZM36.1741 148.705V149.183H40.6674V148.705H36.1741ZM36.1741 147.333V148.838H36.7578V147.333H36.1741ZM35.3514 146.384C36.5046 146.384 38.0446 146.363 39.4158 146.145L39.3736 145.716C38.0235 145.892 36.4484 145.906 35.2741 145.906L35.3514 146.384ZM38.6352 146.722V147.151H40.0767V146.722H38.6352ZM37.3414 143.227C36.4062 143.227 35.7733 143.663 35.7733 144.331C35.7733 145.006 36.4062 145.442 37.3414 145.442C38.2696 145.442 38.9024 145.006 38.9024 144.331C38.9024 143.663 38.2696 143.227 37.3414 143.227ZM37.3414 143.663C37.9321 143.663 38.3469 143.923 38.3469 144.331C38.3469 144.739 37.9321 144.999 37.3414 144.999C36.7437 144.999 36.3288 144.739 36.3288 144.331C36.3288 143.923 36.7437 143.663 37.3414 143.663ZM47.1449 144.612V145.097H48.5793V144.612H47.1449ZM48.3965 142.967V146.757H48.9801V142.967H48.3965ZM46.8917 146.947C45.5768 146.947 44.7681 147.39 44.7681 148.135C44.7681 148.887 45.5768 149.316 46.8917 149.316C48.1996 149.316 49.0083 148.887 49.0083 148.135C49.0083 147.39 48.1996 146.947 46.8917 146.947ZM46.8917 147.404C47.848 147.404 48.4317 147.671 48.4317 148.135C48.4317 148.592 47.848 148.859 46.8917 148.859C45.9354 148.859 45.3518 148.592 45.3518 148.135C45.3518 147.671 45.9354 147.404 46.8917 147.404ZM45.3729 143.607V144.12C45.3729 145.034 44.7189 145.885 43.7767 146.229L44.079 146.694C45.1338 146.3 45.851 145.294 45.851 144.12V143.607H45.3729ZM45.4854 143.607V144.12C45.4854 145.189 46.1674 146.145 47.2011 146.518L47.4964 146.054C46.5753 145.73 45.9565 144.943 45.9565 144.12V143.607H45.4854ZM43.9524 143.431V143.909H47.3488V143.431H43.9524ZM50.2242 148.03V148.515H55.9832V148.03H50.2242ZM52.7978 146.511V148.17H53.3815V146.511H52.7978ZM50.8993 143.417V146.665H55.2941V143.417H54.7175V144.549H51.4759V143.417H50.8993ZM51.4759 145.02H54.7175V146.187H51.4759V145.02Z" fill="white"/>
<path d="M63.2856 113.68L65.0436 115.438L66.8015 113.68" stroke="white" stroke-width="0.585979" stroke-linecap="round" stroke-linejoin="round"/>
<rect x="105.623" y="49.6616" width="300.314" height="204.214" rx="7.17824" fill="white" stroke="#D3D3D3" stroke-width="0.292989"/>
<path d="M205.532 187.22C205.532 183.903 208.221 181.214 211.539 181.214H306.174C309.491 181.214 312.18 183.903 312.18 187.22C312.18 190.537 309.491 193.226 306.174 193.226H211.539C208.221 193.226 205.532 190.537 205.532 187.22Z" fill="white" stroke="#BECBFF" stroke-width="0.292989"/>
<path d="M133.971 76.7644V86.4366H135.374V76.7644H133.971ZM140.119 85.54V84.3714L142.85 81.8431C143.082 81.6184 143.277 81.4161 143.434 81.2363C143.594 81.0566 143.715 80.8805 143.797 80.7082C143.88 80.5334 143.921 80.3449 143.921 80.1426C143.921 79.9179 143.87 79.7244 143.767 79.5621C143.665 79.3972 143.525 79.2711 143.348 79.1837C143.171 79.0939 142.97 79.0489 142.745 79.0489C142.51 79.0489 142.305 79.0964 142.131 79.1912C141.956 79.2861 141.821 79.4222 141.726 79.5995C141.631 79.7768 141.584 79.9878 141.584 80.2325H140.044C140.044 79.7306 140.158 79.2949 140.385 78.9253C140.612 78.5557 140.931 78.2698 141.34 78.0676C141.75 77.8653 142.222 77.7642 142.756 77.7642C143.305 77.7642 143.784 77.8616 144.191 78.0563C144.6 78.2486 144.919 78.5158 145.146 78.8579C145.373 79.2 145.487 79.592 145.487 80.034C145.487 80.3237 145.429 80.6096 145.314 80.8917C145.202 81.1739 145.001 81.4873 144.711 81.8319C144.422 82.174 144.013 82.5848 143.486 83.0642L142.367 84.1617V84.2141H145.588V85.54H140.119ZM153.335 76.7117V83.8946H154.737V76.7117H153.335ZM150.972 77.7981V78.895H153.809V77.7981H150.972ZM148.282 85.192V86.31H154.959V85.192H148.282ZM148.282 83.2512V85.7615H149.696V83.2512H148.282ZM147.101 77.334V81.9222H148.493V77.334H147.101ZM147.101 81.5003V82.6394H147.882C149.348 82.6394 150.634 82.5867 152.069 82.323L151.942 81.1944C150.55 81.437 149.295 81.5003 147.882 81.5003H147.101ZM150.972 79.6123V80.7198H153.809V79.6123H150.972ZM165.732 76.7117V86.4788H167.072V76.7117H165.732ZM164.456 80.4772V81.5952H166.08V80.4772H164.456ZM163.549 76.8804V86.0147H164.857V76.8804H163.549ZM159.087 77.7875V83.4305H160.49V77.7875H159.087ZM159.087 82.9031V84.1056H159.762C160.754 84.1056 161.872 84.0528 163.148 83.8208L163.011 82.6183C161.798 82.8504 160.701 82.9031 159.762 82.9031H159.087ZM177.148 76.7117V82.3441H178.562V76.7117H177.148ZM178.15 79.0216V80.1608H179.838V79.0216H178.15ZM175.355 82.5234C173.341 82.5234 172.043 83.2723 172.043 84.5064C172.043 85.751 173.341 86.4893 175.355 86.4893C177.359 86.4893 178.657 85.751 178.657 84.5064C178.657 83.2723 177.359 82.5234 175.355 82.5234ZM175.355 83.6415C176.589 83.6415 177.275 83.9157 177.275 84.5064C177.275 85.0865 176.589 85.3713 175.355 85.3713C174.111 85.3713 173.425 85.0865 173.425 84.5064C173.425 83.9157 174.111 83.6415 175.355 83.6415ZM171.189 80.7198V81.8378H172.001C174.206 81.8378 175.334 81.7956 176.526 81.5319L176.389 80.4139C175.218 80.667 174.153 80.7198 172.001 80.7198H171.189ZM171.189 77.3656V81.4792H172.581V78.4837H175.556V77.3656H171.189ZM182.748 78.4309V78.7896C182.748 79.8654 182.063 80.9413 180.481 81.3737L181.135 82.4601C183.001 81.9328 183.877 80.4561 183.877 78.7896V78.4309H182.748ZM183.012 78.4309V78.7896C183.012 80.3928 183.909 81.8062 185.786 82.3019L186.419 81.205C184.847 80.7936 184.151 79.7916 184.151 78.7896V78.4309H183.012ZM180.829 77.6821V78.779H186.071V77.6821H180.829ZM182.748 76.68V78.1567H184.151V76.68H182.748ZM185.839 79.2642V80.3928H187.695V79.2642H185.839ZM187.326 76.7117V82.4285H188.729V76.7117H187.326ZM182.221 82.8609V86.3733H188.729V82.8609H182.221ZM187.358 83.9579V85.2658H183.603V83.9579H187.358ZM199.396 76.7011V86.4999H200.81V76.7011H199.396ZM195.546 77.3867C194.07 77.3867 192.983 78.7368 192.983 80.8674C192.983 83.0192 194.07 84.3693 195.546 84.3693C197.023 84.3693 198.11 83.0192 198.11 80.8674C198.11 78.7368 197.023 77.3867 195.546 77.3867ZM195.546 78.663C196.274 78.663 196.759 79.433 196.759 80.8674C196.759 82.323 196.274 83.1035 195.546 83.1035C194.819 83.1035 194.323 82.323 194.323 80.8674C194.323 79.433 194.819 78.663 195.546 78.663ZM202.771 81.3632V82.4812H203.52C205.387 82.4812 206.389 82.4496 207.528 82.2386L207.391 81.1311C206.283 81.3315 205.334 81.3632 203.52 81.3632H202.771ZM202.76 77.2707V78.3782H205.661V79.3064H202.771V82.1015H204.163V80.3506H207.053V77.2707H202.76ZM209.173 76.7222V82.7344H210.576V76.7222H209.173ZM207.612 78.0618V79.1798H209.426V78.0618H207.612ZM207.612 80.1397V81.2577H209.426V80.1397H207.612ZM203.889 83.1774V84.2954H209.173V86.4893H210.576V83.1774H203.889Z" fill="black"/>
<path d="M133.971 154.407V164.079H135.374V154.407H133.971ZM142.113 156.063V156.422C142.113 157.529 141.428 158.647 139.856 159.09L140.51 160.187C142.377 159.649 143.242 158.12 143.242 156.422V156.063H142.113ZM142.377 156.063V156.422C142.377 158.025 143.273 159.449 145.151 159.944L145.784 158.858C144.212 158.447 143.516 157.424 143.516 156.422V156.063H142.377ZM140.194 155.367V156.464H145.436V155.367H140.194ZM142.113 154.323V155.799H143.516V154.323H142.113ZM145.161 156.96V158.088H147.028V156.96H145.161ZM146.691 154.354V160.25H148.094V154.354H146.691ZM144.782 160.419C142.714 160.419 141.438 161.094 141.438 162.265C141.438 163.436 142.714 164.121 144.782 164.121C146.849 164.121 148.125 163.436 148.125 162.265C148.125 161.094 146.849 160.419 144.782 160.419ZM144.782 161.484C146.069 161.484 146.733 161.738 146.733 162.265C146.733 162.792 146.069 163.056 144.782 163.056C143.506 163.056 142.841 162.792 142.841 162.265C142.841 161.738 143.506 161.484 144.782 161.484ZM156.879 155.62V156.77H158.567V155.62H156.879ZM156.879 157.74V158.89H158.567V157.74H156.879ZM155.909 154.354V160.113H157.312V154.354H155.909ZM150.793 160.514V161.632H155.909V164.121H157.312V160.514H150.793ZM152.344 154.882C150.835 154.882 149.686 155.884 149.686 157.276C149.686 158.668 150.835 159.66 152.344 159.66C153.852 159.66 155.002 158.668 155.002 157.276C155.002 155.884 153.852 154.882 152.344 154.882ZM152.344 156.074C153.082 156.074 153.63 156.506 153.63 157.276C153.63 158.046 153.082 158.489 152.344 158.489C151.605 158.489 151.057 158.046 151.057 157.276C151.057 156.506 151.605 156.074 152.344 156.074ZM161.756 159.385V160.482H170.595V159.385H161.756ZM165.469 158.341V159.786H166.872V158.341H165.469ZM162.853 157.729V158.795H169.656V157.729H162.853ZM162.853 154.597V158.331H164.245V155.662H169.582V154.597H162.853ZM163.855 156.179V157.202H169.361V156.179H163.855ZM166.165 160.915C164.013 160.915 162.769 161.484 162.769 162.518C162.769 163.562 164.013 164.121 166.165 164.121C168.306 164.121 169.551 163.562 169.551 162.518C169.551 161.484 168.306 160.915 166.165 160.915ZM166.165 161.949C167.515 161.949 168.137 162.117 168.137 162.518C168.137 162.929 167.515 163.098 166.165 163.098C164.804 163.098 164.182 162.929 164.182 162.518C164.182 162.117 164.804 161.949 166.165 161.949ZM173.642 155.441V156.052C173.642 157.297 172.957 158.573 171.332 159.111L172.029 160.219C173.917 159.596 174.792 157.919 174.792 156.052V155.441H173.642ZM173.927 155.441V156.052C173.927 157.793 174.771 159.322 176.627 159.881L177.292 158.784C175.72 158.31 175.066 157.192 175.066 156.052V155.441H173.927ZM171.702 155.008V156.126H176.975V155.008H171.702ZM177.756 154.354V160.145H179.159V154.354H177.756ZM178.768 156.601V157.751H180.456V156.601H178.768ZM175.973 160.324C173.938 160.324 172.661 161.031 172.661 162.223C172.661 163.415 173.938 164.121 175.973 164.121C177.998 164.121 179.275 163.415 179.275 162.223C179.275 161.031 177.998 160.324 175.973 160.324ZM175.973 161.421C177.218 161.421 177.882 161.674 177.882 162.223C177.882 162.771 177.218 163.045 175.973 163.045C174.729 163.045 174.054 162.771 174.054 162.223C174.054 161.674 174.729 161.421 175.973 161.421ZM189.858 154.344V164.111H191.271V154.344H189.858ZM190.902 158.078V159.227H192.621V158.078H190.902ZM187.295 155.356V155.599C187.295 158.246 186.082 160.039 183.519 161.368L184.299 162.434C187.548 160.799 188.666 158.289 188.666 155.356H187.295ZM184.057 155.356V156.485H188.012V155.356H184.057ZM200.025 154.354V159.607H201.438V154.354H200.025ZM194.941 160.029V164.016H201.438V160.029H200.046V160.936H196.323V160.029H194.941ZM196.323 162.012H200.046V162.898H196.323V162.012ZM196.122 154.755C194.603 154.755 193.464 155.715 193.464 157.065C193.464 158.415 194.603 159.375 196.122 159.375C197.641 159.375 198.77 158.415 198.77 157.065C198.77 155.715 197.641 154.755 196.122 154.755ZM196.122 155.915C196.861 155.915 197.399 156.348 197.399 157.065C197.399 157.793 196.861 158.215 196.122 158.215C195.373 158.215 194.836 157.793 194.836 157.065C194.836 156.348 195.373 155.915 196.122 155.915ZM205.773 154.639C204.285 154.639 203.167 155.567 203.167 156.875C203.167 158.172 204.285 159.101 205.773 159.101C207.26 159.101 208.378 158.172 208.378 156.875C208.378 155.567 207.26 154.639 205.773 154.639ZM205.773 155.778C206.49 155.778 207.017 156.179 207.017 156.875C207.017 157.571 206.49 157.972 205.773 157.972C205.055 157.972 204.517 157.571 204.517 156.875C204.517 156.179 205.055 155.778 205.773 155.778ZM209.728 154.354V159.238H211.141V154.354H209.728ZM204.623 159.639V160.725H209.749V161.305H204.644V163.499H206.015V162.318H211.141V159.639H204.623ZM204.644 162.929V164.016H211.384V162.929H204.644Z" fill="black"/>
<path d="M171.952 106.294V106.561C171.952 107.398 170.862 108.129 169.744 108.291L169.969 108.755C171.249 108.537 172.458 107.7 172.458 106.561V106.294H171.952ZM172.099 106.294V106.561C172.099 107.7 173.302 108.537 174.589 108.755L174.807 108.291C173.696 108.129 172.599 107.398 172.599 106.561V106.294H172.099ZM171.973 109.599V112.025H172.549V109.599H171.973ZM169.406 109.289V109.767H175.151V109.289H169.406ZM169.941 106.062V106.533H174.596V106.062H169.941ZM176.142 108.706V109.191H176.55C177.57 109.191 178.174 109.163 178.906 109.022L178.849 108.544C178.139 108.684 177.548 108.706 176.55 108.706H176.142ZM176.142 106.132V108.966H176.705V106.61H178.603V106.132H176.142ZM176.529 107.398V107.855H178.526V107.398H176.529ZM180.671 105.668V109.521H181.226V105.668H180.671ZM179.644 107.327V107.806H180.846V107.327H179.644ZM179.271 105.787V109.486H179.82V105.787H179.271ZM176.965 109.859V110.337H180.649V112.025H181.226V109.859H176.965ZM183.926 106.751V107.025C183.926 107.883 183.293 108.656 182.358 108.959L182.639 109.416C183.701 109.057 184.404 108.129 184.404 107.025V106.751H183.926ZM184.031 106.751V107.025C184.031 108.066 184.763 108.924 185.831 109.254L186.099 108.797C185.163 108.523 184.509 107.813 184.509 107.025V106.751H184.031ZM182.519 106.434V106.905H185.909V106.434H182.519ZM183.926 105.64V106.603H184.509V105.64H183.926ZM185.719 107.475V107.96H187.153V107.475H185.719ZM186.985 105.668V109.514H187.568V105.668H186.985ZM185.48 109.683C184.158 109.683 183.356 110.112 183.356 110.85C183.356 111.582 184.158 112.01 185.48 112.01C186.795 112.01 187.596 111.582 187.596 110.85C187.596 110.112 186.795 109.683 185.48 109.683ZM185.48 110.14C186.436 110.14 187.02 110.4 187.02 110.85C187.02 111.293 186.436 111.553 185.48 111.553C184.516 111.553 183.94 111.293 183.94 110.85C183.94 110.4 184.516 110.14 185.48 110.14ZM193.566 106.631V107.123H194.67V106.631H193.566ZM193.566 107.995V108.481H194.67V107.995H193.566ZM193.158 105.668V109.444H193.742V105.668H193.158ZM189.614 109.746V110.217H193.158V112.025H193.742V109.746H189.614ZM190.584 106.041C189.628 106.041 188.925 106.659 188.925 107.552C188.925 108.438 189.628 109.05 190.584 109.05C191.541 109.05 192.244 108.438 192.244 107.552C192.244 106.659 191.541 106.041 190.584 106.041ZM190.584 106.54C191.217 106.54 191.674 106.948 191.674 107.552C191.674 108.15 191.217 108.565 190.584 108.565C189.951 108.565 189.494 108.15 189.494 107.552C189.494 106.948 189.951 106.54 190.584 106.54ZM197.855 107.925V109.106H198.431V107.925H197.855ZM195.274 108.832V109.303H201.019V108.832H195.274ZM198.143 109.824C196.779 109.824 195.963 110.217 195.963 110.921C195.963 111.624 196.779 112.01 198.143 112.01C199.507 112.01 200.323 111.624 200.323 110.921C200.323 110.217 199.507 109.824 198.143 109.824ZM198.143 110.274C199.148 110.274 199.732 110.506 199.732 110.921C199.732 111.335 199.148 111.56 198.143 111.56C197.144 111.56 196.554 111.335 196.554 110.921C196.554 110.506 197.144 110.274 198.143 110.274ZM197.77 106.188V106.378C197.77 107.095 196.736 107.665 195.59 107.777L195.801 108.249C197.123 108.087 198.29 107.398 198.29 106.378V106.188H197.77ZM198.016 106.188V106.378C198.016 107.398 199.184 108.087 200.498 108.249L200.709 107.777C199.563 107.665 198.53 107.095 198.53 106.378V106.188H198.016ZM195.801 105.956V106.427H200.505V105.956H195.801ZM206.095 105.668V109.36H206.679V105.668H206.095ZM206.426 107.285V107.777H207.621V107.285H206.426ZM202.685 109.641V111.94H206.679V109.641H206.102V110.316H203.254V109.641H202.685ZM203.254 110.766H206.102V111.469H203.254V110.766ZM201.764 106.315V106.793H205.519V106.315H201.764ZM203.641 107.081C202.727 107.081 202.115 107.524 202.115 108.199C202.115 108.874 202.727 109.317 203.641 109.317C204.548 109.317 205.16 108.874 205.16 108.199C205.16 107.524 204.548 107.081 203.641 107.081ZM203.641 107.524C204.211 107.524 204.604 107.791 204.604 108.199C204.604 108.607 204.211 108.874 203.641 108.874C203.057 108.874 202.671 108.607 202.671 108.199C202.671 107.791 203.057 107.524 203.641 107.524ZM203.346 105.605V106.575H203.929V105.605H203.346ZM212.866 105.661V112.032H213.443V105.661H212.866ZM211.495 107.981V108.459H213.035V107.981H211.495ZM209.828 106.575V107.524C209.828 108.656 209.076 109.859 208.162 110.309L208.507 110.773C209.512 110.253 210.3 108.895 210.3 107.524V106.575H209.828ZM209.948 106.575V107.524C209.948 108.832 210.722 110.14 211.727 110.639L212.072 110.182C211.15 109.746 210.412 108.586 210.412 107.524V106.575H209.948ZM208.394 106.315V106.8H211.854V106.315H208.394ZM217.268 109.205V110.203H217.844V109.205H217.268ZM214.68 108.867V109.338H220.425V108.867H214.68ZM215.32 110.056V110.534H219.131V112.003H219.715V110.056H215.32ZM217.268 105.633V106.519H217.844V105.633H217.268ZM217.239 106.596V106.702C217.239 107.433 216.255 107.953 215.024 108.066L215.207 108.509C216.592 108.361 217.753 107.749 217.753 106.702V106.596H217.239ZM217.359 106.596V106.702C217.359 107.749 218.512 108.361 219.904 108.509L220.087 108.066C218.857 107.953 217.872 107.433 217.872 106.702V106.596H217.359ZM215.271 106.287V106.758H219.841V106.287H215.271Z" fill="black"/>
<path d="M266.21 106.458V106.732C266.21 107.59 265.577 108.363 264.642 108.666L264.923 109.123C265.985 108.764 266.688 107.836 266.688 106.732V106.458H266.21ZM266.315 106.458V106.732C266.315 107.773 267.046 108.631 268.115 108.961L268.382 108.504C267.447 108.23 266.793 107.52 266.793 106.732V106.458H266.315ZM264.803 106.141V106.612H268.193V106.141H264.803ZM266.21 105.347V106.31H266.793V105.347H266.21ZM268.003 107.182V107.667H269.437V107.182H268.003ZM269.268 105.375V109.221H269.852V105.375H269.268ZM267.764 109.39C266.442 109.39 265.64 109.819 265.64 110.557C265.64 111.289 266.442 111.718 267.764 111.718C269.079 111.718 269.88 111.289 269.88 110.557C269.88 109.819 269.079 109.39 267.764 109.39ZM267.764 109.847C268.72 109.847 269.304 110.107 269.304 110.557C269.304 111 268.72 111.26 267.764 111.26C266.8 111.26 266.224 111 266.224 110.557C266.224 110.107 266.8 109.847 267.764 109.847ZM275.85 106.338V106.83H276.954V106.338H275.85ZM275.85 107.702V108.188H276.954V107.702H275.85ZM275.442 105.375V109.151H276.025V105.375H275.442ZM271.898 109.453V109.924H275.442V111.732H276.025V109.453H271.898ZM272.868 105.748C271.912 105.748 271.209 106.366 271.209 107.259C271.209 108.145 271.912 108.757 272.868 108.757C273.824 108.757 274.528 108.145 274.528 107.259C274.528 106.366 273.824 105.748 272.868 105.748ZM272.868 106.247C273.501 106.247 273.958 106.655 273.958 107.259C273.958 107.857 273.501 108.272 272.868 108.272C272.235 108.272 271.778 107.857 271.778 107.259C271.778 106.655 272.235 106.247 272.868 106.247ZM282.213 105.368V111.739H282.789V105.368H282.213ZM280.842 107.688V108.166H282.382V107.688H280.842ZM279.175 106.282V107.231C279.175 108.363 278.423 109.566 277.509 110.016L277.853 110.48C278.859 109.96 279.646 108.602 279.646 107.231V106.282H279.175ZM279.295 106.282V107.231C279.295 108.539 280.068 109.847 281.074 110.346L281.418 109.889C280.497 109.453 279.759 108.293 279.759 107.231V106.282H279.295ZM277.741 106.022V106.507H281.2V106.022H277.741ZM286.614 108.912V109.91H287.191V108.912H286.614ZM284.026 108.574V109.045H289.771V108.574H284.026ZM284.666 109.763V110.241H288.478V111.71H289.061V109.763H284.666ZM286.614 105.34V106.226H287.191V105.34H286.614ZM286.586 106.303V106.409C286.586 107.14 285.602 107.66 284.371 107.773L284.554 108.216C285.939 108.068 287.099 107.456 287.099 106.409V106.303H286.586ZM286.706 106.303V106.409C286.706 107.456 287.859 108.068 289.251 108.216L289.434 107.773C288.203 107.66 287.219 107.14 287.219 106.409V106.303H286.706ZM284.617 105.994V106.465H289.188V105.994H284.617Z" fill="black"/>
<path d="M266.21 121.693V121.967C266.21 122.825 265.577 123.599 264.642 123.901L264.923 124.358C265.985 124 266.688 123.071 266.688 121.967V121.693H266.21ZM266.315 121.693V121.967C266.315 123.008 267.046 123.866 268.115 124.196L268.382 123.739C267.447 123.465 266.793 122.755 266.793 121.967V121.693H266.315ZM264.803 121.377V121.848H268.193V121.377H264.803ZM266.21 120.582V121.545H266.793V120.582H266.21ZM268.003 122.417V122.903H269.437V122.417H268.003ZM269.268 120.61V124.457H269.852V120.61H269.268ZM267.764 124.625C266.442 124.625 265.64 125.054 265.64 125.793C265.64 126.524 266.442 126.953 267.764 126.953C269.079 126.953 269.88 126.524 269.88 125.793C269.88 125.054 269.079 124.625 267.764 124.625ZM267.764 125.082C268.72 125.082 269.304 125.343 269.304 125.793C269.304 126.236 268.72 126.496 267.764 126.496C266.8 126.496 266.224 126.236 266.224 125.793C266.224 125.343 266.8 125.082 267.764 125.082ZM275.85 121.574V122.066H276.954V121.574H275.85ZM275.85 122.938V123.423H276.954V122.938H275.85ZM275.442 120.61V124.386H276.025V120.61H275.442ZM271.898 124.689V125.16H275.442V126.967H276.025V124.689H271.898ZM272.868 120.983C271.912 120.983 271.209 121.602 271.209 122.495C271.209 123.381 271.912 123.993 272.868 123.993C273.824 123.993 274.528 123.381 274.528 122.495C274.528 121.602 273.824 120.983 272.868 120.983ZM272.868 121.482C273.501 121.482 273.958 121.89 273.958 122.495C273.958 123.092 273.501 123.507 272.868 123.507C272.235 123.507 271.778 123.092 271.778 122.495C271.778 121.89 272.235 121.482 272.868 121.482ZM277.558 124.372V124.85H283.324V124.372H277.558ZM280.131 124.597V126.967H280.708V124.597H280.131ZM278.282 120.863V123.613H282.585V120.863H282.009V121.735H278.866V120.863H278.282ZM278.866 122.206H282.009V123.142H278.866V122.206ZM284.765 120.941V121.419H288.857V120.941H284.765ZM284.033 123.282V123.76H289.792V123.282H284.033ZM288.478 120.941V121.412C288.478 121.939 288.478 122.551 288.267 123.423L288.836 123.451C289.047 122.572 289.047 121.953 289.047 121.412V120.941H288.478ZM284.737 124.625V126.883H289.068V124.625H284.737ZM288.499 125.089V126.411H285.306V125.089H288.499Z" fill="black"/>
<path d="M170.988 122.865V123.14C170.988 123.998 170.356 124.771 169.42 125.073L169.702 125.531C170.763 125.172 171.467 124.244 171.467 123.14V122.865H170.988ZM171.094 122.865V123.14C171.094 124.18 171.825 125.038 172.894 125.369L173.161 124.912C172.226 124.637 171.572 123.927 171.572 123.14V122.865H171.094ZM169.582 122.549V123.02H172.971V122.549H169.582ZM170.988 121.754V122.718H171.572V121.754H170.988ZM172.782 123.59V124.075H174.216V123.59H172.782ZM174.047 121.783V125.629H174.631V121.783H174.047ZM172.542 125.798C171.22 125.798 170.419 126.227 170.419 126.965C170.419 127.696 171.22 128.125 172.542 128.125C173.857 128.125 174.659 127.696 174.659 126.965C174.659 126.227 173.857 125.798 172.542 125.798ZM172.542 126.255C173.499 126.255 174.082 126.515 174.082 126.965C174.082 127.408 173.499 127.668 172.542 127.668C171.579 127.668 171.002 127.408 171.002 126.965C171.002 126.515 171.579 126.255 172.542 126.255ZM180.628 122.746V123.238H181.732V122.746H180.628ZM180.628 124.11V124.595H181.732V124.11H180.628ZM180.221 121.783V125.559H180.804V121.783H180.221ZM176.677 125.861V126.332H180.221V128.139H180.804V125.861H176.677ZM177.647 122.155C176.691 122.155 175.987 122.774 175.987 123.667C175.987 124.553 176.691 125.165 177.647 125.165C178.603 125.165 179.306 124.553 179.306 123.667C179.306 122.774 178.603 122.155 177.647 122.155ZM177.647 122.655C178.28 122.655 178.737 123.062 178.737 123.667C178.737 124.265 178.28 124.68 177.647 124.68C177.014 124.68 176.557 124.265 176.557 123.667C176.557 123.062 177.014 122.655 177.647 122.655ZM184.875 123.316V123.801H186.113V123.316H184.875ZM184.875 125.249V125.734H186.113V125.249H184.875ZM187.181 121.783V128.139H187.744V121.783H187.181ZM185.937 121.916V127.823H186.485V121.916H185.937ZM183.771 122.31C182.948 122.31 182.421 123.161 182.421 124.525C182.421 125.889 182.948 126.74 183.771 126.74C184.594 126.74 185.128 125.889 185.128 124.525C185.128 123.161 184.594 122.31 183.771 122.31ZM183.771 122.851C184.277 122.851 184.594 123.498 184.594 124.525C184.594 125.552 184.277 126.199 183.771 126.199C183.272 126.199 182.948 125.552 182.948 124.525C182.948 123.498 183.272 122.851 183.771 122.851ZM189.544 122.113V122.591H193.636V122.113H189.544ZM188.812 124.455V124.933H194.571V124.455H188.812ZM193.256 122.113V122.584C193.256 123.112 193.256 123.723 193.045 124.595L193.615 124.623C193.826 123.744 193.826 123.126 193.826 122.584V122.113H193.256ZM189.515 125.798V128.055H193.847V125.798H189.515ZM193.277 126.262V127.584H190.085V126.262H193.277Z" fill="black"/>
<g clip-path="url(#clip1_422_5724)">
<path d="M255.78 111.629C257.398 111.629 258.709 110.317 258.709 108.699C258.709 107.081 257.398 105.769 255.78 105.769C254.161 105.769 252.85 107.081 252.85 108.699C252.85 110.317 254.161 111.629 255.78 111.629Z" stroke="black" stroke-width="0.585979" stroke-linecap="round" stroke-linejoin="round"/>
</g>
<g clip-path="url(#clip2_422_5724)">
<path d="M159.971 126.864C161.59 126.864 162.901 125.552 162.901 123.934C162.901 122.316 161.59 121.004 159.971 121.004C158.353 121.004 157.042 122.316 157.042 123.934C157.042 125.552 158.353 126.864 159.971 126.864Z" stroke="black" stroke-width="0.585979" stroke-linecap="round" stroke-linejoin="round"/>
</g>
<g clip-path="url(#clip3_422_5724)">
<path d="M255.78 126.864C257.398 126.864 258.709 125.552 258.709 123.934C258.709 122.316 257.398 121.004 255.78 121.004C254.161 121.004 252.85 122.316 252.85 123.934C252.85 125.552 254.161 126.864 255.78 126.864Z" stroke="black" stroke-width="0.585979" stroke-linecap="round" stroke-linejoin="round"/>
</g>
<g clip-path="url(#clip4_422_5724)">
<path d="M159.971 111.335C161.59 111.335 162.901 110.024 162.901 108.405C162.901 106.787 161.59 105.476 159.971 105.476C158.353 105.476 157.042 106.787 157.042 108.405C157.042 110.024 158.353 111.335 159.971 111.335Z" fill="black" stroke="black" stroke-width="0.585979" stroke-linecap="round" stroke-linejoin="round"/>
</g>
<rect x="339.575" y="224.723" width="52.7381" height="19.0443" rx="9.52216" fill="#0028FF"/>
<path d="M359.365 232.029V237.338H359.845V232.029H359.365ZM358.222 233.963V234.362H359.505V233.963H358.222ZM356.833 232.791V233.582C356.833 234.526 356.206 235.528 355.444 235.903L355.731 236.29C356.569 235.856 357.226 234.725 357.226 233.582V232.791H356.833ZM356.933 232.791V233.582C356.933 234.672 357.577 235.762 358.415 236.178L358.702 235.797C357.935 235.434 357.319 234.467 357.319 233.582V232.791H356.933ZM355.638 232.574V232.979H358.521V232.574H355.638ZM362.159 232.604V233.031C362.159 233.787 361.631 234.473 360.834 234.754L361.08 235.141C361.971 234.819 362.557 234.004 362.557 233.031V232.604H362.159ZM362.247 232.604V233.026C362.247 233.928 362.809 234.684 363.694 234.977L363.928 234.596C363.149 234.338 362.645 233.717 362.645 233.026V232.604H362.247ZM360.981 232.428V232.826H363.811V232.428H360.981ZM364.479 232.035V235.229H364.965V232.035H364.479ZM364.831 233.377V233.787H365.751V233.377H364.831ZM363.278 235.37C362.2 235.37 361.537 235.727 361.537 236.342C361.537 236.963 362.2 237.321 363.278 237.321C364.356 237.321 365.018 236.963 365.018 236.342C365.018 235.727 364.356 235.37 363.278 235.37ZM363.278 235.762C364.063 235.762 364.544 235.973 364.544 236.342C364.544 236.717 364.063 236.94 363.278 236.94C362.493 236.94 362.012 236.717 362.012 236.342C362.012 235.973 362.493 235.762 363.278 235.762ZM369.81 232.035V237.333H370.297V232.035H369.81ZM370.18 234.209V234.619H371.164V234.209H370.18ZM366.195 232.879V233.278H369.318V232.879H366.195ZM367.777 233.717C367.033 233.717 366.488 234.221 366.488 234.936C366.488 235.651 367.033 236.155 367.777 236.155C368.527 236.155 369.066 235.651 369.066 234.936C369.066 234.221 368.527 233.717 367.777 233.717ZM367.777 234.121C368.258 234.121 368.603 234.455 368.603 234.936C368.603 235.411 368.258 235.75 367.777 235.75C367.297 235.75 366.951 235.411 366.951 234.936C366.951 234.455 367.297 234.121 367.777 234.121ZM367.525 232.1V233.061H368.012V232.1H367.525ZM375.447 232.035V237.333H375.933V232.035H375.447ZM373.894 232.604V232.686C373.894 234.092 373.185 235.217 371.655 235.956L371.913 236.348C373.683 235.481 374.374 234.139 374.374 232.604H373.894ZM371.896 232.604V233.002H374.105V232.604H371.896Z" fill="white"/>
<path d="M66.5085 71.1964L64.7506 69.4385L62.9927 71.1964" stroke="white" stroke-width="0.585979" stroke-linecap="round" stroke-linejoin="round"/>
<path d="M161.104 183.303V189.667H161.695V183.303H161.104ZM161.533 185.884V186.369H162.707V185.884H161.533ZM159.48 183.992V184.083C159.48 185.764 158.601 187.121 156.843 188.014L157.166 188.464C159.22 187.431 160.049 185.799 160.049 183.992H159.48ZM157.138 183.992V184.47H159.782V183.992H157.138ZM167.896 183.31V186.72H168.487V183.31H167.896ZM164.387 187.037V189.582H168.487V187.037H167.91V187.81H164.964V187.037H164.387ZM164.964 188.274H167.91V189.111H164.964V188.274ZM165.076 183.612C164.113 183.612 163.417 184.21 163.417 185.075C163.417 185.947 164.113 186.545 165.076 186.545C166.04 186.545 166.729 185.947 166.729 185.075C166.729 184.21 166.04 183.612 165.076 183.612ZM165.076 184.097C165.709 184.097 166.166 184.498 166.166 185.075C166.166 185.652 165.709 186.052 165.076 186.052C164.444 186.052 163.987 185.652 163.987 185.075C163.987 184.498 164.444 184.097 165.076 184.097ZM173.124 183.542C172.182 183.542 171.486 184.119 171.486 184.955C171.486 185.785 172.182 186.362 173.124 186.362C174.073 186.362 174.769 185.785 174.769 184.955C174.769 184.119 174.073 183.542 173.124 183.542ZM173.124 184.02C173.743 184.02 174.2 184.407 174.2 184.955C174.2 185.504 173.743 185.884 173.124 185.884C172.512 185.884 172.048 185.504 172.048 184.955C172.048 184.407 172.512 184.02 173.124 184.02ZM175.965 183.31V186.566H176.555V183.31H175.965ZM172.442 186.875V187.346H175.979V187.986H172.456V189.378H173.026V188.422H176.555V186.875H172.442ZM172.456 189.118V189.582H176.766V189.118H172.456ZM179.382 184.217V185.251C179.382 186.327 178.615 187.536 177.708 187.979L178.046 188.443C179.037 187.937 179.846 186.573 179.846 185.251V184.217H179.382ZM179.487 184.217V185.251C179.487 186.509 180.254 187.789 181.259 188.288L181.59 187.824C180.668 187.388 179.951 186.256 179.951 185.251V184.217H179.487ZM177.933 183.957V184.449H181.358V183.957H177.933ZM182.11 183.31V189.667H182.701V183.31H182.11ZM182.56 185.877V186.369H183.741V185.877H182.56Z" fill="black"/>
<path d="M217.883 184.712L216.083 187.447V189.704H215.542V187.454L213.721 184.712H214.332L215.837 186.976L217.314 184.712H217.883ZM222.086 184.712L220.286 187.447V189.704H219.744V187.454L217.923 184.712H218.535L220.04 186.976L221.516 184.712H222.086ZM226.289 184.712L224.488 187.447V189.704H223.947V187.454L222.126 184.712H222.737L224.242 186.976L225.719 184.712H226.289ZM230.491 184.712L228.691 187.447V189.704H228.15V187.454L226.328 184.712H226.94L228.445 186.976L229.922 184.712H230.491ZM230.483 188.15V187.686H232.402V188.15H230.483ZM233.349 189.704L233.567 184.712H234.094L236.042 189.05L237.997 184.712H238.524L238.707 189.704H238.201L238.046 185.752L236.253 189.704H235.796L234.031 185.766L233.855 189.704H233.349ZM239.776 189.704L239.994 184.712H240.522L242.469 189.05L244.424 184.712H244.952L245.134 189.704H244.628L244.473 185.752L242.68 189.704H242.223L240.458 185.766L240.282 189.704H239.776ZM246.098 188.15V187.686H248.018V188.15H246.098ZM249.013 189.704V184.712H250.279C252.21 184.712 253.176 185.534 253.176 187.18C253.176 187.705 253.068 188.157 252.853 188.537C252.637 188.912 252.328 189.2 251.925 189.402C251.521 189.603 251.039 189.704 250.476 189.704H249.013ZM249.555 189.226H250.448C251.165 189.226 251.707 189.055 252.072 188.713C252.443 188.37 252.628 187.871 252.628 187.215C252.628 186.535 252.44 186.029 252.065 185.696C251.695 185.358 251.128 185.19 250.363 185.19H249.555V189.226ZM254.17 189.704V184.712H255.436C257.368 184.712 258.333 185.534 258.333 187.18C258.333 187.705 258.225 188.157 258.01 188.537C257.794 188.912 257.485 189.2 257.082 189.402C256.678 189.603 256.196 189.704 255.633 189.704H254.17ZM254.712 189.226H255.605C256.322 189.226 256.864 189.055 257.229 188.713C257.6 188.37 257.785 187.871 257.785 187.215C257.785 186.535 257.597 186.029 257.222 185.696C256.852 185.358 256.285 185.19 255.521 185.19H254.712V189.226Z" fill="#52575D"/>
<path d="M224.599 159.63V163.873H224.992V159.63H224.599ZM224.885 161.351V161.674H225.667V161.351H224.885ZM223.516 160.09V160.151C223.516 161.271 222.93 162.176 221.758 162.771L221.973 163.071C223.342 162.382 223.895 161.295 223.895 160.09H223.516ZM221.955 160.09V160.409H223.717V160.09H221.955ZM229.127 159.635V161.909H229.521V159.635H229.127ZM226.788 162.12V163.817H229.521V162.12H229.136V162.635H227.172V162.12H226.788ZM227.172 162.945H229.136V163.503H227.172V162.945ZM227.247 159.837C226.605 159.837 226.141 160.235 226.141 160.812C226.141 161.393 226.605 161.792 227.247 161.792C227.889 161.792 228.349 161.393 228.349 160.812C228.349 160.235 227.889 159.837 227.247 159.837ZM227.247 160.16C227.669 160.16 227.974 160.427 227.974 160.812C227.974 161.196 227.669 161.463 227.247 161.463C226.825 161.463 226.52 161.196 226.52 160.812C226.52 160.427 226.825 160.16 227.247 160.16ZM231.545 159.79C230.917 159.79 230.453 160.174 230.453 160.732C230.453 161.285 230.917 161.67 231.545 161.67C232.178 161.67 232.642 161.285 232.642 160.732C232.642 160.174 232.178 159.79 231.545 159.79ZM231.545 160.109C231.958 160.109 232.263 160.366 232.263 160.732C232.263 161.098 231.958 161.351 231.545 161.351C231.137 161.351 230.828 161.098 230.828 160.732C230.828 160.366 231.137 160.109 231.545 160.109ZM233.439 159.635V161.806H233.833V159.635H233.439ZM231.091 162.012V162.326H233.449V162.753H231.1V163.681H231.48V163.043H233.833V162.012H231.091ZM231.1 163.507V163.817H233.974V163.507H231.1ZM236.845 161.623V162.167H237.234V161.623H236.845ZM238.631 159.64V162.481H239.02V159.64H238.631ZM238.856 160.92V161.243H239.639V160.92H238.856ZM235.762 162.359C236.502 162.354 237.506 162.349 238.41 162.19L238.378 161.913C237.501 162.04 236.47 162.04 235.71 162.04L235.762 162.359ZM236.235 162.692V163.001H238.631V163.873H239.02V162.692H236.235ZM235.818 160.02V160.31H238.251V160.02H235.818ZM237.037 160.474C236.437 160.474 236.048 160.713 236.048 161.102C236.048 161.492 236.437 161.731 237.037 161.731C237.632 161.731 238.021 161.492 238.021 161.102C238.021 160.713 237.632 160.474 237.037 160.474ZM237.037 160.742C237.412 160.742 237.656 160.877 237.656 161.102C237.656 161.318 237.412 161.459 237.037 161.459C236.657 161.459 236.413 161.318 236.413 161.102C236.413 160.877 236.657 160.742 237.037 160.742ZM236.845 159.602V160.16H237.234V159.602H236.845ZM243.131 159.64V162.734H243.524V159.64H243.131ZM240.801 163.46V163.779H243.651V163.46H240.801ZM240.801 162.415V163.568H241.185V162.415H240.801ZM241.251 159.931C240.618 159.931 240.145 160.362 240.145 160.976C240.145 161.585 240.618 162.021 241.251 162.021C241.884 162.021 242.353 161.585 242.353 160.976C242.353 160.362 241.884 159.931 241.251 159.931ZM241.251 160.268C241.663 160.268 241.978 160.559 241.978 160.976C241.978 161.388 241.663 161.679 241.251 161.679C240.838 161.679 240.524 161.388 240.524 160.976C240.524 160.559 240.838 160.268 241.251 160.268ZM248.294 159.635V163.873H248.688V159.635H248.294ZM248.594 161.299V161.632H249.382V161.299H248.594ZM245.594 159.991V162.856H247.572V159.991H247.188V161.112H245.978V159.991H245.594ZM245.978 161.421H247.188V162.537H245.978V161.421ZM249.742 163.029V163.353H253.582V163.029H249.742ZM251.458 162.12V163.165H251.847V162.12H251.458ZM250.206 159.949V160.263H252.724V160.92H250.221V162.082H250.605V161.234H253.108V159.949H250.206ZM250.221 161.918V162.237H253.207V161.918H250.221ZM257.986 159.63V163.873H258.379V159.63H257.986ZM258.272 161.351V161.674H259.055V161.351H258.272ZM256.903 160.09V160.151C256.903 161.271 256.317 162.176 255.145 162.771L255.361 163.071C256.729 162.382 257.283 161.295 257.283 160.09H256.903ZM255.342 160.09V160.409H257.104V160.09H255.342ZM262.518 159.635V163.873H262.908V159.635H262.518ZM261.276 160.09V160.156C261.276 161.281 260.709 162.181 259.485 162.771L259.692 163.085C261.107 162.392 261.661 161.318 261.661 160.09H261.276ZM259.678 160.09V160.409H261.445V160.09H259.678Z" fill="#0028FF"/>
</g>
<defs>
<clipPath id="clip0_422_5724">
<rect width="443" height="287.716" rx="17.0852" fill="white"/>
</clipPath>
<clipPath id="clip1_422_5724">
<rect width="7.03175" height="7.03175" fill="white" transform="translate(252.264 105.183)"/>
</clipPath>
<clipPath id="clip2_422_5724">
<rect width="7.03175" height="7.03175" fill="white" transform="translate(156.456 120.418)"/>
</clipPath>
<clipPath id="clip3_422_5724">
<rect width="7.03175" height="7.03175" fill="white" transform="translate(252.264 120.418)"/>
</clipPath>
<clipPath id="clip4_422_5724">
<rect width="7.03175" height="7.03175" fill="white" transform="translate(156.456 104.89)"/>
</clipPath>
</defs>
</svg>
