<svg width="1512" height="982" viewBox="0 0 1512 982" fill="none" xmlns="http://www.w3.org/2000/svg">
<g clip-path="url(#clip0_434_6053)">
<rect width="1512" height="982" fill="white"/>
<rect x="243.5" y="206.5" width="1025" height="697" rx="24.5" fill="white" stroke="#D3D3D3"/>
<g clip-path="url(#clip1_434_6053)">
<rect x="266" y="369" width="223" height="300" fill="white"/>
<rect x="266" y="369" width="223" height="300" fill="#0028FF" fill-opacity="0.8"/>
<g clip-path="url(#clip2_434_6053)">
<path d="M424.034 628.148V629.408H425.276C428.372 629.408 430.334 629.3 432.674 628.868L432.512 627.644C430.244 628.076 428.3 628.148 425.276 628.148H424.034ZM424.034 618.68V628.616H425.51V619.904H431.432V618.68H424.034ZM435.14 617.132V633.44H436.634V617.132H435.14ZM430.478 623.018V624.26H435.752V623.018H430.478ZM439.783 630.092V631.334H454.525V630.092H439.783ZM446.371 626.204V630.452H447.865V626.204H446.371ZM441.511 618.284V626.6H452.761V618.284H451.285V621.182H442.987V618.284H441.511ZM442.987 622.388H451.285V625.376H442.987V622.388ZM468.185 617.132V633.404H469.679V617.132H468.185ZM463.415 618.878V619.13C463.415 623.45 461.237 626.906 456.539 629.174L457.331 630.38C462.767 627.716 464.891 623.594 464.891 618.878H463.415ZM457.277 618.878V620.102H464.063V618.878H457.277Z" fill="#464646"/>
<path d="M418.088 634.25H422.318V635.15H418.088V634.25ZM422.324 634.7H472.001V635.6H422.324V634.7Z" fill="#464646"/>
<path d="M287.76 494L295.032 476.96H297.672L304.656 494H301.488L299.952 490.112H292.512L290.928 494H287.76ZM293.592 487.496H298.944L296.304 480.8L293.592 487.496ZM309.323 494H306.275V476.96H312.275C314.483 476.96 316.171 477.408 317.339 478.304C318.507 479.2 319.091 480.496 319.091 482.192C319.091 483.904 318.459 485.248 317.195 486.224C315.931 487.184 314.091 487.664 311.675 487.664H309.323V494ZM312.155 479.504H309.323V485.096H311.843C313.283 485.096 314.331 484.864 314.987 484.4C315.643 483.936 315.971 483.216 315.971 482.24C315.971 481.264 315.659 480.568 315.035 480.152C314.427 479.72 313.467 479.504 312.155 479.504ZM333.612 476.96L333.228 479.696H327.948V494H324.828V479.696H319.356V476.96H333.612ZM288.936 517.456V519.976H309.048V517.456H288.936ZM291.192 521.392V523.912H303.408V528.136H306.6V521.392H291.192ZM291.432 513.688V516.112H306.912V513.688H291.432ZM291.432 506.416V514.912H294.6V508.84H306.744V506.416H291.432ZM293.712 510.064V512.392H306.24V510.064H293.712ZM321.766 508.696V511.096H327.142V508.696H321.766ZM321.766 512.752V515.152H327.142V512.752H321.766ZM326.446 505.912V517.312H329.638V505.912H326.446ZM314.95 518.176V520.624H326.47V521.824H314.974V526.936H318.142V524.128H329.638V518.176H314.95ZM314.974 525.424V527.896H330.262V525.424H314.974ZM311.974 506.824V516.712H322.486V506.824H319.366V509.416H315.142V506.824H311.974ZM315.142 511.816H319.366V514.216H315.142V511.816ZM348.888 519.736C344.088 519.736 341.016 521.32 341.016 523.96C341.016 526.552 344.088 528.136 348.888 528.136C353.688 528.136 356.76 526.552 356.76 523.96C356.76 521.32 353.688 519.736 348.888 519.736ZM348.888 522.136C351.888 522.136 353.592 522.76 353.592 523.96C353.592 525.136 351.888 525.736 348.888 525.736C345.888 525.736 344.184 525.136 344.184 523.96C344.184 522.76 345.888 522.136 348.888 522.136ZM341.256 506.896V509.416H355.32V506.896H341.256ZM339 515.824V518.368H359.016V515.824H339ZM346.416 511.96V516.472H349.584V511.96H346.416ZM353.472 506.896V508.72C353.472 510.448 353.472 512.056 352.872 514.336L356.04 514.672C356.64 512.368 356.64 510.472 356.64 508.72V506.896H353.472ZM363.43 518.56V527.896H378.742V518.56H375.574V520.888H366.574V518.56H363.43ZM366.574 523.336H375.574V525.352H366.574V523.336ZM363.502 506.8V509.344H377.59V506.8H363.502ZM361.054 514.576V517.144H381.166V514.576H361.054ZM375.67 506.8V508.576C375.67 510.448 375.67 512.488 374.974 515.344L378.19 515.128C378.814 512.344 378.814 510.424 378.814 508.576V506.8H375.67Z" fill="white"/>
</g>
</g>
<rect x="518" y="369" width="224" height="300" fill="#D2D2D2"/>
<mask id="mask0_434_6053" style="mask-type:alpha" maskUnits="userSpaceOnUse" x="518" y="369" width="224" height="300">
<rect x="518" y="369" width="224" height="300" fill="white"/>
</mask>
<g mask="url(#mask0_434_6053)">
</g>
<g clip-path="url(#clip3_434_6053)">
<path d="M676.034 628.148V629.408H677.276C680.372 629.408 682.334 629.3 684.674 628.868L684.512 627.644C682.244 628.076 680.3 628.148 677.276 628.148H676.034ZM676.034 618.68V628.616H677.51V619.904H683.432V618.68H676.034ZM687.14 617.132V633.44H688.634V617.132H687.14ZM682.478 623.018V624.26H687.752V623.018H682.478ZM691.783 630.092V631.334H706.525V630.092H691.783ZM698.371 626.204V630.452H699.865V626.204H698.371ZM693.511 618.284V626.6H704.761V618.284H703.285V621.182H694.987V618.284H693.511ZM694.987 622.388H703.285V625.376H694.987V622.388ZM720.185 617.132V633.404H721.679V617.132H720.185ZM715.415 618.878V619.13C715.415 623.45 713.237 626.906 708.539 629.174L709.331 630.38C714.767 627.716 716.891 623.594 716.891 618.878H715.415ZM709.277 618.878V620.102H716.063V618.878H709.277Z" fill="#464646"/>
<path d="M670.088 634.25H674.318V635.15H670.088V634.25ZM674.324 634.7H724.001V635.6H674.324V634.7Z" fill="#464646"/>
<path d="M539.76 494L547.032 476.96H549.672L556.656 494H553.488L551.952 490.112H544.512L542.928 494H539.76ZM545.592 487.496H550.944L548.304 480.8L545.592 487.496ZM561.323 494H558.275V476.96H564.275C566.483 476.96 568.171 477.408 569.339 478.304C570.507 479.2 571.091 480.496 571.091 482.192C571.091 483.904 570.459 485.248 569.195 486.224C567.931 487.184 566.091 487.664 563.675 487.664H561.323V494ZM564.155 479.504H561.323V485.096H563.843C565.283 485.096 566.331 484.864 566.987 484.4C567.643 483.936 567.971 483.216 567.971 482.24C567.971 481.264 567.659 480.568 567.035 480.152C566.427 479.72 565.467 479.504 564.155 479.504ZM585.612 476.96L585.228 479.696H579.948V494H576.828V479.696H571.356V476.96H585.612ZM542.544 526V523.552H546.384V512.944L543.408 514.984L541.968 512.848L547.704 508.96H549.408V523.552H553.032V526H542.544ZM563.775 506.488V507.184C563.775 509.704 561.279 512.44 556.359 513.136L557.559 515.632C563.223 514.768 566.511 511.288 566.511 507.184V506.488H563.775ZM564.303 506.488V507.184C564.303 511.24 567.591 514.72 573.255 515.56L574.431 513.064C569.535 512.392 567.039 509.632 567.039 507.184V506.488H564.303ZM555.351 516.832V519.376H575.463V516.832H555.351ZM564.063 518.44V523.12H567.279V518.44H564.063ZM557.679 525.208V527.752H573.255V525.208H557.679ZM557.679 521.248V526H560.847V521.248H557.679ZM584.629 506.8C581.269 506.8 578.821 508.744 578.821 511.552C578.821 514.312 581.269 516.304 584.629 516.304C588.013 516.304 590.461 514.312 590.461 511.552C590.461 508.744 588.013 506.8 584.629 506.8ZM584.629 509.392C586.261 509.392 587.413 510.16 587.413 511.552C587.413 512.92 586.261 513.688 584.629 513.688C583.021 513.688 581.869 512.92 581.869 511.552C581.869 510.16 583.021 509.392 584.629 509.392ZM583.141 518.512V527.464H586.333V518.512H583.141ZM592.861 505.912V528.136H596.029V505.912H592.861ZM577.885 520.192C581.725 520.168 586.981 520.12 591.805 519.16L591.589 516.832C586.885 517.552 581.389 517.6 577.501 517.6L577.885 520.192ZM604.383 530.8L610.383 508.24H613.167L607.167 530.8H604.383ZM620.692 526V523.96C622.564 522.536 624.052 521.224 625.156 520.024C626.276 518.808 627.076 517.696 627.556 516.688C628.052 515.68 628.3 514.768 628.3 513.952C628.3 513.152 628.068 512.528 627.604 512.08C627.156 511.632 626.548 511.408 625.78 511.408C624.916 511.408 624.196 511.648 623.62 512.128C623.06 512.608 622.636 513.28 622.348 514.144L620.116 512.968C620.5 511.72 621.22 510.704 622.276 509.92C623.332 509.12 624.596 508.72 626.068 508.72C627.124 508.72 628.044 508.92 628.828 509.32C629.612 509.72 630.22 510.288 630.652 511.024C631.1 511.76 631.324 512.632 631.324 513.64C631.324 515.192 630.812 516.776 629.788 518.392C628.764 520.008 627.028 521.728 624.58 523.552H631.756V526H620.692ZM642.618 506.488V507.184C642.618 509.704 640.122 512.44 635.202 513.136L636.402 515.632C642.066 514.768 645.354 511.288 645.354 507.184V506.488H642.618ZM643.146 506.488V507.184C643.146 511.24 646.434 514.72 652.098 515.56L653.274 513.064C648.378 512.392 645.882 509.632 645.882 507.184V506.488H643.146ZM634.194 516.832V519.376H654.306V516.832H634.194ZM642.906 518.44V523.12H646.122V518.44H642.906ZM636.522 525.208V527.752H652.098V525.208H636.522ZM636.522 521.248V526H639.69V521.248H636.522ZM663.473 506.8C660.113 506.8 657.665 508.744 657.665 511.552C657.665 514.312 660.113 516.304 663.473 516.304C666.857 516.304 669.305 514.312 669.305 511.552C669.305 508.744 666.857 506.8 663.473 506.8ZM663.473 509.392C665.105 509.392 666.257 510.16 666.257 511.552C666.257 512.92 665.105 513.688 663.473 513.688C661.865 513.688 660.713 512.92 660.713 511.552C660.713 510.16 661.865 509.392 663.473 509.392ZM661.985 518.512V527.464H665.177V518.512H661.985ZM671.705 505.912V528.136H674.873V505.912H671.705ZM656.729 520.192C660.569 520.168 665.825 520.12 670.649 519.16L670.433 516.832C665.729 517.552 660.233 517.6 656.345 517.6L656.729 520.192Z" fill="white"/>
</g>
<rect x="1023" y="369" width="224" height="300" fill="#D2D2D2"/>
<mask id="mask1_434_6053" style="mask-type:alpha" maskUnits="userSpaceOnUse" x="1023" y="369" width="224" height="300">
<rect x="1023" y="369" width="224" height="300" fill="white"/>
</mask>
<g mask="url(#mask1_434_6053)">
</g>
<g clip-path="url(#clip4_434_6053)">
<path d="M1181.03 628.148V629.408H1182.28C1185.37 629.408 1187.33 629.3 1189.67 628.868L1189.51 627.644C1187.24 628.076 1185.3 628.148 1182.28 628.148H1181.03ZM1181.03 618.68V628.616H1182.51V619.904H1188.43V618.68H1181.03ZM1192.14 617.132V633.44H1193.63V617.132H1192.14ZM1187.48 623.018V624.26H1192.75V623.018H1187.48ZM1196.78 630.092V631.334H1211.52V630.092H1196.78ZM1203.37 626.204V630.452H1204.86V626.204H1203.37ZM1198.51 618.284V626.6H1209.76V618.284H1208.28V621.182H1199.99V618.284H1198.51ZM1199.99 622.388H1208.28V625.376H1199.99V622.388ZM1225.19 617.132V633.404H1226.68V617.132H1225.19ZM1220.42 618.878V619.13C1220.42 623.45 1218.24 626.906 1213.54 629.174L1214.33 630.38C1219.77 627.716 1221.89 623.594 1221.89 618.878H1220.42ZM1214.28 618.878V620.102H1221.06V618.878H1214.28Z" fill="#464646"/>
<path d="M1175.09 634.25H1179.32V635.15H1175.09V634.25ZM1179.32 634.7H1229V635.6H1179.32V634.7Z" fill="#464646"/>
<path d="M1044.76 494L1052.03 476.96H1054.67L1061.66 494H1058.49L1056.95 490.112H1049.51L1047.93 494H1044.76ZM1050.59 487.496H1055.94L1053.3 480.8L1050.59 487.496ZM1066.32 494H1063.28V476.96H1069.28C1071.48 476.96 1073.17 477.408 1074.34 478.304C1075.51 479.2 1076.09 480.496 1076.09 482.192C1076.09 483.904 1075.46 485.248 1074.2 486.224C1072.93 487.184 1071.09 487.664 1068.68 487.664H1066.32V494ZM1069.16 479.504H1066.32V485.096H1068.84C1070.28 485.096 1071.33 484.864 1071.99 484.4C1072.64 483.936 1072.97 483.216 1072.97 482.24C1072.97 481.264 1072.66 480.568 1072.04 480.152C1071.43 479.72 1070.47 479.504 1069.16 479.504ZM1090.61 476.96L1090.23 479.696H1084.95V494H1081.83V479.696H1076.36V476.96H1090.61ZM1051.7 510.136V510.4C1051.7 512.32 1050.18 514.144 1046.75 514.768L1048.02 517.24C1052.3 516.376 1054.26 513.688 1054.26 510.4V510.136H1051.7ZM1052.34 510.136V510.4C1052.34 513.544 1054.31 516.112 1058.51 516.904L1059.76 514.456C1056.4 513.856 1054.91 512.2 1054.91 510.4V510.136H1052.34ZM1047.35 508.12V510.568H1059.23V508.12H1047.35ZM1051.7 505.96V509.872H1054.91V505.96H1051.7ZM1051.67 518.536V527.464H1054.86V518.536H1051.67ZM1061.39 505.912V528.136H1064.56V505.912H1061.39ZM1046.42 520.768C1050.38 520.768 1055.54 520.696 1060.34 519.832L1060.12 517.528C1055.46 518.152 1050.06 518.176 1046.03 518.176L1046.42 520.768ZM1068.06 522.928V525.544H1088.17V522.928H1068.06ZM1076.41 517.984V523.624H1079.58V517.984H1076.41ZM1076.29 507.136V508.744C1076.29 511.816 1073.58 515.224 1068.52 516.04L1069.84 518.704C1075.65 517.648 1079.08 513.472 1079.08 508.744V507.136H1076.29ZM1076.92 507.136V508.744C1076.92 513.544 1080.35 517.624 1086.18 518.704L1087.5 516.04C1082.41 515.224 1079.7 511.888 1079.7 508.744V507.136H1076.92ZM1096.91 508.216V510.736H1115.01V508.216H1096.91ZM1095.98 520.288V522.856H1116.09V520.288H1095.98ZM1104.4 522.544V528.16H1107.59V522.544H1104.4ZM1106.01 511.6C1101.21 511.6 1098.38 512.944 1098.38 515.416C1098.38 517.864 1101.21 519.232 1106.01 519.232C1110.78 519.232 1113.62 517.864 1113.62 515.416C1113.62 512.944 1110.78 511.6 1106.01 511.6ZM1106.01 513.976C1108.91 513.976 1110.33 514.408 1110.33 515.416C1110.33 516.424 1108.91 516.856 1106.01 516.856C1103.1 516.856 1101.69 516.424 1101.69 515.416C1101.69 514.408 1103.1 513.976 1106.01 513.976ZM1104.4 505.888V509.896H1107.59V505.888H1104.4ZM1140.09 505.912V528.136H1143.11V505.912H1140.09ZM1137.43 514.432V517.024H1141.12V514.432H1137.43ZM1135.31 506.248V527.128H1138.29V506.248H1135.31ZM1127.83 509.368V511.336C1127.83 515.608 1126.77 519.544 1123.43 521.464L1125.35 523.912C1129.05 521.68 1130.25 516.832 1130.25 511.336V509.368H1127.83ZM1128.47 509.368V511.336C1128.47 516.496 1129.79 521.08 1133.54 523.096L1135.36 520.672C1132.05 518.944 1130.92 515.248 1130.92 511.336V509.368H1128.47ZM1124.15 508.168V510.736H1134.26V508.168H1124.15ZM1155.88 519.736C1151.08 519.736 1148.01 521.32 1148.01 523.96C1148.01 526.552 1151.08 528.136 1155.88 528.136C1160.68 528.136 1163.75 526.552 1163.75 523.96C1163.75 521.32 1160.68 519.736 1155.88 519.736ZM1155.88 522.136C1158.88 522.136 1160.58 522.76 1160.58 523.96C1160.58 525.136 1158.88 525.736 1155.88 525.736C1152.88 525.736 1151.18 525.136 1151.18 523.96C1151.18 522.76 1152.88 522.136 1155.88 522.136ZM1148.25 506.896V509.416H1162.31V506.896H1148.25ZM1145.99 515.824V518.368H1166.01V515.824H1145.99ZM1153.41 511.96V516.472H1156.58V511.96H1153.41ZM1160.46 506.896V508.72C1160.46 510.448 1160.46 512.056 1159.86 514.336L1163.03 514.672C1163.63 512.368 1163.63 510.472 1163.63 508.72V506.896H1160.46ZM1170.42 518.56V527.896H1185.73V518.56H1182.57V520.888H1173.57V518.56H1170.42ZM1173.57 523.336H1182.57V525.352H1173.57V523.336ZM1170.49 506.8V509.344H1184.58V506.8H1170.49ZM1168.05 514.576V517.144H1188.16V514.576H1168.05ZM1182.66 506.8V508.576C1182.66 510.448 1182.66 512.488 1181.97 515.344L1185.18 515.128C1185.81 512.344 1185.81 510.424 1185.81 508.576V506.8H1182.66Z" fill="white"/>
</g>
<rect x="770" y="369" width="224" height="300" fill="#D2D2D2"/>
<mask id="mask2_434_6053" style="mask-type:alpha" maskUnits="userSpaceOnUse" x="770" y="369" width="224" height="300">
<rect x="770" y="369" width="224" height="300" fill="white"/>
</mask>
<g mask="url(#mask2_434_6053)">
</g>
<g clip-path="url(#clip5_434_6053)">
<path d="M928.034 628.148V629.408H929.276C932.372 629.408 934.334 629.3 936.674 628.868L936.512 627.644C934.244 628.076 932.3 628.148 929.276 628.148H928.034ZM928.034 618.68V628.616H929.51V619.904H935.432V618.68H928.034ZM939.14 617.132V633.44H940.634V617.132H939.14ZM934.478 623.018V624.26H939.752V623.018H934.478ZM943.783 630.092V631.334H958.525V630.092H943.783ZM950.371 626.204V630.452H951.865V626.204H950.371ZM945.511 618.284V626.6H956.761V618.284H955.285V621.182H946.987V618.284H945.511ZM946.987 622.388H955.285V625.376H946.987V622.388ZM972.185 617.132V633.404H973.679V617.132H972.185ZM967.415 618.878V619.13C967.415 623.45 965.237 626.906 960.539 629.174L961.331 630.38C966.767 627.716 968.891 623.594 968.891 618.878H967.415ZM961.277 618.878V620.102H968.063V618.878H961.277Z" fill="#464646"/>
<path d="M922.088 634.25H926.318V635.15H922.088V634.25ZM926.324 634.7H976.001V635.6H926.324V634.7Z" fill="#464646"/>
<path d="M791.76 494L799.032 476.96H801.672L808.656 494H805.488L803.952 490.112H796.512L794.928 494H791.76ZM797.592 487.496H802.944L800.304 480.8L797.592 487.496ZM813.323 494H810.275V476.96H816.275C818.483 476.96 820.171 477.408 821.339 478.304C822.507 479.2 823.091 480.496 823.091 482.192C823.091 483.904 822.459 485.248 821.195 486.224C819.931 487.184 818.091 487.664 815.675 487.664H813.323V494ZM816.155 479.504H813.323V485.096H815.843C817.283 485.096 818.331 484.864 818.987 484.4C819.643 483.936 819.971 483.216 819.971 482.24C819.971 481.264 819.659 480.568 819.035 480.152C818.427 479.72 817.467 479.504 816.155 479.504ZM837.612 476.96L837.228 479.696H831.948V494H828.828V479.696H823.356V476.96H837.612ZM792.96 518.344V520.888H813.096V518.344H792.96ZM801.36 519.976V528.136H804.528V519.976H801.36ZM795.288 506.992V515.968H810.696V506.992H795.288ZM807.552 509.512V513.448H798.432V509.512H807.552ZM823.462 506.488V507.184C823.462 509.704 820.966 512.44 816.046 513.136L817.246 515.632C822.91 514.768 826.198 511.288 826.198 507.184V506.488H823.462ZM823.99 506.488V507.184C823.99 511.24 827.278 514.72 832.942 515.56L834.118 513.064C829.222 512.392 826.726 509.632 826.726 507.184V506.488H823.99ZM815.038 516.832V519.376H835.15V516.832H815.038ZM823.75 518.44V523.12H826.966V518.44H823.75ZM817.366 525.208V527.752H832.942V525.208H817.366ZM817.366 521.248V526H820.534V521.248H817.366ZM844.316 506.8C840.956 506.8 838.508 508.744 838.508 511.552C838.508 514.312 840.956 516.304 844.316 516.304C847.7 516.304 850.148 514.312 850.148 511.552C850.148 508.744 847.7 506.8 844.316 506.8ZM844.316 509.392C845.948 509.392 847.1 510.16 847.1 511.552C847.1 512.92 845.948 513.688 844.316 513.688C842.708 513.688 841.556 512.92 841.556 511.552C841.556 510.16 842.708 509.392 844.316 509.392ZM842.828 518.512V527.464H846.02V518.512H842.828ZM852.548 505.912V528.136H855.716V505.912H852.548ZM837.572 520.192C841.412 520.168 846.668 520.12 851.492 519.16L851.276 516.832C846.572 517.552 841.076 517.6 837.188 517.6L837.572 520.192Z" fill="white"/>
</g>
<path d="M279.369 337V334.6H284.139V319.6L280.089 322.36L278.679 320.29L285.429 315.7H287.079V334.6H291.669V337H279.369ZM296.938 337.27C296.318 337.27 295.818 337.08 295.438 336.7C295.058 336.3 294.868 335.81 294.868 335.23C294.868 334.67 295.058 334.2 295.438 333.82C295.818 333.42 296.318 333.22 296.938 333.22C297.558 333.22 298.048 333.42 298.408 333.82C298.788 334.2 298.978 334.67 298.978 335.23C298.978 335.81 298.788 336.3 298.408 336.7C298.048 337.08 297.558 337.27 296.938 337.27ZM323.65 329.32C317.86 329.32 314.2 331.21 314.2 334.33C314.2 337.42 317.86 339.28 323.65 339.28C329.41 339.28 333.1 337.42 333.1 334.33C333.1 331.21 329.41 329.32 323.65 329.32ZM323.65 331.27C327.91 331.27 330.61 332.44 330.61 334.33C330.61 336.19 327.91 337.36 323.65 337.36C319.39 337.36 316.66 336.19 316.66 334.33C316.66 332.44 319.39 331.27 323.65 331.27ZM314.41 313.57V315.61H331.87V313.57H314.41ZM311.5 324.85V326.86H335.98V324.85H311.5ZM321.55 319.63V325.42H324.01V319.63H321.55ZM330.43 313.57V315.88C330.43 318.01 330.43 319.99 329.68 322.78L332.14 323.08C332.86 320.26 332.86 318.07 332.86 315.88V313.57H330.43ZM342.278 327.73V338.98H360.488V327.73H357.998V331.3H344.738V327.73H342.278ZM344.738 333.28H357.998V336.97H344.738V333.28ZM342.218 313.45V315.49H359.678V313.45H342.218ZM339.098 323.26V325.33H363.668V323.26H339.098ZM358.058 313.45V315.43C358.058 317.65 358.058 320.23 357.158 323.86L359.648 323.83C360.488 320.2 360.488 317.65 360.488 315.43V313.45H358.058ZM372.965 328.99V339.34H375.515V328.99H372.965ZM382.295 328.99V339.34H384.845V328.99H382.295ZM366.665 327.64V329.71H391.265V327.64H366.665ZM378.905 313.3C373.265 313.3 369.425 315.58 369.425 319.21C369.425 322.81 373.265 325.12 378.905 325.12C384.575 325.12 388.385 322.81 388.385 319.21C388.385 315.58 384.575 313.3 378.905 313.3ZM378.905 315.31C383.045 315.31 385.835 316.84 385.835 319.21C385.835 321.58 383.045 323.11 378.905 323.11C374.765 323.11 371.945 321.58 371.945 319.21C371.945 316.84 374.765 315.31 378.905 315.31ZM409.533 318.73V320.77H415.053V318.73H409.533ZM409.503 324.01V326.05H415.023V324.01H409.503ZM394.323 315.19V317.2H409.503V315.19H394.323ZM402.003 318.61C398.373 318.61 395.853 320.59 395.853 323.62C395.853 326.65 398.373 328.66 402.003 328.66C405.633 328.66 408.123 326.65 408.123 323.62C408.123 320.59 405.633 318.61 402.003 318.61ZM402.003 320.53C404.253 320.53 405.813 321.73 405.813 323.62C405.813 325.51 404.253 326.74 402.003 326.74C399.723 326.74 398.193 325.51 398.193 323.62C398.193 321.73 399.723 320.53 402.003 320.53ZM400.773 311.98V316.6H403.263V311.98H400.773ZM414.093 312.22V329.74H416.583V312.22H414.093ZM407.703 330.01C402.063 330.01 398.673 331.72 398.673 334.66C398.673 337.6 402.063 339.28 407.703 339.28C413.313 339.28 416.733 337.6 416.733 334.66C416.733 331.72 413.313 330.01 407.703 330.01ZM407.703 331.99C411.693 331.99 414.153 332.92 414.153 334.66C414.153 336.37 411.693 337.36 407.703 337.36C403.713 337.36 401.253 336.37 401.253 334.66C401.253 332.92 403.713 331.99 407.703 331.99Z" fill="#222A41"/>
<path d="M1357.38 480.517L1366 490.862L1357.38 501.207" stroke="#0028FF" stroke-width="7" stroke-linecap="round" stroke-linejoin="round"/>
<path d="M61.592 74V47.36H73.22C74.924 47.36 76.376 47.66 77.576 48.26C78.776 48.86 79.688 49.664 80.312 50.672C80.96 51.68 81.284 52.784 81.284 53.984C81.284 55.208 81.056 56.216 80.6 57.008C80.168 57.8 79.64 58.424 79.016 58.88C78.416 59.312 77.864 59.612 77.36 59.78V60.032C77.984 60.2 78.68 60.524 79.448 61.004C80.24 61.484 80.924 62.168 81.5 63.056C82.076 63.92 82.364 65.048 82.364 66.44C82.364 67.688 82.064 68.9 81.464 70.076C80.864 71.228 79.916 72.176 78.62 72.92C77.324 73.64 75.608 74 73.472 74H61.592ZM72.572 51.5H66.488V58.448H72.572C73.964 58.448 74.972 58.1 75.596 57.404C76.22 56.708 76.532 55.892 76.532 54.956C76.532 54.044 76.22 53.24 75.596 52.544C74.972 51.848 73.964 51.5 72.572 51.5ZM72.932 62.192H66.488V69.86H72.932C74.516 69.86 75.668 69.476 76.388 68.708C77.108 67.94 77.468 67.04 77.468 66.008C77.468 65 77.108 64.112 76.388 63.344C75.668 62.576 74.516 62.192 72.932 62.192ZM86.5811 74L86.6171 46.64H91.3691V74H86.5811ZM102.106 74.36C100.114 74.36 98.6019 73.748 97.5699 72.524C96.5619 71.3 96.0579 69.728 96.0579 67.808V54.92H100.81V67.016C100.81 68.048 101.086 68.876 101.638 69.5C102.19 70.1 102.97 70.4 103.978 70.4C104.866 70.4 105.586 70.172 106.138 69.716C106.69 69.26 107.086 68.672 107.326 67.952C107.59 67.232 107.722 66.488 107.722 65.72V54.92H112.51V74H107.722V71.264H107.506C107.266 71.696 106.918 72.152 106.462 72.632C106.03 73.112 105.454 73.52 104.734 73.856C104.038 74.192 103.162 74.36 102.106 74.36ZM126.044 74.36C124.412 74.36 122.996 74.084 121.796 73.532C120.62 72.956 119.636 72.2 118.844 71.264C118.076 70.304 117.5 69.236 117.116 68.06C116.732 66.884 116.54 65.684 116.54 64.46C116.54 63.236 116.72 62.048 117.08 60.896C117.464 59.72 118.028 58.652 118.772 57.692C119.54 56.732 120.512 55.976 121.688 55.424C122.864 54.848 124.256 54.56 125.864 54.56C127.592 54.56 129.116 54.944 130.436 55.712C131.756 56.48 132.788 57.608 133.532 59.096C134.276 60.56 134.648 62.384 134.648 64.568V65.792H121.364C121.436 67.088 121.88 68.216 122.696 69.176C123.512 70.112 124.628 70.58 126.044 70.58C126.86 70.58 127.532 70.448 128.06 70.184C128.588 69.92 128.996 69.62 129.284 69.284C129.572 68.924 129.776 68.624 129.896 68.384C130.016 68.12 130.076 67.988 130.076 67.988H134.504C134.504 67.988 134.444 68.204 134.324 68.636C134.204 69.044 133.976 69.572 133.64 70.22C133.328 70.844 132.86 71.48 132.236 72.128C131.612 72.752 130.796 73.28 129.788 73.712C128.78 74.144 127.532 74.36 126.044 74.36ZM121.364 62.66H130.04C129.968 61.172 129.524 60.068 128.708 59.348C127.892 58.628 126.932 58.268 125.828 58.268C124.604 58.268 123.584 58.664 122.768 59.456C121.952 60.224 121.484 61.292 121.364 62.66ZM138.908 74V47.36H149.276C151.196 47.36 152.828 47.72 154.172 48.44C155.54 49.136 156.572 50.096 157.268 51.32C157.988 52.52 158.348 53.876 158.348 55.388C158.348 57.092 157.892 58.616 156.98 59.96C156.068 61.28 154.748 62.24 153.02 62.84L159.14 74H153.704L148.016 63.416H143.804V74H138.908ZM149.204 51.608H143.804V59.42H149.204C150.572 59.42 151.616 59.036 152.336 58.268C153.056 57.476 153.416 56.552 153.416 55.496C153.416 54.44 153.056 53.528 152.336 52.76C151.616 51.992 150.572 51.608 149.204 51.608ZM171.213 74.36C169.125 74.36 167.349 73.892 165.885 72.956C164.421 72.02 163.305 70.808 162.537 69.32C161.793 67.808 161.421 66.188 161.421 64.46C161.421 62.732 161.793 61.124 162.537 59.636C163.305 58.124 164.421 56.9 165.885 55.964C167.349 55.028 169.125 54.56 171.213 54.56C173.325 54.56 175.101 55.028 176.541 55.964C178.005 56.9 179.109 58.124 179.853 59.636C180.621 61.124 181.005 62.732 181.005 64.46C181.005 66.188 180.621 67.808 179.853 69.32C179.109 70.808 178.005 72.02 176.541 72.956C175.101 73.892 173.325 74.36 171.213 74.36ZM171.213 70.364C172.293 70.364 173.193 70.088 173.913 69.536C174.657 68.984 175.221 68.264 175.605 67.376C175.989 66.464 176.181 65.492 176.181 64.46C176.181 63.404 175.989 62.432 175.605 61.544C175.221 60.656 174.657 59.936 173.913 59.384C173.193 58.832 172.293 58.556 171.213 58.556C170.157 58.556 169.257 58.832 168.513 59.384C167.769 59.936 167.205 60.656 166.821 61.544C166.437 62.432 166.245 63.404 166.245 64.46C166.245 65.492 166.437 66.464 166.821 67.376C167.205 68.264 167.769 68.984 168.513 69.536C169.257 70.088 170.157 70.364 171.213 70.364ZM194.374 74.36C192.286 74.36 190.51 73.892 189.046 72.956C187.582 72.02 186.466 70.808 185.698 69.32C184.954 67.808 184.582 66.188 184.582 64.46C184.582 62.732 184.954 61.124 185.698 59.636C186.466 58.124 187.582 56.9 189.046 55.964C190.51 55.028 192.286 54.56 194.374 54.56C196.486 54.56 198.262 55.028 199.702 55.964C201.166 56.9 202.27 58.124 203.014 59.636C203.782 61.124 204.166 62.732 204.166 64.46C204.166 66.188 203.782 67.808 203.014 69.32C202.27 70.808 201.166 72.02 199.702 72.956C198.262 73.892 196.486 74.36 194.374 74.36ZM194.374 70.364C195.454 70.364 196.354 70.088 197.074 69.536C197.818 68.984 198.382 68.264 198.766 67.376C199.15 66.464 199.342 65.492 199.342 64.46C199.342 63.404 199.15 62.432 198.766 61.544C198.382 60.656 197.818 59.936 197.074 59.384C196.354 58.832 195.454 58.556 194.374 58.556C193.318 58.556 192.418 58.832 191.674 59.384C190.93 59.936 190.366 60.656 189.982 61.544C189.598 62.432 189.406 63.404 189.406 64.46C189.406 65.492 189.598 66.464 189.982 67.376C190.366 68.264 190.93 68.984 191.674 69.536C192.418 70.088 193.318 70.364 194.374 70.364ZM210.157 74V58.772H207.097V54.92H210.157V53.156C210.157 52.436 210.253 51.68 210.445 50.888C210.637 50.072 210.961 49.316 211.417 48.62C211.897 47.924 212.557 47.36 213.397 46.928C214.261 46.496 215.341 46.28 216.637 46.28C217.357 46.28 217.945 46.34 218.401 46.46C218.881 46.556 219.121 46.604 219.121 46.604V50.096C219.121 50.096 218.965 50.072 218.653 50.024C218.341 49.952 218.005 49.916 217.645 49.916C216.613 49.916 215.905 50.216 215.521 50.816C215.137 51.416 214.945 52.196 214.945 53.156V54.92H219.013V58.772H214.945V74H210.157Z" fill="#0028FF"/>
<rect x="1335" y="34" width="113" height="48" rx="24" fill="#0028FF"/>
<path d="M1368.41 63V52.64H1369.78V61.796H1375.11V63H1368.41ZM1379.9 63.14C1379.11 63.14 1378.44 62.958 1377.9 62.594C1377.36 62.2207 1376.95 61.74 1376.67 61.152C1376.39 60.564 1376.25 59.9433 1376.25 59.29C1376.25 58.6273 1376.39 58.0067 1376.67 57.428C1376.95 56.84 1377.36 56.364 1377.9 56C1378.44 55.6267 1379.11 55.44 1379.9 55.44C1380.69 55.44 1381.36 55.6267 1381.9 56C1382.44 56.364 1382.85 56.84 1383.13 57.428C1383.41 58.0067 1383.55 58.6273 1383.55 59.29C1383.55 59.9433 1383.41 60.564 1383.13 61.152C1382.85 61.74 1382.44 62.2207 1381.9 62.594C1381.36 62.958 1380.69 63.14 1379.9 63.14ZM1379.9 61.978C1380.4 61.978 1380.82 61.852 1381.16 61.6C1381.5 61.3387 1381.76 61.0027 1381.93 60.592C1382.11 60.1813 1382.2 59.7473 1382.2 59.29C1382.2 58.8233 1382.11 58.3893 1381.93 57.988C1381.76 57.5773 1381.5 57.246 1381.16 56.994C1380.82 56.7327 1380.4 56.602 1379.9 56.602C1379.4 56.602 1378.98 56.7327 1378.64 56.994C1378.29 57.246 1378.03 57.5773 1377.86 57.988C1377.69 58.3893 1377.6 58.8233 1377.6 59.29C1377.6 59.7473 1377.69 60.1813 1377.86 60.592C1378.03 61.0027 1378.29 61.3387 1378.64 61.6C1378.98 61.852 1379.4 61.978 1379.9 61.978ZM1388.81 65.94C1388.2 65.94 1387.68 65.856 1387.27 65.688C1386.86 65.5293 1386.53 65.324 1386.28 65.072C1386.04 64.8293 1385.85 64.5867 1385.73 64.344C1385.61 64.1013 1385.53 63.896 1385.49 63.728C1385.46 63.5693 1385.44 63.49 1385.44 63.49H1386.77C1386.77 63.49 1386.79 63.5553 1386.84 63.686C1386.88 63.8167 1386.97 63.966 1387.1 64.134C1387.24 64.302 1387.45 64.4513 1387.72 64.582C1387.99 64.7127 1388.35 64.778 1388.81 64.778C1389.35 64.778 1389.78 64.6707 1390.09 64.456C1390.39 64.2507 1390.61 63.98 1390.74 63.644C1390.88 63.308 1390.95 62.9533 1390.95 62.58V61.726H1390.88C1390.79 61.8847 1390.64 62.0667 1390.44 62.272C1390.24 62.468 1389.98 62.6407 1389.65 62.79C1389.33 62.93 1388.92 63 1388.45 63C1387.89 63 1387.4 62.8927 1386.98 62.678C1386.56 62.4633 1386.21 62.174 1385.93 61.81C1385.66 61.446 1385.45 61.04 1385.31 60.592C1385.17 60.144 1385.1 59.6867 1385.1 59.22C1385.1 58.7533 1385.17 58.296 1385.31 57.848C1385.45 57.4 1385.66 56.994 1385.93 56.63C1386.21 56.266 1386.56 55.9767 1386.98 55.762C1387.4 55.5473 1387.89 55.44 1388.45 55.44C1388.92 55.44 1389.33 55.5147 1389.65 55.664C1389.98 55.804 1390.24 55.972 1390.44 56.168C1390.64 56.364 1390.79 56.546 1390.88 56.714H1390.95V55.58H1392.28V62.566C1392.28 63.602 1391.98 64.4233 1391.37 65.03C1390.78 65.6367 1389.92 65.94 1388.81 65.94ZM1388.7 61.866C1389.19 61.866 1389.61 61.74 1389.93 61.488C1390.27 61.2267 1390.52 60.8953 1390.67 60.494C1390.84 60.0927 1390.93 59.668 1390.93 59.22C1390.93 58.772 1390.84 58.3473 1390.67 57.946C1390.52 57.5353 1390.27 57.204 1389.93 56.952C1389.61 56.7 1389.19 56.574 1388.7 56.574C1388.21 56.574 1387.79 56.7 1387.45 56.952C1387.12 57.204 1386.87 57.5353 1386.7 57.946C1386.54 58.3473 1386.46 58.772 1386.46 59.22C1386.46 59.668 1386.54 60.0927 1386.7 60.494C1386.87 60.8953 1387.12 61.2267 1387.45 61.488C1387.79 61.74 1388.21 61.866 1388.7 61.866ZM1397.42 63.14C1396.63 63.14 1395.96 62.958 1395.42 62.594C1394.88 62.2207 1394.47 61.74 1394.19 61.152C1393.91 60.564 1393.77 59.9433 1393.77 59.29C1393.77 58.6273 1393.91 58.0067 1394.19 57.428C1394.47 56.84 1394.88 56.364 1395.42 56C1395.96 55.6267 1396.63 55.44 1397.42 55.44C1398.21 55.44 1398.88 55.6267 1399.42 56C1399.96 56.364 1400.38 56.84 1400.66 57.428C1400.94 58.0067 1401.08 58.6273 1401.08 59.29C1401.08 59.9433 1400.94 60.564 1400.66 61.152C1400.38 61.74 1399.96 62.2207 1399.42 62.594C1398.88 62.958 1398.21 63.14 1397.42 63.14ZM1397.42 61.978C1397.93 61.978 1398.35 61.852 1398.68 61.6C1399.03 61.3387 1399.28 61.0027 1399.45 60.592C1399.63 60.1813 1399.72 59.7473 1399.72 59.29C1399.72 58.8233 1399.63 58.3893 1399.45 57.988C1399.28 57.5773 1399.03 57.246 1398.68 56.994C1398.35 56.7327 1397.93 56.602 1397.42 56.602C1396.93 56.602 1396.51 56.7327 1396.16 56.994C1395.82 57.246 1395.55 57.5773 1395.38 57.988C1395.21 58.3893 1395.13 58.8233 1395.13 59.29C1395.13 59.7473 1395.21 60.1813 1395.38 60.592C1395.55 61.0027 1395.82 61.3387 1396.16 61.6C1396.51 61.852 1396.93 61.978 1397.42 61.978ZM1405.25 63.14C1404.52 63.14 1403.93 62.9113 1403.49 62.454C1403.05 61.9967 1402.83 61.362 1402.83 60.55V55.58H1404.16V60.48C1404.16 60.9653 1404.29 61.3387 1404.55 61.6C1404.83 61.8613 1405.18 61.992 1405.62 61.992C1406.07 61.992 1406.43 61.8753 1406.7 61.642C1406.97 61.4087 1407.16 61.11 1407.28 60.746C1407.41 60.382 1407.47 60.0087 1407.47 59.626V55.58H1408.8V63H1407.47V61.936H1407.38C1407.33 62.048 1407.22 62.202 1407.06 62.398C1406.9 62.5847 1406.68 62.7573 1406.39 62.916C1406.1 63.0653 1405.72 63.14 1405.25 63.14ZM1413.85 63.14C1413.09 63.14 1412.51 62.944 1412.12 62.552C1411.74 62.16 1411.54 61.6093 1411.54 60.9V56.672H1410.21V55.58H1411.54V53.718H1412.87V55.58H1414.68V56.672H1412.87V60.9C1412.87 61.2733 1412.98 61.5487 1413.18 61.726C1413.39 61.894 1413.69 61.978 1414.08 61.978C1414.28 61.978 1414.48 61.964 1414.67 61.936C1414.85 61.908 1414.95 61.894 1414.95 61.894V63.028C1414.95 63.028 1414.84 63.0467 1414.62 63.084C1414.41 63.1213 1414.15 63.14 1413.85 63.14Z" fill="white"/>
<path d="M-23 99.5L1489 101.5" stroke="#D3D3D3"/>
<path d="M319.352 53.864V58.824H329.336V53.864H327.224V54.84H321.448V53.864H319.352ZM321.448 56.392H327.224V57.256H321.448V56.392ZM317.64 59.624V61.288H331.032V59.624H317.64ZM319.176 62.136V63.688H327.32V64.44H319.192V67.24H321.288V65.896H329.416V62.136H319.176ZM319.192 66.744V68.328H329.8V66.744H319.192ZM333.829 54.072V55.768H342.005V56.904H333.861V60.744H336.021V58.488H344.165V54.072H333.829ZM333.861 59.704V61.384H344.533V59.704H333.861ZM332.293 62.472V64.184H345.717V62.472H332.293ZM337.909 63.096V68.456H340.037V63.096H337.909ZM348.482 54.072V55.768H356.658V56.904H348.514V60.744H350.674V58.488H358.818V54.072H348.482ZM348.514 59.704V61.384H359.186V59.704H348.514ZM346.946 62.472V64.184H360.37V62.472H346.946ZM352.562 63.096V68.456H354.69V63.096H352.562ZM361.615 64.968V66.712H375.023V64.968H361.615ZM362.639 54.888V56.584H373.919V54.888H362.639ZM362.703 61.016V62.728H373.871V61.016H362.703ZM364.655 56.456V61.176H366.783V56.456H364.655ZM369.791 56.456V61.176H371.903V56.456H369.791ZM385.789 53.624V64.536H387.917V53.624H385.789ZM387.309 57.864V59.624H389.885V57.864H387.309ZM378.413 66.472V68.168H388.461V66.472H378.413ZM378.413 63.656V67.032H380.557V63.656H378.413ZM376.781 60.712V62.408H378.029C381.021 62.408 382.893 62.344 384.973 61.96L384.781 60.248C382.733 60.632 380.941 60.712 378.029 60.712H376.781ZM376.765 54.504V56.2H381.437V57.608H376.781V61.32H378.893V59.176H383.533V54.504H376.765ZM393.946 63.688V63.16C393.946 62.6693 394.047 62.248 394.25 61.896C394.452 61.544 394.703 61.24 395.002 60.984C395.3 60.7173 395.594 60.4667 395.882 60.232C396.18 59.9973 396.431 59.7467 396.634 59.48C396.836 59.2027 396.938 58.8827 396.938 58.52C396.938 58.0187 396.751 57.624 396.378 57.336C396.015 57.0373 395.583 56.888 395.082 56.888C394.751 56.888 394.436 56.9627 394.138 57.112C393.85 57.2507 393.615 57.4693 393.434 57.768C393.252 58.0667 393.162 58.4507 393.162 58.92H391.098C391.098 58.0347 391.29 57.304 391.674 56.728C392.068 56.1413 392.575 55.7093 393.194 55.432C393.812 55.144 394.463 55 395.146 55C395.86 55 396.516 55.144 397.114 55.432C397.722 55.7093 398.207 56.1093 398.57 56.632C398.932 57.144 399.114 57.7573 399.114 58.472C399.114 59.016 399.007 59.48 398.794 59.864C398.591 60.2373 398.34 60.568 398.042 60.856C397.743 61.1333 397.439 61.3893 397.13 61.624C396.831 61.8587 396.58 62.0987 396.378 62.344C396.175 62.5787 396.074 62.8507 396.074 63.16V63.688H393.946ZM395.018 67.16C394.666 67.16 394.378 67.0427 394.154 66.808C393.93 66.5733 393.818 66.2907 393.818 65.96C393.818 65.6293 393.93 65.352 394.154 65.128C394.378 64.8933 394.666 64.776 395.018 64.776C395.359 64.776 395.642 64.8933 395.866 65.128C396.1 65.352 396.218 65.6293 396.218 65.96C396.218 66.2907 396.1 66.5733 395.866 66.808C395.642 67.0427 395.359 67.16 395.018 67.16Z" fill="#282A2D"/>
<path d="M443.968 55.944V57.608C443.968 60.04 442.768 62.808 440.32 63.96L441.52 65.64C444.24 64.36 445.648 60.952 445.648 57.608V55.944H443.968ZM444.416 55.944V57.608C444.416 60.76 445.792 64.008 448.512 65.272L449.68 63.592C447.248 62.472 446.096 59.848 446.096 57.608V55.944H444.416ZM440.896 55.032V56.776H449.024V55.032H440.896ZM450.112 53.608V68.424H452.256V53.608H450.112ZM451.776 59.256V61.016H454.4V59.256H451.776ZM460.925 54.536V55.592C460.925 57.864 459.085 59.784 455.453 60.728L456.253 62.392C460.685 61.224 463.149 58.52 463.149 54.536H460.925ZM456.285 54.536V56.232H462.301V54.536H456.285ZM457.597 63.032V64.696H465.565V68.376H467.693V63.032H457.597ZM465.565 53.608V62.408H467.693V53.608H465.565ZM462.445 55.992V57.672H465.917V55.992H462.445ZM462.301 59.144V60.84H465.789V59.144H462.301ZM473.546 55.256V56.504C473.546 58.376 472.474 60.296 470.01 61.096L471.098 62.76C473.946 61.832 475.306 59.304 475.306 56.504V55.256H473.546ZM473.978 55.256V56.504C473.978 59.192 475.322 61.608 478.106 62.488L479.194 60.84C476.778 60.072 475.722 58.264 475.722 56.504V55.256H473.978ZM470.57 54.664V56.344H478.634V54.664H470.57ZM480.122 53.624V64.312H482.266V53.624H480.122ZM472.394 66.472V68.168H482.634V66.472H472.394ZM472.394 63.352V67.32H474.522V63.352H472.394ZM494.135 53.608V64.312H496.263V53.608H494.135ZM495.655 57.64V59.384H498.231V57.64H495.655ZM485.159 60.184V61.896H486.391C489.687 61.896 491.383 61.816 493.191 61.416L492.983 59.736C491.207 60.12 489.607 60.184 486.391 60.184H485.159ZM485.159 54.776V61.096H487.271V56.488H491.783V54.776H485.159ZM486.711 66.472V68.168H496.791V66.472H486.711ZM486.711 63.192V67.336H488.839V63.192H486.711Z" fill="#282A2D"/>
<path d="M549.848 53.608V68.424H551.992V53.608H549.848ZM545.48 55.144V55.528C545.48 59.496 543.944 62.184 539.688 64.232L540.792 65.928C546.056 63.384 547.592 59.672 547.592 55.144H545.48ZM540.472 55.144V56.824H546.488V55.144H540.472ZM554.869 63.352V65.08H556.117C558.661 65.08 560.677 65.016 562.917 64.664L562.725 62.968C560.517 63.32 558.613 63.352 556.117 63.352H554.869ZM554.869 54.84V63.912H557.013V56.568H561.829V54.84H554.869ZM556.501 58.952V60.616H561.621V58.952H556.501ZM563.765 53.608V68.424H565.909V53.608H563.765ZM565.429 59.224V60.984H568.053V59.224H565.429ZM572.274 56.2V56.744C572.274 58.424 571.234 60.12 568.85 60.792L569.842 62.456C572.674 61.64 573.986 59.32 573.986 56.744V56.2H572.274ZM572.674 56.2V56.744C572.674 59.176 574.034 61.336 576.882 62.088L577.842 60.44C575.458 59.816 574.402 58.264 574.402 56.744V56.2H572.674ZM569.362 55.144V56.808H577.314V55.144H569.362ZM572.274 53.56V55.8H574.402V53.56H572.274ZM576.898 57.56V59.272H579.73V57.56H576.898ZM579.218 53.608V62.552H581.346V53.608H579.218ZM576.322 62.808C573.186 62.808 571.25 63.832 571.25 65.608C571.25 67.384 573.186 68.424 576.322 68.424C579.458 68.424 581.394 67.384 581.394 65.608C581.394 63.832 579.458 62.808 576.322 62.808ZM576.322 64.424C578.274 64.424 579.282 64.808 579.282 65.608C579.282 66.408 578.274 66.808 576.322 66.808C574.386 66.808 573.378 66.408 573.378 65.608C573.378 64.808 574.386 64.424 576.322 64.424ZM594.607 55.528V57.272H597.167V55.528H594.607ZM594.607 58.744V60.488H597.167V58.744H594.607ZM593.135 53.608V62.344H595.263V53.608H593.135ZM585.375 62.952V64.648H593.135V68.424H595.263V62.952H585.375ZM587.727 54.408C585.439 54.408 583.695 55.928 583.695 58.04C583.695 60.152 585.439 61.656 587.727 61.656C590.015 61.656 591.759 60.152 591.759 58.04C591.759 55.928 590.015 54.408 587.727 54.408ZM587.727 56.216C588.847 56.216 589.679 56.872 589.679 58.04C589.679 59.208 588.847 59.88 587.727 59.88C586.607 59.88 585.775 59.208 585.775 58.04C585.775 56.872 586.607 56.216 587.727 56.216ZM605.725 58.232V59.944H609.629V58.232H605.725ZM601.693 54.744V56.888C601.693 59.704 600.573 62.568 598.045 63.736L599.373 65.448C602.157 64.056 603.421 60.616 603.421 56.888V54.744H601.693ZM602.141 54.744V56.888C602.141 60.584 603.309 63.848 606.093 65.192L607.357 63.496C604.909 62.408 603.837 59.704 603.837 56.888V54.744H602.141ZM608.573 53.592V68.456H610.685V53.592H608.573ZM623.066 53.592V68.456H625.21V53.592H623.066ZM613.642 54.776V65H620.922V54.776H618.81V58.376H615.754V54.776H613.642ZM615.754 60.024H618.81V63.288H615.754V60.024ZM633.063 54.456V55.528C633.063 57.656 631.223 60.008 627.879 60.584L628.791 62.344C632.631 61.592 634.919 58.744 634.919 55.528V54.456H633.063ZM633.495 54.456V55.528C633.495 58.792 635.767 61.592 639.607 62.344L640.519 60.584C637.159 60.008 635.335 57.704 635.335 55.528V54.456H633.495ZM627.575 64.888V66.616H640.983V64.888H627.575Z" fill="#282A2D"/>
<path d="M683.088 55V64.824H690.176V55H683.088ZM688.08 56.664V63.144H685.184V56.664H688.08ZM692.112 53.608V68.424H694.256V53.608H692.112ZM693.776 59.192V60.952H696.4V59.192H693.776ZM707.453 53.592V68.456H709.597V53.592H707.453ZM701.613 54.632C699.373 54.632 697.725 56.68 697.725 59.912C697.725 63.176 699.373 65.224 701.613 65.224C703.853 65.224 705.501 63.176 705.501 59.912C705.501 56.68 703.853 54.632 701.613 54.632ZM701.613 56.568C702.717 56.568 703.453 57.736 703.453 59.912C703.453 62.12 702.717 63.304 701.613 63.304C700.509 63.304 699.757 62.12 699.757 59.912C699.757 57.736 700.509 56.568 701.613 56.568ZM722.778 53.608V68.424H724.81V53.608H722.778ZM718.442 59V60.872H720.426V59H718.442ZM719.834 53.896V67.736H721.834V53.896H719.834ZM712.058 55.272V56.968H718.794V55.272H712.058ZM712.026 65.064C713.85 65.064 716.858 65.016 719.162 64.52L719.018 62.984C716.778 63.288 713.658 63.336 711.802 63.336L712.026 65.064ZM712.97 56.36V63.784H714.874V56.36H712.97ZM715.946 56.36V63.784H717.866V56.36H715.946ZM736.759 53.592V68.456H738.903V53.592H736.759ZM730.919 54.632C728.679 54.632 727.031 56.68 727.031 59.912C727.031 63.176 728.679 65.224 730.919 65.224C733.159 65.224 734.807 63.176 734.807 59.912C734.807 56.68 733.159 54.632 730.919 54.632ZM730.919 56.568C732.023 56.568 732.759 57.736 732.759 59.912C732.759 62.12 732.023 63.304 730.919 63.304C729.815 63.304 729.063 62.12 729.063 59.912C729.063 57.736 729.815 56.568 730.919 56.568ZM744.821 55.944V57.608C744.821 60.12 743.621 62.856 741.141 63.96L742.341 65.64C745.125 64.376 746.517 61.032 746.517 57.608V55.944H744.821ZM745.301 55.944V57.608C745.301 60.904 746.677 64.056 749.493 65.272L750.645 63.592C748.165 62.568 746.981 60.008 746.981 57.608V55.944H745.301ZM741.733 55.032V56.776H750.037V55.032H741.733ZM751.413 53.608V68.424H753.557V53.608H751.413Z" fill="#282A2D"/>
<ellipse cx="126" cy="823" rx="67" ry="42" fill="#0028FF"/>
<path d="M182.5 823C182.5 832.232 176.466 840.822 166.221 847.181C155.998 853.526 141.782 857.5 126 857.5C110.218 857.5 96.0015 853.526 85.7789 847.181C75.5337 840.822 69.5 832.232 69.5 823C69.5 813.768 75.5337 805.178 85.7789 798.819C96.0015 792.474 110.218 788.5 126 788.5C141.782 788.5 155.998 792.474 166.221 798.819C176.466 805.178 182.5 813.768 182.5 823Z" stroke="white" stroke-width="3"/>
<path d="M106.614 806.78V807.239C106.614 808.905 105.764 810.537 103.775 811.302L104.812 812.968C107.277 812.05 108.297 809.738 108.297 807.239V806.78H106.614ZM107.073 806.78V807.239C107.073 809.636 108.093 811.829 110.575 812.679L111.578 811.013C109.606 810.316 108.739 808.803 108.739 807.239V806.78H107.073ZM104.217 805.488V807.256H111.119V805.488H104.217ZM106.614 803.958V806.389H108.739V803.958H106.614ZM115.063 803.788V814.43H117.205V803.788H115.063ZM113.244 807.511V809.347H115.743V807.511H113.244ZM111.782 804.026V813.053H113.89V804.026H111.782ZM110.66 813.699V813.937C110.66 815.552 109.062 817.269 105.662 817.711L106.461 819.462C110.405 818.901 112.581 816.674 112.581 813.937V813.699H110.66ZM110.983 813.699V813.937C110.983 816.674 113.159 818.901 117.103 819.462L117.902 817.711C114.519 817.269 112.904 815.552 112.904 813.937V813.699H110.983ZM121.18 804.213V810.18H131.788V804.213H129.544V805.539H123.407V804.213H121.18ZM123.407 807.239H129.544V808.412H123.407V807.239ZM119.361 811.438V813.223H133.59V811.438H119.361ZM125.345 809.466V811.829H127.589V809.466H125.345ZM125.328 814.005V814.277C125.328 815.79 123.781 817.354 120.313 817.728L121.095 819.462C125.073 818.952 127.266 816.912 127.266 814.277V814.005H125.328ZM125.685 814.005V814.277C125.685 816.912 127.861 818.952 131.856 819.462L132.638 817.728C129.153 817.354 127.623 815.79 127.623 814.277V814.005H125.685ZM135.593 805.335V807.12H142.376V805.335H135.593ZM137.616 809.84V815.178H139.843V809.84H137.616ZM141.475 805.335V806.61C141.475 808.123 141.475 809.942 141.067 812.458L143.277 812.662C143.702 810.044 143.702 808.14 143.702 806.61V805.335H141.475ZM145.045 803.771V819.513H147.306V803.771H145.045ZM146.643 810.095V811.965H149.414V810.095H146.643ZM134.998 816.334C137.735 816.334 141.271 816.266 144.45 815.722L144.331 814.073C141.237 814.464 137.565 814.515 134.794 814.515L134.998 816.334ZM99.4582 826.621V828.015C99.4582 830.157 98.3872 832.265 95.7522 833.149L96.9592 834.934C99.9512 833.897 101.311 831.143 101.311 828.015V826.621H99.4582ZM99.9172 826.621V828.236C99.9172 831.075 101.26 833.523 104.099 834.475L105.272 832.724C102.807 831.959 101.753 830.123 101.753 828.236V826.621H99.9172ZM106.139 825.771V835.07H108.4V825.771H106.139ZM107.771 829.409V831.279H110.491V829.409H107.771ZM103.266 835.427C99.9852 835.427 97.9282 836.566 97.9282 838.47C97.9282 840.391 99.9852 841.513 103.266 841.513C106.53 841.513 108.587 840.391 108.587 838.47C108.587 836.566 106.53 835.427 103.266 835.427ZM103.266 837.178C105.272 837.178 106.343 837.603 106.343 838.47C106.343 839.354 105.272 839.762 103.266 839.762C101.26 839.762 100.172 839.354 100.172 838.47C100.172 837.603 101.26 837.178 103.266 837.178ZM121.708 825.771V834.594H123.969V825.771H121.708ZM123.34 829.307V831.143H126.06V829.307H123.34ZM112.171 832.231V834.05H113.48C116.982 834.05 118.784 833.965 120.705 833.54L120.484 831.755C118.597 832.146 116.897 832.231 113.48 832.231H112.171ZM112.171 826.74V833.285H114.415V828.542H119.158V826.74H112.171ZM113.735 835.274V841.343H123.969V835.274H113.735ZM121.759 837.059V839.558H115.962V837.059H121.759ZM137.243 825.771V841.513H139.487V825.771H137.243ZM138.977 831.908V833.795H141.765V831.908H138.977ZM127.077 828.1V829.902H136.24V828.1H127.077ZM131.684 830.786C129.389 830.786 127.689 832.35 127.689 834.543C127.689 836.736 129.389 838.3 131.684 838.3C133.979 838.3 135.679 836.736 135.679 834.543C135.679 832.35 133.979 830.786 131.684 830.786ZM131.684 832.622C132.755 832.622 133.52 833.336 133.52 834.543C133.52 835.75 132.755 836.464 131.684 836.464C130.613 836.464 129.848 835.75 129.848 834.543C129.848 833.336 130.613 832.622 131.684 832.622ZM130.545 826.026V828.78H132.806V826.026H130.545ZM153.56 825.771V841.513H155.838V825.771H153.56ZM148.919 827.403V827.811C148.919 832.027 147.287 834.883 142.765 837.059L143.938 838.861C149.531 836.158 151.163 832.214 151.163 827.403H148.919ZM143.598 827.403V829.188H149.99V827.403H143.598Z" fill="white"/>
</g>
<defs>
<clipPath id="clip0_434_6053">
<rect width="1512" height="982" fill="white"/>
</clipPath>
<clipPath id="clip1_434_6053">
<rect width="224" height="300" fill="white" transform="translate(266 369)"/>
</clipPath>
<clipPath id="clip2_434_6053">
<rect width="184" height="250" fill="white" transform="translate(288 396)"/>
</clipPath>
<clipPath id="clip3_434_6053">
<rect width="184" height="250" fill="white" transform="translate(540 396)"/>
</clipPath>
<clipPath id="clip4_434_6053">
<rect width="184" height="250" fill="white" transform="translate(1045 396)"/>
</clipPath>
<clipPath id="clip5_434_6053">
<rect width="184" height="250" fill="white" transform="translate(792 396)"/>
</clipPath>
</defs>
</svg>
