<svg width="452" height="293" viewBox="0 0 452 293" fill="none" xmlns="http://www.w3.org/2000/svg">
<g clip-path="url(#clip0_422_5643)">
<rect width="451.029" height="292.93" rx="25.2577" fill="white"/>
<path d="M100.93 16.8916V18.3712H103.908V16.8916H103.278V17.1827H101.555V16.8916H100.93ZM101.555 17.6457H103.278V17.9034H101.555V17.6457ZM100.419 18.6098V19.1062H104.414V18.6098H100.419ZM100.878 19.3591V19.8221H103.307V20.0464H100.882V20.8817H101.508V20.4807H103.932V19.3591H100.878ZM100.882 20.7337V21.2062H104.047V20.7337H100.882ZM105.249 16.9536V17.4596H107.688V17.7984H105.258V18.9439H105.903V18.2709H108.332V16.9536H105.249ZM105.258 18.6337V19.1348H108.442V18.6337H105.258ZM104.79 19.4594V19.97H108.795V19.4594H104.79ZM106.466 19.6455V21.2444H107.1V19.6455H106.466ZM109.62 16.9536V17.4596H112.059V17.7984H109.629V18.9439H110.274V18.2709H112.703V16.9536H109.62ZM109.629 18.6337V19.1348H112.813V18.6337H109.629ZM109.161 19.4594V19.97H113.166V19.4594H109.161ZM110.837 19.6455V21.2444H111.472V19.6455H110.837ZM113.537 20.2039V20.7241H117.537V20.2039H113.537ZM113.843 17.1971V17.703H117.208V17.1971H113.843ZM113.862 19.025V19.5357H117.193V19.025H113.862ZM114.444 17.6648V19.0728H115.079V17.6648H114.444ZM115.976 17.6648V19.0728H116.606V17.6648H115.976ZM120.748 16.82V20.075H121.383V16.82H120.748ZM121.202 18.0848V18.6098H121.97V18.0848H121.202ZM118.548 20.6526V21.1585H121.545V20.6526H118.548ZM118.548 19.8125V20.8196H119.187V19.8125H118.548ZM118.061 18.9344V19.4403H118.433C119.326 19.4403 119.884 19.4212 120.505 19.3066L120.447 18.7959C119.837 18.9105 119.302 18.9344 118.433 18.9344H118.061ZM118.056 17.0825V17.5884H119.45V18.0084H118.061V19.1157H118.691V18.4762H120.075V17.0825H118.056ZM123.181 19.8221V19.6646C123.181 19.5182 123.212 19.3925 123.272 19.2875C123.333 19.1825 123.407 19.0919 123.496 19.0155C123.585 18.9359 123.673 18.8612 123.759 18.7912C123.848 18.7212 123.923 18.6464 123.983 18.5668C124.044 18.4841 124.074 18.3887 124.074 18.2805C124.074 18.1309 124.018 18.0132 123.907 17.9273C123.799 17.8382 123.67 17.7937 123.52 17.7937C123.422 17.7937 123.328 17.8159 123.239 17.8605C123.153 17.9018 123.083 17.9671 123.029 18.0562C122.975 18.1453 122.948 18.2598 122.948 18.3998H122.332C122.332 18.1357 122.389 17.9177 122.504 17.7459C122.621 17.5709 122.773 17.4421 122.957 17.3593C123.142 17.2734 123.336 17.2305 123.539 17.2305C123.753 17.2305 123.948 17.2734 124.126 17.3593C124.308 17.4421 124.453 17.5614 124.561 17.7173C124.669 17.87 124.723 18.053 124.723 18.2662C124.723 18.4284 124.691 18.5668 124.628 18.6814C124.567 18.7928 124.492 18.8914 124.403 18.9773C124.314 19.06 124.223 19.1364 124.131 19.2064C124.042 19.2764 123.967 19.348 123.907 19.4212C123.846 19.4912 123.816 19.5723 123.816 19.6646V19.8221H123.181ZM123.501 20.8578C123.396 20.8578 123.31 20.8228 123.243 20.7528C123.177 20.6828 123.143 20.5985 123.143 20.4998C123.143 20.4012 123.177 20.3185 123.243 20.2516C123.31 20.1816 123.396 20.1466 123.501 20.1466C123.603 20.1466 123.687 20.1816 123.754 20.2516C123.824 20.3185 123.859 20.4012 123.859 20.4998C123.859 20.5985 123.824 20.6828 123.754 20.7528C123.687 20.8228 123.603 20.8578 123.501 20.8578Z" fill="#282A2D"/>
<path d="M138.103 17.5121V18.0084C138.103 18.7339 137.745 19.5596 137.015 19.9032L137.373 20.4044C138.184 20.0225 138.604 19.0059 138.604 18.0084V17.5121H138.103ZM138.237 17.5121V18.0084C138.237 18.9487 138.647 19.9175 139.459 20.2946L139.807 19.7935C139.082 19.4594 138.738 18.6766 138.738 18.0084V17.5121H138.237ZM137.187 17.24V17.7602H139.611V17.24H137.187ZM139.936 16.8152V21.2348H140.575V16.8152H139.936ZM140.432 18.5V19.025H141.215V18.5H140.432ZM143.161 17.0921V17.4071C143.161 18.0848 142.613 18.6575 141.529 18.9391L141.768 19.4355C143.09 19.0871 143.825 18.2805 143.825 17.0921H143.161ZM141.777 17.0921V17.598H143.572V17.0921H141.777ZM142.169 19.6264V20.1228H144.545V21.2205H145.18V19.6264H142.169ZM144.545 16.8152V19.4403H145.18V16.8152H144.545ZM143.615 17.5264V18.0275H144.651V17.5264H143.615ZM143.572 18.4666V18.9725H144.612V18.4666H143.572ZM146.926 17.3068V17.6791C146.926 18.2375 146.606 18.8103 145.871 19.0489L146.196 19.5453C147.046 19.2684 147.451 18.5143 147.451 17.6791V17.3068H146.926ZM147.055 17.3068V17.6791C147.055 18.4809 147.456 19.2016 148.287 19.4641L148.611 18.9725C147.89 18.7434 147.575 18.2041 147.575 17.6791V17.3068H147.055ZM146.039 17.1302V17.6314H148.444V17.1302H146.039ZM148.888 16.82V20.0082H149.527V16.82H148.888ZM146.583 20.6526V21.1585H149.637V20.6526H146.583ZM146.583 19.7219V20.9055H147.217V19.7219H146.583ZM153.068 16.8152V20.0082H153.703V16.8152H153.068ZM153.521 18.018V18.5382H154.29V18.018H153.521ZM150.39 18.7769V19.2875H150.758C151.741 19.2875 152.247 19.2637 152.786 19.1444L152.724 18.6432C152.195 18.7578 151.717 18.7769 150.758 18.7769H150.39ZM150.39 17.1636V19.0489H151.02V17.6743H152.366V17.1636H150.39ZM150.853 20.6526V21.1585H153.86V20.6526H150.853ZM150.853 19.6741V20.9103H151.488V19.6741H150.853Z" fill="#282A2D"/>
<path d="M169.688 16.8152V21.2348H170.327V16.8152H169.688ZM168.385 17.2734V17.388C168.385 18.5716 167.926 19.3734 166.657 19.9844L166.986 20.4903C168.556 19.7314 169.015 18.6241 169.015 17.2734H168.385ZM166.891 17.2734V17.7746H168.685V17.2734H166.891ZM171.185 19.7219V20.2373H171.558C172.317 20.2373 172.918 20.2182 173.586 20.1132L173.529 19.6073C172.87 19.7123 172.302 19.7219 171.558 19.7219H171.185ZM171.185 17.1827V19.8889H171.825V17.6982H173.262V17.1827H171.185ZM171.672 18.4093V18.9057H173.2V18.4093H171.672ZM173.839 16.8152V21.2348H174.479V16.8152H173.839ZM174.335 18.4905V19.0155H175.118V18.4905H174.335ZM176.377 17.5884V17.7507C176.377 18.2518 176.067 18.7578 175.356 18.9582L175.652 19.4546C176.497 19.2112 176.888 18.5191 176.888 17.7507V17.5884H176.377ZM176.497 17.5884V17.7507C176.497 18.4762 176.902 19.1205 177.752 19.3448L178.038 18.8532C177.327 18.6671 177.012 18.2041 177.012 17.7507V17.5884H176.497ZM175.509 17.2734V17.7698H177.881V17.2734H175.509ZM176.377 16.8009V17.4691H177.012V16.8009H176.377ZM177.757 17.9941V18.5048H178.601V17.9941H177.757ZM178.449 16.8152V19.4832H179.084V16.8152H178.449ZM177.585 19.5596C176.649 19.5596 176.072 19.865 176.072 20.3948C176.072 20.9246 176.649 21.2348 177.585 21.2348C178.52 21.2348 179.098 20.9246 179.098 20.3948C179.098 19.865 178.52 19.5596 177.585 19.5596ZM177.585 20.0416C178.167 20.0416 178.468 20.1562 178.468 20.3948C178.468 20.6335 178.167 20.7528 177.585 20.7528C177.007 20.7528 176.707 20.6335 176.707 20.3948C176.707 20.1562 177.007 20.0416 177.585 20.0416ZM183.039 17.388V17.9082H183.803V17.388H183.039ZM183.039 18.3473V18.8675H183.803V18.3473H183.039ZM182.6 16.8152V19.4212H183.235V16.8152H182.6ZM180.285 19.6025V20.1085H182.6V21.2348H183.235V19.6025H180.285ZM180.987 17.0539C180.305 17.0539 179.784 17.5073 179.784 18.1373C179.784 18.7673 180.305 19.2159 180.987 19.2159C181.67 19.2159 182.19 18.7673 182.19 18.1373C182.19 17.5073 181.67 17.0539 180.987 17.0539ZM180.987 17.5932C181.321 17.5932 181.569 17.7889 181.569 18.1373C181.569 18.4857 181.321 18.6862 180.987 18.6862C180.653 18.6862 180.405 18.4857 180.405 18.1373C180.405 17.7889 180.653 17.5932 180.987 17.5932ZM186.356 18.1946V18.7053H187.52V18.1946H186.356ZM185.153 17.1541V17.7937C185.153 18.6337 184.819 19.488 184.065 19.8364L184.461 20.3471C185.291 19.9319 185.668 18.9057 185.668 17.7937V17.1541H185.153ZM185.286 17.1541V17.7937C185.286 18.8962 185.635 19.8698 186.465 20.2707L186.842 19.7648C186.112 19.4403 185.792 18.6337 185.792 17.7937V17.1541H185.286ZM187.205 16.8105V21.2444H187.835V16.8105H187.205ZM191.528 16.8105V21.2444H192.168V16.8105H191.528ZM188.717 17.1636V20.2135H190.889V17.1636H190.259V18.2375H189.347V17.1636H188.717ZM189.347 18.7291H190.259V19.7028H189.347V18.7291ZM194.511 17.0682V17.388C194.511 18.0228 193.962 18.7244 192.964 18.8962L193.236 19.4212C194.382 19.1969 195.064 18.3473 195.064 17.388V17.0682H194.511ZM194.639 17.0682V17.388C194.639 18.3616 195.317 19.1969 196.463 19.4212L196.735 18.8962C195.732 18.7244 195.188 18.0371 195.188 17.388V17.0682H194.639ZM192.873 20.1801V20.6955H196.873V20.1801H192.873Z" fill="#282A2D"/>
<path d="M209.432 17.2305V20.161H211.547V17.2305H209.432ZM210.922 17.7268V19.6598H210.058V17.7268H210.922ZM212.124 16.8152V21.2348H212.764V16.8152H212.124ZM212.621 18.4809V19.0059H213.403V18.4809H212.621ZM216.701 16.8105V21.2444H217.34V16.8105H216.701ZM214.958 17.1207C214.29 17.1207 213.799 17.7316 213.799 18.6957C213.799 19.6694 214.29 20.2803 214.958 20.2803C215.627 20.2803 216.118 19.6694 216.118 18.6957C216.118 17.7316 215.627 17.1207 214.958 17.1207ZM214.958 17.6982C215.288 17.6982 215.507 18.0466 215.507 18.6957C215.507 19.3544 215.288 19.7075 214.958 19.7075C214.629 19.7075 214.405 19.3544 214.405 18.6957C214.405 18.0466 214.629 17.6982 214.958 17.6982ZM221.272 16.8152V21.2348H221.878V16.8152H221.272ZM219.979 18.4237V18.9821H220.57V18.4237H219.979ZM220.394 16.9011V21.0296H220.99V16.9011H220.394ZM218.074 17.3116V17.8175H220.084V17.3116H218.074ZM218.065 20.2326C218.609 20.2326 219.506 20.2182 220.193 20.0703L220.15 19.6121C219.482 19.7028 218.552 19.7171 217.998 19.7171L218.065 20.2326ZM218.346 17.6362V19.8507H218.914V17.6362H218.346ZM219.234 17.6362V19.8507H219.807V17.6362H219.234ZM225.443 16.8105V21.2444H226.082V16.8105H225.443ZM223.701 17.1207C223.032 17.1207 222.541 17.7316 222.541 18.6957C222.541 19.6694 223.032 20.2803 223.701 20.2803C224.369 20.2803 224.86 19.6694 224.86 18.6957C224.86 17.7316 224.369 17.1207 223.701 17.1207ZM223.701 17.6982C224.03 17.6982 224.249 18.0466 224.249 18.6957C224.249 19.3544 224.03 19.7075 223.701 19.7075C223.371 19.7075 223.147 19.3544 223.147 18.6957C223.147 18.0466 223.371 17.6982 223.701 17.6982ZM227.847 17.5121V18.0084C227.847 18.7578 227.489 19.5739 226.75 19.9032L227.107 20.4044C227.938 20.0273 228.353 19.0298 228.353 18.0084V17.5121H227.847ZM227.99 17.5121V18.0084C227.99 18.9916 228.401 19.9319 229.241 20.2946L229.585 19.7935C228.845 19.488 228.492 18.7244 228.492 18.0084V17.5121H227.99ZM226.926 17.24V17.7602H229.403V17.24H226.926ZM229.814 16.8152V21.2348H230.453V16.8152H229.814Z" fill="#282A2D"/>
<path d="M24.0403 23.8101V15.8634H27.5089C28.0172 15.8634 28.4503 15.9529 28.8083 16.1318C29.1663 16.3108 29.4383 16.5506 29.6244 16.8513C29.8177 17.152 29.9144 17.4813 29.9144 17.8393C29.9144 18.2044 29.8464 18.5051 29.7104 18.7414C29.5815 18.9776 29.424 19.1637 29.2378 19.2998C29.0589 19.4286 28.8942 19.5181 28.7439 19.5682V19.6434C28.93 19.6935 29.1376 19.7902 29.3667 19.9334C29.603 20.0765 29.807 20.2806 29.9788 20.5455C30.1506 20.8032 30.2366 21.1397 30.2366 21.5549C30.2366 21.9272 30.1471 22.2887 29.9681 22.6395C29.7891 22.9832 29.5063 23.266 29.1197 23.4879C28.7331 23.7027 28.2212 23.8101 27.5841 23.8101H24.0403ZM27.3156 17.0983H25.5008V19.1709H27.3156C27.7308 19.1709 28.0315 19.0671 28.2177 18.8595C28.4038 18.6519 28.4969 18.4085 28.4969 18.1292C28.4969 17.8572 28.4038 17.6174 28.2177 17.4097C28.0315 17.2021 27.7308 17.0983 27.3156 17.0983ZM27.423 20.2877H25.5008V22.5751H27.423C27.8955 22.5751 28.2391 22.4606 28.4539 22.2315C28.6687 22.0024 28.7761 21.7339 28.7761 21.4261C28.7761 21.1254 28.6687 20.8605 28.4539 20.6314C28.2391 20.4023 27.8955 20.2877 27.423 20.2877ZM31.4945 23.8101L31.5053 15.6486H32.9228V23.8101H31.4945ZM36.1255 23.9174C35.5313 23.9174 35.0803 23.7349 34.7725 23.3698C34.4718 23.0047 34.3214 22.5357 34.3214 21.963V18.1185H35.739V21.7267C35.739 22.0346 35.8213 22.2816 35.9859 22.4677C36.1506 22.6467 36.3833 22.7362 36.684 22.7362C36.9489 22.7362 37.1636 22.6682 37.3283 22.5321C37.4929 22.3961 37.6111 22.2207 37.6827 22.0059C37.7614 21.7912 37.8008 21.5692 37.8008 21.3401V18.1185H39.2291V23.8101H37.8008V22.9939H37.7364C37.6648 23.1228 37.561 23.2588 37.4249 23.402C37.2961 23.5452 37.1243 23.6669 36.9095 23.7671C36.7019 23.8673 36.4406 23.9174 36.1255 23.9174ZM43.2663 23.9174C42.7795 23.9174 42.3571 23.8351 41.9992 23.6705C41.6484 23.4986 41.3548 23.2731 41.1186 22.9939C40.8895 22.7075 40.7177 22.389 40.6031 22.0382C40.4886 21.6874 40.4313 21.3294 40.4313 20.9643C40.4313 20.5992 40.485 20.2448 40.5924 19.9011C40.7069 19.5503 40.8752 19.2318 41.0971 18.9454C41.3262 18.659 41.6162 18.4335 41.967 18.2689C42.3178 18.097 42.733 18.0111 43.2127 18.0111C43.7281 18.0111 44.1827 18.1257 44.5765 18.3548C44.9702 18.5839 45.2781 18.9203 45.5 19.3642C45.7219 19.8009 45.8329 20.345 45.8329 20.9965V21.3616H41.8703C41.8918 21.7482 42.0242 22.0847 42.2676 22.3711C42.511 22.6503 42.844 22.7899 43.2663 22.7899C43.5098 22.7899 43.7102 22.7505 43.8677 22.6717C44.0252 22.593 44.1469 22.5035 44.2328 22.4033C44.3187 22.2959 44.3796 22.2064 44.4154 22.1348C44.4512 22.0561 44.4691 22.0167 44.4691 22.0167H45.79C45.79 22.0167 45.7721 22.0811 45.7363 22.21C45.7005 22.3317 45.6325 22.4892 45.5322 22.6825C45.4392 22.8686 45.2996 23.0583 45.1134 23.2516C44.9273 23.4378 44.6839 23.5953 44.3832 23.7241C44.0825 23.853 43.7102 23.9174 43.2663 23.9174ZM41.8703 20.4273H44.4583C44.4369 19.9835 44.3044 19.6542 44.061 19.4394C43.8176 19.2246 43.5312 19.1172 43.2019 19.1172C42.8368 19.1172 42.5325 19.2353 42.2891 19.4716C42.0457 19.7007 41.9061 20.0193 41.8703 20.4273ZM47.1035 23.8101V15.8634H50.1963C50.769 15.8634 51.2559 15.9708 51.6568 16.1855C52.0649 16.3931 52.3727 16.6795 52.5803 17.0446C52.7951 17.4026 52.9025 17.8071 52.9025 18.2581C52.9025 18.7664 52.7665 19.221 52.4944 19.6219C52.2224 20.0157 51.8286 20.3021 51.3131 20.481L53.1387 23.8101H51.5172L49.8205 20.6529H48.564V23.8101H47.1035ZM50.1748 17.1305H48.564V19.4609H50.1748C50.5829 19.4609 50.8943 19.3463 51.1091 19.1172C51.3239 18.881 51.4313 18.6053 51.4313 18.2903C51.4313 17.9753 51.3239 17.7033 51.1091 17.4742C50.8943 17.2451 50.5829 17.1305 50.1748 17.1305ZM56.7401 23.9174C56.1172 23.9174 55.5875 23.7778 55.1508 23.4986C54.714 23.2194 54.3811 22.8579 54.1521 22.414C53.9301 21.963 53.8192 21.4797 53.8192 20.9643C53.8192 20.4488 53.9301 19.9692 54.1521 19.5253C54.3811 19.0743 54.714 18.7091 55.1508 18.4299C55.5875 18.1507 56.1172 18.0111 56.7401 18.0111C57.3701 18.0111 57.8999 18.1507 58.3294 18.4299C58.7661 18.7091 59.0955 19.0743 59.3174 19.5253C59.5465 19.9692 59.661 20.4488 59.661 20.9643C59.661 21.4797 59.5465 21.963 59.3174 22.414C59.0955 22.8579 58.7661 23.2194 58.3294 23.4986C57.8999 23.7778 57.3701 23.9174 56.7401 23.9174ZM56.7401 22.7254C57.0623 22.7254 57.3307 22.6431 57.5455 22.4785C57.7674 22.3138 57.9357 22.099 58.0502 21.8341C58.1648 21.5621 58.222 21.2721 58.222 20.9643C58.222 20.6493 58.1648 20.3593 58.0502 20.0944C57.9357 19.8296 57.7674 19.6148 57.5455 19.4501C57.3307 19.2855 57.0623 19.2031 56.7401 19.2031C56.4251 19.2031 56.1566 19.2855 55.9347 19.4501C55.7128 19.6148 55.5445 19.8296 55.43 20.0944C55.3154 20.3593 55.2581 20.6493 55.2581 20.9643C55.2581 21.2721 55.3154 21.5621 55.43 21.8341C55.5445 22.099 55.7128 22.3138 55.9347 22.4785C56.1566 22.6431 56.4251 22.7254 56.7401 22.7254ZM63.649 23.9174C63.0262 23.9174 62.4964 23.7778 62.0597 23.4986C61.623 23.2194 61.2901 22.8579 61.061 22.414C60.839 21.963 60.7281 21.4797 60.7281 20.9643C60.7281 20.4488 60.839 19.9692 61.061 19.5253C61.2901 19.0743 61.623 18.7091 62.0597 18.4299C62.4964 18.1507 63.0262 18.0111 63.649 18.0111C64.279 18.0111 64.8088 18.1507 65.2383 18.4299C65.6751 18.7091 66.0044 19.0743 66.2263 19.5253C66.4554 19.9692 66.57 20.4488 66.57 20.9643C66.57 21.4797 66.4554 21.963 66.2263 22.414C66.0044 22.8579 65.6751 23.2194 65.2383 23.4986C64.8088 23.7778 64.279 23.9174 63.649 23.9174ZM63.649 22.7254C63.9712 22.7254 64.2396 22.6431 64.4544 22.4785C64.6763 22.3138 64.8446 22.099 64.9591 21.8341C65.0737 21.5621 65.131 21.2721 65.131 20.9643C65.131 20.6493 65.0737 20.3593 64.9591 20.0944C64.8446 19.8296 64.6763 19.6148 64.4544 19.4501C64.2396 19.2855 63.9712 19.2031 63.649 19.2031C63.334 19.2031 63.0655 19.2855 62.8436 19.4501C62.6217 19.6148 62.4534 19.8296 62.3389 20.0944C62.2243 20.3593 62.1671 20.6493 62.1671 20.9643C62.1671 21.2721 62.2243 21.5621 62.3389 21.8341C62.4534 22.099 62.6217 22.3138 62.8436 22.4785C63.0655 22.6431 63.334 22.7254 63.649 22.7254ZM68.3572 23.8101V19.2676H67.4444V18.1185H68.3572V17.5923C68.3572 17.3775 68.3859 17.152 68.4431 16.9158C68.5004 16.6724 68.5971 16.4468 68.7331 16.2392C68.8763 16.0316 69.0731 15.8634 69.3237 15.7345C69.5814 15.6056 69.9036 15.5412 70.2902 15.5412C70.505 15.5412 70.6804 15.5591 70.8164 15.5949C70.9596 15.6235 71.0312 15.6379 71.0312 15.6379V16.6795C71.0312 16.6795 70.9846 16.6724 70.8916 16.658C70.7985 16.6366 70.6983 16.6258 70.5909 16.6258C70.283 16.6258 70.0718 16.7153 69.9573 16.8943C69.8428 17.0733 69.7855 17.3059 69.7855 17.5923V18.1185H70.999V19.2676H69.7855V23.8101H68.3572Z" fill="#0028FF"/>
<path d="M367.242 19.915V16.8247H367.652V19.5559H369.243V19.915H367.242ZM370.67 19.9568C370.434 19.9568 370.235 19.9025 370.073 19.7939C369.912 19.6826 369.789 19.5392 369.706 19.3638C369.622 19.1884 369.58 19.0032 369.58 18.8083C369.58 18.6107 369.622 18.4255 369.706 18.2529C369.789 18.0775 369.912 17.9355 370.073 17.8269C370.235 17.7156 370.434 17.6599 370.67 17.6599C370.907 17.6599 371.106 17.7156 371.268 17.8269C371.429 17.9355 371.552 18.0775 371.635 18.2529C371.719 18.4255 371.76 18.6107 371.76 18.8083C371.76 19.0032 371.719 19.1884 371.635 19.3638C371.552 19.5392 371.429 19.6826 371.268 19.7939C371.106 19.9025 370.907 19.9568 370.67 19.9568ZM370.67 19.6102C370.821 19.6102 370.946 19.5726 371.046 19.4974C371.149 19.4195 371.226 19.3192 371.276 19.1967C371.329 19.0742 371.355 18.9448 371.355 18.8083C371.355 18.6691 371.329 18.5397 371.276 18.42C371.226 18.2975 371.149 18.1986 371.046 18.1235C370.946 18.0455 370.821 18.0065 370.67 18.0065C370.523 18.0065 370.398 18.0455 370.295 18.1235C370.192 18.1986 370.114 18.2975 370.061 18.42C370.011 18.5397 369.986 18.6691 369.986 18.8083C369.986 18.9448 370.011 19.0742 370.061 19.1967C370.114 19.3192 370.192 19.4195 370.295 19.4974C370.398 19.5726 370.523 19.6102 370.67 19.6102ZM373.329 20.792C373.145 20.792 372.992 20.767 372.87 20.7169C372.747 20.6695 372.648 20.6083 372.573 20.5331C372.501 20.4607 372.447 20.3883 372.41 20.316C372.374 20.2436 372.35 20.1823 372.339 20.1322C372.328 20.0849 372.323 20.0612 372.323 20.0612H372.719C372.719 20.0612 372.726 20.0807 372.74 20.1197C372.754 20.1587 372.781 20.2032 372.82 20.2533C372.861 20.3034 372.923 20.348 373.003 20.3869C373.084 20.4259 373.193 20.4454 373.329 20.4454C373.491 20.4454 373.617 20.4134 373.709 20.3494C373.801 20.2881 373.866 20.2074 373.905 20.1071C373.947 20.0069 373.968 19.9011 373.968 19.7898V19.535H373.947C373.919 19.5823 373.875 19.6366 373.814 19.6979C373.755 19.7563 373.677 19.8079 373.58 19.8524C373.482 19.8942 373.363 19.915 373.221 19.915C373.053 19.915 372.907 19.883 372.782 19.819C372.657 19.755 372.552 19.6686 372.469 19.5601C372.388 19.4515 372.327 19.3304 372.285 19.1967C372.243 19.0631 372.222 18.9267 372.222 18.7875C372.222 18.6483 372.243 18.5118 372.285 18.3782C372.327 18.2446 372.388 18.1235 372.469 18.0149C372.552 17.9063 372.657 17.82 372.782 17.7559C372.907 17.6919 373.053 17.6599 373.221 17.6599C373.363 17.6599 373.482 17.6822 373.58 17.7267C373.677 17.7685 373.755 17.8186 373.814 17.8771C373.875 17.9355 373.919 17.9898 373.947 18.0399H373.968V17.7017H374.365V19.7856C374.365 20.0946 374.274 20.3396 374.093 20.5206C373.915 20.7016 373.66 20.792 373.329 20.792ZM373.296 19.5768C373.443 19.5768 373.566 19.5392 373.663 19.464C373.763 19.3861 373.837 19.2872 373.885 19.1675C373.935 19.0478 373.96 18.9211 373.96 18.7875C373.96 18.6538 373.935 18.5272 373.885 18.4074C373.837 18.2849 373.763 18.1861 373.663 18.1109C373.566 18.0358 373.443 17.9982 373.296 17.9982C373.148 17.9982 373.024 18.0358 372.924 18.1109C372.824 18.1861 372.749 18.2849 372.699 18.4074C372.651 18.5272 372.628 18.6538 372.628 18.7875C372.628 18.9211 372.651 19.0478 372.699 19.1675C372.749 19.2872 372.824 19.3861 372.924 19.464C373.024 19.5392 373.148 19.5768 373.296 19.5768ZM375.19 17.2799C375.114 17.2799 375.052 17.2548 375.002 17.2047C374.954 17.1546 374.931 17.0947 374.931 17.0251C374.931 16.9527 374.954 16.8915 375.002 16.8414C375.052 16.7912 375.114 16.7662 375.19 16.7662C375.262 16.7662 375.323 16.7912 375.373 16.8414C375.423 16.8915 375.448 16.9527 375.448 17.0251C375.448 17.0947 375.423 17.1546 375.373 17.2047C375.323 17.2548 375.262 17.2799 375.19 17.2799ZM374.993 19.915V17.7017H375.39V19.915H374.993ZM376.015 19.915V17.7017H376.411V18.0232H376.436C376.456 17.9898 376.488 17.9439 376.532 17.8854C376.58 17.8269 376.647 17.7754 376.733 17.7309C376.819 17.6836 376.928 17.6599 377.059 17.6599C377.22 17.6599 377.358 17.6975 377.472 17.7727C377.586 17.845 377.673 17.9439 377.731 18.0692C377.792 18.1944 377.823 18.335 377.823 18.491V19.915H377.426V18.516C377.426 18.3685 377.384 18.246 377.301 18.1485C377.22 18.0511 377.102 18.0023 376.946 18.0023C376.821 18.0023 376.719 18.0344 376.641 18.0984C376.563 18.1596 376.505 18.2418 376.466 18.3448C376.429 18.445 376.411 18.5522 376.411 18.6664V19.915H376.015Z" fill="#3981F7"/>
<rect x="355.722" y="11.4846" width="34.3724" height="14.8609" rx="7.43044" stroke="#3981F7" stroke-width="0.298299"/>
<rect x="403.897" y="11.3354" width="34.0912" height="15.1592" rx="7.57959" fill="#0028FF"/>
<path d="M414.923 19.9568C414.745 19.9568 414.592 19.9345 414.464 19.89C414.338 19.8427 414.234 19.7828 414.151 19.7104C414.067 19.6352 414 19.5573 413.95 19.4765C413.9 19.3958 413.862 19.3192 413.837 19.2468C413.812 19.1717 413.796 19.1118 413.787 19.0673C413.782 19.0199 413.779 18.9963 413.779 18.9963H414.196C414.196 18.9963 414.201 19.0158 414.209 19.0547C414.217 19.0937 414.234 19.1424 414.259 19.2009C414.287 19.2594 414.327 19.3192 414.38 19.3805C414.433 19.439 414.504 19.4877 414.593 19.5267C414.682 19.5656 414.795 19.5851 414.932 19.5851C415.138 19.5851 415.3 19.5364 415.42 19.439C415.54 19.3387 415.6 19.2093 415.6 19.0506C415.6 18.9141 415.554 18.8083 415.462 18.7332C415.373 18.658 415.245 18.5995 415.078 18.5578L414.668 18.4575C414.524 18.4214 414.389 18.3712 414.263 18.3072C414.141 18.2404 414.042 18.1541 413.967 18.0483C413.894 17.9397 413.858 17.8047 413.858 17.6432C413.858 17.4622 413.903 17.3077 413.992 17.1796C414.081 17.0516 414.202 16.9541 414.355 16.8873C414.508 16.8177 414.682 16.7829 414.877 16.7829C415.067 16.7829 415.224 16.8121 415.349 16.8706C415.474 16.9291 415.575 17.0015 415.65 17.0878C415.725 17.1713 415.781 17.2562 415.817 17.3425C415.853 17.426 415.877 17.497 415.888 17.5555C415.899 17.614 415.905 17.6432 415.905 17.6432H415.504C415.504 17.6432 415.498 17.6181 415.487 17.568C415.476 17.5179 415.449 17.4608 415.408 17.3968C415.366 17.33 415.302 17.2715 415.215 17.2214C415.129 17.1713 415.012 17.1462 414.865 17.1462C414.664 17.1462 414.512 17.1936 414.409 17.2882C414.309 17.3829 414.259 17.4915 414.259 17.614C414.259 17.7253 414.3 17.8158 414.38 17.8854C414.461 17.9522 414.572 18.0037 414.714 18.0399L415.157 18.1485C415.316 18.1875 415.459 18.2446 415.587 18.3197C415.715 18.3921 415.817 18.4868 415.892 18.6037C415.967 18.7179 416.005 18.8585 416.005 19.0255C416.005 19.1926 415.963 19.3471 415.879 19.4891C415.799 19.6311 415.678 19.7452 415.516 19.8315C415.357 19.915 415.16 19.9568 414.923 19.9568ZM416.738 17.2799C416.663 17.2799 416.601 17.2548 416.55 17.2047C416.503 17.1546 416.479 17.0947 416.479 17.0251C416.479 16.9527 416.503 16.8915 416.55 16.8414C416.601 16.7912 416.663 16.7662 416.738 16.7662C416.811 16.7662 416.872 16.7912 416.922 16.8414C416.972 16.8915 416.997 16.9527 416.997 17.0251C416.997 17.0947 416.972 17.1546 416.922 17.2047C416.872 17.2548 416.811 17.2799 416.738 17.2799ZM416.542 19.915V17.7017H416.939V19.915H416.542ZM418.628 20.792C418.445 20.792 418.292 20.767 418.169 20.7169C418.047 20.6695 417.948 20.6083 417.873 20.5331C417.8 20.4607 417.746 20.3883 417.71 20.316C417.673 20.2436 417.65 20.1823 417.639 20.1322C417.628 20.0849 417.622 20.0612 417.622 20.0612H418.019C418.019 20.0612 418.026 20.0807 418.04 20.1197C418.054 20.1587 418.08 20.2032 418.119 20.2533C418.161 20.3034 418.222 20.348 418.303 20.3869C418.383 20.4259 418.492 20.4454 418.628 20.4454C418.79 20.4454 418.917 20.4134 419.008 20.3494C419.1 20.2881 419.166 20.2074 419.205 20.1071C419.246 20.0069 419.267 19.9011 419.267 19.7898V19.535H419.246C419.219 19.5823 419.174 19.6366 419.113 19.6979C419.054 19.7563 418.976 19.8079 418.879 19.8524C418.782 19.8942 418.662 19.915 418.52 19.915C418.353 19.915 418.207 19.883 418.081 19.819C417.956 19.755 417.852 19.6686 417.768 19.5601C417.687 19.4515 417.626 19.3304 417.584 19.1967C417.543 19.0631 417.522 18.9267 417.522 18.7875C417.522 18.6483 417.543 18.5118 417.584 18.3782C417.626 18.2446 417.687 18.1235 417.768 18.0149C417.852 17.9063 417.956 17.82 418.081 17.7559C418.207 17.6919 418.353 17.6599 418.52 17.6599C418.662 17.6599 418.782 17.6822 418.879 17.7267C418.976 17.7685 419.054 17.8186 419.113 17.8771C419.174 17.9355 419.219 17.9898 419.246 18.0399H419.267V17.7017H419.664V19.7856C419.664 20.0946 419.574 20.3396 419.393 20.5206C419.214 20.7016 418.96 20.792 418.628 20.792ZM418.595 19.5768C418.743 19.5768 418.865 19.5392 418.963 19.464C419.063 19.3861 419.137 19.2872 419.184 19.1675C419.234 19.0478 419.259 18.9211 419.259 18.7875C419.259 18.6538 419.234 18.5272 419.184 18.4074C419.137 18.2849 419.063 18.1861 418.963 18.1109C418.865 18.0358 418.743 17.9982 418.595 17.9982C418.447 17.9982 418.324 18.0358 418.223 18.1109C418.123 18.1861 418.048 18.2849 417.998 18.4074C417.95 18.5272 417.927 18.6538 417.927 18.7875C417.927 18.9211 417.95 19.0478 417.998 19.1675C418.048 19.2872 418.123 19.3861 418.223 19.464C418.324 19.5392 418.447 19.5768 418.595 19.5768ZM420.23 19.915V17.7017H420.627V18.0232H420.652C420.671 17.9898 420.703 17.9439 420.748 17.8854C420.795 17.8269 420.862 17.7754 420.948 17.7309C421.035 17.6836 421.143 17.6599 421.274 17.6599C421.435 17.6599 421.573 17.6975 421.687 17.7727C421.802 17.845 421.888 17.9439 421.946 18.0692C422.008 18.1944 422.038 18.335 422.038 18.491V19.915H421.641V18.516C421.641 18.3685 421.6 18.246 421.516 18.1485C421.435 18.0511 421.317 18.0023 421.161 18.0023C421.036 18.0023 420.934 18.0344 420.856 18.0984C420.778 18.1596 420.72 18.2418 420.681 18.3448C420.645 18.445 420.627 18.5522 420.627 18.6664V19.915H420.23ZM424.275 19.9568C424.055 19.9568 423.879 19.8886 423.748 19.7522C423.618 19.6157 423.552 19.4264 423.552 19.1842V17.7017H423.949V19.1633C423.949 19.3081 423.988 19.4195 424.066 19.4974C424.147 19.5754 424.252 19.6144 424.383 19.6144C424.517 19.6144 424.624 19.5796 424.705 19.5099C424.785 19.4403 424.844 19.3513 424.88 19.2427C424.916 19.1341 424.934 19.0227 424.934 18.9086V17.7017H425.331V19.915H424.934V19.5976H424.909C424.893 19.6311 424.861 19.677 424.813 19.7355C424.766 19.7911 424.699 19.8427 424.613 19.89C424.527 19.9345 424.414 19.9568 424.275 19.9568ZM425.942 20.7336V17.7017H426.339V18.0525H426.364C426.397 17.9996 426.442 17.9425 426.498 17.8812C426.556 17.82 426.633 17.7685 426.727 17.7267C426.822 17.6822 426.939 17.6599 427.078 17.6599C427.245 17.6599 427.391 17.6933 427.517 17.7601C427.642 17.8242 427.746 17.9119 427.83 18.0232C427.913 18.1318 427.976 18.2543 428.018 18.3907C428.059 18.5272 428.08 18.6664 428.08 18.8083C428.08 18.9503 428.059 19.0895 428.018 19.226C427.976 19.3624 427.913 19.4863 427.83 19.5976C427.746 19.7062 427.642 19.7939 427.517 19.8607C427.391 19.9248 427.245 19.9568 427.078 19.9568C426.939 19.9568 426.822 19.9345 426.727 19.89C426.633 19.8454 426.556 19.7925 426.498 19.7313C426.442 19.67 426.397 19.6144 426.364 19.5642H426.339V20.7336H425.942ZM426.347 18.8083C426.347 18.942 426.371 19.0714 426.418 19.1967C426.468 19.3192 426.542 19.4209 426.64 19.5016C426.74 19.5796 426.864 19.6185 427.011 19.6185C427.162 19.6185 427.286 19.5796 427.383 19.5016C427.483 19.4209 427.557 19.3192 427.604 19.1967C427.654 19.0714 427.679 18.942 427.679 18.8083C427.679 18.6719 427.654 18.5425 427.604 18.42C427.557 18.2975 427.483 18.1972 427.383 18.1193C427.286 18.0385 427.162 17.9982 427.011 17.9982C426.864 17.9982 426.74 18.0385 426.64 18.1193C426.542 18.1972 426.468 18.2975 426.418 18.42C426.371 18.5425 426.347 18.6719 426.347 18.8083Z" fill="white"/>
<path d="M0 36.0942H73.6799C76.9748 36.0942 79.6459 38.7653 79.6459 42.0602V286.964C79.6459 290.259 76.9748 292.93 73.6799 292.93H0V36.0942Z" fill="#0028FF" fill-opacity="0.8"/>
<path d="M14.416 78.3069V78.808H15.6116V78.3069H14.416ZM13.9793 75.7224V82.2015H14.5807V75.7224H13.9793ZM9.8556 76.3596V80.3687H10.4498V76.3596H9.8556ZM9.8556 80.0609V80.562H10.3711C11.3519 80.562 12.347 80.4976 13.4495 80.2685L13.3779 79.7745C12.3112 79.9965 11.3304 80.0609 10.3711 80.0609H9.8556ZM18.2886 76.1949C17.2791 76.1949 16.5489 76.8178 16.5489 77.7198C16.5489 78.6291 17.2791 79.2519 18.2886 79.2519C19.298 79.2519 20.0211 78.6291 20.0211 77.7198C20.0211 76.8178 19.298 76.1949 18.2886 76.1949ZM18.2886 76.7104C18.9544 76.7104 19.4412 77.1185 19.4412 77.7198C19.4412 78.3212 18.9544 78.7364 18.2886 78.7364C17.6156 78.7364 17.1288 78.3212 17.1288 77.7198C17.1288 77.1185 17.6156 76.7104 18.2886 76.7104ZM20.8659 75.7224V82.2086H21.4601V75.7224H20.8659ZM16.3055 80.7911C17.4581 80.7911 19.0403 80.784 20.4936 80.5048L20.4435 80.068C19.0331 80.29 17.4008 80.2971 16.2196 80.2971L16.3055 80.7911ZM26.4011 76.8321V77.1113C26.4011 77.9847 25.7568 78.7722 24.8046 79.0801L25.091 79.5454C26.172 79.1803 26.888 78.2353 26.888 77.1113V76.8321H26.4011ZM26.5085 76.8321V77.1113C26.5085 78.1709 27.2531 79.0443 28.3413 79.3808L28.6133 78.9154C27.6612 78.6362 26.9954 77.9131 26.9954 77.1113V76.8321H26.5085ZM24.9693 76.5099V76.9896H28.42V76.5099H24.9693ZM26.4011 75.7009V76.6818H26.9954V75.7009H26.4011ZM28.2267 77.5695V78.0635H29.6872V77.5695H28.2267ZM29.5154 75.7296V79.6457H30.1096V75.7296H29.5154ZM27.9833 79.8175C26.6374 79.8175 25.8212 80.2542 25.8212 81.0059C25.8212 81.7505 26.6374 82.1872 27.9833 82.1872C29.3221 82.1872 30.1382 81.7505 30.1382 81.0059C30.1382 80.2542 29.3221 79.8175 27.9833 79.8175ZM27.9833 80.2828C28.957 80.2828 29.5512 80.5477 29.5512 81.0059C29.5512 81.4569 28.957 81.7218 27.9833 81.7218C27.0025 81.7218 26.4155 81.4569 26.4155 81.0059C26.4155 80.5477 27.0025 80.2828 27.9833 80.2828ZM36.2158 76.7104V77.2115H37.3398V76.7104H36.2158ZM36.2158 78.0993V78.5933H37.3398V78.0993H36.2158ZM35.8006 75.7296V79.5741H36.3948V75.7296H35.8006ZM32.1924 79.8819V80.3616H35.8006V82.2015H36.3948V79.8819H32.1924ZM33.1803 76.109C32.2067 76.109 31.4908 76.739 31.4908 77.6482C31.4908 78.5503 32.2067 79.1731 33.1803 79.1731C34.154 79.1731 34.8699 78.5503 34.8699 77.6482C34.8699 76.739 34.154 76.109 33.1803 76.109ZM33.1803 76.6173C33.8247 76.6173 34.29 77.0326 34.29 77.6482C34.29 78.2568 33.8247 78.6792 33.1803 78.6792C32.536 78.6792 32.0707 78.2568 32.0707 77.6482C32.0707 77.0326 32.536 76.6173 33.1803 76.6173ZM43.4263 77.4048V77.8988H44.8868V77.4048H43.4263ZM44.7007 75.7296V79.5884H45.2949V75.7296H44.7007ZM43.1686 79.7817C41.8298 79.7817 41.0065 80.2327 41.0065 80.9916C41.0065 81.7576 41.8298 82.1943 43.1686 82.1943C44.5002 82.1943 45.3235 81.7576 45.3235 80.9916C45.3235 80.2327 44.5002 79.7817 43.1686 79.7817ZM43.1686 80.247C44.1423 80.247 44.7365 80.5191 44.7365 80.9916C44.7365 81.4569 44.1423 81.729 43.1686 81.729C42.195 81.729 41.6008 81.4569 41.6008 80.9916C41.6008 80.5191 42.195 80.247 43.1686 80.247ZM41.6222 76.3811V76.9037C41.6222 77.8344 40.9564 78.7006 39.9971 79.0514L40.3049 79.5239C41.3788 79.123 42.1091 78.0993 42.1091 76.9037V76.3811H41.6222ZM41.7368 76.3811V76.9037C41.7368 77.9919 42.4312 78.9655 43.4836 79.345L43.7843 78.8725C42.8465 78.5431 42.2164 77.7413 42.2164 76.9037V76.3811H41.7368ZM40.1761 76.2021V76.6889H43.634V76.2021H40.1761ZM46.5615 80.8842V81.3782H52.4249V80.8842H46.5615ZM49.1818 79.3378V81.0274H49.776V79.3378H49.1818ZM47.2488 76.1878V79.4953H51.7233V76.1878H51.1362V77.3404H47.8358V76.1878H47.2488ZM47.8358 77.8201H51.1362V79.0085H47.8358V77.8201Z" fill="white"/>
<path d="M14.4804 96.3729V97.1532H15.6474V96.3729H14.4804ZM13.7717 93.86V100.489H14.731V93.86H13.7717ZM9.73389 94.4971V98.6137H10.6861V94.4971H9.73389ZM9.73389 98.0839V98.8714H10.3066C11.2803 98.8714 12.347 98.8141 13.4424 98.585L13.3421 97.8047C12.2754 98.0195 11.2516 98.0839 10.3066 98.0839H9.73389ZM18.2528 94.3038C17.2147 94.3038 16.42 94.984 16.42 95.9361C16.42 96.8955 17.2147 97.5756 18.2528 97.5756C19.298 97.5756 20.0784 96.8955 20.0784 95.9361C20.0784 94.984 19.298 94.3038 18.2528 94.3038ZM18.2528 95.12C18.7611 95.12 19.1477 95.4207 19.1477 95.9361C19.1477 96.4588 18.7611 96.7594 18.2528 96.7594C17.7445 96.7594 17.3579 96.4588 17.3579 95.9361C17.3579 95.4207 17.7445 95.12 18.2528 95.12ZM20.7012 93.86V100.511H21.6534V93.86H20.7012ZM16.2625 99.1649C17.408 99.1649 18.9687 99.1506 20.4077 98.8642L20.3361 98.177C18.94 98.3846 17.3149 98.3989 16.148 98.3989L16.2625 99.1649ZM25.8513 94.9124V95.6569C25.8513 96.7451 25.3143 97.9837 24.219 98.4991L24.7559 99.2508C25.973 98.6781 26.603 97.1532 26.603 95.6569V94.9124H25.8513ZM26.0517 94.9124V95.6569C26.0517 97.0673 26.6674 98.5206 27.8845 99.0862L28.4071 98.3345C27.3189 97.8333 26.8035 96.6592 26.8035 95.6569V94.9124H26.0517ZM24.4767 94.5043V95.2847H28.1136V94.5043H24.4767ZM28.6004 93.8671V100.497H29.5597V93.8671H28.6004ZM29.345 96.3943V97.1818H30.5191V96.3943H29.345ZM32.4372 94.2752V94.9911C32.4372 95.886 31.9718 96.7738 30.8478 97.1317L31.3561 97.8763C32.6233 97.4396 33.2175 96.3084 33.2175 94.9911V94.2752H32.4372ZM32.6233 94.2752V94.9983C32.6233 96.244 33.196 97.3393 34.4274 97.7474L34.9142 97.01C33.8475 96.6592 33.3965 95.8288 33.3965 94.9983V94.2752H32.6233ZM35.2149 93.8671V98.7139H36.1671V93.8671H35.2149ZM35.8951 95.7858V96.5733H37.0477V95.7858H35.8951ZM31.8931 99.6231V100.382H36.4034V99.6231H31.8931ZM31.8931 98.2557V100.024H32.8524V98.2557H31.8931ZM42.7848 95.4708V96.244H44.0448V95.4708H42.7848ZM43.7871 93.8671V97.8047H44.7393V93.8671H43.7871ZM42.4913 97.9479C41.0881 97.9479 40.2218 98.4275 40.2218 99.2294C40.2218 100.038 41.0881 100.504 42.4913 100.504C43.8945 100.504 44.7608 100.038 44.7608 99.2294C44.7608 98.4275 43.8945 97.9479 42.4913 97.9479ZM42.4913 98.671C43.3576 98.671 43.8157 98.8499 43.8157 99.2294C43.8157 99.6016 43.3576 99.7806 42.4913 99.7806C41.6322 99.7806 41.174 99.6016 41.174 99.2294C41.174 98.8499 41.6322 98.671 42.4913 98.671ZM40.723 94.5329V94.9482C40.723 95.8001 40.2505 96.6807 39.1551 97.053L39.6419 97.8047C40.9091 97.3751 41.4962 96.2154 41.4962 94.9482V94.5329H40.723ZM40.9234 94.5329V94.9482C40.9234 96.1294 41.489 97.232 42.7204 97.64L43.1857 96.8883C42.1405 96.5375 41.6895 95.7285 41.6895 94.9482V94.5329H40.9234ZM39.4128 94.2681V95.0269H42.9781V94.2681H39.4128ZM45.784 98.9573V99.7305H51.7834V98.9573H45.784ZM48.2968 97.5398V99.1435H49.249V97.5398H48.2968ZM46.414 94.2895V97.7403H51.1319V94.2895H50.1869V95.3061H47.359V94.2895H46.414ZM47.359 96.0507H50.1869V96.9814H47.359V96.0507Z" fill="white"/>
<path d="M13.7783 115.766V116.232H11.8801V115.766H13.7783ZM14.4988 117.215V117.627H19.3849V117.215H14.4988ZM16.6704 115.908V117.352H17.1596V115.908H16.6704ZM16.6585 113.289V113.707C16.6585 114.596 15.6383 115.389 14.6897 115.562L14.8985 115.974C15.9843 115.747 17.088 114.858 17.088 113.707V113.289H16.6585ZM16.7479 113.289V113.707C16.7479 114.858 17.8517 115.747 18.9375 115.974L19.1522 115.562C18.2036 115.389 17.1775 114.602 17.1775 113.707V113.289H16.7479ZM19.987 115.557V115.956H24.8612V115.557H19.987ZM20.5239 116.601V117.006H23.7694V118.355H24.2646V116.601H20.5239ZM20.6015 114.56V114.96H24.3004V114.56H20.6015ZM20.6015 113.134V114.763H21.0967V113.54H24.2527V113.134H20.6015ZM14.9249 127.766V128.232H13.0267V127.766H14.9249ZM19.5829 124.931V128.917H20.0781V124.931H19.5829ZM18.4195 126.596V127.008H19.6784V126.596H18.4195ZM17.9184 125.349V125.546C17.9184 126.614 17.0414 127.461 15.7229 127.903L15.9377 128.302C17.459 127.795 18.4374 126.739 18.4374 125.349H17.9184ZM15.9914 125.349V125.755H18.2406V125.349H15.9914ZM16.6715 129.8V130.205H20.2153V129.8H16.6715ZM16.6715 128.517V130.003H17.1667V128.517H16.6715ZM23.3171 127.479V128.308H23.8064V127.479H23.3171ZM21.1276 127.205V127.604H26.0018V127.205H21.1276ZM21.76 125.11V126.751H25.3694V125.11H21.76ZM24.8862 125.504V126.357H22.2492V125.504H24.8862ZM21.7183 128.129V128.511H24.8922V128.982H21.7302V129.997H22.2194V129.34H25.3814V128.129H21.7183ZM21.7302 129.877V130.265H25.5425V129.877H21.7302ZM14.9249 139.766V140.232H13.0267V139.766H14.9249ZM16.2718 139.73V140.129H19.9767V139.73H16.2718ZM15.6454 141.245V141.657H20.5315V141.245H15.6454ZM17.8349 139.938V141.436H18.3241V139.938H17.8349ZM16.2718 137.367V139.879H16.7729V137.773H19.917V137.367H16.2718ZM16.6118 138.524V138.924H19.8036V138.524H16.6118ZM22.5595 137.701V138.578C22.5595 139.509 21.9092 140.523 21.1276 140.893L21.414 141.287C22.2731 140.863 22.9592 139.718 22.9592 138.578V137.701H22.5595ZM22.6549 137.701V138.578C22.6549 139.7 23.347 140.75 24.218 141.155L24.4984 140.762C23.7049 140.422 23.0546 139.491 23.0546 138.578V137.701H22.6549ZM21.3066 137.48V137.898H24.3194V137.48H21.3066ZM25.0473 136.931V142.325H25.5425V136.931H25.0473ZM14.9249 151.766V152.232H13.0267V151.766H14.9249ZM16.9758 149.701V150.578C16.9758 151.491 16.3255 152.517 15.5559 152.893L15.8422 153.287C16.6834 152.857 17.3695 151.7 17.3695 150.578V149.701H16.9758ZM17.0653 149.701V150.578C17.0653 151.646 17.7156 152.732 18.5687 153.155L18.8491 152.762C18.0675 152.392 17.459 151.431 17.459 150.578V149.701H17.0653ZM15.7468 149.48V149.898H18.6522V149.48H15.7468ZM19.2906 148.931V154.325H19.7917V148.931H19.2906ZM19.6724 151.109V151.527H20.6747V151.109H19.6724ZM21.1336 151.586V151.992H26.0078V151.586H21.1336ZM23.3231 150.721V151.753H23.8123V150.721H23.3231ZM21.7481 150.566V150.972H25.441V150.566H21.7481ZM21.7481 149.176V150.805H22.2373V149.576H25.3993V149.176H21.7481ZM23.5618 152.38C22.4103 152.38 21.7123 152.732 21.7123 153.346C21.7123 153.973 22.4103 154.319 23.5618 154.319C24.7132 154.319 25.4112 153.973 25.4112 153.346C25.4112 152.732 24.7132 152.38 23.5618 152.38ZM23.5618 152.762C24.4089 152.762 24.9101 152.976 24.9101 153.346C24.9101 153.722 24.4089 153.931 23.5618 153.931C22.7205 153.931 22.2134 153.722 22.2134 153.346C22.2134 152.976 22.7205 152.762 23.5618 152.762ZM27.9344 150.214V150.674C27.9344 151.604 27.3616 152.523 26.5681 152.905L26.8485 153.287C27.7017 152.863 28.3221 151.813 28.3221 150.674V150.214H27.9344ZM28.0298 150.214V150.674C28.0298 151.747 28.6145 152.768 29.4557 153.185L29.7301 152.803C28.9605 152.422 28.4176 151.545 28.4176 150.674V150.214H28.0298ZM26.7173 149.868V150.268H29.6108V149.868H26.7173ZM27.9284 149.027V150.089H28.4176V149.027H27.9284ZM30.2671 148.931V154.325H30.7682V148.931H30.2671ZM30.6489 151.145V151.557H31.6512V151.145H30.6489Z" fill="black"/>
<path d="M12.1537 169.393V169.887H13.3922V169.393H12.1537ZM10.9438 167.689V168.92C10.9438 170.03 10.414 171.19 9.52628 171.712L9.89856 172.163C10.8436 171.583 11.4091 170.273 11.4091 168.92V167.689H10.9438ZM11.0583 167.689V168.899C11.0583 170.159 11.581 171.447 12.5117 172.02L12.8553 171.555C12.0034 171.039 11.5165 169.937 11.5165 168.899V167.689H11.0583ZM14.5305 167.08V173.552H15.1033V167.08H14.5305ZM13.2204 167.216V173.23H13.7788V167.216H13.2204ZM21.1093 167.08V173.552H21.682V167.08H21.1093ZM20.0139 169.672V170.166H21.2596V169.672H20.0139ZM19.6416 167.223V173.223H20.2001V167.223H19.6416ZM16.42 171.462V171.956H16.8424C17.8161 171.956 18.4675 171.927 19.2407 171.762L19.1835 171.268C18.4317 171.426 17.7874 171.462 16.8424 171.462H16.42ZM16.42 167.868V171.684H17.0071V168.355H18.8255V167.868H16.42ZM23.507 167.503V167.982H27.552V167.503H23.507ZM22.7768 170.28V170.767H28.6259V170.28H22.7768ZM25.3899 170.602V173.559H25.9841V170.602H25.3899ZM27.2728 167.503V168.061C27.2728 168.712 27.2728 169.464 27.0222 170.509L27.6093 170.588C27.8527 169.493 27.8527 168.734 27.8527 168.061V167.503H27.2728ZM30.9878 167.445V168.111C30.9878 169.099 30.3435 169.965 29.3555 170.316L29.6634 170.803C30.7731 170.388 31.4818 169.364 31.4818 168.111V167.445H30.9878ZM31.0952 167.445V168.09C31.0952 169.264 31.7897 170.216 32.8349 170.61L33.1571 170.144C32.212 169.815 31.582 169.006 31.582 168.09V167.445H31.0952ZM34.0878 167.08V170.91H34.682V167.08H34.0878ZM32.5557 171.096C31.2169 171.096 30.3936 171.547 30.3936 172.321C30.3936 173.094 31.2169 173.538 32.5557 173.538C33.8873 173.538 34.7106 173.094 34.7106 172.321C34.7106 171.547 33.8873 171.096 32.5557 171.096ZM32.5557 171.569C33.5293 171.569 34.1235 171.848 34.1235 172.321C34.1235 172.793 33.5293 173.072 32.5557 173.072C31.582 173.072 30.9878 172.793 30.9878 172.321C30.9878 171.848 31.582 171.569 32.5557 171.569ZM32.6846 168.448V168.942H34.2166V168.448H32.6846ZM37.7813 170.338V171.777H38.3755V170.338H37.7813ZM40.6522 167.08V172.006H41.2464V167.08H40.6522ZM36.8292 172.922V173.409H41.4039V172.922H36.8292ZM36.8292 171.526V173.058H37.4234V171.526H36.8292ZM35.9915 170.56C37.1656 170.56 38.7335 170.538 40.1295 170.316L40.0866 169.879C38.712 170.058 37.1084 170.073 35.9128 170.073L35.9915 170.56ZM39.3349 170.903V171.34H40.8025V170.903H39.3349ZM38.0176 167.345C37.0654 167.345 36.4211 167.789 36.4211 168.469C36.4211 169.156 37.0654 169.6 38.0176 169.6C38.9626 169.6 39.6069 169.156 39.6069 168.469C39.6069 167.789 38.9626 167.345 38.0176 167.345ZM38.0176 167.789C38.619 167.789 39.0413 168.054 39.0413 168.469C39.0413 168.884 38.619 169.149 38.0176 169.149C37.4091 169.149 36.9867 168.884 36.9867 168.469C36.9867 168.054 37.4091 167.789 38.0176 167.789ZM47.9987 168.755V169.249H49.4592V168.755H47.9987ZM49.273 167.08V170.939H49.8673V167.08H49.273ZM47.741 171.132C46.4022 171.132 45.5789 171.583 45.5789 172.342C45.5789 173.108 46.4022 173.545 47.741 173.545C49.0726 173.545 49.8959 173.108 49.8959 172.342C49.8959 171.583 49.0726 171.132 47.741 171.132ZM47.741 171.598C48.7146 171.598 49.3088 171.87 49.3088 172.342C49.3088 172.808 48.7146 173.08 47.741 173.08C46.7673 173.08 46.1731 172.808 46.1731 172.342C46.1731 171.87 46.7673 171.598 47.741 171.598ZM46.1946 167.732V168.254C46.1946 169.185 45.5288 170.051 44.5695 170.402L44.8773 170.875C45.9512 170.474 46.6814 169.45 46.6814 168.254V167.732H46.1946ZM46.3091 167.732V168.254C46.3091 169.342 47.0036 170.316 48.056 170.696L48.3567 170.223C47.4188 169.894 46.7888 169.092 46.7888 168.254V167.732H46.3091ZM44.7484 167.553V168.039H48.2063V167.553H44.7484ZM51.1339 172.235V172.729H56.9972V172.235H51.1339ZM53.7541 170.688V172.378H54.3483V170.688H53.7541ZM51.8212 167.538V170.846H56.2956V167.538H55.7086V168.691H52.4082V167.538H51.8212ZM52.4082 169.171H55.7086V170.359H52.4082V169.171Z" fill="white"/>
<rect x="113.503" y="55.3347" width="305.757" height="207.915" rx="7.30833" fill="white" stroke="#D3D3D3" stroke-width="0.298299"/>
<g clip-path="url(#clip1_422_5643)">
<path d="M209.704 114.845C211.352 114.845 212.687 113.51 212.687 111.862C212.687 110.215 211.352 108.879 209.704 108.879C208.057 108.879 206.721 110.215 206.721 111.862C206.721 113.51 208.057 114.845 209.704 114.845Z" stroke="black" stroke-width="0.596599" stroke-linecap="round" stroke-linejoin="round"/>
</g>
<path d="M181.616 109.632V110.126H182.876V109.632H181.616ZM181.616 111.6V112.094H182.876V111.6H181.616ZM183.965 108.071V114.543H184.537V108.071H183.965ZM182.697 108.207V114.221H183.256V108.207H182.697ZM180.492 108.608C179.655 108.608 179.118 109.474 179.118 110.863C179.118 112.252 179.655 113.118 180.492 113.118C181.33 113.118 181.874 112.252 181.874 110.863C181.874 109.474 181.33 108.608 180.492 108.608ZM180.492 109.159C181.008 109.159 181.33 109.818 181.33 110.863C181.33 111.908 181.008 112.567 180.492 112.567C179.984 112.567 179.655 111.908 179.655 110.863C179.655 109.818 179.984 109.159 180.492 109.159Z" fill="black"/>
<path d="M224.011 109.162C223.059 109.162 222.386 110.042 222.386 111.417C222.386 112.798 223.059 113.679 224.011 113.679C224.963 113.679 225.636 112.798 225.636 111.417C225.636 110.042 224.963 109.162 224.011 109.162ZM224.011 109.698C224.634 109.698 225.07 110.371 225.07 111.417C225.07 112.469 224.634 113.156 224.011 113.156C223.381 113.156 222.951 112.469 222.951 111.417C222.951 110.371 223.381 109.698 224.011 109.698ZM226.667 108.668V115.139H227.268V108.668H226.667ZM227.125 111.252V111.753H228.328V111.252H227.125ZM233.582 108.668V115.139H234.176V108.668H233.582ZM229.286 109.298V113.307H229.874V109.298H229.286ZM229.286 112.956V113.471H229.816C230.84 113.471 231.864 113.393 232.988 113.164L232.916 112.655C231.821 112.884 230.797 112.956 229.816 112.956H229.286ZM238.085 112.326V113.937H238.679V112.326H238.085ZM238.385 109.09C237.018 109.09 236.03 109.756 236.03 110.787C236.03 111.818 237.018 112.483 238.385 112.483C239.753 112.483 240.733 111.818 240.733 110.787C240.733 109.756 239.753 109.09 238.385 109.09ZM238.385 109.562C239.409 109.562 240.161 110.049 240.161 110.787C240.161 111.524 239.409 112.011 238.385 112.011C237.354 112.011 236.603 111.524 236.603 110.787C236.603 110.049 237.354 109.562 238.385 109.562ZM235.464 113.822V114.316H241.328V113.822H235.464Z" fill="black"/>
<path d="M169.434 114.249C171.082 114.249 172.417 112.913 172.417 111.266C172.417 109.618 171.082 108.283 169.434 108.283C167.787 108.283 166.451 109.618 166.451 111.266C166.451 112.913 167.787 114.249 169.434 114.249Z" fill="black" stroke="black" stroke-width="0.596599" stroke-linecap="round" stroke-linejoin="round"/>
<rect x="139.455" y="140.051" width="35.1993" height="12.5286" rx="6.26429" fill="white" stroke="#BECBFF" stroke-width="0.298299"/>
<rect x="182.112" y="140.051" width="95.7541" height="12.5286" rx="6.26429" fill="white" stroke="#BECBFF" stroke-width="0.298299"/>
<rect x="194.64" y="183.603" width="95.7541" height="12.5286" rx="6.26429" fill="white" stroke="#BECBFF" stroke-width="0.298299"/>
<rect x="282.937" y="140.051" width="68.6088" height="12.5286" rx="6.26429" fill="white" stroke="#BECBFF" stroke-width="0.298299"/>
<path d="M136.399 78.9384V88.7858H137.827V78.9384H136.399ZM149.349 78.8847V86.1548H150.777V78.8847H149.349ZM147.631 81.7734V82.9332H149.553V81.7734H147.631ZM146.213 79.6257V80.27C146.213 81.956 144.86 83.3305 142.573 84.05L143.164 85.1884C146.052 84.2756 147.717 82.3104 147.717 79.6257H146.213ZM143.088 79.6257V80.7747H147.126V79.6257H143.088ZM144.259 87.5187V88.657H151.024V87.5187H144.259ZM144.259 85.4353V88.1737H145.698V85.4353H144.259ZM156.103 83.6634V85.0487H157.531V83.6634H156.103ZM152.334 82.8258V83.9427H161.322V82.8258H152.334ZM153.44 79.1746V82.2996H160.184V79.1746H153.44ZM158.777 80.2807V81.2043H154.847V80.2807H158.777ZM153.365 84.5655V85.6286H158.831V86.1334H153.375V88.0019H154.782V87.1213H160.237V84.5655H153.365ZM153.375 87.6905V88.7644H160.495V87.6905H153.375ZM164.709 86.4985V87.669H173.708V86.4985H164.709ZM168.446 84.2863V86.8099H169.863V84.2863H168.446ZM168.392 79.4324V80.1519C168.392 81.5264 167.179 83.0513 164.913 83.4165L165.503 84.6085C168.102 84.136 169.638 82.2674 169.638 80.1519V79.4324H168.392ZM168.671 79.4324V80.1519C168.671 82.2996 170.207 84.1252 172.816 84.6085L173.407 83.4165C171.13 83.0513 169.917 81.5586 169.917 80.1519V79.4324H168.671ZM176.606 85.1669V88.8288H178.067V85.1669H176.606ZM180.043 85.1669V88.8288H181.503V85.1669H180.043ZM174.577 84.4152V85.5642H183.587V84.4152H174.577ZM179.055 79.2176C176.939 79.2176 175.468 80.0874 175.468 81.4513C175.468 82.7936 176.939 83.6634 179.055 83.6634C181.181 83.6634 182.652 82.7936 182.652 81.4513C182.652 80.0874 181.181 79.2176 179.055 79.2176ZM179.055 80.3559C180.365 80.3559 181.181 80.7425 181.181 81.4513C181.181 82.1493 180.365 82.5359 179.055 82.5359C177.755 82.5359 176.929 82.1493 176.929 81.4513C176.929 80.7425 177.755 80.3559 179.055 80.3559ZM191.387 80.9143V82.0634H194.093V80.9143H191.387ZM191.387 83.9963V85.1454H194.093V83.9963H191.387ZM189.669 79.572C188.176 79.572 187.102 80.9465 187.102 83.1158C187.102 85.3065 188.176 86.681 189.669 86.681C191.151 86.681 192.235 85.3065 192.235 83.1158C192.235 80.9465 191.151 79.572 189.669 79.572ZM189.669 80.8714C190.399 80.8714 190.882 81.6553 190.882 83.1158C190.882 84.5977 190.399 85.3924 189.669 85.3924C188.949 85.3924 188.455 84.5977 188.455 83.1158C188.455 81.6553 188.949 80.8714 189.669 80.8714ZM193.868 78.874V88.8503H195.285V78.874H193.868ZM196.82 84.6085V85.736H205.83V84.6085H196.82ZM200.578 85.1776V88.8288H201.996V85.1776H200.578ZM197.851 79.2606V83.6634H204.767V79.2606H203.349V80.3881H199.268V79.2606H197.851ZM199.268 81.505H203.349V82.5251H199.268V81.505Z" fill="black"/>
<path d="M222.317 85.8104C221.395 85.8104 220.813 86.1111 220.813 86.6074C220.813 87.099 221.395 87.395 222.317 87.395C223.233 87.395 223.82 87.099 223.82 86.6074C223.82 86.1111 223.233 85.8104 222.317 85.8104ZM222.317 86.1206C222.994 86.1206 223.424 86.3068 223.424 86.6074C223.424 86.9034 222.994 87.0895 222.317 87.0895C221.639 87.0895 221.205 86.9034 221.205 86.6074C221.205 86.3068 221.639 86.1206 222.317 86.1206ZM220.847 83.3047V83.6292H223.624V83.3047H220.847ZM220.384 85.0992V85.419H224.278V85.0992H220.384ZM221.983 84.2688V85.1899H222.374V84.2688H221.983ZM223.395 83.3047V83.6722C223.395 84.0111 223.395 84.3261 223.276 84.7699L223.667 84.8177C223.782 84.369 223.782 84.0206 223.782 83.6722V83.3047H223.395ZM225.91 83.4622V84.2354C225.91 85.0515 225.39 85.8772 224.75 86.1827L224.994 86.5072C225.7 86.1493 226.235 85.2281 226.235 84.2354V83.4622H225.91ZM225.977 83.4622V84.2354C225.977 85.1947 226.516 86.0824 227.218 86.4261L227.457 86.1111C226.817 85.8152 226.302 85.0229 226.302 84.2354V83.4622H225.977ZM227.905 83.0851V87.4093H228.301V83.0851H227.905ZM230.306 83.7056V84.4072C230.306 85.1517 229.785 85.9631 229.16 86.259L229.389 86.574C230.076 86.2352 230.625 85.3188 230.625 84.4072V83.7056H230.306ZM230.382 83.7056V84.4072C230.382 85.3045 230.936 86.1445 231.632 86.469L231.857 86.154C231.222 85.882 230.702 85.1374 230.702 84.4072V83.7056H230.382ZM229.303 83.529V83.8631H231.714V83.529H229.303ZM232.296 83.0899V87.4045H232.692V83.0899H232.296ZM236.472 83.0851V87.4045H236.873V83.0851H236.472ZM236.763 84.8367V85.1661H237.56V84.8367H236.763ZM235.369 83.5529V83.6149C235.369 84.7556 234.772 85.6768 233.579 86.2829L233.799 86.5884C235.193 85.8868 235.756 84.7795 235.756 83.5529H235.369ZM233.78 83.5529V83.8774H235.574V83.5529H233.78ZM240.158 85.1136V85.6672H240.555V85.1136H240.158ZM241.977 83.0947V85.987H242.373V83.0947H241.977ZM242.206 84.3976V84.727H243.003V84.3976H242.206ZM239.056 85.8629C239.81 85.8581 240.831 85.8533 241.753 85.6911L241.719 85.4095C240.827 85.5383 239.777 85.5383 239.003 85.5383L239.056 85.8629ZM239.538 86.2018V86.5168H241.977V87.4045H242.373V86.2018H239.538ZM239.113 83.4813V83.7772H241.59V83.4813H239.113ZM240.354 83.9442C239.743 83.9442 239.347 84.1876 239.347 84.5838C239.347 84.9799 239.743 85.2233 240.354 85.2233C240.96 85.2233 241.356 84.9799 241.356 84.5838C241.356 84.1876 240.96 83.9442 240.354 83.9442ZM240.354 84.2163C240.736 84.2163 240.984 84.3547 240.984 84.5838C240.984 84.8033 240.736 84.9465 240.354 84.9465C239.967 84.9465 239.719 84.8033 239.719 84.5838C239.719 84.3547 239.967 84.2163 240.354 84.2163ZM240.158 83.0565V83.6245H240.555V83.0565H240.158ZM246.558 83.0947V86.2447H246.959V83.0947H246.558ZM244.186 86.9845V87.309H247.088V86.9845H244.186ZM244.186 85.9202V87.0943H244.578V85.9202H244.186ZM244.644 83.3906C244 83.3906 243.518 83.8297 243.518 84.4549C243.518 85.0754 244 85.5193 244.644 85.5193C245.289 85.5193 245.766 85.0754 245.766 84.4549C245.766 83.8297 245.289 83.3906 244.644 83.3906ZM244.644 83.7342C245.064 83.7342 245.384 84.0301 245.384 84.4549C245.384 84.8749 245.064 85.1708 244.644 85.1708C244.224 85.1708 243.905 84.8749 243.905 84.4549C243.905 84.0301 244.224 83.7342 244.644 83.7342ZM251.815 83.0899V87.4045H252.216V83.0899H251.815ZM252.121 84.7842V85.1231H252.923V84.7842H252.121ZM249.066 83.4526V86.3688H251.08V83.4526H250.689V84.5933H249.458V83.4526H249.066ZM249.458 84.9083H250.689V86.0443H249.458V84.9083ZM253.29 86.5454V86.8747H257.199V86.5454H253.29ZM255.037 85.6195V86.6838H255.433V85.6195H255.037ZM253.762 83.4097V83.7295H256.325V84.3976H253.777V85.5813H254.168V84.7174H256.717V83.4097H253.762ZM253.777 85.4143V85.7388H256.817V85.4143H253.777ZM261.683 83.0851V87.4045H262.083V83.0851H261.683ZM261.974 84.8367V85.1661H262.771V84.8367H261.974ZM260.58 83.5529V83.6149C260.58 84.7556 259.983 85.6768 258.79 86.2829L259.01 86.5884C260.403 85.8868 260.967 84.7795 260.967 83.5529H260.58ZM258.991 83.5529V83.8774H260.785V83.5529H258.991ZM266.297 83.0899V87.4045H266.694V83.0899H266.297ZM265.033 83.5529V83.6197C265.033 84.7652 264.455 85.6815 263.209 86.2829L263.419 86.6027C264.861 85.8963 265.424 84.8033 265.424 83.5529H265.033ZM263.405 83.5529V83.8774H265.205V83.5529H263.405Z" fill="#0028FF"/>
<path d="M286.009 86.5168V86.8461H289.918V86.5168H286.009ZM287.746 85.4715V86.6265H288.138V85.4715H287.746ZM287.737 83.3763V83.7104C287.737 84.4215 286.921 85.0563 286.162 85.1947L286.329 85.524C287.198 85.3427 288.081 84.6315 288.081 83.7104V83.3763H287.737ZM287.808 83.3763V83.7104C287.808 84.6315 288.691 85.3427 289.56 85.524L289.732 85.1947C288.973 85.0563 288.152 84.4263 288.152 83.7104V83.3763H287.808ZM291.397 85.7579V87.4045H291.803V85.7579H291.397ZM292.882 85.7579V87.4045H293.287V85.7579H292.882ZM290.395 85.5431V85.8724H294.309V85.5431H290.395ZM292.342 83.2617C291.445 83.2617 290.834 83.6245 290.834 84.202C290.834 84.7747 291.445 85.1422 292.342 85.1422C293.244 85.1422 293.85 84.7747 293.85 84.202C293.85 83.6245 293.244 83.2617 292.342 83.2617ZM292.342 83.5815C293.001 83.5815 293.445 83.8249 293.445 84.202C293.445 84.579 293.001 84.8224 292.342 84.8224C291.684 84.8224 291.235 84.579 291.235 84.202C291.235 83.8249 291.684 83.5815 292.342 83.5815ZM299.026 83.0899V86.2781H299.423V83.0899H299.026ZM298.096 84.4215V84.7508H299.103V84.4215H298.096ZM297.695 83.424V83.5815C297.695 84.4358 296.993 85.1136 295.938 85.4668L296.11 85.7865C297.327 85.3808 298.11 84.5361 298.11 83.424H297.695ZM296.153 83.424V83.7485H297.952V83.424H296.153ZM296.697 86.9845V87.309H299.532V86.9845H296.697ZM296.697 85.9583V87.1468H297.093V85.9583H296.697ZM302.014 85.1279V85.7913H302.405V85.1279H302.014ZM300.262 84.9083V85.2281H304.162V84.9083H300.262ZM300.768 83.2331V84.5456H303.656V83.2331H300.768ZM303.269 83.5481V84.2306H301.159V83.5481H303.269ZM300.735 85.6481V85.9536H303.274V86.3306H300.744V87.142H301.136V86.617H303.665V85.6481H300.735ZM300.744 87.0465V87.3568H303.794V87.0465H300.744ZM308.884 83.0899V87.4045H309.28V83.0899H308.884ZM307.619 83.5529V83.6197C307.619 84.7652 307.042 85.6815 305.796 86.2829L306.006 86.6027C307.447 85.8963 308.011 84.8033 308.011 83.5529H307.619ZM305.992 83.5529V83.8774H307.791V83.5529H305.992ZM311.824 83.4956V83.6245C311.824 84.1495 311.132 84.579 310.368 84.6792L310.516 84.999C311.399 84.8654 312.177 84.3547 312.177 83.6245V83.4956H311.824ZM311.991 83.4956V83.6245C311.991 84.3547 312.769 84.8654 313.647 84.999L313.8 84.6792C313.036 84.579 312.339 84.1495 312.339 83.6245V83.4956H311.991ZM310.487 83.3047V83.6245H313.68V83.3047H310.487ZM310.129 85.3092V85.6338H314.038V85.3092H310.129ZM311.914 85.5097V86.5024H312.31V85.5097H311.914ZM310.626 86.9845V87.309H313.604V86.9845H310.626ZM310.626 86.0872V87.1086H311.017V86.0872H310.626ZM316.737 85.1136V85.6672H317.133V85.1136H316.737ZM318.555 83.0947V85.987H318.952V83.0947H318.555ZM318.785 84.3976V84.727H319.582V84.3976H318.785ZM315.635 85.8629C316.389 85.8581 317.41 85.8533 318.331 85.6911L318.298 85.4095C317.405 85.5383 316.355 85.5383 315.582 85.5383L315.635 85.8629ZM316.117 86.2018V86.5168H318.555V87.4045H318.952V86.2018H316.117ZM315.692 83.4813V83.7772H318.169V83.4813H315.692ZM316.933 83.9442C316.322 83.9442 315.926 84.1876 315.926 84.5838C315.926 84.9799 316.322 85.2233 316.933 85.2233C317.539 85.2233 317.935 84.9799 317.935 84.5838C317.935 84.1876 317.539 83.9442 316.933 83.9442ZM316.933 84.2163C317.315 84.2163 317.563 84.3547 317.563 84.5838C317.563 84.8033 317.315 84.9465 316.933 84.9465C316.546 84.9465 316.298 84.8033 316.298 84.5838C316.298 84.3547 316.546 84.2163 316.933 84.2163ZM316.737 83.0565V83.6245H317.133V83.0565H316.737ZM323.137 83.0947V86.2447H323.538V83.0947H323.137ZM320.765 86.9845V87.309H323.667V86.9845H320.765ZM320.765 85.9202V87.0943H321.156V85.9202H320.765ZM321.223 83.3906C320.579 83.3906 320.097 83.8297 320.097 84.4549C320.097 85.0754 320.579 85.5193 321.223 85.5193C321.867 85.5193 322.345 85.0754 322.345 84.4549C322.345 83.8297 321.867 83.3906 321.223 83.3906ZM321.223 83.7342C321.643 83.7342 321.963 84.0301 321.963 84.4549C321.963 84.8749 321.643 85.1708 321.223 85.1708C320.803 85.1708 320.483 84.8749 320.483 84.4549C320.483 84.0301 320.803 83.7342 321.223 83.7342ZM328.394 83.0899V87.4045H328.795V83.0899H328.394ZM328.699 84.7842V85.1231H329.501V84.7842H328.699ZM325.645 83.4526V86.3688H327.659V83.4526H327.268V84.5933H326.036V83.4526H325.645ZM326.036 84.9083H327.268V86.0443H326.036V84.9083ZM329.868 86.5454V86.8747H333.777V86.5454H329.868ZM331.615 85.6195V86.6838H332.011V85.6195H331.615ZM330.341 83.4097V83.7295H332.904V84.3976H330.355V85.5813H330.747V84.7174H333.295V83.4097H330.341ZM330.355 85.4143V85.7388H333.396V85.4143H330.355ZM337.175 83.0851V87.4045H337.576V83.0851H337.175ZM337.466 84.8367V85.1661H338.263V84.8367H337.466ZM336.073 83.5529V83.6149C336.073 84.7556 335.476 85.6768 334.283 86.2829L334.502 86.5884C335.896 85.8868 336.459 84.7795 336.459 83.5529H336.073ZM334.483 83.5529V83.8774H336.278V83.5529H334.483ZM341.79 83.0899V87.4045H342.186V83.0899H341.79ZM340.525 83.5529V83.6197C340.525 84.7652 339.948 85.6815 338.702 86.2829L338.912 86.6027C340.354 85.8963 340.917 84.8033 340.917 83.5529H340.525ZM338.898 83.5529V83.8774H340.697V83.5529H338.898Z" fill="#0028FF"/>
<rect x="345.729" y="228.795" width="53.6939" height="19.3895" rx="9.69473" fill="#0028FF"/>
<path d="M365.877 236.126V241.531H366.367V236.126H365.877ZM364.714 238.095V238.501H366.021V238.095H364.714ZM363.3 236.902V237.707C363.3 238.668 362.662 239.688 361.886 240.07L362.178 240.463C363.032 240.022 363.7 238.871 363.7 237.707V236.902H363.3ZM363.402 236.902V237.707C363.402 238.817 364.058 239.927 364.911 240.35L365.203 239.962C364.422 239.592 363.795 238.608 363.795 237.707V236.902H363.402ZM362.083 236.681V237.093H365.018V236.681H362.083ZM368.722 236.711V237.146C368.722 237.916 368.185 238.614 367.374 238.9L367.624 239.294C368.531 238.966 369.128 238.137 369.128 237.146V236.711H368.722ZM368.812 236.711V237.14C368.812 238.059 369.384 238.829 370.285 239.127L370.524 238.739C369.73 238.477 369.217 237.844 369.217 237.14V236.711H368.812ZM367.523 236.532V236.938H370.405V236.532H367.523ZM371.085 236.132V239.384H371.58V236.132H371.085ZM371.443 237.498V237.916H372.379V237.498H371.443ZM369.862 239.527C368.764 239.527 368.09 239.891 368.09 240.517C368.09 241.15 368.764 241.513 369.862 241.513C370.959 241.513 371.634 241.15 371.634 240.517C371.634 239.891 370.959 239.527 369.862 239.527ZM369.862 239.927C370.661 239.927 371.15 240.141 371.15 240.517C371.15 240.899 370.661 241.126 369.862 241.126C369.062 241.126 368.573 240.899 368.573 240.517C368.573 240.141 369.062 239.927 369.862 239.927ZM376.513 236.132V241.525H377.008V236.132H376.513ZM376.888 238.346V238.763H377.891V238.346H376.888ZM372.832 236.991V237.397H376.011V236.991H372.832ZM374.442 237.844C373.685 237.844 373.13 238.357 373.13 239.085C373.13 239.813 373.685 240.326 374.442 240.326C375.206 240.326 375.755 239.813 375.755 239.085C375.755 238.357 375.206 237.844 374.442 237.844ZM374.442 238.256C374.932 238.256 375.284 238.596 375.284 239.085C375.284 239.569 374.932 239.915 374.442 239.915C373.953 239.915 373.601 239.569 373.601 239.085C373.601 238.596 373.953 238.256 374.442 238.256ZM374.186 236.198V237.176H374.681V236.198H374.186ZM382.251 236.132V241.525H382.746V236.132H382.251ZM380.67 236.711V236.794C380.67 238.226 379.948 239.372 378.391 240.123L378.653 240.523C380.455 239.64 381.159 238.274 381.159 236.711H380.67ZM378.635 236.711V237.117H380.885V236.711H378.635Z" fill="white"/>
<path d="M67.7139 99.3337L65.9241 97.5439L64.1343 99.3337" stroke="white" stroke-width="0.596599" stroke-linecap="round" stroke-linejoin="round"/>
<path d="M148.661 144.241V147.429H149.057V144.241H148.661ZM147.73 145.573V145.902H148.737V145.573H147.73ZM147.329 144.575V144.733C147.329 145.587 146.627 146.265 145.573 146.618L145.744 146.938C146.962 146.532 147.744 145.687 147.744 144.575H147.329ZM145.787 144.575V144.9H147.587V144.575H145.787ZM146.332 148.136V148.46H149.167V148.136H146.332ZM146.332 147.11V148.298H146.728V147.11H146.332ZM151.648 146.279V146.943H152.039V146.279H151.648ZM149.896 146.06V146.379H153.796V146.06H149.896ZM150.402 144.384V145.697H153.29V144.384H150.402ZM152.903 144.699V145.382H150.794V144.699H152.903ZM150.369 146.799V147.105H152.908V147.482H150.378V148.293H150.77V147.768H153.299V146.799H150.369ZM150.378 148.198V148.508H153.428V148.198H150.378ZM156.375 146.909V148.556H156.781V146.909H156.375ZM157.86 146.909V148.556H158.265V146.909H157.86ZM155.373 146.694V147.024H159.287V146.694H155.373ZM157.32 144.413C156.423 144.413 155.812 144.776 155.812 145.353C155.812 145.926 156.423 146.294 157.32 146.294C158.222 146.294 158.829 145.926 158.829 145.353C158.829 144.776 158.222 144.413 157.32 144.413ZM157.32 144.733C157.979 144.733 158.423 144.976 158.423 145.353C158.423 145.73 157.979 145.974 157.32 145.974C156.662 145.974 156.213 145.73 156.213 145.353C156.213 144.976 156.662 144.733 157.32 144.733ZM162.193 145.277V145.602H163.071V145.277H162.193ZM162.188 146.117V146.442H163.066V146.117H162.188ZM159.773 144.714V145.034H162.188V144.714H159.773ZM160.995 145.258C160.417 145.258 160.017 145.573 160.017 146.055C160.017 146.537 160.417 146.857 160.995 146.857C161.572 146.857 161.969 146.537 161.969 146.055C161.969 145.573 161.572 145.258 160.995 145.258ZM160.995 145.563C161.353 145.563 161.601 145.754 161.601 146.055C161.601 146.356 161.353 146.551 160.995 146.551C160.632 146.551 160.389 146.356 160.389 146.055C160.389 145.754 160.632 145.563 160.995 145.563ZM160.799 144.203V144.938H161.195V144.203H160.799ZM162.918 144.241V147.029H163.315V144.241H162.918ZM161.902 147.072C161.005 147.072 160.465 147.344 160.465 147.811C160.465 148.279 161.005 148.546 161.902 148.546C162.794 148.546 163.338 148.279 163.338 147.811C163.338 147.344 162.794 147.072 161.902 147.072ZM161.902 147.387C162.537 147.387 162.928 147.534 162.928 147.811C162.928 148.083 162.537 148.241 161.902 148.241C161.267 148.241 160.876 148.083 160.876 147.811C160.876 147.534 161.267 147.387 161.902 147.387Z" fill="black"/>
<path d="M191.983 143.473V143.654C191.983 144.222 191.243 144.718 190.484 144.828L190.637 145.143C191.506 144.995 192.327 144.427 192.327 143.654V143.473H191.983ZM192.083 143.473V143.654C192.083 144.427 192.899 144.995 193.773 145.143L193.921 144.828C193.167 144.718 192.422 144.222 192.422 143.654V143.473H192.083ZM191.997 145.716V147.363H192.389V145.716H191.997ZM190.255 145.506V145.83H194.155V145.506H190.255ZM190.618 143.315V143.635H193.778V143.315H190.618ZM194.646 146.475V146.804H198.555V146.475H194.646ZM196.383 145.43V146.585H196.774V145.43H196.383ZM196.374 143.334V143.668C196.374 144.38 195.557 145.014 194.799 145.153L194.966 145.482C195.834 145.301 196.717 144.59 196.717 143.668V143.334H196.374ZM196.445 143.334V143.668C196.445 144.59 197.328 145.301 198.197 145.482L198.369 145.153C197.61 145.014 196.789 144.384 196.789 143.668V143.334H196.445Z" fill="#52575D"/>
<path d="M206.454 188.645L205.233 190.502V192.034H204.865V190.506L203.629 188.645H204.044L205.066 190.182L206.068 188.645H206.454ZM209.307 188.645L208.085 190.502V192.034H207.718V190.506L206.481 188.645H206.897L207.918 190.182L208.92 188.645H209.307ZM212.159 188.645L210.938 190.502V192.034H210.57V190.506L209.334 188.645H209.749L210.771 190.182L211.773 188.645H212.159ZM215.012 188.645L213.79 190.502V192.034H213.423V190.506L212.186 188.645H212.602L213.623 190.182L214.625 188.645H215.012ZM215.006 190.979V190.664H216.309V190.979H215.006ZM216.952 192.034L217.1 188.645H217.457L218.78 191.59L220.106 188.645H220.464L220.588 192.034H220.245L220.14 189.351L218.923 192.034H218.612L217.415 189.361L217.295 192.034H216.952ZM221.314 192.034L221.462 188.645H221.82L223.142 191.59L224.469 188.645H224.827L224.951 192.034H224.607L224.502 189.351L223.285 192.034H222.975L221.777 189.361L221.658 192.034H221.314ZM225.605 190.979V190.664H226.908V190.979H225.605ZM227.584 192.034V188.645H228.443C229.754 188.645 230.409 189.203 230.409 190.32C230.409 190.677 230.336 190.984 230.19 191.241C230.043 191.496 229.833 191.692 229.56 191.828C229.286 191.965 228.958 192.034 228.577 192.034H227.584ZM227.951 191.709H228.558C229.044 191.709 229.412 191.593 229.66 191.361C229.911 191.128 230.037 190.79 230.037 190.344C230.037 189.883 229.91 189.539 229.655 189.313C229.404 189.084 229.019 188.97 228.5 188.97H227.951V191.709ZM231.084 192.034V188.645H231.943C233.254 188.645 233.91 189.203 233.91 190.32C233.91 190.677 233.837 190.984 233.69 191.241C233.544 191.496 233.334 191.692 233.06 191.828C232.787 191.965 232.459 192.034 232.077 192.034H231.084ZM231.452 191.709H232.058C232.545 191.709 232.912 191.593 233.16 191.361C233.412 191.128 233.537 190.79 233.537 190.344C233.537 189.883 233.41 189.539 233.156 189.313C232.904 189.084 232.519 188.97 232.001 188.97H231.452V191.709Z" fill="#52575D"/>
<path d="M293.699 144.236V148.556H294.1V144.236H293.699ZM293.99 145.988V146.317H294.787V145.988H293.99ZM292.596 144.704V144.766C292.596 145.907 292 146.828 290.806 147.434L291.026 147.74C292.42 147.038 292.983 145.931 292.983 144.704H292.596ZM291.007 144.704V145.029H292.801V144.704H291.007ZM297.011 144.532V144.704C297.011 145.506 296.343 146.141 295.235 146.446L295.393 146.757C296.648 146.413 297.426 145.63 297.426 144.532H297.011ZM295.455 144.532V144.852H297.254V144.532H295.455ZM295.841 147.009V147.329H298.323V148.546H298.719V147.009H295.841ZM298.323 144.241V146.814H298.719V144.241H298.323ZM297.249 145.01V145.334H298.404V145.01H297.249ZM297.206 145.926V146.251H298.376V145.926H297.206Z" fill="#52575D"/>
<path d="M139.657 191.177V191.664H145.527V191.177H139.657ZM142.277 191.471V193.89H142.864V191.471H142.277ZM140.402 187.777V190.304H144.769V187.777H140.402ZM144.189 188.256V189.824H140.989V188.256H144.189ZM148.842 188.056V188.328C148.842 189.18 147.732 189.924 146.594 190.089L146.823 190.561C148.126 190.339 149.357 189.488 149.357 188.328V188.056H148.842ZM148.992 188.056V188.328C148.992 189.488 150.216 190.339 151.526 190.561L151.748 190.089C150.617 189.924 149.5 189.18 149.5 188.328V188.056H148.992ZM148.863 191.421V193.89H149.45V191.421H148.863ZM146.25 191.106V191.592H152.099V191.106H146.25ZM146.794 187.819V188.299H151.533V187.819H146.794ZM153.108 190.511V191.005H153.523C154.561 191.005 155.177 190.977 155.921 190.833L155.864 190.347C155.141 190.49 154.54 190.511 153.523 190.511H153.108ZM153.108 187.891V190.776H153.681V188.378H155.614V187.891H153.108ZM153.502 189.18V189.645H155.535V189.18H153.502ZM157.718 187.419V191.342H158.284V187.419H157.718ZM156.673 189.108V189.595H157.897V189.108H156.673ZM156.294 187.54V191.306H156.852V187.54H156.294ZM153.946 191.685V192.172H157.697V193.89H158.284V191.685H153.946ZM162.755 187.977V189.137C162.755 190.361 161.974 191.6 161.015 192.058L161.38 192.545C162.44 192.008 163.241 190.626 163.241 189.137V187.977H162.755ZM162.855 187.977V189.137C162.855 190.576 163.664 191.907 164.716 192.423L165.074 191.95C164.115 191.506 163.342 190.318 163.342 189.137V187.977H162.855ZM165.747 187.411V193.898H166.341V187.411H165.747ZM169.226 188.084V188.607C169.226 189.531 168.582 190.361 167.601 190.705L167.916 191.17C168.997 190.783 169.713 189.795 169.713 188.607V188.084H169.226ZM169.333 188.084V188.6C169.333 189.717 170.021 190.669 171.087 191.041L171.395 190.576C170.443 190.254 169.82 189.459 169.82 188.6V188.084H169.333ZM167.787 187.87V188.356H171.245V187.87H167.787ZM172.061 187.419V191.313H172.655V187.419H172.061ZM172.491 189.122V189.616H173.615V189.122H172.491ZM168.453 191.657V192.151H172.061V193.89H172.655V191.657H168.453ZM176.034 187.655C175.074 187.655 174.366 188.242 174.366 189.094C174.366 189.939 175.074 190.526 176.034 190.526C177 190.526 177.709 189.939 177.709 189.094C177.709 188.242 177 187.655 176.034 187.655ZM176.034 188.142C176.664 188.142 177.129 188.535 177.129 189.094C177.129 189.652 176.664 190.039 176.034 190.039C175.411 190.039 174.938 189.652 174.938 189.094C174.938 188.535 175.411 188.142 176.034 188.142ZM178.926 187.419V190.733H179.527V187.419H178.926ZM175.339 191.048V191.528H178.94V192.179H175.354V193.597H175.934V192.623H179.527V191.048H175.339ZM175.354 193.332V193.805H179.742V193.332H175.354Z" fill="black"/>
</g>
<defs>
<clipPath id="clip0_422_5643">
<rect width="451.029" height="292.93" rx="25.2577" fill="white"/>
</clipPath>
<clipPath id="clip1_422_5643">
<rect width="7.15918" height="7.15918" fill="white" transform="translate(206.125 108.283)"/>
</clipPath>
</defs>
</svg>
