<svg width="378" height="340" viewBox="0 0 378 340" fill="none" xmlns="http://www.w3.org/2000/svg">
<g clip-path="url(#clip0_422_5585)">
<rect width="378" height="339.75" rx="14.468" fill="white"/>
<path d="M84.588 13.966V15.206H87.084V13.966H86.556V14.21H85.112V13.966H84.588ZM85.112 14.598H86.556V14.814H85.112V14.598ZM84.16 15.406V15.822H87.508V15.406H84.16ZM84.544 16.034V16.422H86.58V16.61H84.548V17.31H85.072V16.974H87.104V16.034H84.544ZM84.548 17.186V17.582H87.2V17.186H84.548ZM88.2073 14.018V14.442H90.2513V14.726H88.2153V15.686H88.7553V15.122H90.7913V14.018H88.2073ZM88.2153 15.426V15.846H90.8833V15.426H88.2153ZM87.8233 16.118V16.546H91.1793V16.118H87.8233ZM89.2273 16.274V17.614H89.7593V16.274H89.2273ZM91.8706 14.018V14.442H93.9146V14.726H91.8786V15.686H92.4186V15.122H94.4546V14.018H91.8706ZM91.8786 15.426V15.846H94.5466V15.426H91.8786ZM91.4866 16.118V16.546H94.8426V16.118H91.4866ZM92.8906 16.274V17.614H93.4226V16.274H92.8906ZM95.1539 16.742V17.178H98.5059V16.742H95.1539ZM95.4099 14.222V14.646H98.2299V14.222H95.4099ZM95.4259 15.754V16.182H98.2179V15.754H95.4259ZM95.9139 14.614V15.794H96.4459V14.614H95.9139ZM97.1979 14.614V15.794H97.7259V14.614H97.1979ZM101.197 13.906V16.634H101.729V13.906H101.197ZM101.577 14.966V15.406H102.221V14.966H101.577ZM99.3531 17.118V17.542H101.865V17.118H99.3531ZM99.3531 16.414V17.258H99.8891V16.414H99.3531ZM98.9451 15.678V16.102H99.2571C100.005 16.102 100.473 16.086 100.993 15.99L100.945 15.562C100.433 15.658 99.9851 15.678 99.2571 15.678H98.9451ZM98.9411 14.126V14.55H100.109V14.902H98.9451V15.83H99.4731V15.294H100.633V14.126H98.9411ZM103.236 16.422V16.29C103.236 16.1673 103.262 16.062 103.312 15.974C103.363 15.886 103.426 15.81 103.5 15.746C103.575 15.6793 103.648 15.6167 103.72 15.558C103.795 15.4993 103.858 15.4367 103.908 15.37C103.959 15.3007 103.984 15.2207 103.984 15.13C103.984 15.0047 103.938 14.906 103.844 14.834C103.754 14.7593 103.646 14.722 103.52 14.722C103.438 14.722 103.359 14.7407 103.284 14.778C103.212 14.8127 103.154 14.8673 103.108 14.942C103.063 15.0167 103.04 15.1127 103.04 15.23H102.524C102.524 15.0087 102.572 14.826 102.668 14.682C102.767 14.5353 102.894 14.4273 103.048 14.358C103.203 14.286 103.366 14.25 103.536 14.25C103.715 14.25 103.879 14.286 104.028 14.358C104.18 14.4273 104.302 14.5273 104.392 14.658C104.483 14.786 104.528 14.9393 104.528 15.118C104.528 15.254 104.502 15.37 104.448 15.466C104.398 15.5593 104.335 15.642 104.26 15.714C104.186 15.7833 104.11 15.8473 104.032 15.906C103.958 15.9647 103.895 16.0247 103.844 16.086C103.794 16.1447 103.768 16.2127 103.768 16.29V16.422H103.236ZM103.504 17.29C103.416 17.29 103.344 17.2607 103.288 17.202C103.232 17.1433 103.204 17.0727 103.204 16.99C103.204 16.9073 103.232 16.838 103.288 16.782C103.344 16.7233 103.416 16.694 103.504 16.694C103.59 16.694 103.66 16.7233 103.716 16.782C103.775 16.838 103.804 16.9073 103.804 16.99C103.804 17.0727 103.775 17.1433 103.716 17.202C103.66 17.2607 103.59 17.29 103.504 17.29Z" fill="#282A2D"/>
<path d="M115.742 14.486V14.902C115.742 15.51 115.442 16.202 114.83 16.49L115.13 16.91C115.81 16.59 116.162 15.738 116.162 14.902V14.486H115.742ZM115.854 14.486V14.902C115.854 15.69 116.198 16.502 116.878 16.818L117.17 16.398C116.562 16.118 116.274 15.462 116.274 14.902V14.486H115.854ZM114.974 14.258V14.694H117.006V14.258H114.974ZM117.278 13.902V17.606H117.814V13.902H117.278ZM117.694 15.314V15.754H118.35V15.314H117.694ZM119.981 14.134V14.398C119.981 14.966 119.521 15.446 118.613 15.682L118.813 16.098C119.921 15.806 120.537 15.13 120.537 14.134H119.981ZM118.821 14.134V14.558H120.325V14.134H118.821ZM119.149 16.258V16.674H121.141V17.594H121.673V16.258H119.149ZM121.141 13.902V16.102H121.673V13.902H121.141ZM120.361 14.498V14.918H121.229V14.498H120.361ZM120.325 15.286V15.71H121.197V15.286H120.325ZM123.137 14.314V14.626C123.137 15.094 122.869 15.574 122.253 15.774L122.525 16.19C123.237 15.958 123.577 15.326 123.577 14.626V14.314H123.137ZM123.245 14.314V14.626C123.245 15.298 123.581 15.902 124.277 16.122L124.549 15.71C123.945 15.518 123.681 15.066 123.681 14.626V14.314H123.245ZM122.393 14.166V14.586H124.409V14.166H122.393ZM124.781 13.906V16.578H125.317V13.906H124.781ZM122.849 17.118V17.542H125.409V17.118H122.849ZM122.849 16.338V17.33H123.381V16.338H122.849ZM128.284 13.902V16.578H128.816V13.902H128.284ZM128.664 14.91V15.346H129.308V14.91H128.664ZM126.04 15.546V15.974H126.348C127.172 15.974 127.596 15.954 128.048 15.854L127.996 15.434C127.552 15.53 127.152 15.546 126.348 15.546H126.04ZM126.04 14.194V15.774H126.568V14.622H127.696V14.194H126.04ZM126.428 17.118V17.542H128.948V17.118H126.428ZM126.428 16.298V17.334H126.96V16.298H126.428Z" fill="#282A2D"/>
<path d="M142.212 13.902V17.606H142.748V13.902H142.212ZM141.12 14.286V14.382C141.12 15.374 140.736 16.046 139.672 16.558L139.948 16.982C141.264 16.346 141.648 15.418 141.648 14.286H141.12ZM139.868 14.286V14.706H141.372V14.286H139.868ZM143.467 16.338V16.77H143.779C144.415 16.77 144.919 16.754 145.479 16.666L145.431 16.242C144.879 16.33 144.403 16.338 143.779 16.338H143.467ZM143.467 14.21V16.478H144.003V14.642H145.207V14.21H143.467ZM143.875 15.238V15.654H145.155V15.238H143.875ZM145.691 13.902V17.606H146.227V13.902H145.691ZM146.107 15.306V15.746H146.763V15.306H146.107ZM147.819 14.55V14.686C147.819 15.106 147.559 15.53 146.963 15.698L147.211 16.114C147.919 15.91 148.247 15.33 148.247 14.686V14.55H147.819ZM147.919 14.55V14.686C147.919 15.294 148.259 15.834 148.971 16.022L149.211 15.61C148.615 15.454 148.351 15.066 148.351 14.686V14.55H147.919ZM147.091 14.286V14.702H149.079V14.286H147.091ZM147.819 13.89V14.45H148.351V13.89H147.819ZM148.975 14.89V15.318H149.683V14.89H148.975ZM149.555 13.902V16.138H150.087V13.902H149.555ZM148.831 16.202C148.047 16.202 147.563 16.458 147.563 16.902C147.563 17.346 148.047 17.606 148.831 17.606C149.615 17.606 150.099 17.346 150.099 16.902C150.099 16.458 149.615 16.202 148.831 16.202ZM148.831 16.606C149.319 16.606 149.571 16.702 149.571 16.902C149.571 17.102 149.319 17.202 148.831 17.202C148.347 17.202 148.095 17.102 148.095 16.902C148.095 16.702 148.347 16.606 148.831 16.606ZM153.402 14.382V14.818H154.042V14.382H153.402ZM153.402 15.186V15.622H154.042V15.186H153.402ZM153.034 13.902V16.086H153.566V13.902H153.034ZM151.094 16.238V16.662H153.034V17.606H153.566V16.238H151.094ZM151.682 14.102C151.11 14.102 150.674 14.482 150.674 15.01C150.674 15.538 151.11 15.914 151.682 15.914C152.254 15.914 152.69 15.538 152.69 15.01C152.69 14.482 152.254 14.102 151.682 14.102ZM151.682 14.554C151.962 14.554 152.17 14.718 152.17 15.01C152.17 15.302 151.962 15.47 151.682 15.47C151.402 15.47 151.194 15.302 151.194 15.01C151.194 14.718 151.402 14.554 151.682 14.554ZM156.181 15.058V15.486H157.157V15.058H156.181ZM155.173 14.186V14.722C155.173 15.426 154.893 16.142 154.261 16.434L154.593 16.862C155.289 16.514 155.605 15.654 155.605 14.722V14.186H155.173ZM155.285 14.186V14.722C155.285 15.646 155.577 16.462 156.273 16.798L156.589 16.374C155.977 16.102 155.709 15.426 155.709 14.722V14.186H155.285ZM156.893 13.898V17.614H157.421V13.898H156.893ZM160.516 13.898V17.614H161.052V13.898H160.516ZM158.16 14.194V16.75H159.98V14.194H159.452V15.094H158.688V14.194H158.16ZM158.688 15.506H159.452V16.322H158.688V15.506ZM163.016 14.114V14.382C163.016 14.914 162.556 15.502 161.72 15.646L161.948 16.086C162.908 15.898 163.48 15.186 163.48 14.382V14.114H163.016ZM163.124 14.114V14.382C163.124 15.198 163.692 15.898 164.652 16.086L164.88 15.646C164.04 15.502 163.584 14.926 163.584 14.382V14.114H163.124ZM161.644 16.722V17.154H164.996V16.722H161.644Z" fill="#282A2D"/>
<path d="M175.522 14.25V16.706H177.294V14.25H175.522ZM176.77 14.666V16.286H176.046V14.666H176.77ZM177.778 13.902V17.606H178.314V13.902H177.778ZM178.194 15.298V15.738H178.85V15.298H178.194ZM181.613 13.898V17.614H182.149V13.898H181.613ZM180.153 14.158C179.593 14.158 179.181 14.67 179.181 15.478C179.181 16.294 179.593 16.806 180.153 16.806C180.713 16.806 181.125 16.294 181.125 15.478C181.125 14.67 180.713 14.158 180.153 14.158ZM180.153 14.642C180.429 14.642 180.613 14.934 180.613 15.478C180.613 16.03 180.429 16.326 180.153 16.326C179.877 16.326 179.689 16.03 179.689 15.478C179.689 14.934 179.877 14.642 180.153 14.642ZM185.445 13.902V17.606H185.953V13.902H185.445ZM184.361 15.25V15.718H184.857V15.25H184.361ZM184.709 13.974V17.434H185.209V13.974H184.709ZM182.765 14.318V14.742H184.449V14.318H182.765ZM182.757 16.766C183.213 16.766 183.965 16.754 184.541 16.63L184.505 16.246C183.945 16.322 183.165 16.334 182.701 16.334L182.757 16.766ZM182.993 14.59V16.446H183.469V14.59H182.993ZM183.737 14.59V16.446H184.217V14.59H183.737ZM188.94 13.898V17.614H189.476V13.898H188.94ZM187.48 14.158C186.92 14.158 186.508 14.67 186.508 15.478C186.508 16.294 186.92 16.806 187.48 16.806C188.04 16.806 188.452 16.294 188.452 15.478C188.452 14.67 188.04 14.158 187.48 14.158ZM187.48 14.642C187.756 14.642 187.94 14.934 187.94 15.478C187.94 16.03 187.756 16.326 187.48 16.326C187.204 16.326 187.016 16.03 187.016 15.478C187.016 14.934 187.204 14.642 187.48 14.642ZM190.955 14.486V14.902C190.955 15.53 190.655 16.214 190.035 16.49L190.335 16.91C191.031 16.594 191.379 15.758 191.379 14.902V14.486H190.955ZM191.075 14.486V14.902C191.075 15.726 191.419 16.514 192.123 16.818L192.411 16.398C191.791 16.142 191.495 15.502 191.495 14.902V14.486H191.075ZM190.183 14.258V14.694H192.259V14.258H190.183ZM192.603 13.902V17.606H193.139V13.902H192.603Z" fill="#282A2D"/>
<path d="M20.148 19.25V12.59H23.055C23.481 12.59 23.844 12.665 24.144 12.815C24.444 12.965 24.672 13.166 24.828 13.418C24.99 13.67 25.071 13.946 25.071 14.246C25.071 14.552 25.014 14.804 24.9 15.002C24.792 15.2 24.66 15.356 24.504 15.47C24.354 15.578 24.216 15.653 24.09 15.695V15.758C24.246 15.8 24.42 15.881 24.612 16.001C24.81 16.121 24.981 16.292 25.125 16.514C25.269 16.73 25.341 17.012 25.341 17.36C25.341 17.672 25.266 17.975 25.116 18.269C24.966 18.557 24.729 18.794 24.405 18.98C24.081 19.16 23.652 19.25 23.118 19.25H20.148ZM22.893 13.625H21.372V15.362H22.893C23.241 15.362 23.493 15.275 23.649 15.101C23.805 14.927 23.883 14.723 23.883 14.489C23.883 14.261 23.805 14.06 23.649 13.886C23.493 13.712 23.241 13.625 22.893 13.625ZM22.983 16.298H21.372V18.215H22.983C23.379 18.215 23.667 18.119 23.847 17.927C24.027 17.735 24.117 17.51 24.117 17.252C24.117 17 24.027 16.778 23.847 16.586C23.667 16.394 23.379 16.298 22.983 16.298ZM26.3953 19.25L26.4043 12.41H27.5923V19.25H26.3953ZM30.2765 19.34C29.7785 19.34 29.4005 19.187 29.1425 18.881C28.8905 18.575 28.7645 18.182 28.7645 17.702V14.48H29.9525V17.504C29.9525 17.762 30.0215 17.969 30.1595 18.125C30.2975 18.275 30.4925 18.35 30.7445 18.35C30.9665 18.35 31.1465 18.293 31.2845 18.179C31.4225 18.065 31.5215 17.918 31.5815 17.738C31.6475 17.558 31.6805 17.372 31.6805 17.18V14.48H32.8775V19.25H31.6805V18.566H31.6265C31.5665 18.674 31.4795 18.788 31.3655 18.908C31.2575 19.028 31.1135 19.13 30.9335 19.214C30.7595 19.298 30.5405 19.34 30.2765 19.34ZM36.2611 19.34C35.8531 19.34 35.4991 19.271 35.1991 19.133C34.9051 18.989 34.6591 18.8 34.4611 18.566C34.2691 18.326 34.1251 18.059 34.0291 17.765C33.9331 17.471 33.8851 17.171 33.8851 16.865C33.8851 16.559 33.9301 16.262 34.0201 15.974C34.1161 15.68 34.2571 15.413 34.4431 15.173C34.6351 14.933 34.8781 14.744 35.1721 14.606C35.4661 14.462 35.8141 14.39 36.2161 14.39C36.6481 14.39 37.0291 14.486 37.3591 14.678C37.6891 14.87 37.9471 15.152 38.1331 15.524C38.3191 15.89 38.4121 16.346 38.4121 16.892V17.198H35.0911C35.1091 17.522 35.2201 17.804 35.4241 18.044C35.6281 18.278 35.9071 18.395 36.2611 18.395C36.4651 18.395 36.6331 18.362 36.7651 18.296C36.8971 18.23 36.9991 18.155 37.0711 18.071C37.1431 17.981 37.1941 17.906 37.2241 17.846C37.2541 17.78 37.2691 17.747 37.2691 17.747H38.3761C38.3761 17.747 38.3611 17.801 38.3311 17.909C38.3011 18.011 38.2441 18.143 38.1601 18.305C38.0821 18.461 37.9651 18.62 37.8091 18.782C37.6531 18.938 37.4491 19.07 37.1971 19.178C36.9451 19.286 36.6331 19.34 36.2611 19.34ZM35.0911 16.415H37.2601C37.2421 16.043 37.1311 15.767 36.9271 15.587C36.7231 15.407 36.4831 15.317 36.2071 15.317C35.9011 15.317 35.6461 15.416 35.4421 15.614C35.2381 15.806 35.1211 16.073 35.0911 16.415ZM39.477 19.25V12.59H42.069C42.549 12.59 42.957 12.68 43.293 12.86C43.635 13.034 43.893 13.274 44.067 13.58C44.247 13.88 44.337 14.219 44.337 14.597C44.337 15.023 44.223 15.404 43.995 15.74C43.767 16.07 43.437 16.31 43.005 16.46L44.535 19.25H43.176L41.754 16.604H40.701V19.25H39.477ZM42.051 13.652H40.701V15.605H42.051C42.393 15.605 42.654 15.509 42.834 15.317C43.014 15.119 43.104 14.888 43.104 14.624C43.104 14.36 43.014 14.132 42.834 13.94C42.654 13.748 42.393 13.652 42.051 13.652ZM47.5532 19.34C47.0312 19.34 46.5872 19.223 46.2212 18.989C45.8552 18.755 45.5762 18.452 45.3842 18.08C45.1982 17.702 45.1052 17.297 45.1052 16.865C45.1052 16.433 45.1982 16.031 45.3842 15.659C45.5762 15.281 45.8552 14.975 46.2212 14.741C46.5872 14.507 47.0312 14.39 47.5532 14.39C48.0812 14.39 48.5252 14.507 48.8852 14.741C49.2512 14.975 49.5272 15.281 49.7132 15.659C49.9052 16.031 50.0012 16.433 50.0012 16.865C50.0012 17.297 49.9052 17.702 49.7132 18.08C49.5272 18.452 49.2512 18.755 48.8852 18.989C48.5252 19.223 48.0812 19.34 47.5532 19.34ZM47.5532 18.341C47.8232 18.341 48.0482 18.272 48.2282 18.134C48.4142 17.996 48.5552 17.816 48.6512 17.594C48.7472 17.366 48.7952 17.123 48.7952 16.865C48.7952 16.601 48.7472 16.358 48.6512 16.136C48.5552 15.914 48.4142 15.734 48.2282 15.596C48.0482 15.458 47.8232 15.389 47.5532 15.389C47.2892 15.389 47.0642 15.458 46.8782 15.596C46.6922 15.734 46.5512 15.914 46.4552 16.136C46.3592 16.358 46.3112 16.601 46.3112 16.865C46.3112 17.123 46.3592 17.366 46.4552 17.594C46.5512 17.816 46.6922 17.996 46.8782 18.134C47.0642 18.272 47.2892 18.341 47.5532 18.341ZM53.3435 19.34C52.8215 19.34 52.3775 19.223 52.0115 18.989C51.6455 18.755 51.3665 18.452 51.1745 18.08C50.9885 17.702 50.8955 17.297 50.8955 16.865C50.8955 16.433 50.9885 16.031 51.1745 15.659C51.3665 15.281 51.6455 14.975 52.0115 14.741C52.3775 14.507 52.8215 14.39 53.3435 14.39C53.8715 14.39 54.3155 14.507 54.6755 14.741C55.0415 14.975 55.3175 15.281 55.5035 15.659C55.6955 16.031 55.7915 16.433 55.7915 16.865C55.7915 17.297 55.6955 17.702 55.5035 18.08C55.3175 18.452 55.0415 18.755 54.6755 18.989C54.3155 19.223 53.8715 19.34 53.3435 19.34ZM53.3435 18.341C53.6135 18.341 53.8385 18.272 54.0185 18.134C54.2045 17.996 54.3455 17.816 54.4415 17.594C54.5375 17.366 54.5855 17.123 54.5855 16.865C54.5855 16.601 54.5375 16.358 54.4415 16.136C54.3455 15.914 54.2045 15.734 54.0185 15.596C53.8385 15.458 53.6135 15.389 53.3435 15.389C53.0795 15.389 52.8545 15.458 52.6685 15.596C52.4825 15.734 52.3415 15.914 52.2455 16.136C52.1495 16.358 52.1015 16.601 52.1015 16.865C52.1015 17.123 52.1495 17.366 52.2455 17.594C52.3415 17.816 52.4825 17.996 52.6685 18.134C52.8545 18.272 53.0795 18.341 53.3435 18.341ZM57.2893 19.25V15.443H56.5243V14.48H57.2893V14.039C57.2893 13.859 57.3133 13.67 57.3613 13.472C57.4093 13.268 57.4903 13.079 57.6043 12.905C57.7243 12.731 57.8893 12.59 58.0993 12.482C58.3153 12.374 58.5853 12.32 58.9093 12.32C59.0893 12.32 59.2363 12.335 59.3503 12.365C59.4703 12.389 59.5303 12.401 59.5303 12.401V13.274C59.5303 13.274 59.4913 13.268 59.4133 13.256C59.3353 13.238 59.2513 13.229 59.1613 13.229C58.9033 13.229 58.7263 13.304 58.6303 13.454C58.5343 13.604 58.4863 13.799 58.4863 14.039V14.48H59.5033V15.443H58.4863V19.25H57.2893Z" fill="#0028FF"/>
<path d="M307.78 16.5V13.91H308.123V16.199H309.457V16.5H307.78ZM310.654 16.535C310.455 16.535 310.288 16.4895 310.153 16.3985C310.018 16.3052 309.915 16.185 309.845 16.038C309.775 15.891 309.74 15.7358 309.74 15.5725C309.74 15.4068 309.775 15.2517 309.845 15.107C309.915 14.96 310.018 14.841 310.153 14.75C310.288 14.6567 310.455 14.61 310.654 14.61C310.852 14.61 311.019 14.6567 311.154 14.75C311.289 14.841 311.392 14.96 311.462 15.107C311.532 15.2517 311.567 15.4068 311.567 15.5725C311.567 15.7358 311.532 15.891 311.462 16.038C311.392 16.185 311.289 16.3052 311.154 16.3985C311.019 16.4895 310.852 16.535 310.654 16.535ZM310.654 16.2445C310.78 16.2445 310.885 16.213 310.969 16.15C311.055 16.0847 311.119 16.0007 311.161 15.898C311.205 15.7953 311.228 15.6868 311.228 15.5725C311.228 15.4558 311.205 15.3473 311.161 15.247C311.119 15.1443 311.055 15.0615 310.969 14.9985C310.885 14.9332 310.78 14.9005 310.654 14.9005C310.53 14.9005 310.425 14.9332 310.339 14.9985C310.252 15.0615 310.187 15.1443 310.143 15.247C310.101 15.3473 310.08 15.4558 310.08 15.5725C310.08 15.6868 310.101 15.7953 310.143 15.898C310.187 16.0007 310.252 16.0847 310.339 16.15C310.425 16.213 310.53 16.2445 310.654 16.2445ZM312.882 17.235C312.728 17.235 312.599 17.214 312.497 17.172C312.394 17.1323 312.311 17.081 312.248 17.018C312.188 16.9573 312.142 16.8967 312.112 16.836C312.081 16.7753 312.062 16.724 312.052 16.682C312.043 16.6423 312.038 16.6225 312.038 16.6225H312.371C312.371 16.6225 312.377 16.6388 312.388 16.6715C312.4 16.7042 312.422 16.7415 312.455 16.7835C312.49 16.8255 312.541 16.8628 312.609 16.8955C312.676 16.9282 312.767 16.9445 312.882 16.9445C313.017 16.9445 313.123 16.9177 313.2 16.864C313.277 16.8127 313.332 16.745 313.365 16.661C313.4 16.577 313.417 16.4883 313.417 16.395V16.1815H313.4C313.376 16.2212 313.339 16.2667 313.288 16.318C313.239 16.367 313.173 16.4102 313.092 16.4475C313.01 16.4825 312.91 16.5 312.791 16.5C312.651 16.5 312.528 16.4732 312.423 16.4195C312.318 16.3658 312.231 16.2935 312.161 16.2025C312.093 16.1115 312.042 16.01 312.007 15.898C311.972 15.786 311.954 15.6717 311.954 15.555C311.954 15.4383 311.972 15.324 312.007 15.212C312.042 15.1 312.093 14.9985 312.161 14.9075C312.231 14.8165 312.318 14.7442 312.423 14.6905C312.528 14.6368 312.651 14.61 312.791 14.61C312.91 14.61 313.01 14.6287 313.092 14.666C313.173 14.701 313.239 14.743 313.288 14.792C313.339 14.841 313.376 14.8865 313.4 14.9285H313.417V14.645H313.75V16.3915C313.75 16.6505 313.674 16.8558 313.522 17.0075C313.373 17.1592 313.159 17.235 312.882 17.235ZM312.854 16.2165C312.977 16.2165 313.08 16.185 313.162 16.122C313.246 16.0567 313.308 15.9738 313.347 15.8735C313.389 15.7732 313.41 15.667 313.41 15.555C313.41 15.443 313.389 15.3368 313.347 15.2365C313.308 15.1338 313.246 15.051 313.162 14.988C313.08 14.925 312.977 14.8935 312.854 14.8935C312.73 14.8935 312.626 14.925 312.542 14.988C312.458 15.051 312.395 15.1338 312.353 15.2365C312.314 15.3368 312.294 15.443 312.294 15.555C312.294 15.667 312.314 15.7732 312.353 15.8735C312.395 15.9738 312.458 16.0567 312.542 16.122C312.626 16.185 312.73 16.2165 312.854 16.2165ZM314.441 14.2915C314.378 14.2915 314.325 14.2705 314.283 14.2285C314.244 14.1865 314.224 14.1363 314.224 14.078C314.224 14.0173 314.244 13.966 314.283 13.924C314.325 13.882 314.378 13.861 314.441 13.861C314.502 13.861 314.553 13.882 314.595 13.924C314.637 13.966 314.658 14.0173 314.658 14.078C314.658 14.1363 314.637 14.1865 314.595 14.2285C314.553 14.2705 314.502 14.2915 314.441 14.2915ZM314.276 16.5V14.645H314.609V16.5H314.276ZM315.132 16.5V14.645H315.465V14.9145H315.486C315.502 14.8865 315.529 14.848 315.566 14.799C315.606 14.75 315.662 14.7068 315.734 14.6695C315.807 14.6298 315.898 14.61 316.007 14.61C316.143 14.61 316.258 14.6415 316.354 14.7045C316.45 14.7652 316.522 14.848 316.571 14.953C316.622 15.058 316.648 15.1758 316.648 15.3065V16.5H316.315V15.3275C316.315 15.2038 316.28 15.1012 316.21 15.0195C316.143 14.9378 316.044 14.897 315.913 14.897C315.808 14.897 315.723 14.9238 315.657 14.9775C315.592 15.0288 315.543 15.0977 315.51 15.184C315.48 15.268 315.465 15.3578 315.465 15.4535V16.5H315.132Z" fill="#3981F7"/>
<rect x="298.125" y="9.625" width="28.75" height="11.75" rx="5.875" stroke="#3981F7" stroke-width="0.25"/>
<rect x="338.5" y="9.5" width="29" height="12" rx="6" fill="#0028FF"/>
<path d="M347.955 16.535C347.806 16.535 347.677 16.5163 347.57 16.479C347.465 16.4393 347.377 16.3892 347.307 16.3285C347.237 16.2655 347.181 16.2002 347.139 16.1325C347.097 16.0648 347.066 16.0007 347.045 15.94C347.024 15.877 347.01 15.8268 347.003 15.7895C346.998 15.7498 346.996 15.73 346.996 15.73H347.346C347.346 15.73 347.349 15.7463 347.356 15.779C347.363 15.8117 347.377 15.8525 347.398 15.9015C347.422 15.9505 347.456 16.0007 347.5 16.052C347.544 16.101 347.604 16.1418 347.678 16.1745C347.753 16.2072 347.848 16.2235 347.962 16.2235C348.135 16.2235 348.271 16.1827 348.371 16.101C348.472 16.017 348.522 15.9085 348.522 15.7755C348.522 15.6612 348.483 15.5725 348.406 15.5095C348.332 15.4465 348.224 15.3975 348.084 15.3625L347.741 15.2785C347.62 15.2482 347.507 15.2062 347.402 15.1525C347.299 15.0965 347.216 15.0242 347.153 14.9355C347.093 14.8445 347.062 14.7313 347.062 14.596C347.062 14.4443 347.1 14.3148 347.174 14.2075C347.249 14.1002 347.351 14.0185 347.479 13.9625C347.607 13.9042 347.753 13.875 347.916 13.875C348.075 13.875 348.207 13.8995 348.312 13.9485C348.417 13.9975 348.501 14.0582 348.564 14.1305C348.627 14.2005 348.674 14.2717 348.704 14.344C348.734 14.414 348.754 14.4735 348.763 14.5225C348.773 14.5715 348.777 14.596 348.777 14.596H348.441C348.441 14.596 348.437 14.575 348.427 14.533C348.418 14.491 348.396 14.4432 348.361 14.3895C348.326 14.3335 348.272 14.2845 348.2 14.2425C348.128 14.2005 348.03 14.1795 347.906 14.1795C347.738 14.1795 347.611 14.2192 347.524 14.2985C347.44 14.3778 347.398 14.4688 347.398 14.5715C347.398 14.6648 347.432 14.7407 347.5 14.799C347.568 14.855 347.661 14.8982 347.78 14.9285L348.151 15.0195C348.284 15.0522 348.404 15.1 348.511 15.163C348.619 15.2237 348.704 15.303 348.767 15.401C348.83 15.4967 348.861 15.6145 348.861 15.7545C348.861 15.8945 348.826 16.024 348.756 16.143C348.689 16.262 348.587 16.3577 348.452 16.43C348.319 16.5 348.153 16.535 347.955 16.535ZM349.476 14.2915C349.413 14.2915 349.361 14.2705 349.319 14.2285C349.279 14.1865 349.259 14.1363 349.259 14.078C349.259 14.0173 349.279 13.966 349.319 13.924C349.361 13.882 349.413 13.861 349.476 13.861C349.537 13.861 349.588 13.882 349.63 13.924C349.672 13.966 349.693 14.0173 349.693 14.078C349.693 14.1363 349.672 14.1865 349.63 14.2285C349.588 14.2705 349.537 14.2915 349.476 14.2915ZM349.312 16.5V14.645H349.644V16.5H349.312ZM351.06 17.235C350.906 17.235 350.778 17.214 350.675 17.172C350.573 17.1323 350.49 17.081 350.427 17.018C350.366 16.9573 350.321 16.8967 350.29 16.836C350.26 16.7753 350.24 16.724 350.231 16.682C350.221 16.6423 350.217 16.6225 350.217 16.6225H350.549C350.549 16.6225 350.555 16.6388 350.567 16.6715C350.578 16.7042 350.601 16.7415 350.633 16.7835C350.668 16.8255 350.72 16.8628 350.787 16.8955C350.855 16.9282 350.946 16.9445 351.06 16.9445C351.196 16.9445 351.302 16.9177 351.379 16.864C351.456 16.8127 351.511 16.745 351.543 16.661C351.578 16.577 351.596 16.4883 351.596 16.395V16.1815H351.578C351.555 16.2212 351.518 16.2667 351.466 16.318C351.417 16.367 351.352 16.4102 351.27 16.4475C351.189 16.4825 351.088 16.5 350.969 16.5C350.829 16.5 350.707 16.4732 350.602 16.4195C350.497 16.3658 350.409 16.2935 350.339 16.2025C350.272 16.1115 350.22 16.01 350.185 15.898C350.15 15.786 350.133 15.6717 350.133 15.555C350.133 15.4383 350.15 15.324 350.185 15.212C350.22 15.1 350.272 14.9985 350.339 14.9075C350.409 14.8165 350.497 14.7442 350.602 14.6905C350.707 14.6368 350.829 14.61 350.969 14.61C351.088 14.61 351.189 14.6287 351.27 14.666C351.352 14.701 351.417 14.743 351.466 14.792C351.518 14.841 351.555 14.8865 351.578 14.9285H351.596V14.645H351.928V16.3915C351.928 16.6505 351.852 16.8558 351.701 17.0075C351.551 17.1592 351.338 17.235 351.06 17.235ZM351.032 16.2165C351.156 16.2165 351.259 16.185 351.34 16.122C351.424 16.0567 351.486 15.9738 351.526 15.8735C351.568 15.7732 351.589 15.667 351.589 15.555C351.589 15.443 351.568 15.3368 351.526 15.2365C351.486 15.1338 351.424 15.051 351.34 14.988C351.259 14.925 351.156 14.8935 351.032 14.8935C350.909 14.8935 350.805 14.925 350.721 14.988C350.637 15.051 350.574 15.1338 350.532 15.2365C350.492 15.3368 350.472 15.443 350.472 15.555C350.472 15.667 350.492 15.7732 350.532 15.8735C350.574 15.9738 350.637 16.0567 350.721 16.122C350.805 16.185 350.909 16.2165 351.032 16.2165ZM352.402 16.5V14.645H352.735V14.9145H352.756C352.772 14.8865 352.799 14.848 352.836 14.799C352.876 14.75 352.932 14.7068 353.004 14.6695C353.077 14.6298 353.168 14.61 353.277 14.61C353.413 14.61 353.528 14.6415 353.624 14.7045C353.72 14.7652 353.792 14.848 353.841 14.953C353.892 15.058 353.918 15.1758 353.918 15.3065V16.5H353.585V15.3275C353.585 15.2038 353.55 15.1012 353.48 15.0195C353.413 14.9378 353.314 14.897 353.183 14.897C353.078 14.897 352.993 14.9238 352.927 14.9775C352.862 15.0288 352.813 15.0977 352.78 15.184C352.75 15.268 352.735 15.3578 352.735 15.4535V16.5H352.402ZM355.792 16.535C355.608 16.535 355.461 16.4778 355.351 16.3635C355.242 16.2492 355.187 16.0905 355.187 15.8875V14.645H355.519V15.87C355.519 15.9913 355.552 16.0847 355.617 16.15C355.685 16.2153 355.774 16.248 355.883 16.248C355.995 16.248 356.085 16.2188 356.153 16.1605C356.22 16.1022 356.269 16.0275 356.3 15.9365C356.33 15.8455 356.345 15.7522 356.345 15.6565V14.645H356.678V16.5H356.345V16.234H356.324C356.31 16.262 356.283 16.3005 356.244 16.3495C356.204 16.3962 356.148 16.4393 356.076 16.479C356.003 16.5163 355.909 16.535 355.792 16.535ZM357.19 17.186V14.645H357.522V14.939H357.543C357.571 14.8947 357.609 14.8468 357.655 14.7955C357.704 14.7442 357.768 14.701 357.848 14.666C357.927 14.6287 358.025 14.61 358.142 14.61C358.282 14.61 358.404 14.638 358.509 14.694C358.614 14.7477 358.702 14.8212 358.772 14.9145C358.842 15.0055 358.894 15.1082 358.929 15.2225C358.964 15.3368 358.982 15.4535 358.982 15.5725C358.982 15.6915 358.964 15.8082 358.929 15.9225C358.894 16.0368 358.842 16.1407 358.772 16.234C358.702 16.325 358.614 16.3985 358.509 16.4545C358.404 16.5082 358.282 16.535 358.142 16.535C358.025 16.535 357.927 16.5163 357.848 16.479C357.768 16.4417 357.704 16.3973 357.655 16.346C357.609 16.2947 357.571 16.248 357.543 16.206H357.522V17.186H357.19ZM357.529 15.5725C357.529 15.6845 357.549 15.793 357.589 15.898C357.631 16.0007 357.693 16.0858 357.774 16.1535C357.858 16.2188 357.962 16.2515 358.086 16.2515C358.212 16.2515 358.316 16.2188 358.397 16.1535C358.481 16.0858 358.543 16.0007 358.583 15.898C358.625 15.793 358.646 15.6845 358.646 15.5725C358.646 15.4582 358.625 15.3497 358.583 15.247C358.543 15.1443 358.481 15.0603 358.397 14.995C358.316 14.9273 358.212 14.8935 358.086 14.8935C357.962 14.8935 357.858 14.9273 357.774 14.995C357.693 15.0603 357.631 15.1443 357.589 15.247C357.549 15.3497 357.529 15.4582 357.529 15.5725Z" fill="white"/>
<path d="M-0.000488281 30.25H61.7495C64.5109 30.25 66.7495 32.4886 66.7495 35.25V334.75C66.7495 337.511 64.5109 339.75 61.7495 339.75H-0.000488281V30.25Z" fill="#0028FF" fill-opacity="0.8"/>
<path d="M12.0815 64.704V65.124H13.0835V64.704H12.0815ZM11.7155 62.538V67.968H12.2195V62.538H11.7155ZM8.25951 63.072V66.432H8.75751V63.072H8.25951ZM8.25951 66.174V66.594H8.69151C9.51351 66.594 10.3475 66.54 11.2715 66.348L11.2115 65.934C10.3175 66.12 9.49551 66.174 8.69151 66.174H8.25951ZM15.327 62.934C14.481 62.934 13.869 63.456 13.869 64.212C13.869 64.974 14.481 65.496 15.327 65.496C16.173 65.496 16.779 64.974 16.779 64.212C16.779 63.456 16.173 62.934 15.327 62.934ZM15.327 63.366C15.885 63.366 16.293 63.708 16.293 64.212C16.293 64.716 15.885 65.064 15.327 65.064C14.763 65.064 14.355 64.716 14.355 64.212C14.355 63.708 14.763 63.366 15.327 63.366ZM17.487 62.538V67.974H17.985V62.538H17.487ZM13.665 66.786C14.631 66.786 15.957 66.78 17.175 66.546L17.133 66.18C15.951 66.366 14.583 66.372 13.593 66.372L13.665 66.786ZM22.1261 63.468V63.702C22.1261 64.434 21.5861 65.094 20.7881 65.352L21.0281 65.742C21.9341 65.436 22.5341 64.644 22.5341 63.702V63.468H22.1261ZM22.2161 63.468V63.702C22.2161 64.59 22.8401 65.322 23.7521 65.604L23.9801 65.214C23.1821 64.98 22.6241 64.374 22.6241 63.702V63.468H22.2161ZM20.9261 63.198V63.6H23.8181V63.198H20.9261ZM22.1261 62.52V63.342H22.6241V62.52H22.1261ZM23.6561 64.086V64.5H24.8801V64.086H23.6561ZM24.7361 62.544V65.826H25.2341V62.544H24.7361ZM23.4521 65.97C22.3241 65.97 21.6401 66.336 21.6401 66.966C21.6401 67.59 22.3241 67.956 23.4521 67.956C24.5741 67.956 25.2581 67.59 25.2581 66.966C25.2581 66.336 24.5741 65.97 23.4521 65.97ZM23.4521 66.36C24.2681 66.36 24.7661 66.582 24.7661 66.966C24.7661 67.344 24.2681 67.566 23.4521 67.566C22.6301 67.566 22.1381 67.344 22.1381 66.966C22.1381 66.582 22.6301 66.36 23.4521 66.36ZM30.3516 63.366V63.786H31.2936V63.366H30.3516ZM30.3516 64.53V64.944H31.2936V64.53H30.3516ZM30.0036 62.544V65.766H30.5016V62.544H30.0036ZM26.9796 66.024V66.426H30.0036V67.968H30.5016V66.024H26.9796ZM27.8076 62.862C26.9916 62.862 26.3916 63.39 26.3916 64.152C26.3916 64.908 26.9916 65.43 27.8076 65.43C28.6236 65.43 29.2236 64.908 29.2236 64.152C29.2236 63.39 28.6236 62.862 27.8076 62.862ZM27.8076 63.288C28.3476 63.288 28.7376 63.636 28.7376 64.152C28.7376 64.662 28.3476 65.016 27.8076 65.016C27.2676 65.016 26.8776 64.662 26.8776 64.152C26.8776 63.636 27.2676 63.288 27.8076 63.288ZM36.3946 63.948V64.362H37.6186V63.948H36.3946ZM37.4626 62.544V65.778H37.9606V62.544H37.4626ZM36.1786 65.94C35.0566 65.94 34.3666 66.318 34.3666 66.954C34.3666 67.596 35.0566 67.962 36.1786 67.962C37.2946 67.962 37.9846 67.596 37.9846 66.954C37.9846 66.318 37.2946 65.94 36.1786 65.94ZM36.1786 66.33C36.9946 66.33 37.4926 66.558 37.4926 66.954C37.4926 67.344 36.9946 67.572 36.1786 67.572C35.3626 67.572 34.8646 67.344 34.8646 66.954C34.8646 66.558 35.3626 66.33 36.1786 66.33ZM34.8826 63.09V63.528C34.8826 64.308 34.3246 65.034 33.5206 65.328L33.7786 65.724C34.6786 65.388 35.2906 64.53 35.2906 63.528V63.09H34.8826ZM34.9786 63.09V63.528C34.9786 64.44 35.5606 65.256 36.4426 65.574L36.6946 65.178C35.9086 64.902 35.3806 64.23 35.3806 63.528V63.09H34.9786ZM33.6706 62.94V63.348H36.5686V62.94H33.6706ZM39.0222 66.864V67.278H43.9362V66.864H39.0222ZM41.2182 65.568V66.984H41.7162V65.568H41.2182ZM39.5982 62.928V65.7H43.3482V62.928H42.8562V63.894H40.0902V62.928H39.5982ZM40.0902 64.296H42.8562V65.292H40.0902V64.296Z" fill="white"/>
<path d="M12.0815 97.704V98.124H13.0835V97.704H12.0815ZM11.7155 95.538V100.968H12.2195V95.538H11.7155ZM8.25951 96.072V99.432H8.75751V96.072H8.25951ZM8.25951 99.174V99.594H8.69151C9.51351 99.594 10.3475 99.54 11.2715 99.348L11.2115 98.934C10.3175 99.12 9.49551 99.174 8.69151 99.174H8.25951ZM15.327 95.934C14.481 95.934 13.869 96.456 13.869 97.212C13.869 97.974 14.481 98.496 15.327 98.496C16.173 98.496 16.779 97.974 16.779 97.212C16.779 96.456 16.173 95.934 15.327 95.934ZM15.327 96.366C15.885 96.366 16.293 96.708 16.293 97.212C16.293 97.716 15.885 98.064 15.327 98.064C14.763 98.064 14.355 97.716 14.355 97.212C14.355 96.708 14.763 96.366 15.327 96.366ZM17.487 95.538V100.974H17.985V95.538H17.487ZM13.665 99.786C14.631 99.786 15.957 99.78 17.175 99.546L17.133 99.18C15.951 99.366 14.583 99.372 13.593 99.372L13.665 99.786ZM22.1141 96.318V97.2C22.1141 98.118 21.4601 99.15 20.6861 99.528L20.9741 99.924C21.8201 99.492 22.5101 98.328 22.5101 97.2V96.318H22.1141ZM22.2041 96.318V97.2C22.2041 98.274 22.8581 99.366 23.7161 99.792L23.9981 99.396C23.2121 99.024 22.6001 98.058 22.6001 97.2V96.318H22.2041ZM20.8781 96.096V96.516H23.8001V96.096H20.8781ZM24.4421 95.544V100.968H24.9461V95.544H24.4421ZM24.8261 97.734V98.154H25.8341V97.734H24.8261ZM27.6276 95.874V96.54C27.6276 97.38 27.0996 98.112 26.2716 98.406L26.5356 98.802C27.4476 98.448 28.0356 97.602 28.0356 96.54V95.874H27.6276ZM27.7116 95.874V96.558C27.7116 97.512 28.3116 98.34 29.2056 98.664L29.4516 98.274C28.6596 97.992 28.1196 97.296 28.1196 96.558V95.874H27.7116ZM30.0036 95.538V99.546H30.5016V95.538H30.0036ZM30.3456 97.206V97.62H31.3056V97.206H30.3456ZM27.1356 100.44V100.848H30.7416V100.44H27.1356ZM27.1356 99.168V100.638H27.6336V99.168H27.1356ZM36.3946 96.948V97.362H37.6186V96.948H36.3946ZM37.4626 95.544V98.778H37.9606V95.544H37.4626ZM36.1786 98.94C35.0566 98.94 34.3666 99.318 34.3666 99.954C34.3666 100.596 35.0566 100.962 36.1786 100.962C37.2946 100.962 37.9846 100.596 37.9846 99.954C37.9846 99.318 37.2946 98.94 36.1786 98.94ZM36.1786 99.33C36.9946 99.33 37.4926 99.558 37.4926 99.954C37.4926 100.344 36.9946 100.572 36.1786 100.572C35.3626 100.572 34.8646 100.344 34.8646 99.954C34.8646 99.558 35.3626 99.33 36.1786 99.33ZM34.8826 96.09V96.528C34.8826 97.308 34.3246 98.034 33.5206 98.328L33.7786 98.724C34.6786 98.388 35.2906 97.53 35.2906 96.528V96.09H34.8826ZM34.9786 96.09V96.528C34.9786 97.44 35.5606 98.256 36.4426 98.574L36.6946 98.178C35.9086 97.902 35.3806 97.23 35.3806 96.528V96.09H34.9786ZM33.6706 95.94V96.348H36.5686V95.94H33.6706ZM39.0222 99.864V100.278H43.9362V99.864H39.0222ZM41.2182 98.568V99.984H41.7162V98.568H41.2182ZM39.5982 95.928V98.7H43.3482V95.928H42.8562V96.894H40.0902V95.928H39.5982ZM40.0902 97.296H42.8562V98.292H40.0902V97.296Z" fill="white"/>
<path d="M10.1795 123.844V124.492H11.0975V123.844H10.1795ZM8.99151 122.458V123.394C8.99151 124.336 8.70351 125.326 7.88751 125.83L8.36751 126.43C9.25551 125.884 9.60351 124.654 9.60351 123.394V122.458H8.99151ZM9.16551 122.458V123.358C9.16551 124.558 9.44151 125.758 10.3235 126.304L10.7555 125.68C9.99951 125.188 9.76551 124.264 9.76551 123.358V122.458H9.16551ZM12.0035 121.978V127.534H12.7655V121.978H12.0035ZM10.8755 122.062V127.282H11.6195V122.062H10.8755ZM17.523 121.978V127.534H18.279V121.978H17.523ZM16.779 124.114V124.756H17.703V124.114H16.779ZM16.281 122.074V127.27H17.019V122.074H16.281ZM13.665 125.626V126.28H14.055C14.769 126.28 15.357 126.262 16.029 126.13L15.969 125.482C15.309 125.602 14.739 125.626 14.055 125.626H13.665ZM13.665 122.62V125.938H14.457V123.262H15.717V122.62H13.665ZM19.6046 122.302V122.932H23.0906V122.302H19.6046ZM19.0346 124.666V125.308H24.0566V124.666H19.0346ZM21.1166 125.116V127.54H21.9206V125.116H21.1166ZM22.6826 122.302V122.794C22.6826 123.37 22.6826 124.03 22.4666 124.96L23.2526 125.05C23.4686 124.066 23.4686 123.394 23.4686 122.794V122.302H22.6826ZM25.8381 122.266V122.764C25.8381 123.526 25.4481 124.276 24.5001 124.582L24.9141 125.224C26.0061 124.858 26.5041 123.88 26.5041 122.764V122.266H25.8381ZM26.0061 122.266V122.728C26.0061 123.808 26.4501 124.702 27.4761 125.056L27.8901 124.432C27.0081 124.15 26.6481 123.466 26.6481 122.728V122.266H26.0061ZM28.4001 121.978V125.23H29.1981V121.978H28.4001ZM27.3141 125.374C26.1381 125.374 25.4121 125.776 25.4121 126.454C25.4121 127.138 26.1381 127.534 27.3141 127.534C28.4901 127.534 29.2161 127.138 29.2161 126.454C29.2161 125.776 28.4901 125.374 27.3141 125.374ZM27.3141 125.992C28.0401 125.992 28.4241 126.142 28.4241 126.454C28.4241 126.766 28.0401 126.922 27.3141 126.922C26.5941 126.922 26.2101 126.766 26.2101 126.454C26.2101 126.142 26.5941 125.992 27.3141 125.992ZM27.3861 122.986V123.634H28.5141V122.986H27.3861ZM31.5136 124.828V126.046H32.3116V124.828H31.5136ZM33.9496 121.978V126.184H34.7476V121.978H33.9496ZM30.7456 126.802V127.438H34.8676V126.802H30.7456ZM30.7456 125.788V126.97H31.5436V125.788H30.7456ZM30.1456 125.068C31.1476 125.068 32.4496 125.038 33.6316 124.84L33.5836 124.27C32.4196 124.42 31.0636 124.432 30.0496 124.432L30.1456 125.068ZM32.8996 125.206V125.752H34.1236V125.206H32.8996ZM31.8376 122.17C31.0216 122.17 30.4516 122.572 30.4516 123.16C30.4516 123.754 31.0216 124.15 31.8376 124.15C32.6476 124.15 33.2176 123.754 33.2176 123.16C33.2176 122.572 32.6476 122.17 31.8376 122.17ZM31.8376 122.752C32.2036 122.752 32.4616 122.89 32.4616 123.16C32.4616 123.43 32.2036 123.568 31.8376 123.568C31.4656 123.568 31.2076 123.43 31.2076 123.16C31.2076 122.89 31.4656 122.752 31.8376 122.752ZM39.9878 123.322V123.97H41.0438V123.322H39.9878ZM40.8278 121.978V125.278H41.6258V121.978H40.8278ZM39.7418 125.398C38.5658 125.398 37.8398 125.8 37.8398 126.472C37.8398 127.15 38.5658 127.54 39.7418 127.54C40.9178 127.54 41.6438 127.15 41.6438 126.472C41.6438 125.8 40.9178 125.398 39.7418 125.398ZM39.7418 126.004C40.4678 126.004 40.8518 126.154 40.8518 126.472C40.8518 126.784 40.4678 126.934 39.7418 126.934C39.0218 126.934 38.6378 126.784 38.6378 126.472C38.6378 126.154 39.0218 126.004 39.7418 126.004ZM38.2598 122.536V122.884C38.2598 123.598 37.8638 124.336 36.9458 124.648L37.3538 125.278C38.4158 124.918 38.9078 123.946 38.9078 122.884V122.536H38.2598ZM38.4278 122.536V122.884C38.4278 123.874 38.9018 124.798 39.9338 125.14L40.3238 124.51C39.4478 124.216 39.0698 123.538 39.0698 122.884V122.536H38.4278ZM37.1618 122.314V122.95H40.1498V122.314H37.1618ZM42.5014 126.244V126.892H47.5294V126.244H42.5014ZM44.6074 125.056V126.4H45.4054V125.056H44.6074ZM43.0294 122.332V125.224H46.9834V122.332H46.1914V123.184H43.8214V122.332H43.0294ZM43.8214 123.808H46.1914V124.588H43.8214V123.808Z" fill="white"/>
<path d="M54 65L55.5 66.5L57 65" stroke="white" stroke-width="0.5" stroke-linecap="round" stroke-linejoin="round"/>
<path d="M54 97L55.5 98.5L57 97" stroke="white" stroke-width="0.5" stroke-linecap="round" stroke-linejoin="round"/>
<rect x="96.3745" y="49.375" width="256.25" height="267" rx="6.125" fill="white" stroke="#D3D3D3" stroke-width="0.25"/>
<path d="M166.125 149.375C166.125 146.476 168.476 144.125 171.375 144.125H251.875C254.774 144.125 257.125 146.476 257.125 149.375V153.156C257.125 156.056 254.774 158.406 251.875 158.406H171.375C168.476 158.406 166.125 156.056 166.125 153.156V149.375Z" fill="white" stroke="#BECBFF" stroke-width="0.25"/>
<path d="M166.125 204.125C166.125 201.226 168.476 198.875 171.375 198.875H251.875C254.774 198.875 257.125 201.226 257.125 204.125V207.906C257.125 210.806 254.774 213.156 251.875 213.156H171.375C168.476 213.156 166.125 210.806 166.125 207.906V204.125Z" fill="white" stroke="#BECBFF" stroke-width="0.25"/>
<path d="M166.875 244.875C166.875 241.976 169.226 239.625 172.125 239.625H252.625C255.524 239.625 257.875 241.976 257.875 244.875V248.656C257.875 251.556 255.524 253.906 252.625 253.906H172.125C169.226 253.906 166.875 251.556 166.875 248.656V244.875Z" fill="white" stroke="#BECBFF" stroke-width="0.25"/>
<path d="M165.375 271.125C165.375 268.226 167.725 265.875 170.625 265.875H251.125C254.024 265.875 256.375 268.226 256.375 271.125V274.906C256.375 277.806 254.024 280.156 251.125 280.156H170.625C167.725 280.156 165.375 277.806 165.375 274.906V271.125Z" fill="white" stroke="#BECBFF" stroke-width="0.25"/>
<path d="M166.125 183.125C166.125 180.226 168.476 177.875 171.375 177.875H203.875C206.774 177.875 209.125 180.226 209.125 183.125V186.906C209.125 189.806 206.774 192.156 203.875 192.156H171.375C168.476 192.156 166.125 189.806 166.125 186.906V183.125Z" fill="white" stroke="#BECBFF" stroke-width="0.25"/>
<path d="M223.375 183.125C223.375 180.226 225.725 177.875 228.625 177.875H261.125C264.024 177.875 266.375 180.226 266.375 183.125V186.906C266.375 189.806 264.024 192.156 261.125 192.156H228.625C225.725 192.156 223.375 189.806 223.375 186.906V183.125Z" fill="white" stroke="#BECBFF" stroke-width="0.25"/>
<path d="M114.314 66.262V74.515H115.511V66.262H114.314ZM119.389 71.023V71.95H126.922V71.023H119.389ZM122.557 70.231V71.401H123.754V70.231H122.557ZM120.298 73.48V74.407H126.076V73.48H120.298ZM120.298 72.346V74.065H121.495V72.346H120.298ZM119.749 66.892V67.792H126.535V66.892H119.749ZM123.16 68.026C121.387 68.026 120.37 68.467 120.37 69.295C120.37 70.123 121.387 70.573 123.16 70.573C124.933 70.573 125.95 70.123 125.95 69.295C125.95 68.467 124.933 68.026 123.16 68.026ZM123.16 68.863C124.24 68.863 124.726 68.989 124.726 69.295C124.726 69.601 124.24 69.727 123.16 69.727C122.071 69.727 121.594 69.601 121.594 69.295C121.594 68.989 122.071 68.863 123.16 68.863ZM122.557 66.181V67.468H123.754V66.181H122.557ZM133.392 66.226V72.211H134.598V66.226H133.392ZM129.045 73.453V74.407H134.805V73.453H129.045ZM129.045 71.608V73.84H130.242V71.608H129.045ZM130.062 66.748C128.784 66.748 127.794 67.63 127.794 68.863C127.794 70.087 128.784 70.978 130.062 70.978C131.34 70.978 132.321 70.087 132.321 68.863C132.321 67.63 131.34 66.748 130.062 66.748ZM130.062 67.783C130.674 67.783 131.151 68.179 131.151 68.863C131.151 69.538 130.674 69.934 130.062 69.934C129.441 69.934 128.964 69.538 128.964 68.863C128.964 68.179 129.441 67.783 130.062 67.783ZM141.756 67.918V68.881H144.024V67.918H141.756ZM141.756 70.501V71.464H144.024V70.501H141.756ZM140.316 66.793C139.065 66.793 138.165 67.945 138.165 69.763C138.165 71.599 139.065 72.751 140.316 72.751C141.558 72.751 142.467 71.599 142.467 69.763C142.467 67.945 141.558 66.793 140.316 66.793ZM140.316 67.882C140.928 67.882 141.333 68.539 141.333 69.763C141.333 71.005 140.928 71.671 140.316 71.671C139.713 71.671 139.299 71.005 139.299 69.763C139.299 68.539 139.713 67.882 140.316 67.882ZM143.835 66.208V74.569H145.023V66.208H143.835ZM146.31 71.014V71.959H153.861V71.014H146.31ZM149.46 71.491V74.551H150.648V71.491H149.46ZM147.174 66.532V70.222H152.97V66.532H151.782V67.477H148.362V66.532H147.174ZM148.362 68.413H151.782V69.268H148.362V68.413Z" fill="black"/>
<path d="M114.314 126.262V134.515H115.511V126.262H114.314ZM119.623 126.955V132.58H122.917V126.955H121.81V128.827H120.748V126.955H119.623ZM120.748 129.763H121.81V131.626H120.748V129.763ZM125.41 126.217V134.551H126.553V126.217H125.41ZM124.384 129.394V130.357H125.77V129.394H124.384ZM123.583 126.343V134.173H124.708V126.343H123.583ZM127.668 130.879V131.842H135.219V130.879H127.668ZM130.818 131.5V134.56H132.006V131.5H130.818ZM131.421 126.496C129.648 126.496 128.415 127.234 128.415 128.377C128.415 129.511 129.648 130.24 131.421 130.24C133.203 130.24 134.436 129.511 134.436 128.377C134.436 127.234 133.203 126.496 131.421 126.496ZM131.421 127.45C132.519 127.45 133.203 127.774 133.203 128.377C133.203 128.971 132.519 129.295 131.421 129.295C130.332 129.295 129.639 128.971 129.639 128.377C129.639 127.774 130.332 127.45 131.421 127.45ZM137.819 127.531V128.467C137.819 129.835 137.144 131.392 135.767 132.04L136.442 132.985C137.972 132.265 138.764 130.348 138.764 128.467V127.531H137.819ZM138.071 127.531V128.467C138.071 130.24 138.845 132.067 140.375 132.778L141.032 131.833C139.664 131.203 139.016 129.727 139.016 128.467V127.531H138.071ZM136.091 127.018V127.999H140.663V127.018H136.091ZM141.275 126.217V134.551H142.481V126.217H141.275ZM142.211 129.394V130.384H143.687V129.394H142.211ZM150.828 128.233V129.205H152.412V128.233H150.828ZM152.088 126.217V131.167H153.285V126.217H152.088ZM150.459 131.347C148.695 131.347 147.606 131.95 147.606 132.958C147.606 133.975 148.695 134.56 150.459 134.56C152.223 134.56 153.312 133.975 153.312 132.958C153.312 131.95 152.223 131.347 150.459 131.347ZM150.459 132.256C151.548 132.256 152.124 132.481 152.124 132.958C152.124 133.426 151.548 133.651 150.459 133.651C149.379 133.651 148.803 133.426 148.803 132.958C148.803 132.481 149.379 132.256 150.459 132.256ZM148.236 127.054V127.576C148.236 128.647 147.642 129.754 146.265 130.222L146.877 131.167C148.47 130.627 149.208 129.169 149.208 127.576V127.054H148.236ZM148.488 127.054V127.576C148.488 129.061 149.199 130.447 150.747 130.96L151.332 130.015C150.018 129.574 149.451 128.557 149.451 127.576V127.054H148.488ZM146.589 126.721V127.675H151.071V126.721H146.589ZM154.598 132.616V133.588H162.14V132.616H154.598ZM157.757 130.834V132.85H158.954V130.834H157.757ZM155.39 126.748V131.086H161.321V126.748H160.133V128.026H156.578V126.748H155.39ZM156.578 128.962H160.133V130.132H156.578V128.962Z" fill="black"/>
<path d="M146.71 91.352V91.766H147.766V91.352H146.71ZM146.71 93.002V93.416H147.766V93.002H146.71ZM148.678 90.044V95.468H149.158V90.044H148.678ZM147.616 90.158V95.198H148.084V90.158H147.616ZM145.768 90.494C145.066 90.494 144.616 91.22 144.616 92.384C144.616 93.548 145.066 94.274 145.768 94.274C146.47 94.274 146.926 93.548 146.926 92.384C146.926 91.22 146.47 90.494 145.768 90.494ZM145.768 90.956C146.2 90.956 146.47 91.508 146.47 92.384C146.47 93.26 146.2 93.812 145.768 93.812C145.342 93.812 145.066 93.26 145.066 92.384C145.066 91.508 145.342 90.956 145.768 90.956Z" fill="black"/>
<path d="M183.71 167.852V168.266H184.766V167.852H183.71ZM183.71 169.502V169.916H184.766V169.502H183.71ZM185.678 166.544V171.968H186.158V166.544H185.678ZM184.616 166.658V171.698H185.084V166.658H184.616ZM182.768 166.994C182.066 166.994 181.616 167.72 181.616 168.884C181.616 170.048 182.066 170.774 182.768 170.774C183.47 170.774 183.926 170.048 183.926 168.884C183.926 167.72 183.47 166.994 182.768 166.994ZM182.768 167.456C183.2 167.456 183.47 168.008 183.47 168.884C183.47 169.76 183.2 170.312 182.768 170.312C182.342 170.312 182.066 169.76 182.066 168.884C182.066 168.008 182.342 167.456 182.768 167.456Z" fill="black"/>
<path d="M190.96 226.352V226.766H192.016V226.352H190.96ZM190.96 228.002V228.416H192.016V228.002H190.96ZM192.928 225.044V230.468H193.408V225.044H192.928ZM191.866 225.158V230.198H192.334V225.158H191.866ZM190.018 225.494C189.316 225.494 188.866 226.22 188.866 227.384C188.866 228.548 189.316 229.274 190.018 229.274C190.72 229.274 191.176 228.548 191.176 227.384C191.176 226.22 190.72 225.494 190.018 225.494ZM190.018 225.956C190.45 225.956 190.72 226.508 190.72 227.384C190.72 228.26 190.45 228.812 190.018 228.812C189.592 228.812 189.316 228.26 189.316 227.384C189.316 226.508 189.592 225.956 190.018 225.956Z" fill="black"/>
<path d="M206.24 90.708C205.442 90.708 204.878 91.446 204.878 92.598C204.878 93.756 205.442 94.494 206.24 94.494C207.038 94.494 207.602 93.756 207.602 92.598C207.602 91.446 207.038 90.708 206.24 90.708ZM206.24 91.158C206.762 91.158 207.128 91.722 207.128 92.598C207.128 93.48 206.762 94.056 206.24 94.056C205.712 94.056 205.352 93.48 205.352 92.598C205.352 91.722 205.712 91.158 206.24 91.158ZM208.466 90.294V95.718H208.97V90.294H208.466ZM208.85 92.46V92.88H209.858V92.46H208.85ZM214.262 90.294V95.718H214.76V90.294H214.262ZM210.662 90.822V94.182H211.154V90.822H210.662ZM210.662 93.888V94.32H211.106C211.964 94.32 212.822 94.254 213.764 94.062L213.704 93.636C212.786 93.828 211.928 93.888 211.106 93.888H210.662ZM218.035 93.36V94.71H218.533V93.36H218.035ZM218.287 90.648C217.141 90.648 216.313 91.206 216.313 92.07C216.313 92.934 217.141 93.492 218.287 93.492C219.433 93.492 220.255 92.934 220.255 92.07C220.255 91.206 219.433 90.648 218.287 90.648ZM218.287 91.044C219.145 91.044 219.775 91.452 219.775 92.07C219.775 92.688 219.145 93.096 218.287 93.096C217.423 93.096 216.793 92.688 216.793 92.07C216.793 91.452 217.423 91.044 218.287 91.044ZM215.839 94.614V95.028H220.753V94.614H215.839Z" fill="black"/>
<path d="M222.99 166.958C222.192 166.958 221.628 167.696 221.628 168.848C221.628 170.006 222.192 170.744 222.99 170.744C223.788 170.744 224.352 170.006 224.352 168.848C224.352 167.696 223.788 166.958 222.99 166.958ZM222.99 167.408C223.512 167.408 223.878 167.972 223.878 168.848C223.878 169.73 223.512 170.306 222.99 170.306C222.462 170.306 222.102 169.73 222.102 168.848C222.102 167.972 222.462 167.408 222.99 167.408ZM225.216 166.544V171.968H225.72V166.544H225.216ZM225.6 168.71V169.13H226.608V168.71H225.6ZM231.011 166.544V171.968H231.509V166.544H231.011ZM227.411 167.072V170.432H227.903V167.072H227.411ZM227.411 170.138V170.57H227.855C228.713 170.57 229.571 170.504 230.513 170.312L230.453 169.886C229.535 170.078 228.677 170.138 227.855 170.138H227.411ZM234.785 169.61V170.96H235.283V169.61H234.785ZM235.037 166.898C233.891 166.898 233.063 167.456 233.063 168.32C233.063 169.184 233.891 169.742 235.037 169.742C236.183 169.742 237.005 169.184 237.005 168.32C237.005 167.456 236.183 166.898 235.037 166.898ZM235.037 167.294C235.895 167.294 236.525 167.702 236.525 168.32C236.525 168.938 235.895 169.346 235.037 169.346C234.173 169.346 233.543 168.938 233.543 168.32C233.543 167.702 234.173 167.294 235.037 167.294ZM232.589 170.864V171.278H237.503V170.864H232.589Z" fill="black"/>
<path d="M232.99 225.958C232.192 225.958 231.628 226.696 231.628 227.848C231.628 229.006 232.192 229.744 232.99 229.744C233.788 229.744 234.352 229.006 234.352 227.848C234.352 226.696 233.788 225.958 232.99 225.958ZM232.99 226.408C233.512 226.408 233.878 226.972 233.878 227.848C233.878 228.73 233.512 229.306 232.99 229.306C232.462 229.306 232.102 228.73 232.102 227.848C232.102 226.972 232.462 226.408 232.99 226.408ZM235.216 225.544V230.968H235.72V225.544H235.216ZM235.6 227.71V228.13H236.608V227.71H235.6ZM241.012 225.544V230.968H241.51V225.544H241.012ZM237.412 226.072V229.432H237.904V226.072H237.412ZM237.412 229.138V229.57H237.856C238.714 229.57 239.572 229.504 240.514 229.312L240.454 228.886C239.536 229.078 238.678 229.138 237.856 229.138H237.412ZM244.785 228.61V229.96H245.283V228.61H244.785ZM245.037 225.898C243.891 225.898 243.063 226.456 243.063 227.32C243.063 228.184 243.891 228.742 245.037 228.742C246.183 228.742 247.005 228.184 247.005 227.32C247.005 226.456 246.183 225.898 245.037 225.898ZM245.037 226.294C245.895 226.294 246.525 226.702 246.525 227.32C246.525 227.938 245.895 228.346 245.037 228.346C244.173 228.346 243.543 227.938 243.543 227.32C243.543 226.702 244.173 226.294 245.037 226.294ZM242.589 229.864V230.278H247.503V229.864H242.589Z" fill="black"/>
<g clip-path="url(#clip1_422_5585)">
<path d="M196.75 95.25C198.13 95.25 199.25 94.1307 199.25 92.75C199.25 91.3693 198.13 90.25 196.75 90.25C195.369 90.25 194.25 91.3693 194.25 92.75C194.25 94.1307 195.369 95.25 196.75 95.25Z" stroke="black" stroke-width="0.5" stroke-linecap="round" stroke-linejoin="round"/>
</g>
<g clip-path="url(#clip2_422_5585)">
<path d="M212.25 171.75C213.63 171.75 214.75 170.631 214.75 169.25C214.75 167.869 213.63 166.75 212.25 166.75C210.869 166.75 209.75 167.869 209.75 169.25C209.75 170.631 210.869 171.75 212.25 171.75Z" stroke="black" stroke-width="0.5" stroke-linecap="round" stroke-linejoin="round"/>
</g>
<g clip-path="url(#clip3_422_5585)">
<path d="M222.5 231C223.88 231 225 229.88 225 228.5C225 227.119 223.88 226 222.5 226C221.119 226 220 227.119 220 228.5C220 229.88 221.119 231 222.5 231Z" stroke="black" stroke-width="0.5" stroke-linecap="round" stroke-linejoin="round"/>
</g>
<g clip-path="url(#clip4_422_5585)">
<path d="M136.5 95C137.881 95 139 93.8807 139 92.5C139 91.1193 137.881 90 136.5 90C135.119 90 134 91.1193 134 92.5C134 93.8807 135.119 95 136.5 95Z" fill="black" stroke="black" stroke-width="0.5" stroke-linecap="round" stroke-linejoin="round"/>
</g>
<g clip-path="url(#clip5_422_5585)">
<path d="M172.25 172C173.631 172 174.75 170.881 174.75 169.5C174.75 168.119 173.631 167 172.25 167C170.869 167 169.75 168.119 169.75 169.5C169.75 170.881 170.869 172 172.25 172Z" fill="black" stroke="black" stroke-width="0.5" stroke-linecap="round" stroke-linejoin="round"/>
</g>
<g clip-path="url(#clip6_422_5585)">
<path d="M179.75 230.5C181.13 230.5 182.25 229.381 182.25 228C182.25 226.619 181.13 225.5 179.75 225.5C178.369 225.5 177.25 226.619 177.25 228C177.25 229.381 178.369 230.5 179.75 230.5Z" fill="black" stroke="black" stroke-width="0.5" stroke-linecap="round" stroke-linejoin="round"/>
</g>
<rect x="289.75" y="288.25" width="45" height="16.25" rx="8.125" fill="#0028FF"/>
<path d="M306.637 294.365V298.895H307.047V294.365H306.637ZM305.662 296.015V296.355H306.757V296.015H305.662ZM304.477 295.015V295.69C304.477 296.495 303.942 297.35 303.292 297.67L303.537 298C304.252 297.63 304.812 296.665 304.812 295.69V295.015H304.477ZM304.562 295.015V295.69C304.562 296.62 305.112 297.55 305.827 297.905L306.072 297.58C305.417 297.27 304.892 296.445 304.892 295.69V295.015H304.562ZM303.457 294.83V295.175H305.917V294.83H303.457ZM309.021 294.855V295.22C309.021 295.865 308.571 296.45 307.891 296.69L308.101 297.02C308.861 296.745 309.361 296.05 309.361 295.22V294.855H309.021ZM309.096 294.855V295.215C309.096 295.985 309.576 296.63 310.331 296.88L310.531 296.555C309.866 296.335 309.436 295.805 309.436 295.215V294.855H309.096ZM308.016 294.705V295.045H310.431V294.705H308.016ZM311.001 294.37V297.095H311.416V294.37H311.001ZM311.301 295.515V295.865H312.086V295.515H311.301ZM309.976 297.215C309.056 297.215 308.491 297.52 308.491 298.045C308.491 298.575 309.056 298.88 309.976 298.88C310.896 298.88 311.461 298.575 311.461 298.045C311.461 297.52 310.896 297.215 309.976 297.215ZM309.976 297.55C310.646 297.55 311.056 297.73 311.056 298.045C311.056 298.365 310.646 298.555 309.976 298.555C309.306 298.555 308.896 298.365 308.896 298.045C308.896 297.73 309.306 297.55 309.976 297.55ZM315.55 294.37V298.89H315.965V294.37H315.55ZM315.865 296.225V296.575H316.705V296.225H315.865ZM312.465 295.09V295.43H315.13V295.09H312.465ZM313.815 295.805C313.18 295.805 312.715 296.235 312.715 296.845C312.715 297.455 313.18 297.885 313.815 297.885C314.455 297.885 314.915 297.455 314.915 296.845C314.915 296.235 314.455 295.805 313.815 295.805ZM313.815 296.15C314.225 296.15 314.52 296.435 314.52 296.845C314.52 297.25 314.225 297.54 313.815 297.54C313.405 297.54 313.11 297.25 313.11 296.845C313.11 296.435 313.405 296.15 313.815 296.15ZM313.6 294.425V295.245H314.015V294.425H313.6ZM320.359 294.37V298.89H320.774V294.37H320.359ZM319.034 294.855V294.925C319.034 296.125 318.429 297.085 317.124 297.715L317.344 298.05C318.854 297.31 319.444 296.165 319.444 294.855H319.034ZM317.329 294.855V295.195H319.214V294.855H317.329Z" fill="white"/>
<path d="M126.736 148.288V153.724H127.234V148.288H126.736ZM124.372 148.708C123.574 148.708 122.998 149.446 122.998 150.598C122.998 151.756 123.574 152.494 124.372 152.494C125.176 152.494 125.752 151.756 125.752 150.598C125.752 149.446 125.176 148.708 124.372 148.708ZM124.372 149.158C124.906 149.158 125.272 149.722 125.272 150.598C125.272 151.48 124.906 152.056 124.372 152.056C123.844 152.056 123.472 151.48 123.472 150.598C123.472 149.722 123.844 149.158 124.372 149.158ZM128.314 151.09V151.498H133.234V151.09H128.314ZM128.938 148.426V148.816H132.112V149.344H128.95V150.43H129.442V149.71H132.598V148.426H128.938ZM128.95 150.238V150.628H132.718V150.238H128.95ZM128.974 151.99V153.646H132.604V151.99H128.974ZM132.118 152.386V153.244H129.46V152.386H132.118Z" fill="black"/>
<path d="M124.972 183.578V183.806C124.972 184.52 124.042 185.144 123.088 185.282L123.28 185.678C124.372 185.492 125.404 184.778 125.404 183.806V183.578H124.972ZM125.098 183.578V183.806C125.098 184.778 126.124 185.492 127.222 185.678L127.408 185.282C126.46 185.144 125.524 184.52 125.524 183.806V183.578H125.098ZM124.99 186.398V188.468H125.482V186.398H124.99ZM122.8 186.134V186.542H127.702V186.134H122.8ZM123.256 183.38V183.782H127.228V183.38H123.256ZM128.602 183.512V186.038H131.128V183.512H128.602ZM130.648 183.914V185.636H129.082V183.914H130.648ZM132.262 183.05V186.944H132.766V183.05H132.262ZM129.28 187.88V188.294H132.928V187.88H129.28ZM129.28 186.572V188.048H129.772V186.572H129.28ZM133.839 185.624V186.038H138.741V185.624H133.839ZM134.457 184.706V185.108H138.171V184.706H134.457ZM134.457 183.26V184.898H134.949V183.668H138.129V183.26H134.457ZM136.281 186.506C135.123 186.506 134.421 186.86 134.421 187.484C134.421 188.108 135.123 188.456 136.281 188.456C137.439 188.456 138.141 188.108 138.141 187.484C138.141 186.86 137.439 186.506 136.281 186.506ZM136.281 186.89C137.133 186.89 137.637 187.106 137.637 187.484C137.637 187.856 137.133 188.066 136.281 188.066C135.435 188.066 134.925 187.856 134.925 187.484C134.925 187.106 135.435 186.89 136.281 186.89ZM139.353 186.026V186.434H144.273V186.026H139.353ZM139.977 183.182V183.572H143.151V184.13H139.989V185.228H140.481V184.496H143.637V183.182H139.977ZM139.989 185.066V185.456H143.757V185.066H139.989ZM141.561 185.27V186.23H142.059V185.27H141.561ZM139.899 186.848V187.256H143.175V188.42H143.673V186.848H139.899ZM147.434 184.574V184.982H148.994V184.574H147.434ZM148.838 183.05V187.064H149.336V183.05H148.838ZM145.85 187.94V188.348H149.468V187.94H145.85ZM145.85 186.674V188.15H146.348V186.674H145.85ZM145.142 183.404V186.14H147.59V183.404H147.104V184.364H145.634V183.404H145.142ZM145.634 184.754H147.104V185.732H145.634V184.754ZM150.638 183.836V184.244H155.042V183.836H150.638ZM150.398 187.424V187.838H155.312V187.424H150.398ZM152.6 186.566V187.586H153.092V186.566H152.6ZM152.84 184.61C151.748 184.61 151.07 184.988 151.07 185.642C151.07 186.296 151.748 186.674 152.84 186.674C153.938 186.674 154.616 186.296 154.616 185.642C154.616 184.988 153.938 184.61 152.84 184.61ZM152.84 185C153.632 185 154.112 185.24 154.112 185.642C154.112 186.044 153.632 186.278 152.84 186.278C152.054 186.278 151.568 186.044 151.568 185.642C151.568 185.24 152.054 185 152.84 185ZM152.6 183.134V184.088H153.092V183.134H152.6Z" fill="black"/>
<path d="M122.794 205.742V206.144H127.696V205.742H122.794ZM125.002 205.166V205.922H125.494V205.166H125.002ZM123.43 207.452V207.848H127.156V207.452H123.43ZM123.43 206.498V207.668H123.928V206.498H123.43ZM123.052 203.042V203.432H127.414V203.042H123.052ZM125.248 203.666C124.138 203.666 123.496 203.954 123.496 204.494C123.496 205.028 124.138 205.316 125.248 205.316C126.358 205.316 127 205.028 127 204.494C127 203.954 126.358 203.666 125.248 203.666ZM125.248 204.032C126.046 204.032 126.496 204.194 126.496 204.494C126.496 204.788 126.046 204.95 125.248 204.95C124.444 204.95 124 204.788 124 204.494C124 204.194 124.444 204.032 125.248 204.032ZM125.002 202.484V203.258H125.494V202.484H125.002ZM132.262 202.55V206.51H132.766V202.55H132.262ZM129.28 207.44V207.848H132.928V207.44H129.28ZM129.28 206.102V207.578H129.772V206.102H129.28ZM129.856 202.922C129.046 202.922 128.44 203.474 128.44 204.26C128.44 205.04 129.046 205.598 129.856 205.598C130.666 205.598 131.266 205.04 131.266 204.26C131.266 203.474 130.666 202.922 129.856 202.922ZM129.856 203.354C130.384 203.354 130.786 203.726 130.786 204.26C130.786 204.788 130.384 205.16 129.856 205.16C129.328 205.16 128.926 204.788 128.926 204.26C128.926 203.726 129.328 203.354 129.856 203.354ZM137.781 202.55V206.522H138.285V202.55H137.781ZM134.799 207.44V207.848H138.447V207.44H134.799ZM134.799 206.156V207.632H135.291V206.156H134.799ZM135.249 202.844V203.396C135.249 204.236 134.709 205.028 133.893 205.346L134.151 205.748C135.063 205.376 135.663 204.452 135.663 203.396V202.844H135.249ZM135.339 202.844V203.396C135.339 204.428 135.939 205.298 136.839 205.646L137.103 205.244C136.293 204.95 135.747 204.212 135.747 203.396V202.844H135.339ZM139.875 203.084V203.498H143.367V203.084H139.875ZM139.359 206.798V207.212H144.261V206.798H139.359ZM141.261 204.86V207.002H141.759V204.86H141.261ZM143.181 203.084V203.624C143.181 204.272 143.181 205.034 142.977 206.072L143.475 206.138C143.673 205.04 143.673 204.296 143.673 203.624V203.084H143.181ZM146.396 202.742C145.592 202.742 144.998 203.234 144.998 203.948C144.998 204.656 145.592 205.148 146.396 205.148C147.206 205.148 147.8 204.656 147.8 203.948C147.8 203.234 147.206 202.742 146.396 202.742ZM146.396 203.15C146.924 203.15 147.314 203.48 147.314 203.948C147.314 204.416 146.924 204.74 146.396 204.74C145.874 204.74 145.478 204.416 145.478 203.948C145.478 203.48 145.874 203.15 146.396 203.15ZM148.82 202.544V205.322H149.324V202.544H148.82ZM145.814 205.586V205.988H148.832V206.534H145.826V207.722H146.312V206.906H149.324V205.586H145.814ZM145.826 207.5V207.896H149.504V207.5H145.826Z" fill="black"/>
<path d="M124.15 224.968V225.202C124.15 225.934 123.61 226.594 122.812 226.852L123.052 227.242C123.958 226.936 124.558 226.144 124.558 225.202V224.968H124.15ZM124.24 224.968V225.202C124.24 226.09 124.864 226.822 125.776 227.104L126.004 226.714C125.206 226.48 124.648 225.874 124.648 225.202V224.968H124.24ZM122.95 224.698V225.1H125.842V224.698H122.95ZM124.15 224.02V224.842H124.648V224.02H124.15ZM125.68 225.586V226H126.904V225.586H125.68ZM126.76 224.044V227.326H127.258V224.044H126.76ZM125.476 227.47C124.348 227.47 123.664 227.836 123.664 228.466C123.664 229.09 124.348 229.456 125.476 229.456C126.598 229.456 127.282 229.09 127.282 228.466C127.282 227.836 126.598 227.47 125.476 227.47ZM125.476 227.86C126.292 227.86 126.79 228.082 126.79 228.466C126.79 228.844 126.292 229.066 125.476 229.066C124.654 229.066 124.162 228.844 124.162 228.466C124.162 228.082 124.654 227.86 125.476 227.86ZM132.376 224.866V225.286H133.318V224.866H132.376ZM132.376 226.03V226.444H133.318V226.03H132.376ZM132.028 224.044V227.266H132.526V224.044H132.028ZM129.004 227.524V227.926H132.028V229.468H132.526V227.524H129.004ZM129.832 224.362C129.016 224.362 128.416 224.89 128.416 225.652C128.416 226.408 129.016 226.93 129.832 226.93C130.648 226.93 131.248 226.408 131.248 225.652C131.248 224.89 130.648 224.362 129.832 224.362ZM129.832 224.788C130.372 224.788 130.762 225.136 130.762 225.652C130.762 226.162 130.372 226.516 129.832 226.516C129.292 226.516 128.902 226.162 128.902 225.652C128.902 225.136 129.292 224.788 129.832 224.788ZM138.918 224.044V227.266H139.416V224.044H138.918ZM139.272 225.454V225.868H140.214V225.454H139.272ZM137.682 227.38C136.584 227.38 135.9 227.77 135.9 228.424C135.9 229.078 136.584 229.462 137.682 229.462C138.78 229.462 139.464 229.078 139.464 228.424C139.464 227.77 138.78 227.38 137.682 227.38ZM137.682 227.788C138.486 227.788 138.978 228.016 138.978 228.424C138.978 228.82 138.486 229.054 137.682 229.054C136.878 229.054 136.386 228.82 136.386 228.424C136.386 228.016 136.878 227.788 137.682 227.788ZM135.444 226.432V226.84H135.864C137.01 226.84 137.652 226.804 138.402 226.654L138.342 226.246C137.616 226.396 136.986 226.432 135.864 226.432H135.444ZM135.444 224.458V226.696H135.936V224.866H137.838V224.458H135.444ZM142.074 224.956V225.19C142.074 225.904 141.528 226.534 140.724 226.78L140.964 227.17C141.87 226.876 142.482 226.12 142.482 225.19V224.956H142.074ZM142.164 224.956V225.19C142.164 226.084 142.788 226.798 143.7 227.074L143.934 226.678C143.13 226.444 142.572 225.862 142.572 225.19V224.956H142.164ZM140.874 224.68V225.082H143.766V224.68H140.874ZM142.074 224.02V224.842H142.572V224.02H142.074ZM143.616 225.556V225.97H144.822V225.556H143.616ZM144.684 224.044V227.254H145.182V224.044H144.684ZM141.666 227.536V229.396H145.182V227.536H141.666ZM144.696 227.932V228.994H142.152V227.932H144.696ZM151.545 224.038V229.474H152.043V224.038H151.545ZM149.181 224.458C148.383 224.458 147.807 225.196 147.807 226.348C147.807 227.506 148.383 228.244 149.181 228.244C149.985 228.244 150.561 227.506 150.561 226.348C150.561 225.196 149.985 224.458 149.181 224.458ZM149.181 224.908C149.715 224.908 150.081 225.472 150.081 226.348C150.081 227.23 149.715 227.806 149.181 227.806C148.653 227.806 148.281 227.23 148.281 226.348C148.281 225.472 148.653 224.908 149.181 224.908ZM153.35 226.732V227.14H153.74C154.826 227.14 155.366 227.122 156.038 227.002L155.984 226.6C155.336 226.714 154.808 226.732 153.74 226.732H153.35ZM153.338 224.368V224.776H155.186V225.52H153.35V226.978H153.842V225.91H155.678V224.368H153.338ZM157.088 224.05V227.38H157.586V224.05H157.088ZM156.038 224.848V225.256H157.202V224.848H156.038ZM156.038 225.97V226.378H157.202V225.97H156.038ZM153.956 227.674V228.082H157.088V229.48H157.586V227.674H153.956Z" fill="black"/>
<path d="M125.002 272.538V273.504H125.5V272.538H125.002ZM127.492 270.294V273.486H127.99V270.294H127.492ZM123.592 272.706C124.606 272.706 125.902 272.694 127.09 272.52L127.06 272.196C125.902 272.328 124.576 272.334 123.532 272.334L123.592 272.706ZM124.354 273.684V274.044H127.498V274.482H124.366V275.424H124.852V274.812H127.99V273.684H124.354ZM124.366 275.298V275.658H128.17V275.298H124.366ZM126.412 272.874V273.198H127.648V272.874H126.412ZM125.284 270.396C124.474 270.396 123.946 270.708 123.946 271.212C123.946 271.716 124.474 272.028 125.284 272.028C126.088 272.028 126.616 271.716 126.616 271.212C126.616 270.708 126.088 270.396 125.284 270.396ZM125.284 270.744C125.806 270.744 126.148 270.924 126.148 271.212C126.148 271.5 125.806 271.68 125.284 271.68C124.75 271.68 124.408 271.5 124.408 271.212C124.408 270.924 124.75 270.744 125.284 270.744ZM133.507 271.26V271.668H134.671V271.26H133.507ZM133.507 272.232V272.64H134.671V272.232H133.507ZM130.591 270.702V271.11H133.447V270.702H130.591ZM130.501 273.318C131.383 273.318 132.601 273.306 133.645 273.138L133.615 272.766C132.601 272.886 131.335 272.898 130.447 272.898L130.501 273.318ZM131.131 271.02V273.036H131.611V271.02H131.131ZM132.427 271.02V273.036H132.907V271.02H132.427ZM134.395 270.294V273.642H134.893V270.294H134.395ZM133.111 273.75C131.983 273.75 131.299 274.104 131.299 274.728C131.299 275.352 131.983 275.706 133.111 275.706C134.233 275.706 134.917 275.352 134.917 274.728C134.917 274.104 134.233 273.75 133.111 273.75ZM133.111 274.14C133.933 274.14 134.425 274.356 134.425 274.728C134.425 275.1 133.933 275.322 133.111 275.322C132.289 275.322 131.797 275.1 131.797 274.728C131.797 274.356 132.289 274.14 133.111 274.14ZM136.566 270.582V270.99H140.028V270.582H136.566ZM135.954 272.622V273.03H140.868V272.622H135.954ZM137.586 272.88V274.338H138.072V272.88H137.586ZM139.746 270.582V270.996C139.746 271.464 139.746 271.992 139.584 272.748L140.07 272.802C140.232 272.034 140.232 271.476 140.232 270.996V270.582H139.746ZM136.542 275.19V275.598H140.382V275.19H136.542ZM136.542 273.894V275.292H137.04V273.894H136.542ZM139.02 272.88V274.338H139.506V272.88H139.02ZM142.839 274.602V275.016H147.753V274.602H142.839ZM145.023 273.288V274.74H145.515V273.288H145.023ZM145.011 270.654V271.074C145.011 271.968 143.985 272.766 143.031 272.94L143.241 273.354C144.333 273.126 145.443 272.232 145.443 271.074V270.654H145.011ZM145.101 270.654V271.074C145.101 272.232 146.211 273.126 147.303 273.354L147.519 272.94C146.565 272.766 145.533 271.974 145.533 271.074V270.654H145.101ZM148.359 272.934V273.336H153.261V272.934H148.359ZM148.899 273.984V274.392H152.163V275.748H152.661V273.984H148.899ZM148.977 271.932V272.334H152.697V271.932H148.977ZM148.977 270.498V272.136H149.475V270.906H152.649V270.498H148.977Z" fill="black"/>
<path d="M261.836 273.774V274.98H262.334V273.774H261.836ZM264.242 271.044V275.172H264.74V271.044H264.242ZM261.038 275.94V276.348H264.872V275.94H261.038ZM261.038 274.77V276.054H261.536V274.77H261.038ZM260.336 273.96C261.32 273.96 262.634 273.942 263.804 273.756L263.768 273.39C262.616 273.54 261.272 273.552 260.27 273.552L260.336 273.96ZM263.138 274.248V274.614H264.368V274.248H263.138ZM262.034 271.266C261.236 271.266 260.696 271.638 260.696 272.208C260.696 272.784 261.236 273.156 262.034 273.156C262.826 273.156 263.366 272.784 263.366 272.208C263.366 271.638 262.826 271.266 262.034 271.266ZM262.034 271.638C262.538 271.638 262.892 271.86 262.892 272.208C262.892 272.556 262.538 272.778 262.034 272.778C261.524 272.778 261.17 272.556 261.17 272.208C261.17 271.86 261.524 271.638 262.034 271.638Z" fill="black"/>
<path d="M124.3 169.006V170.242H124.804V169.006H124.3ZM124.558 166.642C123.712 166.642 123.1 167.164 123.1 167.92C123.1 168.676 123.712 169.198 124.558 169.198C125.404 169.198 126.01 168.676 126.01 167.92C126.01 167.164 125.404 166.642 124.558 166.642ZM124.558 167.074C125.116 167.074 125.524 167.416 125.524 167.92C125.524 168.424 125.116 168.772 124.558 168.772C123.994 168.772 123.586 168.424 123.586 167.92C123.586 167.416 123.994 167.074 124.558 167.074ZM126.718 166.288V171.724H127.216V166.288H126.718ZM122.896 170.548C123.862 170.548 125.188 170.542 126.406 170.308L126.364 169.942C125.182 170.128 123.814 170.134 122.824 170.134L122.896 170.548ZM128.944 166.546V166.954H132.436V166.546H128.944ZM128.32 168.49V168.898H133.234V168.49H128.32ZM130.522 168.766V170.044H131.014V168.766H130.522ZM132.112 166.546V166.948C132.112 167.386 132.112 167.902 131.932 168.628L132.418 168.688C132.598 167.944 132.598 167.398 132.598 166.948V166.546H132.112ZM128.83 169.882V170.29H132.136V171.718H132.634V169.882H128.83ZM137.781 166.3V170.26H138.285V166.3H137.781ZM134.799 171.19V171.598H138.447V171.19H134.799ZM134.799 169.852V171.328H135.291V169.852H134.799ZM135.375 166.672C134.565 166.672 133.959 167.224 133.959 168.01C133.959 168.79 134.565 169.348 135.375 169.348C136.185 169.348 136.785 168.79 136.785 168.01C136.785 167.224 136.185 166.672 135.375 166.672ZM135.375 167.104C135.903 167.104 136.305 167.476 136.305 168.01C136.305 168.538 135.903 168.91 135.375 168.91C134.847 168.91 134.445 168.538 134.445 168.01C134.445 167.476 134.847 167.104 135.375 167.104Z" fill="black"/>
<path d="M214.86 186.674V186.278H216.498V186.674H214.86Z" fill="black"/>
<path d="M175.664 203.99L174.128 206.324V208.25H173.666V206.33L172.112 203.99H172.634L173.918 205.922L175.178 203.99H175.664ZM179.25 203.99L177.714 206.324V208.25H177.252V206.33L175.698 203.99H176.22L177.504 205.922L178.764 203.99H179.25ZM182.836 203.99L181.3 206.324V208.25H180.838V206.33L179.284 203.99H179.806L181.09 205.922L182.35 203.99H182.836ZM186.422 203.99L184.886 206.324V208.25H184.424V206.33L182.87 203.99H183.392L184.676 205.922L185.936 203.99H186.422ZM186.415 206.924V206.528H188.053V206.924H186.415ZM188.86 208.25L189.046 203.99H189.496L191.158 207.692L192.826 203.99H193.276L193.432 208.25H193L192.868 204.878L191.338 208.25H190.948L189.442 204.89L189.292 208.25H188.86ZM194.345 208.25L194.531 203.99H194.981L196.643 207.692L198.311 203.99H198.761L198.917 208.25H198.485L198.353 204.878L196.823 208.25H196.433L194.927 204.89L194.777 208.25H194.345ZM199.739 206.924V206.528H201.377V206.924H199.739ZM202.226 208.25V203.99H203.306C204.954 203.99 205.778 204.692 205.778 206.096C205.778 206.544 205.686 206.93 205.502 207.254C205.318 207.574 205.054 207.82 204.71 207.992C204.366 208.164 203.954 208.25 203.474 208.25H202.226ZM202.688 207.842H203.45C204.062 207.842 204.524 207.696 204.836 207.404C205.152 207.112 205.31 206.686 205.31 206.126C205.31 205.546 205.15 205.114 204.83 204.83C204.514 204.542 204.03 204.398 203.378 204.398H202.688V207.842ZM206.627 208.25V203.99H207.707C209.355 203.99 210.179 204.692 210.179 206.096C210.179 206.544 210.087 206.93 209.903 207.254C209.719 207.574 209.455 207.82 209.111 207.992C208.767 208.164 208.355 208.25 207.875 208.25H206.627ZM207.089 207.842H207.851C208.463 207.842 208.925 207.696 209.237 207.404C209.553 207.112 209.711 206.686 209.711 206.126C209.711 205.546 209.551 205.114 209.231 204.83C208.915 204.542 208.431 204.398 207.779 204.398H207.089V207.842Z" fill="#52575D"/>
<path d="M174.914 244.49L173.378 246.824V248.75H172.916V246.83L171.362 244.49H171.884L173.168 246.422L174.428 244.49H174.914ZM178.499 244.49L176.963 246.824V248.75H176.501V246.83L174.947 244.49H175.469L176.753 246.422L178.013 244.49H178.499ZM182.085 244.49L180.549 246.824V248.75H180.087V246.83L178.533 244.49H179.055L180.339 246.422L181.599 244.49H182.085ZM185.671 244.49L184.135 246.824V248.75H183.673V246.83L182.119 244.49H182.641L183.925 246.422L185.185 244.49H185.671ZM185.664 247.424V247.028H187.302V247.424H185.664ZM188.11 248.75L188.296 244.49H188.746L190.408 248.192L192.076 244.49H192.526L192.682 248.75H192.25L192.118 245.378L190.588 248.75H190.198L188.692 245.39L188.542 248.75H188.11ZM193.594 248.75L193.78 244.49H194.23L195.892 248.192L197.56 244.49H198.01L198.166 248.75H197.734L197.602 245.378L196.072 248.75H195.682L194.176 245.39L194.026 248.75H193.594ZM198.988 247.424V247.028H200.626V247.424H198.988ZM201.476 248.75V244.49H202.556C204.204 244.49 205.028 245.192 205.028 246.596C205.028 247.044 204.936 247.43 204.752 247.754C204.568 248.074 204.304 248.32 203.96 248.492C203.616 248.664 203.204 248.75 202.724 248.75H201.476ZM201.938 248.342H202.7C203.312 248.342 203.774 248.196 204.086 247.904C204.402 247.612 204.56 247.186 204.56 246.626C204.56 246.046 204.4 245.614 204.08 245.33C203.764 245.042 203.28 244.898 202.628 244.898H201.938V248.342ZM205.876 248.75V244.49H206.956C208.604 244.49 209.428 245.192 209.428 246.596C209.428 247.044 209.336 247.43 209.152 247.754C208.968 248.074 208.704 248.32 208.36 248.492C208.016 248.664 207.604 248.75 207.124 248.75H205.876ZM206.338 248.342H207.1C207.712 248.342 208.174 248.196 208.486 247.904C208.802 247.612 208.96 247.186 208.96 246.626C208.96 246.046 208.8 245.614 208.48 245.33C208.164 245.042 207.68 244.898 207.028 244.898H206.338V248.342Z" fill="#52575D"/>
</g>
<defs>
<clipPath id="clip0_422_5585">
<rect width="378" height="339.75" rx="14.468" fill="white"/>
</clipPath>
<clipPath id="clip1_422_5585">
<rect width="6" height="6" fill="white" transform="translate(193.75 89.75)"/>
</clipPath>
<clipPath id="clip2_422_5585">
<rect width="6" height="6" fill="white" transform="translate(209.25 166.25)"/>
</clipPath>
<clipPath id="clip3_422_5585">
<rect width="6" height="6" fill="white" transform="translate(219.5 225.5)"/>
</clipPath>
<clipPath id="clip4_422_5585">
<rect width="6" height="6" fill="white" transform="translate(133.5 89.5)"/>
</clipPath>
<clipPath id="clip5_422_5585">
<rect width="6" height="6" fill="white" transform="translate(169.25 166.5)"/>
</clipPath>
<clipPath id="clip6_422_5585">
<rect width="6" height="6" fill="white" transform="translate(176.75 225)"/>
</clipPath>
</defs>
</svg>
