<svg width="1512" height="982" viewBox="0 0 1512 982" fill="none" xmlns="http://www.w3.org/2000/svg">
<g clip-path="url(#clip0_463_5635)">
<rect width="1512" height="982" fill="white"/>
<path d="M61.592 74V47.36H73.22C74.924 47.36 76.376 47.66 77.576 48.26C78.776 48.86 79.688 49.664 80.312 50.672C80.96 51.68 81.284 52.784 81.284 53.984C81.284 55.208 81.056 56.216 80.6 57.008C80.168 57.8 79.64 58.424 79.016 58.88C78.416 59.312 77.864 59.612 77.36 59.78V60.032C77.984 60.2 78.68 60.524 79.448 61.004C80.24 61.484 80.924 62.168 81.5 63.056C82.076 63.92 82.364 65.048 82.364 66.44C82.364 67.688 82.064 68.9 81.464 70.076C80.864 71.228 79.916 72.176 78.62 72.92C77.324 73.64 75.608 74 73.472 74H61.592ZM72.572 51.5H66.488V58.448H72.572C73.964 58.448 74.972 58.1 75.596 57.404C76.22 56.708 76.532 55.892 76.532 54.956C76.532 54.044 76.22 53.24 75.596 52.544C74.972 51.848 73.964 51.5 72.572 51.5ZM72.932 62.192H66.488V69.86H72.932C74.516 69.86 75.668 69.476 76.388 68.708C77.108 67.94 77.468 67.04 77.468 66.008C77.468 65 77.108 64.112 76.388 63.344C75.668 62.576 74.516 62.192 72.932 62.192ZM86.5811 74L86.6171 46.64H91.3691V74H86.5811ZM102.106 74.36C100.114 74.36 98.6019 73.748 97.5699 72.524C96.5619 71.3 96.0579 69.728 96.0579 67.808V54.92H100.81V67.016C100.81 68.048 101.086 68.876 101.638 69.5C102.19 70.1 102.97 70.4 103.978 70.4C104.866 70.4 105.586 70.172 106.138 69.716C106.69 69.26 107.086 68.672 107.326 67.952C107.59 67.232 107.722 66.488 107.722 65.72V54.92H112.51V74H107.722V71.264H107.506C107.266 71.696 106.918 72.152 106.462 72.632C106.03 73.112 105.454 73.52 104.734 73.856C104.038 74.192 103.162 74.36 102.106 74.36ZM126.044 74.36C124.412 74.36 122.996 74.084 121.796 73.532C120.62 72.956 119.636 72.2 118.844 71.264C118.076 70.304 117.5 69.236 117.116 68.06C116.732 66.884 116.54 65.684 116.54 64.46C116.54 63.236 116.72 62.048 117.08 60.896C117.464 59.72 118.028 58.652 118.772 57.692C119.54 56.732 120.512 55.976 121.688 55.424C122.864 54.848 124.256 54.56 125.864 54.56C127.592 54.56 129.116 54.944 130.436 55.712C131.756 56.48 132.788 57.608 133.532 59.096C134.276 60.56 134.648 62.384 134.648 64.568V65.792H121.364C121.436 67.088 121.88 68.216 122.696 69.176C123.512 70.112 124.628 70.58 126.044 70.58C126.86 70.58 127.532 70.448 128.06 70.184C128.588 69.92 128.996 69.62 129.284 69.284C129.572 68.924 129.776 68.624 129.896 68.384C130.016 68.12 130.076 67.988 130.076 67.988H134.504C134.504 67.988 134.444 68.204 134.324 68.636C134.204 69.044 133.976 69.572 133.64 70.22C133.328 70.844 132.86 71.48 132.236 72.128C131.612 72.752 130.796 73.28 129.788 73.712C128.78 74.144 127.532 74.36 126.044 74.36ZM121.364 62.66H130.04C129.968 61.172 129.524 60.068 128.708 59.348C127.892 58.628 126.932 58.268 125.828 58.268C124.604 58.268 123.584 58.664 122.768 59.456C121.952 60.224 121.484 61.292 121.364 62.66ZM138.908 74V47.36H149.276C151.196 47.36 152.828 47.72 154.172 48.44C155.54 49.136 156.572 50.096 157.268 51.32C157.988 52.52 158.348 53.876 158.348 55.388C158.348 57.092 157.892 58.616 156.98 59.96C156.068 61.28 154.748 62.24 153.02 62.84L159.14 74H153.704L148.016 63.416H143.804V74H138.908ZM149.204 51.608H143.804V59.42H149.204C150.572 59.42 151.616 59.036 152.336 58.268C153.056 57.476 153.416 56.552 153.416 55.496C153.416 54.44 153.056 53.528 152.336 52.76C151.616 51.992 150.572 51.608 149.204 51.608ZM171.213 74.36C169.125 74.36 167.349 73.892 165.885 72.956C164.421 72.02 163.305 70.808 162.537 69.32C161.793 67.808 161.421 66.188 161.421 64.46C161.421 62.732 161.793 61.124 162.537 59.636C163.305 58.124 164.421 56.9 165.885 55.964C167.349 55.028 169.125 54.56 171.213 54.56C173.325 54.56 175.101 55.028 176.541 55.964C178.005 56.9 179.109 58.124 179.853 59.636C180.621 61.124 181.005 62.732 181.005 64.46C181.005 66.188 180.621 67.808 179.853 69.32C179.109 70.808 178.005 72.02 176.541 72.956C175.101 73.892 173.325 74.36 171.213 74.36ZM171.213 70.364C172.293 70.364 173.193 70.088 173.913 69.536C174.657 68.984 175.221 68.264 175.605 67.376C175.989 66.464 176.181 65.492 176.181 64.46C176.181 63.404 175.989 62.432 175.605 61.544C175.221 60.656 174.657 59.936 173.913 59.384C173.193 58.832 172.293 58.556 171.213 58.556C170.157 58.556 169.257 58.832 168.513 59.384C167.769 59.936 167.205 60.656 166.821 61.544C166.437 62.432 166.245 63.404 166.245 64.46C166.245 65.492 166.437 66.464 166.821 67.376C167.205 68.264 167.769 68.984 168.513 69.536C169.257 70.088 170.157 70.364 171.213 70.364ZM194.374 74.36C192.286 74.36 190.51 73.892 189.046 72.956C187.582 72.02 186.466 70.808 185.698 69.32C184.954 67.808 184.582 66.188 184.582 64.46C184.582 62.732 184.954 61.124 185.698 59.636C186.466 58.124 187.582 56.9 189.046 55.964C190.51 55.028 192.286 54.56 194.374 54.56C196.486 54.56 198.262 55.028 199.702 55.964C201.166 56.9 202.27 58.124 203.014 59.636C203.782 61.124 204.166 62.732 204.166 64.46C204.166 66.188 203.782 67.808 203.014 69.32C202.27 70.808 201.166 72.02 199.702 72.956C198.262 73.892 196.486 74.36 194.374 74.36ZM194.374 70.364C195.454 70.364 196.354 70.088 197.074 69.536C197.818 68.984 198.382 68.264 198.766 67.376C199.15 66.464 199.342 65.492 199.342 64.46C199.342 63.404 199.15 62.432 198.766 61.544C198.382 60.656 197.818 59.936 197.074 59.384C196.354 58.832 195.454 58.556 194.374 58.556C193.318 58.556 192.418 58.832 191.674 59.384C190.93 59.936 190.366 60.656 189.982 61.544C189.598 62.432 189.406 63.404 189.406 64.46C189.406 65.492 189.598 66.464 189.982 67.376C190.366 68.264 190.93 68.984 191.674 69.536C192.418 70.088 193.318 70.364 194.374 70.364ZM210.157 74V58.772H207.097V54.92H210.157V53.156C210.157 52.436 210.253 51.68 210.445 50.888C210.637 50.072 210.961 49.316 211.417 48.62C211.897 47.924 212.557 47.36 213.397 46.928C214.261 46.496 215.341 46.28 216.637 46.28C217.357 46.28 217.945 46.34 218.401 46.46C218.881 46.556 219.121 46.604 219.121 46.604V50.096C219.121 50.096 218.965 50.072 218.653 50.024C218.341 49.952 218.005 49.916 217.645 49.916C216.613 49.916 215.905 50.216 215.521 50.816C215.137 51.416 214.945 52.196 214.945 53.156V54.92H219.013V58.772H214.945V74H210.157Z" fill="#0028FF"/>
<rect x="1335" y="34" width="113" height="48" rx="24" fill="#0028FF"/>
<path d="M1368.41 63V52.64H1369.78V61.796H1375.11V63H1368.41ZM1379.9 63.14C1379.11 63.14 1378.44 62.958 1377.9 62.594C1377.36 62.2207 1376.95 61.74 1376.67 61.152C1376.39 60.564 1376.25 59.9433 1376.25 59.29C1376.25 58.6273 1376.39 58.0067 1376.67 57.428C1376.95 56.84 1377.36 56.364 1377.9 56C1378.44 55.6267 1379.11 55.44 1379.9 55.44C1380.69 55.44 1381.36 55.6267 1381.9 56C1382.44 56.364 1382.85 56.84 1383.13 57.428C1383.41 58.0067 1383.55 58.6273 1383.55 59.29C1383.55 59.9433 1383.41 60.564 1383.13 61.152C1382.85 61.74 1382.44 62.2207 1381.9 62.594C1381.36 62.958 1380.69 63.14 1379.9 63.14ZM1379.9 61.978C1380.4 61.978 1380.82 61.852 1381.16 61.6C1381.5 61.3387 1381.76 61.0027 1381.93 60.592C1382.11 60.1813 1382.2 59.7473 1382.2 59.29C1382.2 58.8233 1382.11 58.3893 1381.93 57.988C1381.76 57.5773 1381.5 57.246 1381.16 56.994C1380.82 56.7327 1380.4 56.602 1379.9 56.602C1379.4 56.602 1378.98 56.7327 1378.64 56.994C1378.29 57.246 1378.03 57.5773 1377.86 57.988C1377.69 58.3893 1377.6 58.8233 1377.6 59.29C1377.6 59.7473 1377.69 60.1813 1377.86 60.592C1378.03 61.0027 1378.29 61.3387 1378.64 61.6C1378.98 61.852 1379.4 61.978 1379.9 61.978ZM1388.81 65.94C1388.2 65.94 1387.68 65.856 1387.27 65.688C1386.86 65.5293 1386.53 65.324 1386.28 65.072C1386.04 64.8293 1385.85 64.5867 1385.73 64.344C1385.61 64.1013 1385.53 63.896 1385.49 63.728C1385.46 63.5693 1385.44 63.49 1385.44 63.49H1386.77C1386.77 63.49 1386.79 63.5553 1386.84 63.686C1386.88 63.8167 1386.97 63.966 1387.1 64.134C1387.24 64.302 1387.45 64.4513 1387.72 64.582C1387.99 64.7127 1388.35 64.778 1388.81 64.778C1389.35 64.778 1389.78 64.6707 1390.09 64.456C1390.39 64.2507 1390.61 63.98 1390.74 63.644C1390.88 63.308 1390.95 62.9533 1390.95 62.58V61.726H1390.88C1390.79 61.8847 1390.64 62.0667 1390.44 62.272C1390.24 62.468 1389.98 62.6407 1389.65 62.79C1389.33 62.93 1388.92 63 1388.45 63C1387.89 63 1387.4 62.8927 1386.98 62.678C1386.56 62.4633 1386.21 62.174 1385.93 61.81C1385.66 61.446 1385.45 61.04 1385.31 60.592C1385.17 60.144 1385.1 59.6867 1385.1 59.22C1385.1 58.7533 1385.17 58.296 1385.31 57.848C1385.45 57.4 1385.66 56.994 1385.93 56.63C1386.21 56.266 1386.56 55.9767 1386.98 55.762C1387.4 55.5473 1387.89 55.44 1388.45 55.44C1388.92 55.44 1389.33 55.5147 1389.65 55.664C1389.98 55.804 1390.24 55.972 1390.44 56.168C1390.64 56.364 1390.79 56.546 1390.88 56.714H1390.95V55.58H1392.28V62.566C1392.28 63.602 1391.98 64.4233 1391.37 65.03C1390.78 65.6367 1389.92 65.94 1388.81 65.94ZM1388.7 61.866C1389.19 61.866 1389.61 61.74 1389.93 61.488C1390.27 61.2267 1390.52 60.8953 1390.67 60.494C1390.84 60.0927 1390.93 59.668 1390.93 59.22C1390.93 58.772 1390.84 58.3473 1390.67 57.946C1390.52 57.5353 1390.27 57.204 1389.93 56.952C1389.61 56.7 1389.19 56.574 1388.7 56.574C1388.21 56.574 1387.79 56.7 1387.45 56.952C1387.12 57.204 1386.87 57.5353 1386.7 57.946C1386.54 58.3473 1386.46 58.772 1386.46 59.22C1386.46 59.668 1386.54 60.0927 1386.7 60.494C1386.87 60.8953 1387.12 61.2267 1387.45 61.488C1387.79 61.74 1388.21 61.866 1388.7 61.866ZM1397.42 63.14C1396.63 63.14 1395.96 62.958 1395.42 62.594C1394.88 62.2207 1394.47 61.74 1394.19 61.152C1393.91 60.564 1393.77 59.9433 1393.77 59.29C1393.77 58.6273 1393.91 58.0067 1394.19 57.428C1394.47 56.84 1394.88 56.364 1395.42 56C1395.96 55.6267 1396.63 55.44 1397.42 55.44C1398.21 55.44 1398.88 55.6267 1399.42 56C1399.96 56.364 1400.38 56.84 1400.66 57.428C1400.94 58.0067 1401.08 58.6273 1401.08 59.29C1401.08 59.9433 1400.94 60.564 1400.66 61.152C1400.38 61.74 1399.96 62.2207 1399.42 62.594C1398.88 62.958 1398.21 63.14 1397.42 63.14ZM1397.42 61.978C1397.93 61.978 1398.35 61.852 1398.68 61.6C1399.03 61.3387 1399.28 61.0027 1399.45 60.592C1399.63 60.1813 1399.72 59.7473 1399.72 59.29C1399.72 58.8233 1399.63 58.3893 1399.45 57.988C1399.28 57.5773 1399.03 57.246 1398.68 56.994C1398.35 56.7327 1397.93 56.602 1397.42 56.602C1396.93 56.602 1396.51 56.7327 1396.16 56.994C1395.82 57.246 1395.55 57.5773 1395.38 57.988C1395.21 58.3893 1395.13 58.8233 1395.13 59.29C1395.13 59.7473 1395.21 60.1813 1395.38 60.592C1395.55 61.0027 1395.82 61.3387 1396.16 61.6C1396.51 61.852 1396.93 61.978 1397.42 61.978ZM1405.25 63.14C1404.52 63.14 1403.93 62.9113 1403.49 62.454C1403.05 61.9967 1402.83 61.362 1402.83 60.55V55.58H1404.16V60.48C1404.16 60.9653 1404.29 61.3387 1404.55 61.6C1404.83 61.8613 1405.18 61.992 1405.62 61.992C1406.07 61.992 1406.43 61.8753 1406.7 61.642C1406.97 61.4087 1407.16 61.11 1407.28 60.746C1407.41 60.382 1407.47 60.0087 1407.47 59.626V55.58H1408.8V63H1407.47V61.936H1407.38C1407.33 62.048 1407.22 62.202 1407.06 62.398C1406.9 62.5847 1406.68 62.7573 1406.39 62.916C1406.1 63.0653 1405.72 63.14 1405.25 63.14ZM1413.85 63.14C1413.09 63.14 1412.51 62.944 1412.12 62.552C1411.74 62.16 1411.54 61.6093 1411.54 60.9V56.672H1410.21V55.58H1411.54V53.718H1412.87V55.58H1414.68V56.672H1412.87V60.9C1412.87 61.2733 1412.98 61.5487 1413.18 61.726C1413.39 61.894 1413.69 61.978 1414.08 61.978C1414.28 61.978 1414.48 61.964 1414.67 61.936C1414.85 61.908 1414.95 61.894 1414.95 61.894V63.028C1414.95 63.028 1414.84 63.0467 1414.62 63.084C1414.41 63.1213 1414.15 63.14 1413.85 63.14Z" fill="white"/>
<path d="M-23 99.5L1489 101.5" stroke="#D3D3D3"/>
<path d="M319.352 53.864V58.824H329.336V53.864H327.224V54.84H321.448V53.864H319.352ZM321.448 56.392H327.224V57.256H321.448V56.392ZM317.64 59.624V61.288H331.032V59.624H317.64ZM319.176 62.136V63.688H327.32V64.44H319.192V67.24H321.288V65.896H329.416V62.136H319.176ZM319.192 66.744V68.328H329.8V66.744H319.192ZM333.829 54.072V55.768H342.005V56.904H333.861V60.744H336.021V58.488H344.165V54.072H333.829ZM333.861 59.704V61.384H344.533V59.704H333.861ZM332.293 62.472V64.184H345.717V62.472H332.293ZM337.909 63.096V68.456H340.037V63.096H337.909ZM348.482 54.072V55.768H356.658V56.904H348.514V60.744H350.674V58.488H358.818V54.072H348.482ZM348.514 59.704V61.384H359.186V59.704H348.514ZM346.946 62.472V64.184H360.37V62.472H346.946ZM352.562 63.096V68.456H354.69V63.096H352.562ZM361.615 64.968V66.712H375.023V64.968H361.615ZM362.639 54.888V56.584H373.919V54.888H362.639ZM362.703 61.016V62.728H373.871V61.016H362.703ZM364.655 56.456V61.176H366.783V56.456H364.655ZM369.791 56.456V61.176H371.903V56.456H369.791ZM385.789 53.624V64.536H387.917V53.624H385.789ZM387.309 57.864V59.624H389.885V57.864H387.309ZM378.413 66.472V68.168H388.461V66.472H378.413ZM378.413 63.656V67.032H380.557V63.656H378.413ZM376.781 60.712V62.408H378.029C381.021 62.408 382.893 62.344 384.973 61.96L384.781 60.248C382.733 60.632 380.941 60.712 378.029 60.712H376.781ZM376.765 54.504V56.2H381.437V57.608H376.781V61.32H378.893V59.176H383.533V54.504H376.765ZM393.946 63.688V63.16C393.946 62.6693 394.047 62.248 394.25 61.896C394.452 61.544 394.703 61.24 395.002 60.984C395.3 60.7173 395.594 60.4667 395.882 60.232C396.18 59.9973 396.431 59.7467 396.634 59.48C396.836 59.2027 396.938 58.8827 396.938 58.52C396.938 58.0187 396.751 57.624 396.378 57.336C396.015 57.0373 395.583 56.888 395.082 56.888C394.751 56.888 394.436 56.9627 394.138 57.112C393.85 57.2507 393.615 57.4693 393.434 57.768C393.252 58.0667 393.162 58.4507 393.162 58.92H391.098C391.098 58.0347 391.29 57.304 391.674 56.728C392.068 56.1413 392.575 55.7093 393.194 55.432C393.812 55.144 394.463 55 395.146 55C395.86 55 396.516 55.144 397.114 55.432C397.722 55.7093 398.207 56.1093 398.57 56.632C398.932 57.144 399.114 57.7573 399.114 58.472C399.114 59.016 399.007 59.48 398.794 59.864C398.591 60.2373 398.34 60.568 398.042 60.856C397.743 61.1333 397.439 61.3893 397.13 61.624C396.831 61.8587 396.58 62.0987 396.378 62.344C396.175 62.5787 396.074 62.8507 396.074 63.16V63.688H393.946ZM395.018 67.16C394.666 67.16 394.378 67.0427 394.154 66.808C393.93 66.5733 393.818 66.2907 393.818 65.96C393.818 65.6293 393.93 65.352 394.154 65.128C394.378 64.8933 394.666 64.776 395.018 64.776C395.359 64.776 395.642 64.8933 395.866 65.128C396.1 65.352 396.218 65.6293 396.218 65.96C396.218 66.2907 396.1 66.5733 395.866 66.808C395.642 67.0427 395.359 67.16 395.018 67.16Z" fill="#282A2D"/>
<path d="M443.968 55.944V57.608C443.968 60.04 442.768 62.808 440.32 63.96L441.52 65.64C444.24 64.36 445.648 60.952 445.648 57.608V55.944H443.968ZM444.416 55.944V57.608C444.416 60.76 445.792 64.008 448.512 65.272L449.68 63.592C447.248 62.472 446.096 59.848 446.096 57.608V55.944H444.416ZM440.896 55.032V56.776H449.024V55.032H440.896ZM450.112 53.608V68.424H452.256V53.608H450.112ZM451.776 59.256V61.016H454.4V59.256H451.776ZM460.925 54.536V55.592C460.925 57.864 459.085 59.784 455.453 60.728L456.253 62.392C460.685 61.224 463.149 58.52 463.149 54.536H460.925ZM456.285 54.536V56.232H462.301V54.536H456.285ZM457.597 63.032V64.696H465.565V68.376H467.693V63.032H457.597ZM465.565 53.608V62.408H467.693V53.608H465.565ZM462.445 55.992V57.672H465.917V55.992H462.445ZM462.301 59.144V60.84H465.789V59.144H462.301ZM473.546 55.256V56.504C473.546 58.376 472.474 60.296 470.01 61.096L471.098 62.76C473.946 61.832 475.306 59.304 475.306 56.504V55.256H473.546ZM473.978 55.256V56.504C473.978 59.192 475.322 61.608 478.106 62.488L479.194 60.84C476.778 60.072 475.722 58.264 475.722 56.504V55.256H473.978ZM470.57 54.664V56.344H478.634V54.664H470.57ZM480.122 53.624V64.312H482.266V53.624H480.122ZM472.394 66.472V68.168H482.634V66.472H472.394ZM472.394 63.352V67.32H474.522V63.352H472.394ZM494.135 53.608V64.312H496.263V53.608H494.135ZM495.655 57.64V59.384H498.231V57.64H495.655ZM485.159 60.184V61.896H486.391C489.687 61.896 491.383 61.816 493.191 61.416L492.983 59.736C491.207 60.12 489.607 60.184 486.391 60.184H485.159ZM485.159 54.776V61.096H487.271V56.488H491.783V54.776H485.159ZM486.711 66.472V68.168H496.791V66.472H486.711ZM486.711 63.192V67.336H488.839V63.192H486.711Z" fill="#282A2D"/>
<path d="M549.848 53.608V68.424H551.992V53.608H549.848ZM545.48 55.144V55.528C545.48 59.496 543.944 62.184 539.688 64.232L540.792 65.928C546.056 63.384 547.592 59.672 547.592 55.144H545.48ZM540.472 55.144V56.824H546.488V55.144H540.472ZM554.869 63.352V65.08H556.117C558.661 65.08 560.677 65.016 562.917 64.664L562.725 62.968C560.517 63.32 558.613 63.352 556.117 63.352H554.869ZM554.869 54.84V63.912H557.013V56.568H561.829V54.84H554.869ZM556.501 58.952V60.616H561.621V58.952H556.501ZM563.765 53.608V68.424H565.909V53.608H563.765ZM565.429 59.224V60.984H568.053V59.224H565.429ZM572.274 56.2V56.744C572.274 58.424 571.234 60.12 568.85 60.792L569.842 62.456C572.674 61.64 573.986 59.32 573.986 56.744V56.2H572.274ZM572.674 56.2V56.744C572.674 59.176 574.034 61.336 576.882 62.088L577.842 60.44C575.458 59.816 574.402 58.264 574.402 56.744V56.2H572.674ZM569.362 55.144V56.808H577.314V55.144H569.362ZM572.274 53.56V55.8H574.402V53.56H572.274ZM576.898 57.56V59.272H579.73V57.56H576.898ZM579.218 53.608V62.552H581.346V53.608H579.218ZM576.322 62.808C573.186 62.808 571.25 63.832 571.25 65.608C571.25 67.384 573.186 68.424 576.322 68.424C579.458 68.424 581.394 67.384 581.394 65.608C581.394 63.832 579.458 62.808 576.322 62.808ZM576.322 64.424C578.274 64.424 579.282 64.808 579.282 65.608C579.282 66.408 578.274 66.808 576.322 66.808C574.386 66.808 573.378 66.408 573.378 65.608C573.378 64.808 574.386 64.424 576.322 64.424ZM594.607 55.528V57.272H597.167V55.528H594.607ZM594.607 58.744V60.488H597.167V58.744H594.607ZM593.135 53.608V62.344H595.263V53.608H593.135ZM585.375 62.952V64.648H593.135V68.424H595.263V62.952H585.375ZM587.727 54.408C585.439 54.408 583.695 55.928 583.695 58.04C583.695 60.152 585.439 61.656 587.727 61.656C590.015 61.656 591.759 60.152 591.759 58.04C591.759 55.928 590.015 54.408 587.727 54.408ZM587.727 56.216C588.847 56.216 589.679 56.872 589.679 58.04C589.679 59.208 588.847 59.88 587.727 59.88C586.607 59.88 585.775 59.208 585.775 58.04C585.775 56.872 586.607 56.216 587.727 56.216ZM605.725 58.232V59.944H609.629V58.232H605.725ZM601.693 54.744V56.888C601.693 59.704 600.573 62.568 598.045 63.736L599.373 65.448C602.157 64.056 603.421 60.616 603.421 56.888V54.744H601.693ZM602.141 54.744V56.888C602.141 60.584 603.309 63.848 606.093 65.192L607.357 63.496C604.909 62.408 603.837 59.704 603.837 56.888V54.744H602.141ZM608.573 53.592V68.456H610.685V53.592H608.573ZM623.066 53.592V68.456H625.21V53.592H623.066ZM613.642 54.776V65H620.922V54.776H618.81V58.376H615.754V54.776H613.642ZM615.754 60.024H618.81V63.288H615.754V60.024ZM633.063 54.456V55.528C633.063 57.656 631.223 60.008 627.879 60.584L628.791 62.344C632.631 61.592 634.919 58.744 634.919 55.528V54.456H633.063ZM633.495 54.456V55.528C633.495 58.792 635.767 61.592 639.607 62.344L640.519 60.584C637.159 60.008 635.335 57.704 635.335 55.528V54.456H633.495ZM627.575 64.888V66.616H640.983V64.888H627.575Z" fill="#282A2D"/>
<path d="M683.088 55V64.824H690.176V55H683.088ZM688.08 56.664V63.144H685.184V56.664H688.08ZM692.112 53.608V68.424H694.256V53.608H692.112ZM693.776 59.192V60.952H696.4V59.192H693.776ZM707.453 53.592V68.456H709.597V53.592H707.453ZM701.613 54.632C699.373 54.632 697.725 56.68 697.725 59.912C697.725 63.176 699.373 65.224 701.613 65.224C703.853 65.224 705.501 63.176 705.501 59.912C705.501 56.68 703.853 54.632 701.613 54.632ZM701.613 56.568C702.717 56.568 703.453 57.736 703.453 59.912C703.453 62.12 702.717 63.304 701.613 63.304C700.509 63.304 699.757 62.12 699.757 59.912C699.757 57.736 700.509 56.568 701.613 56.568ZM722.778 53.608V68.424H724.81V53.608H722.778ZM718.442 59V60.872H720.426V59H718.442ZM719.834 53.896V67.736H721.834V53.896H719.834ZM712.058 55.272V56.968H718.794V55.272H712.058ZM712.026 65.064C713.85 65.064 716.858 65.016 719.162 64.52L719.018 62.984C716.778 63.288 713.658 63.336 711.802 63.336L712.026 65.064ZM712.97 56.36V63.784H714.874V56.36H712.97ZM715.946 56.36V63.784H717.866V56.36H715.946ZM736.759 53.592V68.456H738.903V53.592H736.759ZM730.919 54.632C728.679 54.632 727.031 56.68 727.031 59.912C727.031 63.176 728.679 65.224 730.919 65.224C733.159 65.224 734.807 63.176 734.807 59.912C734.807 56.68 733.159 54.632 730.919 54.632ZM730.919 56.568C732.023 56.568 732.759 57.736 732.759 59.912C732.759 62.12 732.023 63.304 730.919 63.304C729.815 63.304 729.063 62.12 729.063 59.912C729.063 57.736 729.815 56.568 730.919 56.568ZM744.821 55.944V57.608C744.821 60.12 743.621 62.856 741.141 63.96L742.341 65.64C745.125 64.376 746.517 61.032 746.517 57.608V55.944H744.821ZM745.301 55.944V57.608C745.301 60.904 746.677 64.056 749.493 65.272L750.645 63.592C748.165 62.568 746.981 60.008 746.981 57.608V55.944H745.301ZM741.733 55.032V56.776H750.037V55.032H741.733ZM751.413 53.608V68.424H753.557V53.608H751.413Z" fill="#282A2D"/>
<ellipse cx="126" cy="823" rx="67" ry="42" fill="#0028FF"/>
<path d="M182.5 823C182.5 832.232 176.466 840.822 166.221 847.181C155.998 853.526 141.782 857.5 126 857.5C110.218 857.5 96.0015 853.526 85.7789 847.181C75.5337 840.822 69.5 832.232 69.5 823C69.5 813.768 75.5337 805.178 85.7789 798.819C96.0015 792.474 110.218 788.5 126 788.5C141.782 788.5 155.998 792.474 166.221 798.819C176.466 805.178 182.5 813.768 182.5 823Z" stroke="white" stroke-width="3"/>
<path d="M106.614 806.78V807.239C106.614 808.905 105.764 810.537 103.775 811.302L104.812 812.968C107.277 812.05 108.297 809.738 108.297 807.239V806.78H106.614ZM107.073 806.78V807.239C107.073 809.636 108.093 811.829 110.575 812.679L111.578 811.013C109.606 810.316 108.739 808.803 108.739 807.239V806.78H107.073ZM104.217 805.488V807.256H111.119V805.488H104.217ZM106.614 803.958V806.389H108.739V803.958H106.614ZM115.063 803.788V814.43H117.205V803.788H115.063ZM113.244 807.511V809.347H115.743V807.511H113.244ZM111.782 804.026V813.053H113.89V804.026H111.782ZM110.66 813.699V813.937C110.66 815.552 109.062 817.269 105.662 817.711L106.461 819.462C110.405 818.901 112.581 816.674 112.581 813.937V813.699H110.66ZM110.983 813.699V813.937C110.983 816.674 113.159 818.901 117.103 819.462L117.902 817.711C114.519 817.269 112.904 815.552 112.904 813.937V813.699H110.983ZM121.18 804.213V810.18H131.788V804.213H129.544V805.539H123.407V804.213H121.18ZM123.407 807.239H129.544V808.412H123.407V807.239ZM119.361 811.438V813.223H133.59V811.438H119.361ZM125.345 809.466V811.829H127.589V809.466H125.345ZM125.328 814.005V814.277C125.328 815.79 123.781 817.354 120.313 817.728L121.095 819.462C125.073 818.952 127.266 816.912 127.266 814.277V814.005H125.328ZM125.685 814.005V814.277C125.685 816.912 127.861 818.952 131.856 819.462L132.638 817.728C129.153 817.354 127.623 815.79 127.623 814.277V814.005H125.685ZM135.593 805.335V807.12H142.376V805.335H135.593ZM137.616 809.84V815.178H139.843V809.84H137.616ZM141.475 805.335V806.61C141.475 808.123 141.475 809.942 141.067 812.458L143.277 812.662C143.702 810.044 143.702 808.14 143.702 806.61V805.335H141.475ZM145.045 803.771V819.513H147.306V803.771H145.045ZM146.643 810.095V811.965H149.414V810.095H146.643ZM134.998 816.334C137.735 816.334 141.271 816.266 144.45 815.722L144.331 814.073C141.237 814.464 137.565 814.515 134.794 814.515L134.998 816.334ZM99.4582 826.621V828.015C99.4582 830.157 98.3872 832.265 95.7522 833.149L96.9592 834.934C99.9512 833.897 101.311 831.143 101.311 828.015V826.621H99.4582ZM99.9172 826.621V828.236C99.9172 831.075 101.26 833.523 104.099 834.475L105.272 832.724C102.807 831.959 101.753 830.123 101.753 828.236V826.621H99.9172ZM106.139 825.771V835.07H108.4V825.771H106.139ZM107.771 829.409V831.279H110.491V829.409H107.771ZM103.266 835.427C99.9852 835.427 97.9282 836.566 97.9282 838.47C97.9282 840.391 99.9852 841.513 103.266 841.513C106.53 841.513 108.587 840.391 108.587 838.47C108.587 836.566 106.53 835.427 103.266 835.427ZM103.266 837.178C105.272 837.178 106.343 837.603 106.343 838.47C106.343 839.354 105.272 839.762 103.266 839.762C101.26 839.762 100.172 839.354 100.172 838.47C100.172 837.603 101.26 837.178 103.266 837.178ZM121.708 825.771V834.594H123.969V825.771H121.708ZM123.34 829.307V831.143H126.06V829.307H123.34ZM112.171 832.231V834.05H113.48C116.982 834.05 118.784 833.965 120.705 833.54L120.484 831.755C118.597 832.146 116.897 832.231 113.48 832.231H112.171ZM112.171 826.74V833.285H114.415V828.542H119.158V826.74H112.171ZM113.735 835.274V841.343H123.969V835.274H113.735ZM121.759 837.059V839.558H115.962V837.059H121.759ZM137.243 825.771V841.513H139.487V825.771H137.243ZM138.977 831.908V833.795H141.765V831.908H138.977ZM127.077 828.1V829.902H136.24V828.1H127.077ZM131.684 830.786C129.389 830.786 127.689 832.35 127.689 834.543C127.689 836.736 129.389 838.3 131.684 838.3C133.979 838.3 135.679 836.736 135.679 834.543C135.679 832.35 133.979 830.786 131.684 830.786ZM131.684 832.622C132.755 832.622 133.52 833.336 133.52 834.543C133.52 835.75 132.755 836.464 131.684 836.464C130.613 836.464 129.848 835.75 129.848 834.543C129.848 833.336 130.613 832.622 131.684 832.622ZM130.545 826.026V828.78H132.806V826.026H130.545ZM153.56 825.771V841.513H155.838V825.771H153.56ZM148.919 827.403V827.811C148.919 832.027 147.287 834.883 142.765 837.059L143.938 838.861C149.531 836.158 151.163 832.214 151.163 827.403H148.919ZM143.598 827.403V829.188H149.99V827.403H143.598Z" fill="white"/>
<path d="M296.19 204.09V208.5C296.19 213.09 292.92 218.25 289.05 220.14L290.49 222.12C294.72 219.96 298.17 214.14 298.17 208.5V204.09H296.19ZM296.64 204.09V208.5C296.64 213.87 299.91 219.33 304.2 221.46L305.61 219.48C301.68 217.62 298.62 212.79 298.62 208.5V204.09H296.64ZM290.01 202.98V205.08H304.62V202.98H290.01ZM307.83 200.22V227.34H310.35V200.22H307.83ZM309.75 211.17V213.27H314.79V211.17H309.75ZM328.648 202.05V203.13C328.648 208.17 324.448 212.16 317.488 214.08L318.478 216.03C326.368 213.87 331.258 208.95 331.258 202.05H328.648ZM318.868 202.05V204.06H330.178V202.05H318.868ZM321.298 217.62V219.63H336.898V227.28H339.388V217.62H321.298ZM336.898 200.22V216.39H339.388V200.22H336.898ZM330.148 205.05V207.09H337.408V205.05H330.148ZM329.878 210.81V212.85H337.228V210.81H329.878ZM351.895 203.19V205.95C351.895 209.82 349.135 213.33 345.055 214.77L346.345 216.75C350.905 215.1 353.965 210.93 353.965 205.95V203.19H351.895ZM352.375 203.19V205.95C352.375 210.72 355.495 214.68 359.995 216.21L361.285 214.26C357.265 212.91 354.445 209.61 354.445 205.95V203.19H352.375ZM345.715 202.47V204.48H360.565V202.47H345.715ZM364.405 200.25V220.08H366.925V200.25H364.405ZM349.495 224.7V226.74H367.735V224.7H349.495ZM349.495 218.22V225.6H351.955V218.22H349.495ZM390.833 200.19V219.84H393.323V200.19H390.833ZM392.573 208.26V210.33H397.343V208.26H392.573ZM373.523 213V215.07H375.623C381.323 215.07 384.533 214.89 388.253 214.11L387.983 212.1C384.353 212.85 381.203 213 375.623 213H373.523ZM373.523 202.53V214.11H375.983V204.6H385.493V202.53H373.523ZM376.433 224.7V226.74H394.553V224.7H376.433ZM376.433 217.89V225.63H378.923V217.89H376.433ZM427.531 200.22V227.34H429.931V200.22H427.531ZM422.971 211.26V213.3H428.191V211.26H422.971ZM421.381 200.82V225.96H423.721V200.82H421.381ZM408.241 203.49V219.15H410.731V203.49H408.241ZM408.241 218.16V220.32H409.981C412.891 220.32 416.011 220.17 419.701 219.45L419.431 217.29C415.891 217.98 412.771 218.16 409.981 218.16H408.241ZM446.879 204.21V206.25H455.159V204.21H446.879ZM446.879 210.27V212.34H455.159V210.27H446.879ZM438.749 217.71V219.72H454.349V227.34H456.839V217.71H438.749ZM454.349 200.22V216.21H456.839V200.22H454.349ZM441.929 201.72C437.909 201.72 434.939 204.42 434.939 208.26C434.939 212.1 437.909 214.77 441.929 214.77C445.919 214.77 448.919 212.1 448.919 208.26C448.919 204.42 445.919 201.72 441.929 201.72ZM441.929 203.85C444.569 203.85 446.549 205.68 446.549 208.26C446.549 210.84 444.569 212.64 441.929 212.64C439.289 212.64 437.339 210.84 437.339 208.26C437.339 205.68 439.289 203.85 441.929 203.85Z" fill="#222A41"/>
<g clip-path="url(#clip1_463_5635)">
<rect x="243.5" y="309.5" width="1025" height="134" rx="24.5" fill="white" stroke="#D3D3D3"/>
<path d="M284.107 360.598V363.514H306.733V360.598H284.107ZM293.584 355.252V361.3H297.175V355.252H293.584ZM286.483 342.994V356.008H304.276V342.994H300.712V346.828H290.047V342.994H286.483ZM290.047 349.636H300.712V353.146H290.047V349.636ZM324.956 341.374V366.457H328.52V341.374H324.956ZM327.71 350.824V353.794H332.138V350.824H327.71ZM309.944 357.709V360.652H312.05C316.397 360.652 319.826 360.49 323.606 359.815L323.255 356.926C319.583 357.574 316.289 357.709 312.05 357.709H309.944ZM309.917 343.507V346.369H317.855V350.338H309.944V358.816H313.508V353.2H321.419V343.507H309.917ZM351.819 341.401V366.403H355.248V341.401H351.819ZM348.822 350.932V353.821H352.953V350.932H348.822ZM346.338 341.779V365.269H349.713V341.779H346.338ZM334.458 343.966V360.166H344.34V343.966H334.458ZM340.992 346.774V357.358H337.806V346.774H340.992ZM374.686 341.428V360.112H378.277V341.428H374.686ZM377.251 349.042V351.985H381.598V349.042H377.251ZM358.594 344.02V346.828H373.309V344.02H358.594ZM365.965 347.719C362.347 347.719 359.809 349.69 359.809 352.552C359.809 355.414 362.347 357.358 365.965 357.358C369.556 357.358 372.094 355.414 372.094 352.552C372.094 349.69 369.556 347.719 365.965 347.719ZM365.965 350.446C367.558 350.446 368.665 351.202 368.665 352.552C368.665 353.902 367.558 354.631 365.965 354.631C364.372 354.631 363.265 353.902 363.265 352.552C363.265 351.202 364.372 350.446 365.965 350.446ZM364.156 341.374V345.397H367.747V341.374H364.156ZM362.158 363.109V365.971H379.168V363.109H362.158ZM362.158 358.708V364.351H365.749V358.708H362.158ZM386.213 342.454V345.316H402.062V342.454H386.213ZM383.459 351.094V353.956H406.085V351.094H383.459ZM392.936 353.119V358.357H396.527V353.119H392.936ZM399.902 342.454V344.452C399.902 346.558 399.902 348.853 399.119 352.066L402.656 352.417C403.439 349.123 403.439 346.612 403.439 344.452V342.454H399.902ZM385.727 357.466V360.301H399.875V366.403H403.466V357.466H385.727ZM414.965 343.129C411.158 343.129 408.404 346.585 408.404 352.039C408.404 357.547 411.158 361.003 414.965 361.003C418.772 361.003 421.526 357.547 421.526 352.039C421.526 346.585 418.772 343.129 414.965 343.129ZM414.965 346.396C416.828 346.396 418.097 348.367 418.097 352.039C418.097 355.765 416.828 357.763 414.965 357.763C413.102 357.763 411.86 355.765 411.86 352.039C411.86 348.367 413.102 346.396 414.965 346.396ZM424.253 341.401V366.403H427.871V341.401H424.253ZM427.061 350.824V353.794H431.489V350.824H427.061ZM451.17 341.401V354.469H454.599V341.401H451.17ZM442.422 346.639V349.339H447.768V346.639H442.422ZM446.202 341.833V354.334H449.55V341.833H446.202ZM434.16 351.04V353.875H435.861C439.776 353.875 442.044 353.848 444.717 353.389L444.501 350.581C441.855 351.013 439.695 351.04 435.861 351.04H434.16ZM434.16 342.589V352.93H437.697V345.397H443.826V342.589H434.16ZM437.427 355.306V358.06H451.035V359.356H437.454V365.026H441.018V361.948H454.599V355.306H437.427ZM437.454 363.352V366.133H455.301V363.352H437.454ZM475.171 341.374V366.457H478.762V341.374H475.171ZM459.295 357.709V360.625H461.509C466.072 360.625 469.744 360.49 473.794 359.761L473.443 356.872C469.474 357.547 465.937 357.709 461.509 357.709H459.295ZM459.268 343.507V346.369H467.395V350.338H459.295V358.789H462.94V353.173H471.067V343.507H459.268ZM492.287 354.415V358.384H495.878V354.415H492.287ZM494.096 341.752C488.588 341.752 485.051 343.561 485.051 346.585C485.051 349.582 488.588 351.364 494.096 351.364C499.604 351.364 503.141 349.582 503.141 346.585C503.141 343.561 499.604 341.752 494.096 341.752ZM494.096 344.479C497.498 344.479 499.442 345.181 499.442 346.585C499.442 347.962 497.498 348.637 494.096 348.637C490.667 348.637 488.75 347.962 488.75 346.585C488.75 345.181 490.667 344.479 494.096 344.479ZM485.402 357.601V366.133H502.682V357.601H485.402ZM499.172 360.436V363.298H488.939V360.436H499.172ZM482.783 352.633V355.495H505.382V352.633H482.783ZM517.665 348.178V351.067H521.472V348.178H517.665ZM513.426 343.21C510.105 343.21 507.702 345.802 507.702 349.528C507.702 353.227 510.105 355.846 513.426 355.846C516.72 355.846 519.15 353.227 519.15 349.528C519.15 345.802 516.72 343.21 513.426 343.21ZM513.426 346.288C514.857 346.288 515.937 347.476 515.937 349.528C515.937 351.58 514.857 352.768 513.426 352.768C511.968 352.768 510.915 351.58 510.915 349.528C510.915 347.476 511.968 346.288 513.426 346.288ZM525.522 341.401V360.004H528.924V341.401H525.522ZM520.581 341.806V359.248H523.929V341.806H520.581ZM512.103 363.109V365.971H529.572V363.109H512.103ZM512.103 357.628V364.621H515.694V357.628H512.103ZM535.24 342.265V345.073H551.089V342.265H535.24ZM548.929 342.265V344.479C548.929 346.639 548.929 348.745 548.281 351.634L551.818 351.958C552.466 349.015 552.466 346.666 552.466 344.479V342.265H548.929ZM550.009 346.477L534.538 346.801L534.943 349.528L550.009 348.934V346.477ZM532.513 351.04V353.848H555.031V351.04H532.513ZM534.943 355.306V358.006H549.037V359.383H534.97V364.621H538.534V361.921H552.601V355.306H534.943ZM534.97 363.406V366.133H553.438V363.406H534.97ZM557.972 357.925V360.895H559.727C562.778 360.895 565.478 360.814 568.664 360.274L568.394 357.385C565.316 357.871 562.697 357.925 559.727 357.925H557.972ZM557.945 343.831V346.693H563.939V350.662H557.972V359.005H561.455V353.497H567.422V343.831H557.945ZM575.36 341.401V366.403H578.762V341.401H575.36ZM572.012 350.851V353.713H576.17V350.851H572.012ZM569.771 341.833V365.215H573.092V341.833H569.771ZM591.423 342.832V344.641C591.423 348.232 588.318 352.201 582.675 353.173L584.214 356.143C590.694 354.874 594.555 350.068 594.555 344.641V342.832H591.423ZM592.152 342.832V344.641C592.152 350.149 595.986 354.874 602.466 356.143L604.005 353.173C598.335 352.201 595.257 348.313 595.257 344.641V342.832H592.152ZM582.162 360.436V363.352H604.788V360.436H582.162ZM291.127 408.243C288.859 408.261 287.122 407.496 285.916 405.948C284.71 404.382 284.107 401.988 284.107 398.766C284.107 396.732 284.404 394.95 284.998 393.42C285.592 391.89 286.429 390.702 287.509 389.856C288.607 388.992 289.912 388.56 291.424 388.56C293.512 388.56 295.141 389.37 296.311 390.99C297.499 392.61 298.093 394.959 298.093 398.037C298.093 400.071 297.805 401.853 297.229 403.383C296.671 404.913 295.87 406.11 294.826 406.974C293.782 407.82 292.549 408.243 291.127 408.243ZM291.046 405.246C292.198 405.246 293.089 404.634 293.719 403.41C294.367 402.186 294.691 400.395 294.691 398.037C294.691 395.913 294.403 394.302 293.827 393.204C293.251 392.088 292.423 391.53 291.343 391.53C290.155 391.53 289.219 392.16 288.535 393.42C287.869 394.68 287.536 396.444 287.536 398.712C287.536 400.926 287.824 402.573 288.4 403.653C288.994 404.715 289.876 405.246 291.046 405.246ZM307.883 408.243C305.615 408.243 303.86 407.478 302.618 405.948C301.376 404.418 300.755 402.087 300.755 398.955C300.755 396.813 301.088 394.968 301.754 393.42C302.42 391.854 303.347 390.657 304.535 389.829C305.723 388.983 307.091 388.56 308.639 388.56C311.573 388.56 313.571 389.964 314.633 392.772L311.798 394.095C311.474 393.213 311.042 392.574 310.502 392.178C309.962 391.782 309.278 391.584 308.45 391.584C307.208 391.584 306.173 392.142 305.345 393.258C304.535 394.374 304.13 396.003 304.13 398.145C304.616 397.425 305.255 396.867 306.047 396.471C306.857 396.075 307.757 395.877 308.747 395.877C309.827 395.877 310.808 396.111 311.69 396.579C312.572 397.029 313.274 397.695 313.796 398.577C314.318 399.441 314.579 400.476 314.579 401.682C314.579 402.924 314.3 404.04 313.742 405.03C313.184 406.02 312.401 406.803 311.393 407.379C310.385 407.955 309.215 408.243 307.883 408.243ZM307.856 405.462C308.864 405.462 309.665 405.129 310.259 404.463C310.871 403.779 311.177 402.951 311.177 401.979C311.177 400.971 310.889 400.17 310.313 399.576C309.755 398.964 308.972 398.658 307.964 398.658C306.974 398.658 306.155 398.991 305.507 399.657C304.877 400.305 304.562 401.124 304.562 402.114C304.562 403.194 304.868 404.022 305.48 404.598C306.092 405.174 306.884 405.462 307.856 405.462ZM322.885 388.533C325.153 388.533 326.908 389.298 328.15 390.828C329.392 392.358 330.013 394.689 330.013 397.821C330.013 399.963 329.68 401.817 329.014 403.383C328.348 404.931 327.421 406.128 326.233 406.974C325.045 407.802 323.677 408.216 322.129 408.216C319.195 408.216 317.197 406.812 316.135 404.004L318.97 402.681C319.294 403.563 319.726 404.202 320.266 404.598C320.806 404.994 321.49 405.192 322.318 405.192C323.56 405.192 324.586 404.634 325.396 403.518C326.224 402.402 326.638 400.773 326.638 398.631C326.152 399.351 325.504 399.909 324.694 400.305C323.902 400.701 323.011 400.899 322.021 400.899C320.941 400.899 319.96 400.674 319.078 400.224C318.196 399.756 317.494 399.09 316.972 398.226C316.45 397.344 316.189 396.3 316.189 395.094C316.189 393.852 316.468 392.736 317.026 391.746C317.584 390.756 318.367 389.973 319.375 389.397C320.383 388.821 321.553 388.533 322.885 388.533ZM322.912 391.314C321.904 391.314 321.094 391.656 320.482 392.34C319.888 393.006 319.591 393.825 319.591 394.797C319.591 395.805 319.87 396.615 320.428 397.227C321.004 397.821 321.796 398.118 322.804 398.118C323.794 398.118 324.604 397.794 325.234 397.146C325.882 396.48 326.206 395.652 326.206 394.662C326.206 393.582 325.9 392.754 325.288 392.178C324.676 391.602 323.884 391.314 322.912 391.314ZM334.781 408.243C334.079 408.243 333.521 408.027 333.107 407.595C332.693 407.163 332.486 406.632 332.486 406.002C332.486 405.372 332.693 404.841 333.107 404.409C333.521 403.977 334.079 403.761 334.781 403.761C335.483 403.761 336.041 403.977 336.455 404.409C336.869 404.841 337.076 405.372 337.076 406.002C337.076 406.632 336.869 407.163 336.455 407.595C336.041 408.027 335.483 408.243 334.781 408.243ZM345.482 388.533C347.75 388.533 349.505 389.298 350.747 390.828C351.989 392.358 352.61 394.689 352.61 397.821C352.61 399.963 352.277 401.817 351.611 403.383C350.945 404.931 350.018 406.128 348.83 406.974C347.642 407.802 346.274 408.216 344.726 408.216C341.792 408.216 339.794 406.812 338.732 404.004L341.567 402.681C341.891 403.563 342.323 404.202 342.863 404.598C343.403 404.994 344.087 405.192 344.915 405.192C346.157 405.192 347.183 404.634 347.993 403.518C348.821 402.402 349.235 400.773 349.235 398.631C348.749 399.351 348.101 399.909 347.291 400.305C346.499 400.701 345.608 400.899 344.618 400.899C343.538 400.899 342.557 400.674 341.675 400.224C340.793 399.756 340.091 399.09 339.569 398.226C339.047 397.344 338.786 396.3 338.786 395.094C338.786 393.852 339.065 392.736 339.623 391.746C340.181 390.756 340.964 389.973 341.972 389.397C342.98 388.821 344.15 388.533 345.482 388.533ZM345.509 391.314C344.501 391.314 343.691 391.656 343.079 392.34C342.485 393.006 342.188 393.825 342.188 394.797C342.188 395.805 342.467 396.615 343.025 397.227C343.601 397.821 344.393 398.118 345.401 398.118C346.391 398.118 347.201 397.794 347.831 397.146C348.479 396.48 348.803 395.652 348.803 394.662C348.803 393.582 348.497 392.754 347.885 392.178C347.273 391.602 346.481 391.314 345.509 391.314ZM361.671 388.533C363.939 388.533 365.694 389.298 366.936 390.828C368.178 392.358 368.799 394.689 368.799 397.821C368.799 399.963 368.466 401.817 367.8 403.383C367.134 404.931 366.207 406.128 365.019 406.974C363.831 407.802 362.463 408.216 360.915 408.216C357.981 408.216 355.983 406.812 354.921 404.004L357.756 402.681C358.08 403.563 358.512 404.202 359.052 404.598C359.592 404.994 360.276 405.192 361.104 405.192C362.346 405.192 363.372 404.634 364.182 403.518C365.01 402.402 365.424 400.773 365.424 398.631C364.938 399.351 364.29 399.909 363.48 400.305C362.688 400.701 361.797 400.899 360.807 400.899C359.727 400.899 358.746 400.674 357.864 400.224C356.982 399.756 356.28 399.09 355.758 398.226C355.236 397.344 354.975 396.3 354.975 395.094C354.975 393.852 355.254 392.736 355.812 391.746C356.37 390.756 357.153 389.973 358.161 389.397C359.169 388.821 360.339 388.533 361.671 388.533ZM361.698 391.314C360.69 391.314 359.88 391.656 359.268 392.34C358.674 393.006 358.377 393.825 358.377 394.797C358.377 395.805 358.656 396.615 359.214 397.227C359.79 397.821 360.582 398.118 361.59 398.118C362.58 398.118 363.39 397.794 364.02 397.146C364.668 396.48 364.992 395.652 364.992 394.662C364.992 393.582 364.686 392.754 364.074 392.178C363.462 391.602 362.67 391.314 361.698 391.314ZM377.32 408.243C376.384 408.243 375.421 408.135 374.431 407.919C373.441 407.703 372.64 407.379 372.028 406.947L372.892 404.004C373.486 404.382 374.17 404.679 374.944 404.895C375.718 405.111 376.582 405.219 377.536 405.219C378.76 405.219 379.705 404.976 380.371 404.49C381.055 403.986 381.397 403.284 381.397 402.384C381.397 401.466 381.055 400.782 380.371 400.332C379.705 399.882 378.787 399.657 377.617 399.657H376.456V396.903H377.32C378.58 396.903 379.507 396.642 380.101 396.12C380.713 395.58 381.019 394.878 381.019 394.014C381.019 393.294 380.767 392.709 380.263 392.259C379.777 391.809 379.075 391.584 378.157 391.584C377.203 391.584 376.402 391.854 375.754 392.394C375.106 392.934 374.62 393.69 374.296 394.662L371.785 393.339C372.217 391.935 373.027 390.792 374.215 389.91C375.403 389.01 376.825 388.56 378.481 388.56C379.705 388.56 380.758 388.776 381.64 389.208C382.522 389.64 383.197 390.243 383.665 391.017C384.151 391.791 384.394 392.682 384.394 393.69C384.394 394.662 384.133 395.553 383.611 396.363C383.089 397.155 382.333 397.74 381.343 398.118C382.441 398.424 383.287 398.955 383.881 399.711C384.493 400.449 384.799 401.385 384.799 402.519C384.799 403.653 384.493 404.652 383.881 405.516C383.269 406.38 382.405 407.055 381.289 407.541C380.173 408.009 378.85 408.243 377.32 408.243ZM388.623 408V405.705C390.729 404.103 392.403 402.627 393.645 401.277C394.905 399.909 395.805 398.658 396.345 397.524C396.903 396.39 397.182 395.364 397.182 394.446C397.182 393.546 396.921 392.844 396.399 392.34C395.895 391.836 395.211 391.584 394.347 391.584C393.375 391.584 392.565 391.854 391.917 392.394C391.287 392.934 390.81 393.69 390.486 394.662L387.975 393.339C388.407 391.935 389.217 390.792 390.405 389.91C391.593 389.01 393.015 388.56 394.671 388.56C395.859 388.56 396.894 388.785 397.776 389.235C398.658 389.685 399.342 390.324 399.828 391.152C400.332 391.98 400.584 392.961 400.584 394.095C400.584 395.841 400.008 397.623 398.856 399.441C397.704 401.259 395.751 403.194 392.997 405.246H401.07V408H388.623ZM417.934 390.882V393.744H422.524V390.882H417.934ZM417.88 395.877V398.739H422.443V395.877H417.88ZM403.894 387.642V390.477H417.61V387.642H403.894ZM410.914 391.341C407.485 391.341 405.055 393.231 405.055 396.012C405.055 398.793 407.485 400.683 410.914 400.683C414.343 400.683 416.773 398.793 416.773 396.012C416.773 393.231 414.343 391.341 410.914 391.341ZM410.914 394.014C412.399 394.014 413.452 394.689 413.452 396.012C413.452 397.335 412.399 398.01 410.914 398.01C409.402 398.01 408.403 397.335 408.403 396.012C408.403 394.689 409.402 394.014 410.914 394.014ZM409.132 385.185V389.613H412.723V385.185H409.132ZM421.147 385.401V401.331H424.738V385.401H421.147ZM416.287 401.628C410.995 401.628 407.728 403.275 407.728 406.029C407.728 408.783 410.995 410.403 416.287 410.403C421.552 410.403 424.846 408.783 424.846 406.029C424.846 403.275 421.552 401.628 416.287 401.628ZM416.287 404.382C419.365 404.382 421.039 404.868 421.039 406.029C421.039 407.163 419.365 407.703 416.287 407.703C413.209 407.703 411.508 407.163 411.508 406.029C411.508 404.868 413.209 404.382 416.287 404.382Z" fill="#222A41"/>
<path d="M863.566 377.792V380.627H886.219V377.792H863.566ZM873.016 379.223V388.403H876.58V379.223H873.016ZM866.158 364.346V375.416H883.546V364.346H879.982V367.181H869.722V364.346H866.158ZM869.722 369.989H879.982V372.554H869.722V369.989ZM894.182 365.885V367.478C894.182 370.61 892.4 373.904 888.269 375.254L890.078 378.089C894.884 376.523 897.098 372.176 897.098 367.478V365.885H894.182ZM894.938 365.885V367.478C894.938 371.906 897.071 376.064 901.715 377.603L903.47 374.795C899.528 373.472 897.827 370.394 897.827 367.478V365.885H894.938ZM902.012 369.368V372.284H906.764V369.368H902.012ZM889.241 364.778V367.613H902.687V364.778H889.241ZM892.292 379.412V382.274H905.738V388.403H909.329V379.412H892.292ZM905.738 363.401V378.278H909.329V363.401H905.738ZM922.746 364.967V366.749C922.746 370.583 919.641 373.823 913.512 375.416L914.862 378.224C922.341 376.253 926.499 371.69 926.499 364.967H922.746ZM914.916 364.967V367.829H925.068V364.967H914.916ZM917.13 379.304V382.112H930.576V388.322H934.167V379.304H917.13ZM930.576 363.401V378.251H934.167V363.401H930.576ZM925.311 367.424V370.259H931.17V367.424H925.311ZM925.068 372.743V375.605H930.954V372.743H925.068Z" fill="#FF0000"/>
<path d="M1047.51 386.243C1045.33 386.243 1043.61 385.766 1042.35 384.812C1041.09 383.858 1040.46 382.562 1040.46 380.924C1040.46 379.862 1040.78 378.908 1041.43 378.062C1042.08 377.216 1042.93 376.604 1043.97 376.226C1043.03 375.848 1042.3 375.281 1041.76 374.525C1041.22 373.769 1040.95 372.887 1040.95 371.879C1040.95 370.871 1041.23 369.962 1041.78 369.152C1042.36 368.342 1043.14 367.712 1044.13 367.262C1045.12 366.794 1046.25 366.56 1047.51 366.56C1048.77 366.56 1049.89 366.794 1050.88 367.262C1051.87 367.712 1052.65 368.342 1053.2 369.152C1053.78 369.962 1054.07 370.871 1054.07 371.879C1054.07 372.887 1053.8 373.769 1053.26 374.525C1052.72 375.281 1051.98 375.848 1051.04 376.226C1052.09 376.604 1052.93 377.216 1053.58 378.062C1054.23 378.908 1054.55 379.862 1054.55 380.924C1054.55 382.562 1053.92 383.858 1052.66 384.812C1051.4 385.766 1049.69 386.243 1047.51 386.243ZM1047.51 374.984C1048.46 374.984 1049.23 374.732 1049.8 374.228C1050.38 373.724 1050.67 373.058 1050.67 372.23C1050.67 371.348 1050.38 370.646 1049.8 370.124C1049.23 369.602 1048.46 369.341 1047.51 369.341C1046.57 369.341 1045.81 369.611 1045.21 370.151C1044.64 370.673 1044.35 371.366 1044.35 372.23C1044.35 373.058 1044.64 373.724 1045.21 374.228C1045.79 374.732 1046.55 374.984 1047.51 374.984ZM1047.51 383.462C1048.64 383.462 1049.53 383.21 1050.18 382.706C1050.83 382.202 1051.15 381.509 1051.15 380.627C1051.15 379.727 1050.82 379.007 1050.15 378.467C1049.49 377.909 1048.61 377.63 1047.51 377.63C1046.41 377.63 1045.53 377.909 1044.86 378.467C1044.2 379.007 1043.86 379.727 1043.86 380.627C1043.86 381.509 1044.19 382.202 1044.83 382.706C1045.48 383.21 1046.37 383.462 1047.51 383.462ZM1076.77 369.152V372.068H1081.52V369.152H1076.77ZM1080.58 363.401V377.846H1084.17V363.401H1080.58ZM1067.51 378.872V388.133H1084.17V378.872H1067.51ZM1080.66 381.68V385.298H1071.05V381.68H1080.66ZM1069.02 365.723V367.289C1069.02 370.448 1067.24 373.715 1063.11 375.065L1064.92 377.9C1069.72 376.334 1071.94 372.014 1071.94 367.289V365.723H1069.02ZM1069.78 365.723V367.289C1069.78 371.744 1071.91 375.902 1076.55 377.441L1078.31 374.606C1074.37 373.283 1072.67 370.205 1072.67 367.289V365.723H1069.78ZM1064.08 364.67V367.505H1077.53V364.67H1064.08Z" fill="black"/>
<path d="M1227 367L1235.62 376L1227 385" stroke="black" stroke-width="5" stroke-linecap="round" stroke-linejoin="round"/>
<path d="M267.958 289V287.548C269.806 286.067 271.251 284.739 272.292 283.566C273.333 282.393 274.067 281.329 274.492 280.376C274.932 279.423 275.152 278.55 275.152 277.758C275.152 276.937 274.91 276.291 274.426 275.822C273.957 275.338 273.319 275.096 272.512 275.096C270.796 275.096 269.637 276.027 269.036 277.89L267.386 277.076C267.738 275.932 268.369 274.993 269.278 274.26C270.202 273.527 271.331 273.16 272.666 273.16C273.561 273.16 274.36 273.336 275.064 273.688C275.768 274.04 276.318 274.546 276.714 275.206C277.11 275.866 277.315 276.658 277.33 277.582C277.33 278.55 277.11 279.54 276.67 280.552C276.245 281.564 275.548 282.62 274.58 283.72C273.627 284.82 272.358 285.993 270.774 287.24H277.726V289H267.958ZM285.769 289.198C283.995 289.198 282.631 288.56 281.677 287.284C280.724 286.008 280.247 284.072 280.247 281.476C280.247 279.819 280.482 278.367 280.951 277.12C281.435 275.873 282.11 274.905 282.975 274.216C283.841 273.512 284.86 273.16 286.033 273.16C287.676 273.16 288.967 273.827 289.905 275.162C290.859 276.497 291.335 278.403 291.335 280.882C291.335 282.583 291.101 284.057 290.631 285.304C290.162 286.536 289.509 287.489 288.673 288.164C287.837 288.839 286.869 289.183 285.769 289.198ZM285.747 287.24C286.803 287.24 287.639 286.705 288.255 285.634C288.871 284.563 289.179 282.972 289.179 280.86C289.179 278.983 288.901 277.553 288.343 276.57C287.801 275.573 287.023 275.074 286.011 275.074C284.926 275.074 284.053 275.631 283.393 276.746C282.748 277.861 282.425 279.43 282.425 281.454C282.425 283.419 282.711 284.879 283.283 285.832C283.855 286.771 284.677 287.24 285.747 287.24ZM294.341 289V287.548C296.189 286.067 297.633 284.739 298.675 283.566C299.716 282.393 300.449 281.329 300.875 280.376C301.315 279.423 301.535 278.55 301.535 277.758C301.535 276.937 301.293 276.291 300.809 275.822C300.339 275.338 299.701 275.096 298.895 275.096C297.179 275.096 296.02 276.027 295.419 277.89L293.769 277.076C294.121 275.932 294.751 274.993 295.661 274.26C296.585 273.527 297.714 273.16 299.049 273.16C299.943 273.16 300.743 273.336 301.447 273.688C302.151 274.04 302.701 274.546 303.097 275.206C303.493 275.866 303.698 276.658 303.713 277.582C303.713 278.55 303.493 279.54 303.053 280.552C302.627 281.564 301.931 282.62 300.963 283.72C300.009 284.82 298.741 285.993 297.157 287.24H304.109V289H294.341ZM307.532 289V287.548C309.38 286.067 310.825 284.739 311.866 283.566C312.908 282.393 313.641 281.329 314.066 280.376C314.506 279.423 314.726 278.55 314.726 277.758C314.726 276.937 314.484 276.291 314 275.822C313.531 275.338 312.893 275.096 312.086 275.096C310.37 275.096 309.212 276.027 308.61 277.89L306.96 277.076C307.312 275.932 307.943 274.993 308.852 274.26C309.776 273.527 310.906 273.16 312.24 273.16C313.135 273.16 313.934 273.336 314.638 273.688C315.342 274.04 315.892 274.546 316.288 275.206C316.684 275.866 316.89 276.658 316.904 277.582C316.904 278.55 316.684 279.54 316.244 280.552C315.819 281.564 315.122 282.62 314.154 283.72C313.201 284.82 311.932 285.993 310.348 287.24H317.3V289H307.532ZM321.032 289.198C320.577 289.198 320.21 289.059 319.932 288.78C319.653 288.487 319.514 288.127 319.514 287.702C319.514 287.291 319.653 286.947 319.932 286.668C320.21 286.375 320.577 286.228 321.032 286.228C321.486 286.228 321.846 286.375 322.11 286.668C322.388 286.947 322.528 287.291 322.528 287.702C322.528 288.127 322.388 288.487 322.11 288.78C321.846 289.059 321.486 289.198 321.032 289.198ZM329.855 289.198C328.081 289.198 326.717 288.56 325.763 287.284C324.81 286.008 324.333 284.072 324.333 281.476C324.333 279.819 324.568 278.367 325.037 277.12C325.521 275.873 326.196 274.905 327.061 274.216C327.927 273.512 328.946 273.16 330.119 273.16C331.762 273.16 333.053 273.827 333.991 275.162C334.945 276.497 335.421 278.403 335.421 280.882C335.421 282.583 335.187 284.057 334.717 285.304C334.248 286.536 333.595 287.489 332.759 288.164C331.923 288.839 330.955 289.183 329.855 289.198ZM329.833 287.24C330.889 287.24 331.725 286.705 332.341 285.634C332.957 284.563 333.265 282.972 333.265 280.86C333.265 278.983 332.987 277.553 332.429 276.57C331.887 275.573 331.109 275.074 330.097 275.074C329.012 275.074 328.139 275.631 327.479 276.746C326.834 277.861 326.511 279.43 326.511 281.454C326.511 283.419 326.797 284.879 327.369 285.832C327.941 286.771 328.763 287.24 329.833 287.24ZM341.485 289H339.241L345.951 275.14H338.185V273.38H348.217V275.03L341.485 289ZM351.926 289.198C351.471 289.198 351.105 289.059 350.826 288.78C350.547 288.487 350.408 288.127 350.408 287.702C350.408 287.291 350.547 286.947 350.826 286.668C351.105 286.375 351.471 286.228 351.926 286.228C352.381 286.228 352.74 286.375 353.004 286.668C353.283 286.947 353.422 287.291 353.422 287.702C353.422 288.127 353.283 288.487 353.004 288.78C352.74 289.059 352.381 289.198 351.926 289.198ZM356.746 289V287.24H360.244V276.24L357.274 278.264L356.24 276.746L361.19 273.38H362.4V287.24H365.766V289H356.746ZM373.963 289.198C372.262 289.198 370.913 288.817 369.915 288.054C368.933 287.277 368.441 286.235 368.441 284.93C368.441 284.05 368.705 283.258 369.233 282.554C369.776 281.85 370.48 281.351 371.345 281.058C370.568 280.75 369.945 280.281 369.475 279.65C369.021 279.019 368.793 278.301 368.793 277.494C368.793 276.658 369.013 275.917 369.453 275.272C369.893 274.612 370.502 274.099 371.279 273.732C372.057 273.351 372.951 273.16 373.963 273.16C374.975 273.16 375.87 273.351 376.647 273.732C377.425 274.099 378.033 274.612 378.473 275.272C378.913 275.917 379.133 276.658 379.133 277.494C379.133 278.301 378.899 279.019 378.429 279.65C377.975 280.281 377.359 280.75 376.581 281.058C377.447 281.351 378.143 281.85 378.671 282.554C379.214 283.258 379.485 284.05 379.485 284.93C379.485 286.235 378.987 287.277 377.989 288.054C377.007 288.817 375.665 289.198 373.963 289.198ZM373.963 280.244C374.873 280.244 375.599 280.009 376.141 279.54C376.684 279.071 376.955 278.447 376.955 277.67C376.955 276.849 376.677 276.196 376.119 275.712C375.562 275.213 374.843 274.964 373.963 274.964C373.083 274.964 372.365 275.213 371.807 275.712C371.25 276.196 370.971 276.849 370.971 277.67C370.971 278.447 371.243 279.071 371.785 279.54C372.343 280.009 373.069 280.244 373.963 280.244ZM373.963 287.394C375.005 287.394 375.819 287.159 376.405 286.69C377.007 286.221 377.307 285.575 377.307 284.754C377.307 283.933 376.999 283.265 376.383 282.752C375.767 282.224 374.961 281.96 373.963 281.96C372.966 281.96 372.159 282.217 371.543 282.73C370.927 283.243 370.619 283.918 370.619 284.754C370.619 285.575 370.913 286.221 371.499 286.69C372.101 287.159 372.922 287.394 373.963 287.394Z" fill="#0028FF"/>
<path d="M706.521 368.4V343.02H709.815V368.4H706.521ZM711.789 363L719.97 343.83H722.94L730.797 363H727.233L725.505 358.626H717.135L715.353 363H711.789ZM718.35 355.683H724.371L721.401 348.15L718.35 355.683ZM736.047 363H732.618V343.83H739.368C741.852 343.83 743.751 344.334 745.065 345.342C746.379 346.35 747.036 347.808 747.036 349.716C747.036 351.642 746.325 353.154 744.903 354.252C743.481 355.332 741.411 355.872 738.693 355.872H736.047V363ZM739.233 346.692H736.047V352.983H738.882C740.502 352.983 741.681 352.722 742.419 352.2C743.157 351.678 743.526 350.868 743.526 349.77C743.526 348.672 743.175 347.889 742.473 347.421C741.789 346.935 740.709 346.692 739.233 346.692ZM763.372 343.83L762.94 346.908H757V363H753.49V346.908H747.334V343.83H763.372Z" fill="#222A41"/>
<rect x="243.5" y="516.5" width="1025" height="134" rx="24.5" fill="white" stroke="#D3D3D3"/>
<path d="M296.689 556.204V559.093H303.277V556.204H296.689ZM289.885 550.318V553.936C289.885 558.688 287.995 563.521 283.729 565.492L285.97 568.381C290.668 566.032 292.801 560.227 292.801 553.936V550.318H289.885ZM290.641 550.318V553.936C290.641 560.173 292.612 565.681 297.31 567.949L299.443 565.087C295.312 563.251 293.503 558.688 293.503 553.936V550.318H290.641ZM301.495 548.374V573.457H305.059V548.374H301.495ZM318.395 560.308V563.791H321.986V560.308H318.395ZM320.231 548.644C314.507 548.644 311.186 550.129 311.186 552.883C311.186 555.637 314.507 557.149 320.231 557.149C325.928 557.149 329.276 555.637 329.276 552.883C329.276 550.129 325.928 548.644 320.231 548.644ZM320.231 551.263C323.849 551.263 325.55 551.776 325.55 552.883C325.55 554.044 323.849 554.53 320.231 554.53C316.613 554.53 314.912 554.044 314.912 552.883C314.912 551.776 316.613 551.263 320.231 551.263ZM308.918 558.229V561.064H331.517V558.229H308.918ZM311.51 562.684V565.357H325.253V566.626H311.537V571.324H315.074V569.11H328.79V562.684H311.51ZM311.537 570.541V573.241H329.438V570.541H311.537ZM333.756 561.145V564.007H356.355V561.145H333.756ZM336.483 570.109V572.971H353.817V570.109H336.483ZM336.483 565.681V571.027H340.074V565.681H336.483ZM345.069 549.13C339.615 549.13 336.024 551.101 336.024 554.287C336.024 557.473 339.615 559.444 345.069 559.444C350.496 559.444 354.114 557.473 354.114 554.287C354.114 551.101 350.496 549.13 345.069 549.13ZM345.069 551.992C348.444 551.992 350.415 552.775 350.415 554.287C350.415 555.826 348.444 556.582 345.069 556.582C341.694 556.582 339.723 555.826 339.723 554.287C339.723 552.775 341.694 551.992 345.069 551.992ZM373.012 552.424V555.259H377.98V552.424H373.012ZM373.012 557.122V559.984H377.98V557.122H373.012ZM359.215 550.048V552.91H372.418V550.048H359.215ZM358.945 562.765C362.914 562.765 368.287 562.684 372.931 561.901L372.742 559.282C368.233 559.795 362.617 559.849 358.594 559.849L358.945 562.765ZM361.186 552.451V560.902H364.642V552.451H361.186ZM366.991 552.451V560.902H370.42V552.451H366.991ZM375.928 548.401V563.683H379.519V548.401H375.928ZM371.041 564.061C365.722 564.061 362.482 565.762 362.482 568.759C362.482 571.702 365.722 573.403 371.041 573.403C376.36 573.403 379.6 571.702 379.6 568.759C379.6 565.762 376.36 564.061 371.041 564.061ZM371.041 566.788C374.335 566.788 376.036 567.409 376.036 568.759C376.036 570.055 374.335 570.703 371.041 570.703C367.774 570.703 366.073 570.055 366.073 568.759C366.073 567.409 367.774 566.788 371.041 566.788ZM386.159 556.258V559.12H403.547V556.258H386.159ZM386.159 549.535V557.554H389.75V549.535H386.159ZM383.459 561.874V564.763H406.058V561.874H383.459ZM388.589 562.9V573.403H392.18V562.9H388.589ZM397.31 562.9V573.403H400.901V562.9H397.31ZM409.241 564.844V567.76H411.347C415.64 567.76 419.042 567.652 422.822 567.058L422.498 564.196C418.772 564.79 415.559 564.844 411.347 564.844H409.241ZM409.241 550.48V565.789H412.859V553.396H420.986V550.48H409.241ZM411.995 557.419V560.227H420.635V557.419H411.995ZM424.253 548.401V573.403H427.871V548.401H424.253ZM427.061 557.878V560.848H431.489V557.878H427.061ZM433.107 560.551V563.386H455.76V560.551H433.107ZM442.8 562.414V567.679H446.445V562.414H442.8ZM435.753 570.082V572.971H453.276V570.082H435.753ZM435.753 565.492V570.811H439.371V565.492H435.753ZM444.42 548.86C439.02 548.86 435.429 550.885 435.429 554.044C435.429 557.23 439.02 559.228 444.42 559.228C449.793 559.228 453.411 557.23 453.411 554.044C453.411 550.885 449.793 548.86 444.42 548.86ZM444.42 551.695C447.579 551.695 449.55 552.505 449.55 554.044C449.55 555.583 447.579 556.366 444.42 556.366C441.261 556.366 439.29 555.583 439.29 554.044C439.29 552.505 441.261 551.695 444.42 551.695ZM475.09 548.401V573.484H478.708V548.401H475.09ZM459.457 564.52V567.517H461.617C466.99 567.517 470.149 567.409 473.524 566.734L473.2 563.791C469.852 564.412 466.882 564.52 461.617 564.52H459.457ZM459.457 550.615V565.654H463.021V553.504H471.526V550.615H459.457ZM492.773 557.608V560.497H496.877V557.608H492.773ZM500.846 548.401V573.403H504.275V548.401H500.846ZM495.743 548.779V572.269H499.118V548.779H495.743ZM488.399 550.156C485.105 550.156 482.999 553.585 482.999 559.228C482.999 564.898 485.105 568.327 488.399 568.327C491.72 568.327 493.853 564.898 493.853 559.228C493.853 553.585 491.72 550.156 488.399 550.156ZM488.399 553.531C489.803 553.531 490.586 555.421 490.586 559.228C490.586 563.062 489.803 564.925 488.399 564.925C487.049 564.925 486.266 563.062 486.266 559.228C486.266 555.421 487.049 553.531 488.399 553.531ZM510.294 561.28V564.088H527.871V561.28H510.294ZM507.648 567.625V570.541H530.274V567.625H507.648ZM510.294 550.21V562.063H513.939V553.099H527.655V550.21H510.294ZM512.832 555.718V558.499H527.088V555.718H512.832ZM532.486 567.652V570.595H555.112V567.652H532.486ZM535.024 550.075V552.937H549.01V555.61H535.078V562.603H538.642V558.418H552.574V550.075H535.024ZM535.078 561.199V564.061H553.141V561.199H535.078ZM558.485 564.493V567.436H560.51C565.073 567.436 568.07 567.301 571.418 566.68L571.067 563.791C567.827 564.385 564.938 564.493 560.51 564.493H558.485ZM558.485 550.615V565.6H562.076V553.477H569.798V550.615H558.485ZM574.712 548.401V573.484H578.303V548.401H574.712ZM568.583 557.014V559.93H576.224V557.014H568.583ZM582.702 550.588V553.45H596.526V550.588H582.702ZM582.378 567.76C586.644 567.76 592.341 567.652 597.363 566.761L597.12 564.169C592.206 564.763 586.347 564.817 582.027 564.817L582.378 567.76ZM584.781 552.937V565.546H588.264V552.937H584.781ZM590.694 552.937V565.546H594.177V552.937H590.694ZM599.55 548.401V573.403H603.114V548.401H599.55ZM595.824 557.473V560.362H602.196V557.473H595.824ZM616.261 549.832V551.641C616.261 555.232 613.156 559.201 607.513 560.173L609.052 563.143C615.532 561.874 619.393 557.068 619.393 551.641V549.832H616.261ZM616.99 549.832V551.641C616.99 557.149 620.824 561.874 627.304 563.143L628.843 560.173C623.173 559.201 620.095 555.313 620.095 551.641V549.832H616.99ZM607 567.436V570.352H629.626V567.436H607ZM634.483 561.28V564.088H652.06V561.28H634.483ZM631.837 567.625V570.541H654.463V567.625H631.837ZM634.483 550.21V562.063H638.128V553.099H651.844V550.21H634.483ZM637.021 555.718V558.499H651.277V555.718H637.021ZM291.127 615.243C288.859 615.261 287.122 614.496 285.916 612.948C284.71 611.382 284.107 608.988 284.107 605.766C284.107 603.732 284.404 601.95 284.998 600.42C285.592 598.89 286.429 597.702 287.509 596.856C288.607 595.992 289.912 595.56 291.424 595.56C293.512 595.56 295.141 596.37 296.311 597.99C297.499 599.61 298.093 601.959 298.093 605.037C298.093 607.071 297.805 608.853 297.229 610.383C296.671 611.913 295.87 613.11 294.826 613.974C293.782 614.82 292.549 615.243 291.127 615.243ZM291.046 612.246C292.198 612.246 293.089 611.634 293.719 610.41C294.367 609.186 294.691 607.395 294.691 605.037C294.691 602.913 294.403 601.302 293.827 600.204C293.251 599.088 292.423 598.53 291.343 598.53C290.155 598.53 289.219 599.16 288.535 600.42C287.869 601.68 287.536 603.444 287.536 605.712C287.536 607.926 287.824 609.573 288.4 610.653C288.994 611.715 289.876 612.246 291.046 612.246ZM307.289 615.243C305.111 615.243 303.392 614.766 302.132 613.812C300.872 612.858 300.242 611.562 300.242 609.924C300.242 608.862 300.566 607.908 301.214 607.062C301.862 606.216 302.708 605.604 303.752 605.226C302.816 604.848 302.078 604.281 301.538 603.525C300.998 602.769 300.728 601.887 300.728 600.879C300.728 599.871 301.007 598.962 301.565 598.152C302.141 597.342 302.924 596.712 303.914 596.262C304.904 595.794 306.029 595.56 307.289 595.56C308.549 595.56 309.674 595.794 310.664 596.262C311.654 596.712 312.428 597.342 312.986 598.152C313.562 598.962 313.85 599.871 313.85 600.879C313.85 601.887 313.58 602.769 313.04 603.525C312.5 604.281 311.762 604.848 310.826 605.226C311.87 605.604 312.716 606.216 313.364 607.062C314.012 607.908 314.336 608.862 314.336 609.924C314.336 611.562 313.706 612.858 312.446 613.812C311.186 614.766 309.467 615.243 307.289 615.243ZM307.289 603.984C308.243 603.984 309.008 603.732 309.584 603.228C310.16 602.724 310.448 602.058 310.448 601.23C310.448 600.348 310.16 599.646 309.584 599.124C309.008 598.602 308.243 598.341 307.289 598.341C306.353 598.341 305.588 598.611 304.994 599.151C304.418 599.673 304.13 600.366 304.13 601.23C304.13 602.058 304.418 602.724 304.994 603.228C305.57 603.732 306.335 603.984 307.289 603.984ZM307.289 612.462C308.423 612.462 309.314 612.21 309.962 611.706C310.61 611.202 310.934 610.509 310.934 609.627C310.934 608.727 310.601 608.007 309.935 607.467C309.269 606.909 308.387 606.63 307.289 606.63C306.191 606.63 305.309 606.909 304.643 607.467C303.977 608.007 303.644 608.727 303.644 609.627C303.644 610.509 303.968 611.202 304.616 611.706C305.264 612.21 306.155 612.462 307.289 612.462ZM324.964 615V610.059H316.405V607.71L325.909 595.776H328.258V607.332H330.958V610.059H328.258V615H324.964ZM319.942 607.332H324.964V600.987L319.942 607.332ZM334.781 615.243C334.079 615.243 333.521 615.027 333.107 614.595C332.693 614.163 332.486 613.632 332.486 613.002C332.486 612.372 332.693 611.841 333.107 611.409C333.521 610.977 334.079 610.761 334.781 610.761C335.483 610.761 336.041 610.977 336.455 611.409C336.869 611.841 337.076 612.372 337.076 613.002C337.076 613.632 336.869 614.163 336.455 614.595C336.041 615.027 335.483 615.243 334.781 615.243ZM345.482 595.533C347.75 595.533 349.505 596.298 350.747 597.828C351.989 599.358 352.61 601.689 352.61 604.821C352.61 606.963 352.277 608.817 351.611 610.383C350.945 611.931 350.018 613.128 348.83 613.974C347.642 614.802 346.274 615.216 344.726 615.216C341.792 615.216 339.794 613.812 338.732 611.004L341.567 609.681C341.891 610.563 342.323 611.202 342.863 611.598C343.403 611.994 344.087 612.192 344.915 612.192C346.157 612.192 347.183 611.634 347.993 610.518C348.821 609.402 349.235 607.773 349.235 605.631C348.749 606.351 348.101 606.909 347.291 607.305C346.499 607.701 345.608 607.899 344.618 607.899C343.538 607.899 342.557 607.674 341.675 607.224C340.793 606.756 340.091 606.09 339.569 605.226C339.047 604.344 338.786 603.3 338.786 602.094C338.786 600.852 339.065 599.736 339.623 598.746C340.181 597.756 340.964 596.973 341.972 596.397C342.98 595.821 344.15 595.533 345.482 595.533ZM345.509 598.314C344.501 598.314 343.691 598.656 343.079 599.34C342.485 600.006 342.188 600.825 342.188 601.797C342.188 602.805 342.467 603.615 343.025 604.227C343.601 604.821 344.393 605.118 345.401 605.118C346.391 605.118 347.201 604.794 347.831 604.146C348.479 603.48 348.803 602.652 348.803 601.662C348.803 600.582 348.497 599.754 347.885 599.178C347.273 598.602 346.481 598.314 345.509 598.314ZM356.244 615V612.705C358.35 611.103 360.024 609.627 361.266 608.277C362.526 606.909 363.426 605.658 363.966 604.524C364.524 603.39 364.803 602.364 364.803 601.446C364.803 600.546 364.542 599.844 364.02 599.34C363.516 598.836 362.832 598.584 361.968 598.584C360.996 598.584 360.186 598.854 359.538 599.394C358.908 599.934 358.431 600.69 358.107 601.662L355.596 600.339C356.028 598.935 356.838 597.792 358.026 596.91C359.214 596.01 360.636 595.56 362.292 595.56C363.48 595.56 364.515 595.785 365.397 596.235C366.279 596.685 366.963 597.324 367.449 598.152C367.953 598.98 368.205 599.961 368.205 601.095C368.205 602.841 367.629 604.623 366.477 606.441C365.325 608.259 363.372 610.194 360.618 612.246H368.691V615H356.244ZM377.32 615.243C376.384 615.243 375.421 615.135 374.431 614.919C373.441 614.703 372.64 614.379 372.028 613.947L372.892 611.004C373.486 611.382 374.17 611.679 374.944 611.895C375.718 612.111 376.582 612.219 377.536 612.219C378.76 612.219 379.705 611.976 380.371 611.49C381.055 610.986 381.397 610.284 381.397 609.384C381.397 608.466 381.055 607.782 380.371 607.332C379.705 606.882 378.787 606.657 377.617 606.657H376.456V603.903H377.32C378.58 603.903 379.507 603.642 380.101 603.12C380.713 602.58 381.019 601.878 381.019 601.014C381.019 600.294 380.767 599.709 380.263 599.259C379.777 598.809 379.075 598.584 378.157 598.584C377.203 598.584 376.402 598.854 375.754 599.394C375.106 599.934 374.62 600.69 374.296 601.662L371.785 600.339C372.217 598.935 373.027 597.792 374.215 596.91C375.403 596.01 376.825 595.56 378.481 595.56C379.705 595.56 380.758 595.776 381.64 596.208C382.522 596.64 383.197 597.243 383.665 598.017C384.151 598.791 384.394 599.682 384.394 600.69C384.394 601.662 384.133 602.553 383.611 603.363C383.089 604.155 382.333 604.74 381.343 605.118C382.441 605.424 383.287 605.955 383.881 606.711C384.493 607.449 384.799 608.385 384.799 609.519C384.799 610.653 384.493 611.652 383.881 612.516C383.269 613.38 382.405 614.055 381.289 614.541C380.173 615.009 378.85 615.243 377.32 615.243ZM389.406 615V612.246H393.726V600.312L390.378 602.607L388.758 600.204L395.211 595.83H397.128V612.246H401.205V615H389.406ZM404.704 615V595.83H411.076C413.506 595.83 415.369 596.28 416.665 597.18C417.979 598.062 418.636 599.358 418.636 601.068C418.636 601.986 418.411 602.814 417.961 603.552C417.511 604.29 416.872 604.866 416.044 605.28C416.926 605.622 417.628 606.171 418.15 606.927C418.672 607.665 418.933 608.529 418.933 609.519C418.933 611.193 418.312 612.525 417.07 613.515C415.828 614.505 414.127 615 411.967 615H404.704ZM411.13 598.692H408.133V603.903H411.076C412.444 603.903 413.461 603.696 414.127 603.282C414.793 602.85 415.126 602.166 415.126 601.23C415.126 600.366 414.802 599.727 414.154 599.313C413.524 598.899 412.516 598.692 411.13 598.692ZM408.133 612.138H411.886C412.984 612.138 413.848 611.922 414.478 611.49C415.126 611.058 415.45 610.374 415.45 609.438C415.45 607.692 414.235 606.819 411.805 606.819H408.133V612.138ZM435.02 597.882V600.744H439.61V597.882H435.02ZM434.966 602.877V605.739H439.529V602.877H434.966ZM420.98 594.642V597.477H434.696V594.642H420.98ZM428 598.341C424.571 598.341 422.141 600.231 422.141 603.012C422.141 605.793 424.571 607.683 428 607.683C431.429 607.683 433.859 605.793 433.859 603.012C433.859 600.231 431.429 598.341 428 598.341ZM428 601.014C429.485 601.014 430.538 601.689 430.538 603.012C430.538 604.335 429.485 605.01 428 605.01C426.488 605.01 425.489 604.335 425.489 603.012C425.489 601.689 426.488 601.014 428 601.014ZM426.218 592.185V596.613H429.809V592.185H426.218ZM438.233 592.401V608.331H441.824V592.401H438.233ZM433.373 608.628C428.081 608.628 424.814 610.275 424.814 613.029C424.814 615.783 428.081 617.403 433.373 617.403C438.638 617.403 441.932 615.783 441.932 613.029C441.932 610.275 438.638 608.628 433.373 608.628ZM433.373 611.382C436.451 611.382 438.125 611.868 438.125 613.029C438.125 614.163 436.451 614.703 433.373 614.703C430.295 614.703 428.594 614.163 428.594 613.029C428.594 611.868 430.295 611.382 433.373 611.382Z" fill="#222A41"/>
<path d="M894.182 572.885V574.478C894.182 577.61 892.4 580.904 888.269 582.254L890.078 585.089C894.884 583.523 897.098 579.176 897.098 574.478V572.885H894.182ZM894.938 572.885V574.478C894.938 578.906 897.071 583.064 901.715 584.603L903.47 581.795C899.528 580.472 897.827 577.394 897.827 574.478V572.885H894.938ZM902.012 576.368V579.284H906.764V576.368H902.012ZM889.241 571.778V574.613H902.687V571.778H889.241ZM892.292 586.412V589.274H905.738V595.403H909.329V586.412H892.292ZM905.738 570.401V585.278H909.329V570.401H905.738ZM922.746 571.967V573.749C922.746 577.583 919.641 580.823 913.512 582.416L914.862 585.224C922.341 583.253 926.499 578.69 926.499 571.967H922.746ZM914.916 571.967V574.829H925.068V571.967H914.916ZM917.13 586.304V589.112H930.576V595.322H934.167V586.304H917.13ZM930.576 570.401V585.251H934.167V570.401H930.576ZM925.311 574.424V577.259H931.17V574.424H925.311ZM925.068 579.743V582.605H930.954V579.743H925.068Z" fill="#0028FF"/>
<path d="M1026.08 593V590.246H1030.4V578.312L1027.05 580.607L1025.43 578.204L1031.88 573.83H1033.8V590.246H1037.88V593H1026.08ZM1046.37 593.243C1045.44 593.243 1044.47 593.135 1043.48 592.919C1042.49 592.703 1041.69 592.37 1041.08 591.92L1041.95 588.95C1042.54 589.328 1043.22 589.634 1044 589.868C1044.77 590.102 1045.64 590.219 1046.59 590.219C1047.83 590.219 1048.79 589.949 1049.45 589.409C1050.12 588.851 1050.45 588.077 1050.45 587.087C1050.45 586.493 1050.3 585.962 1049.99 585.494C1049.69 585.026 1049.15 584.657 1048.37 584.387C1047.62 584.099 1046.55 583.937 1045.19 583.901L1042.24 583.793L1043 573.83H1052.88V576.584H1046.1L1045.75 581.066H1045.94C1048.61 581.156 1050.59 581.723 1051.88 582.767C1053.2 583.793 1053.85 585.215 1053.85 587.033C1053.85 588.275 1053.55 589.364 1052.93 590.3C1052.32 591.218 1051.45 591.938 1050.32 592.46C1049.2 592.982 1047.89 593.243 1046.37 593.243ZM1076.77 576.152V579.068H1081.52V576.152H1076.77ZM1080.58 570.401V584.846H1084.17V570.401H1080.58ZM1067.51 585.872V595.133H1084.17V585.872H1067.51ZM1080.66 588.68V592.298H1071.05V588.68H1080.66ZM1069.02 572.723V574.289C1069.02 577.448 1067.24 580.715 1063.11 582.065L1064.92 584.9C1069.72 583.334 1071.94 579.014 1071.94 574.289V572.723H1069.02ZM1069.78 572.723V574.289C1069.78 578.744 1071.91 582.902 1076.55 584.441L1078.31 581.606C1074.37 580.283 1072.67 577.205 1072.67 574.289V572.723H1069.78ZM1064.08 571.67V574.505H1077.53V571.67H1064.08Z" fill="black"/>
<path d="M1227 574L1235.62 583L1227 592" stroke="black" stroke-width="5" stroke-linecap="round" stroke-linejoin="round"/>
<path d="M706.521 575.4V550.02H709.815V575.4H706.521ZM711.789 570L719.97 550.83H722.94L730.797 570H727.233L725.505 565.626H717.135L715.353 570H711.789ZM718.35 562.683H724.371L721.401 555.15L718.35 562.683ZM736.047 570H732.618V550.83H739.368C741.852 550.83 743.751 551.334 745.065 552.342C746.379 553.35 747.036 554.808 747.036 556.716C747.036 558.642 746.325 560.154 744.903 561.252C743.481 562.332 741.411 562.872 738.693 562.872H736.047V570ZM739.233 553.692H736.047V559.983H738.882C740.502 559.983 741.681 559.722 742.419 559.2C743.157 558.678 743.526 557.868 743.526 556.77C743.526 555.672 743.175 554.889 742.473 554.421C741.789 553.935 740.709 553.692 739.233 553.692ZM763.372 550.83L762.94 553.908H757V570H753.49V553.908H747.334V550.83H763.372Z" fill="#222A41"/>
<path d="M267.958 496V494.548C269.806 493.067 271.251 491.739 272.292 490.566C273.333 489.393 274.067 488.329 274.492 487.376C274.932 486.423 275.152 485.55 275.152 484.758C275.152 483.937 274.91 483.291 274.426 482.822C273.957 482.338 273.319 482.096 272.512 482.096C270.796 482.096 269.637 483.027 269.036 484.89L267.386 484.076C267.738 482.932 268.369 481.993 269.278 481.26C270.202 480.527 271.331 480.16 272.666 480.16C273.561 480.16 274.36 480.336 275.064 480.688C275.768 481.04 276.318 481.546 276.714 482.206C277.11 482.866 277.315 483.658 277.33 484.582C277.33 485.55 277.11 486.54 276.67 487.552C276.245 488.564 275.548 489.62 274.58 490.72C273.627 491.82 272.358 492.993 270.774 494.24H277.726V496H267.958ZM285.769 496.198C283.995 496.198 282.631 495.56 281.677 494.284C280.724 493.008 280.247 491.072 280.247 488.476C280.247 486.819 280.482 485.367 280.951 484.12C281.435 482.873 282.11 481.905 282.975 481.216C283.841 480.512 284.86 480.16 286.033 480.16C287.676 480.16 288.967 480.827 289.905 482.162C290.859 483.497 291.335 485.403 291.335 487.882C291.335 489.583 291.101 491.057 290.631 492.304C290.162 493.536 289.509 494.489 288.673 495.164C287.837 495.839 286.869 496.183 285.769 496.198ZM285.747 494.24C286.803 494.24 287.639 493.705 288.255 492.634C288.871 491.563 289.179 489.972 289.179 487.86C289.179 485.983 288.901 484.553 288.343 483.57C287.801 482.573 287.023 482.074 286.011 482.074C284.926 482.074 284.053 482.631 283.393 483.746C282.748 484.861 282.425 486.43 282.425 488.454C282.425 490.419 282.711 491.879 283.283 492.832C283.855 493.771 284.677 494.24 285.747 494.24ZM294.341 496V494.548C296.189 493.067 297.633 491.739 298.675 490.566C299.716 489.393 300.449 488.329 300.875 487.376C301.315 486.423 301.535 485.55 301.535 484.758C301.535 483.937 301.293 483.291 300.809 482.822C300.339 482.338 299.701 482.096 298.895 482.096C297.179 482.096 296.02 483.027 295.419 484.89L293.769 484.076C294.121 482.932 294.751 481.993 295.661 481.26C296.585 480.527 297.714 480.16 299.049 480.16C299.943 480.16 300.743 480.336 301.447 480.688C302.151 481.04 302.701 481.546 303.097 482.206C303.493 482.866 303.698 483.658 303.713 484.582C303.713 485.55 303.493 486.54 303.053 487.552C302.627 488.564 301.931 489.62 300.963 490.72C300.009 491.82 298.741 492.993 297.157 494.24H304.109V496H294.341ZM307.532 496V494.548C309.38 493.067 310.825 491.739 311.866 490.566C312.908 489.393 313.641 488.329 314.066 487.376C314.506 486.423 314.726 485.55 314.726 484.758C314.726 483.937 314.484 483.291 314 482.822C313.531 482.338 312.893 482.096 312.086 482.096C310.37 482.096 309.212 483.027 308.61 484.89L306.96 484.076C307.312 482.932 307.943 481.993 308.852 481.26C309.776 480.527 310.906 480.16 312.24 480.16C313.135 480.16 313.934 480.336 314.638 480.688C315.342 481.04 315.892 481.546 316.288 482.206C316.684 482.866 316.89 483.658 316.904 484.582C316.904 485.55 316.684 486.54 316.244 487.552C315.819 488.564 315.122 489.62 314.154 490.72C313.201 491.82 311.932 492.993 310.348 494.24H317.3V496H307.532ZM321.032 496.198C320.577 496.198 320.21 496.059 319.932 495.78C319.653 495.487 319.514 495.127 319.514 494.702C319.514 494.291 319.653 493.947 319.932 493.668C320.21 493.375 320.577 493.228 321.032 493.228C321.486 493.228 321.846 493.375 322.11 493.668C322.388 493.947 322.528 494.291 322.528 494.702C322.528 495.127 322.388 495.487 322.11 495.78C321.846 496.059 321.486 496.198 321.032 496.198ZM329.855 496.198C328.081 496.198 326.717 495.56 325.763 494.284C324.81 493.008 324.333 491.072 324.333 488.476C324.333 486.819 324.568 485.367 325.037 484.12C325.521 482.873 326.196 481.905 327.061 481.216C327.927 480.512 328.946 480.16 330.119 480.16C331.762 480.16 333.053 480.827 333.991 482.162C334.945 483.497 335.421 485.403 335.421 487.882C335.421 489.583 335.187 491.057 334.717 492.304C334.248 493.536 333.595 494.489 332.759 495.164C331.923 495.839 330.955 496.183 329.855 496.198ZM329.833 494.24C330.889 494.24 331.725 493.705 332.341 492.634C332.957 491.563 333.265 489.972 333.265 487.86C333.265 485.983 332.987 484.553 332.429 483.57C331.887 482.573 331.109 482.074 330.097 482.074C329.012 482.074 328.139 482.631 327.479 483.746C326.834 484.861 326.511 486.43 326.511 488.454C326.511 490.419 326.797 491.879 327.369 492.832C327.941 493.771 328.763 494.24 329.833 494.24ZM344.631 496V491.666H337.459V490.17L345.225 480.336H346.721V489.906H348.921V491.666H346.721V496H344.631ZM339.747 489.906H344.631V483.724L339.747 489.906ZM351.926 496.198C351.471 496.198 351.105 496.059 350.826 495.78C350.547 495.487 350.408 495.127 350.408 494.702C350.408 494.291 350.547 493.947 350.826 493.668C351.105 493.375 351.471 493.228 351.926 493.228C352.381 493.228 352.74 493.375 353.004 493.668C353.283 493.947 353.422 494.291 353.422 494.702C353.422 495.127 353.283 495.487 353.004 495.78C352.74 496.059 352.381 496.198 351.926 496.198ZM356.13 496V494.548C357.978 493.067 359.423 491.739 360.464 490.566C361.505 489.393 362.239 488.329 362.664 487.376C363.104 486.423 363.324 485.55 363.324 484.758C363.324 483.937 363.082 483.291 362.598 482.822C362.129 482.338 361.491 482.096 360.684 482.096C358.968 482.096 357.809 483.027 357.208 484.89L355.558 484.076C355.91 482.932 356.541 481.993 357.45 481.26C358.374 480.527 359.503 480.16 360.838 480.16C361.733 480.16 362.532 480.336 363.236 480.688C363.94 481.04 364.49 481.546 364.886 482.206C365.282 482.866 365.487 483.658 365.502 484.582C365.502 485.55 365.282 486.54 364.842 487.552C364.417 488.564 363.72 489.62 362.752 490.72C361.799 491.82 360.53 492.993 358.946 494.24H365.898V496H356.13ZM372.379 496H370.135L376.845 482.14H369.079V480.38H379.111V482.03L372.379 496Z" fill="#0028FF"/>
<rect x="243.5" y="723.5" width="1025" height="134" rx="24.5" fill="white" stroke="#D3D3D3"/>
<path d="M301.252 755.374V768.874H304.87V755.374H301.252ZM288.184 769.873V772.465H301.306V773.761H288.211V778.162H291.748V776.218H304.87V769.873H288.184ZM288.211 777.595V780.241H305.491V777.595H288.211ZM284.377 757.237V759.91H299.416V757.237H284.377ZM291.91 760.558C288.13 760.558 285.673 762.151 285.673 764.662C285.673 767.173 288.13 768.712 291.91 768.712C295.717 768.712 298.174 767.173 298.174 764.662C298.174 762.151 295.717 760.558 291.91 760.558ZM291.91 763.069C293.638 763.069 294.718 763.609 294.718 764.662C294.718 765.661 293.638 766.201 291.91 766.201C290.182 766.201 289.102 765.661 289.102 764.662C289.102 763.609 290.182 763.069 291.91 763.069ZM290.101 755.185V758.533H293.719V755.185H290.101ZM318.206 756.832V758.641C318.206 762.232 315.101 766.201 309.458 767.173L310.997 770.143C317.477 768.874 321.338 764.068 321.338 758.641V756.832H318.206ZM318.935 756.832V758.641C318.935 764.149 322.769 768.874 329.249 770.143L330.788 767.173C325.118 766.201 322.04 762.313 322.04 758.641V756.832H318.935ZM308.945 774.436V777.352H331.571V774.436H308.945ZM343.935 764.5V767.389H348.363V764.5H343.935ZM334.485 772.033V774.922H336.186C339.777 774.922 342.18 774.868 344.988 774.382L344.691 771.52C341.964 771.979 339.696 772.033 336.186 772.033H334.485ZM334.485 758.155V773.086H337.887V760.99H343.773V758.155H334.485ZM336.915 764.878V767.632H342.828V764.878H336.915ZM351.819 755.401V780.403H355.248V755.401H351.819ZM346.662 755.833V779.296H350.01V755.833H346.662ZM375.739 755.374V780.457H379.357V755.374H375.739ZM365.884 757.129C362.104 757.129 359.323 760.585 359.323 766.039C359.323 771.547 362.104 775.003 365.884 775.003C369.664 775.003 372.445 771.547 372.445 766.039C372.445 760.585 369.664 757.129 365.884 757.129ZM365.884 760.396C367.747 760.396 368.989 762.367 368.989 766.039C368.989 769.765 367.747 771.763 365.884 771.763C364.021 771.763 362.752 769.765 362.752 766.039C362.752 762.367 364.021 760.396 365.884 760.396ZM386.105 768.28V771.088H403.682V768.28H386.105ZM383.459 774.625V777.541H406.085V774.625H383.459ZM386.105 757.21V769.063H389.75V760.099H403.466V757.21H386.105ZM388.643 762.718V765.499H402.899V762.718H388.643ZM409.376 757.21V760.099H420.068V757.21H409.376ZM412.454 763.042V769.306H416.018V763.042H412.454ZM418.664 757.21V758.776C418.664 760.504 418.664 762.664 418.124 765.742L421.607 766.12C422.201 763.015 422.201 760.531 422.201 758.776V757.21H418.664ZM424.631 755.401V774.112H428.249V755.401H424.631ZM426.818 763.015V765.958H431.219V763.015H426.818ZM411.563 777.109V779.971H429.032V777.109H411.563ZM411.563 772.438V778H415.154V772.438H411.563ZM408.242 770.764C412.535 770.764 418.34 770.656 423.497 769.684L423.281 767.146C418.259 767.848 412.238 767.929 407.918 767.929L408.242 770.764ZM451.683 758.641V761.584H456.003V758.641H451.683ZM451.683 764.068V767.011H456.003V764.068H451.683ZM449.199 755.401V770.143H452.79V755.401H449.199ZM436.104 771.169V774.031H449.199V780.403H452.79V771.169H436.104ZM440.073 756.751C436.212 756.751 433.269 759.316 433.269 762.88C433.269 766.444 436.212 768.982 440.073 768.982C443.934 768.982 446.877 766.444 446.877 762.88C446.877 759.316 443.934 756.751 440.073 756.751ZM440.073 759.802C441.963 759.802 443.367 760.909 443.367 762.88C443.367 764.851 441.963 765.985 440.073 765.985C438.183 765.985 436.779 764.851 436.779 762.88C436.779 760.909 438.183 759.802 440.073 759.802ZM460.672 763.258V766.12H478.06V763.258H460.672ZM460.672 756.535V764.554H464.263V756.535H460.672ZM457.972 768.874V771.763H480.571V768.874H457.972ZM463.102 769.9V780.403H466.693V769.9H463.102ZM471.823 769.9V780.403H475.414V769.9H471.823ZM482.81 774.679V777.622H505.436V774.679H482.81ZM492.26 769.036V776.002H495.851V769.036H492.26ZM484.538 757.453V760.315H503.573V757.453H484.538ZM484.646 767.416V770.224H503.492V767.416H484.646ZM487.94 759.829V767.74H491.531V759.829H487.94ZM496.607 759.829V767.74H500.171V759.829H496.607ZM508.296 771.628V774.571H510.078C513.21 774.571 515.964 774.49 519.177 773.896L518.88 771.007C515.775 771.547 513.102 771.628 510.078 771.628H508.296ZM508.269 757.858V760.693H513.642V764.608H508.296V772.762H511.779V767.416H517.098V757.858H508.269ZM525.684 755.401V780.403H529.086V755.401H525.684ZM518.124 763.906V766.849H522.012V763.906H518.124ZM520.608 755.86V779.215H523.929V755.86H520.608ZM291.127 822.243C288.859 822.261 287.122 821.496 285.916 819.948C284.71 818.382 284.107 815.988 284.107 812.766C284.107 810.732 284.404 808.95 284.998 807.42C285.592 805.89 286.429 804.702 287.509 803.856C288.607 802.992 289.912 802.56 291.424 802.56C293.512 802.56 295.141 803.37 296.311 804.99C297.499 806.61 298.093 808.959 298.093 812.037C298.093 814.071 297.805 815.853 297.229 817.383C296.671 818.913 295.87 820.11 294.826 820.974C293.782 821.82 292.549 822.243 291.127 822.243ZM291.046 819.246C292.198 819.246 293.089 818.634 293.719 817.41C294.367 816.186 294.691 814.395 294.691 812.037C294.691 809.913 294.403 808.302 293.827 807.204C293.251 806.088 292.423 805.53 291.343 805.53C290.155 805.53 289.219 806.16 288.535 807.42C287.869 808.68 287.536 810.444 287.536 812.712C287.536 814.926 287.824 816.573 288.4 817.653C288.994 818.715 289.876 819.246 291.046 819.246ZM307.289 822.243C305.111 822.243 303.392 821.766 302.132 820.812C300.872 819.858 300.242 818.562 300.242 816.924C300.242 815.862 300.566 814.908 301.214 814.062C301.862 813.216 302.708 812.604 303.752 812.226C302.816 811.848 302.078 811.281 301.538 810.525C300.998 809.769 300.728 808.887 300.728 807.879C300.728 806.871 301.007 805.962 301.565 805.152C302.141 804.342 302.924 803.712 303.914 803.262C304.904 802.794 306.029 802.56 307.289 802.56C308.549 802.56 309.674 802.794 310.664 803.262C311.654 803.712 312.428 804.342 312.986 805.152C313.562 805.962 313.85 806.871 313.85 807.879C313.85 808.887 313.58 809.769 313.04 810.525C312.5 811.281 311.762 811.848 310.826 812.226C311.87 812.604 312.716 813.216 313.364 814.062C314.012 814.908 314.336 815.862 314.336 816.924C314.336 818.562 313.706 819.858 312.446 820.812C311.186 821.766 309.467 822.243 307.289 822.243ZM307.289 810.984C308.243 810.984 309.008 810.732 309.584 810.228C310.16 809.724 310.448 809.058 310.448 808.23C310.448 807.348 310.16 806.646 309.584 806.124C309.008 805.602 308.243 805.341 307.289 805.341C306.353 805.341 305.588 805.611 304.994 806.151C304.418 806.673 304.13 807.366 304.13 808.23C304.13 809.058 304.418 809.724 304.994 810.228C305.57 810.732 306.335 810.984 307.289 810.984ZM307.289 819.462C308.423 819.462 309.314 819.21 309.962 818.706C310.61 818.202 310.934 817.509 310.934 816.627C310.934 815.727 310.601 815.007 309.935 814.467C309.269 813.909 308.387 813.63 307.289 813.63C306.191 813.63 305.309 813.909 304.643 814.467C303.977 815.007 303.644 815.727 303.644 816.627C303.644 817.509 303.968 818.202 304.616 818.706C305.264 819.21 306.155 819.462 307.289 819.462ZM324.964 822V817.059H316.405V814.71L325.909 802.776H328.258V814.332H330.958V817.059H328.258V822H324.964ZM319.942 814.332H324.964V807.987L319.942 814.332ZM334.781 822.243C334.079 822.243 333.521 822.027 333.107 821.595C332.693 821.163 332.486 820.632 332.486 820.002C332.486 819.372 332.693 818.841 333.107 818.409C333.521 817.977 334.079 817.761 334.781 817.761C335.483 817.761 336.041 817.977 336.455 818.409C336.869 818.841 337.076 819.372 337.076 820.002C337.076 820.632 336.869 821.163 336.455 821.595C336.041 822.027 335.483 822.243 334.781 822.243ZM345.482 802.533C347.75 802.533 349.505 803.298 350.747 804.828C351.989 806.358 352.61 808.689 352.61 811.821C352.61 813.963 352.277 815.817 351.611 817.383C350.945 818.931 350.018 820.128 348.83 820.974C347.642 821.802 346.274 822.216 344.726 822.216C341.792 822.216 339.794 820.812 338.732 818.004L341.567 816.681C341.891 817.563 342.323 818.202 342.863 818.598C343.403 818.994 344.087 819.192 344.915 819.192C346.157 819.192 347.183 818.634 347.993 817.518C348.821 816.402 349.235 814.773 349.235 812.631C348.749 813.351 348.101 813.909 347.291 814.305C346.499 814.701 345.608 814.899 344.618 814.899C343.538 814.899 342.557 814.674 341.675 814.224C340.793 813.756 340.091 813.09 339.569 812.226C339.047 811.344 338.786 810.3 338.786 809.094C338.786 807.852 339.065 806.736 339.623 805.746C340.181 804.756 340.964 803.973 341.972 803.397C342.98 802.821 344.15 802.533 345.482 802.533ZM345.509 805.314C344.501 805.314 343.691 805.656 343.079 806.34C342.485 807.006 342.188 807.825 342.188 808.797C342.188 809.805 342.467 810.615 343.025 811.227C343.601 811.821 344.393 812.118 345.401 812.118C346.391 812.118 347.201 811.794 347.831 811.146C348.479 810.48 348.803 809.652 348.803 808.662C348.803 807.582 348.497 806.754 347.885 806.178C347.273 805.602 346.481 805.314 345.509 805.314ZM363.75 822V817.059H355.191V814.71L364.695 802.776H367.044V814.332H369.744V817.059H367.044V822H363.75ZM358.728 814.332H363.75V807.987L358.728 814.332ZM372.433 822V819.705C374.539 818.103 376.213 816.627 377.455 815.277C378.715 813.909 379.615 812.658 380.155 811.524C380.713 810.39 380.992 809.364 380.992 808.446C380.992 807.546 380.731 806.844 380.209 806.34C379.705 805.836 379.021 805.584 378.157 805.584C377.185 805.584 376.375 805.854 375.727 806.394C375.097 806.934 374.62 807.69 374.296 808.662L371.785 807.339C372.217 805.935 373.027 804.792 374.215 803.91C375.403 803.01 376.825 802.56 378.481 802.56C379.669 802.56 380.704 802.785 381.586 803.235C382.468 803.685 383.152 804.324 383.638 805.152C384.142 805.98 384.394 806.961 384.394 808.095C384.394 809.841 383.818 811.623 382.666 813.441C381.514 815.259 379.561 817.194 376.807 819.246H384.88V822H372.433ZM393.51 822.243C392.574 822.243 391.611 822.135 390.621 821.919C389.631 821.703 388.83 821.379 388.218 820.947L389.082 818.004C389.676 818.382 390.36 818.679 391.134 818.895C391.908 819.111 392.772 819.219 393.726 819.219C394.95 819.219 395.895 818.976 396.561 818.49C397.245 817.986 397.587 817.284 397.587 816.384C397.587 815.466 397.245 814.782 396.561 814.332C395.895 813.882 394.977 813.657 393.807 813.657H392.646V810.903H393.51C394.77 810.903 395.697 810.642 396.291 810.12C396.903 809.58 397.209 808.878 397.209 808.014C397.209 807.294 396.957 806.709 396.453 806.259C395.967 805.809 395.265 805.584 394.347 805.584C393.393 805.584 392.592 805.854 391.944 806.394C391.296 806.934 390.81 807.69 390.486 808.662L387.975 807.339C388.407 805.935 389.217 804.792 390.405 803.91C391.593 803.01 393.015 802.56 394.671 802.56C395.895 802.56 396.948 802.776 397.83 803.208C398.712 803.64 399.387 804.243 399.855 805.017C400.341 805.791 400.584 806.682 400.584 807.69C400.584 808.662 400.323 809.553 399.801 810.363C399.279 811.155 398.523 811.74 397.533 812.118C398.631 812.424 399.477 812.955 400.071 813.711C400.683 814.449 400.989 815.385 400.989 816.519C400.989 817.653 400.683 818.652 400.071 819.516C399.459 820.38 398.595 821.055 397.479 821.541C396.363 822.009 395.04 822.243 393.51 822.243ZM404.704 822V802.83H410.401C414.127 802.83 416.944 803.631 418.852 805.233C420.76 806.835 421.714 809.202 421.714 812.334C421.714 814.278 421.291 815.979 420.445 817.437C419.599 818.877 418.402 820.002 416.854 820.812C415.306 821.604 413.488 822 411.4 822H404.704ZM408.214 818.895H411.265C413.515 818.895 415.225 818.355 416.395 817.275C417.565 816.177 418.15 814.575 418.15 812.469C418.15 810.273 417.547 808.635 416.341 807.555C415.153 806.475 413.326 805.935 410.86 805.935H408.214V818.895ZM438.132 804.882V807.744H442.722V804.882H438.132ZM438.078 809.877V812.739H442.641V809.877H438.078ZM424.092 801.642V804.477H437.808V801.642H424.092ZM431.112 805.341C427.683 805.341 425.253 807.231 425.253 810.012C425.253 812.793 427.683 814.683 431.112 814.683C434.541 814.683 436.971 812.793 436.971 810.012C436.971 807.231 434.541 805.341 431.112 805.341ZM431.112 808.014C432.597 808.014 433.65 808.689 433.65 810.012C433.65 811.335 432.597 812.01 431.112 812.01C429.6 812.01 428.601 811.335 428.601 810.012C428.601 808.689 429.6 808.014 431.112 808.014ZM429.33 799.185V803.613H432.921V799.185H429.33ZM441.345 799.401V815.331H444.936V799.401H441.345ZM436.485 815.628C431.193 815.628 427.926 817.275 427.926 820.029C427.926 822.783 431.193 824.403 436.485 824.403C441.75 824.403 445.044 822.783 445.044 820.029C445.044 817.275 441.75 815.628 436.485 815.628ZM436.485 818.382C439.563 818.382 441.237 818.868 441.237 820.029C441.237 821.163 439.563 821.703 436.485 821.703C433.407 821.703 431.706 821.163 431.706 820.029C431.706 818.868 433.407 818.382 436.485 818.382Z" fill="#222A41"/>
<path d="M863.566 791.792V794.627H886.219V791.792H863.566ZM873.016 793.223V802.403H876.58V793.223H873.016ZM866.158 778.346V789.416H883.546V778.346H879.982V781.181H869.722V778.346H866.158ZM869.722 783.989H879.982V786.554H869.722V783.989ZM894.182 779.885V781.478C894.182 784.61 892.4 787.904 888.269 789.254L890.078 792.089C894.884 790.523 897.098 786.176 897.098 781.478V779.885H894.182ZM894.938 779.885V781.478C894.938 785.906 897.071 790.064 901.715 791.603L903.47 788.795C899.528 787.472 897.827 784.394 897.827 781.478V779.885H894.938ZM902.012 783.368V786.284H906.764V783.368H902.012ZM889.241 778.778V781.613H902.687V778.778H889.241ZM892.292 793.412V796.274H905.738V802.403H909.329V793.412H892.292ZM905.738 777.401V792.278H909.329V777.401H905.738ZM922.746 778.967V780.749C922.746 784.583 919.641 787.823 913.512 789.416L914.862 792.224C922.341 790.253 926.499 785.69 926.499 778.967H922.746ZM914.916 778.967V781.829H925.068V778.967H914.916ZM917.13 793.304V796.112H930.576V802.322H934.167V793.304H917.13ZM930.576 777.401V792.251H934.167V777.401H930.576ZM925.311 781.424V784.259H931.17V781.424H925.311ZM925.068 786.743V789.605H930.954V786.743H925.068Z" fill="#FF0000"/>
<path d="M1046.37 800.243C1045.44 800.243 1044.47 800.135 1043.48 799.919C1042.49 799.703 1041.69 799.379 1041.08 798.947L1041.95 796.004C1042.54 796.382 1043.22 796.679 1044 796.895C1044.77 797.111 1045.64 797.219 1046.59 797.219C1047.81 797.219 1048.76 796.976 1049.42 796.49C1050.11 795.986 1050.45 795.284 1050.45 794.384C1050.45 793.466 1050.11 792.782 1049.42 792.332C1048.76 791.882 1047.84 791.657 1046.67 791.657H1045.51V788.903H1046.37C1047.63 788.903 1048.56 788.642 1049.15 788.12C1049.77 787.58 1050.07 786.878 1050.07 786.014C1050.07 785.294 1049.82 784.709 1049.32 784.259C1048.83 783.809 1048.13 783.584 1047.21 783.584C1046.26 783.584 1045.46 783.854 1044.81 784.394C1044.16 784.934 1043.67 785.69 1043.35 786.662L1040.84 785.339C1041.27 783.935 1042.08 782.792 1043.27 781.91C1044.46 781.01 1045.88 780.56 1047.53 780.56C1048.76 780.56 1049.81 780.776 1050.69 781.208C1051.58 781.64 1052.25 782.243 1052.72 783.017C1053.2 783.791 1053.45 784.682 1053.45 785.69C1053.45 786.662 1053.19 787.553 1052.66 788.363C1052.14 789.155 1051.39 789.74 1050.4 790.118C1051.49 790.424 1052.34 790.955 1052.93 791.711C1053.55 792.449 1053.85 793.385 1053.85 794.519C1053.85 795.653 1053.55 796.652 1052.93 797.516C1052.32 798.38 1051.46 799.055 1050.34 799.541C1049.23 800.009 1047.9 800.243 1046.37 800.243ZM1076.77 783.152V786.068H1081.52V783.152H1076.77ZM1080.58 777.401V791.846H1084.17V777.401H1080.58ZM1067.51 792.872V802.133H1084.17V792.872H1067.51ZM1080.66 795.68V799.298H1071.05V795.68H1080.66ZM1069.02 779.723V781.289C1069.02 784.448 1067.24 787.715 1063.11 789.065L1064.92 791.9C1069.72 790.334 1071.94 786.014 1071.94 781.289V779.723H1069.02ZM1069.78 779.723V781.289C1069.78 785.744 1071.91 789.902 1076.55 791.441L1078.31 788.606C1074.37 787.283 1072.67 784.205 1072.67 781.289V779.723H1069.78ZM1064.08 778.67V781.505H1077.53V778.67H1064.08Z" fill="black"/>
<path d="M1227 781L1235.62 790L1227 799" stroke="black" stroke-width="5" stroke-linecap="round" stroke-linejoin="round"/>
<path d="M706.521 782.4V757.02H709.815V782.4H706.521ZM711.789 777L719.97 757.83H722.94L730.797 777H727.233L725.505 772.626H717.135L715.353 777H711.789ZM718.35 769.683H724.371L721.401 762.15L718.35 769.683ZM736.047 777H732.618V757.83H739.368C741.852 757.83 743.751 758.334 745.065 759.342C746.379 760.35 747.036 761.808 747.036 763.716C747.036 765.642 746.325 767.154 744.903 768.252C743.481 769.332 741.411 769.872 738.693 769.872H736.047V777ZM739.233 760.692H736.047V766.983H738.882C740.502 766.983 741.681 766.722 742.419 766.2C743.157 765.678 743.526 764.868 743.526 763.77C743.526 762.672 743.175 761.889 742.473 761.421C741.789 760.935 740.709 760.692 739.233 760.692ZM763.372 757.83L762.94 760.908H757V777H753.49V760.908H747.334V757.83H763.372Z" fill="#222A41"/>
<path d="M267.958 703V701.548C269.806 700.067 271.251 698.739 272.292 697.566C273.333 696.393 274.067 695.329 274.492 694.376C274.932 693.423 275.152 692.55 275.152 691.758C275.152 690.937 274.91 690.291 274.426 689.822C273.957 689.338 273.319 689.096 272.512 689.096C270.796 689.096 269.637 690.027 269.036 691.89L267.386 691.076C267.738 689.932 268.369 688.993 269.278 688.26C270.202 687.527 271.331 687.16 272.666 687.16C273.561 687.16 274.36 687.336 275.064 687.688C275.768 688.04 276.318 688.546 276.714 689.206C277.11 689.866 277.315 690.658 277.33 691.582C277.33 692.55 277.11 693.54 276.67 694.552C276.245 695.564 275.548 696.62 274.58 697.72C273.627 698.82 272.358 699.993 270.774 701.24H277.726V703H267.958ZM285.769 703.198C283.995 703.198 282.631 702.56 281.677 701.284C280.724 700.008 280.247 698.072 280.247 695.476C280.247 693.819 280.482 692.367 280.951 691.12C281.435 689.873 282.11 688.905 282.975 688.216C283.841 687.512 284.86 687.16 286.033 687.16C287.676 687.16 288.967 687.827 289.905 689.162C290.859 690.497 291.335 692.403 291.335 694.882C291.335 696.583 291.101 698.057 290.631 699.304C290.162 700.536 289.509 701.489 288.673 702.164C287.837 702.839 286.869 703.183 285.769 703.198ZM285.747 701.24C286.803 701.24 287.639 700.705 288.255 699.634C288.871 698.563 289.179 696.972 289.179 694.86C289.179 692.983 288.901 691.553 288.343 690.57C287.801 689.573 287.023 689.074 286.011 689.074C284.926 689.074 284.053 689.631 283.393 690.746C282.748 691.861 282.425 693.43 282.425 695.454C282.425 697.419 282.711 698.879 283.283 699.832C283.855 700.771 284.677 701.24 285.747 701.24ZM294.341 703V701.548C296.189 700.067 297.633 698.739 298.675 697.566C299.716 696.393 300.449 695.329 300.875 694.376C301.315 693.423 301.535 692.55 301.535 691.758C301.535 690.937 301.293 690.291 300.809 689.822C300.339 689.338 299.701 689.096 298.895 689.096C297.179 689.096 296.02 690.027 295.419 691.89L293.769 691.076C294.121 689.932 294.751 688.993 295.661 688.26C296.585 687.527 297.714 687.16 299.049 687.16C299.943 687.16 300.743 687.336 301.447 687.688C302.151 688.04 302.701 688.546 303.097 689.206C303.493 689.866 303.698 690.658 303.713 691.582C303.713 692.55 303.493 693.54 303.053 694.552C302.627 695.564 301.931 696.62 300.963 697.72C300.009 698.82 298.741 699.993 297.157 701.24H304.109V703H294.341ZM308.148 703V701.24H311.646V690.24L308.676 692.264L307.642 690.746L312.592 687.38H313.802V701.24H317.168V703H308.148ZM321.032 703.198C320.577 703.198 320.21 703.059 319.932 702.78C319.653 702.487 319.514 702.127 319.514 701.702C319.514 701.291 319.653 700.947 319.932 700.668C320.21 700.375 320.577 700.228 321.032 700.228C321.486 700.228 321.846 700.375 322.11 700.668C322.388 700.947 322.528 701.291 322.528 701.702C322.528 702.127 322.388 702.487 322.11 702.78C321.846 703.059 321.486 703.198 321.032 703.198ZM325.851 703V701.24H329.349V690.24L326.379 692.264L325.345 690.746L330.295 687.38H331.505V701.24H334.871V703H325.851ZM343.047 703.198C341.272 703.198 339.908 702.56 338.955 701.284C338.001 700.008 337.525 698.072 337.525 695.476C337.525 693.819 337.759 692.367 338.229 691.12C338.713 689.873 339.387 688.905 340.253 688.216C341.118 687.512 342.137 687.16 343.311 687.16C344.953 687.16 346.244 687.827 347.183 689.162C348.136 690.497 348.613 692.403 348.613 694.882C348.613 696.583 348.378 698.057 347.909 699.304C347.439 700.536 346.787 701.489 345.951 702.164C345.115 702.839 344.147 703.183 343.047 703.198ZM343.025 701.24C344.081 701.24 344.917 700.705 345.533 699.634C346.149 698.563 346.457 696.972 346.457 694.86C346.457 692.983 346.178 691.553 345.621 690.57C345.078 689.573 344.301 689.074 343.289 689.074C342.203 689.074 341.331 689.631 340.671 690.746C340.025 691.861 339.703 693.43 339.703 695.454C339.703 697.419 339.989 698.879 340.561 699.832C341.133 700.771 341.954 701.24 343.025 701.24ZM351.926 703.198C351.471 703.198 351.105 703.059 350.826 702.78C350.547 702.487 350.408 702.127 350.408 701.702C350.408 701.291 350.547 700.947 350.826 700.668C351.105 700.375 351.471 700.228 351.926 700.228C352.381 700.228 352.74 700.375 353.004 700.668C353.283 700.947 353.422 701.291 353.422 701.702C353.422 702.127 353.283 702.487 353.004 702.78C352.74 703.059 352.381 703.198 351.926 703.198ZM356.746 703V701.24H360.244V690.24L357.274 692.264L356.24 690.746L361.19 687.38H362.4V701.24H365.766V703H356.746ZM369.937 703V701.24H373.435V690.24L370.465 692.264L369.431 690.746L374.381 687.38H375.591V701.24H378.957V703H369.937Z" fill="#0028FF"/>
</g>
</g>
<defs>
<clipPath id="clip0_463_5635">
<rect width="1512" height="982" fill="white"/>
</clipPath>
<clipPath id="clip1_463_5635">
<rect width="1055" height="546" fill="white" transform="translate(234 255)"/>
</clipPath>
</defs>
</svg>
